<?xml version="1.0" encoding="utf-8"?>
<svg xmlns="http://www.w3.org/2000/svg" xmlns:xlink="http://www.w3.org/1999/xlink" width="800" height="480" viewBox="0 0 3200 1920">
<defs>
  <clipPath id="clip2700">
    <rect x="0" y="0" width="3200" height="1920"/>
  </clipPath>
</defs>
<path clip-path="url(#clip2700)" d="
M0 1920 L3200 1920 L3200 0 L0 0  Z
  " fill="#ffffff" fill-rule="evenodd" fill-opacity="1"/>
<defs>
  <clipPath id="clip2701">
    <rect x="640" y="0" width="2241" height="1920"/>
  </clipPath>
</defs>
<path clip-path="url(#clip2700)" d="
M167.279 1807.47 L3152.76 1807.47 L3152.76 121.675 L167.279 121.675  Z
  " fill="#ffffff" fill-rule="evenodd" fill-opacity="1"/>
<defs>
  <clipPath id="clip2702">
    <rect x="167" y="121" width="2986" height="1687"/>
  </clipPath>
</defs>
<polyline clip-path="url(#clip2702)" style="stroke:#000000; stroke-width:2; stroke-opacity:0.1; fill:none" points="
  250.236,1807.47 250.236,121.675 
  "/>
<polyline clip-path="url(#clip2702)" style="stroke:#000000; stroke-width:2; stroke-opacity:0.1; fill:none" points="
  1019.35,1807.47 1019.35,121.675 
  "/>
<polyline clip-path="url(#clip2702)" style="stroke:#000000; stroke-width:2; stroke-opacity:0.1; fill:none" points="
  1788.46,1807.47 1788.46,121.675 
  "/>
<polyline clip-path="url(#clip2702)" style="stroke:#000000; stroke-width:2; stroke-opacity:0.1; fill:none" points="
  2557.57,1807.47 2557.57,121.675 
  "/>
<polyline clip-path="url(#clip2702)" style="stroke:#000000; stroke-width:2; stroke-opacity:0.1; fill:none" points="
  167.279,1759.76 3152.76,1759.76 
  "/>
<polyline clip-path="url(#clip2702)" style="stroke:#000000; stroke-width:2; stroke-opacity:0.1; fill:none" points="
  167.279,1362.17 3152.76,1362.17 
  "/>
<polyline clip-path="url(#clip2702)" style="stroke:#000000; stroke-width:2; stroke-opacity:0.1; fill:none" points="
  167.279,964.575 3152.76,964.575 
  "/>
<polyline clip-path="url(#clip2702)" style="stroke:#000000; stroke-width:2; stroke-opacity:0.1; fill:none" points="
  167.279,566.981 3152.76,566.981 
  "/>
<polyline clip-path="url(#clip2702)" style="stroke:#000000; stroke-width:2; stroke-opacity:0.1; fill:none" points="
  167.279,169.386 3152.76,169.386 
  "/>
<polyline clip-path="url(#clip2700)" style="stroke:#000000; stroke-width:4; stroke-opacity:1; fill:none" points="
  167.279,1807.47 3152.76,1807.47 
  "/>
<polyline clip-path="url(#clip2700)" style="stroke:#000000; stroke-width:4; stroke-opacity:1; fill:none" points="
  167.279,1807.47 167.279,121.675 
  "/>
<polyline clip-path="url(#clip2700)" style="stroke:#000000; stroke-width:4; stroke-opacity:1; fill:none" points="
  250.236,1807.47 250.236,1787.25 
  "/>
<polyline clip-path="url(#clip2700)" style="stroke:#000000; stroke-width:4; stroke-opacity:1; fill:none" points="
  1019.35,1807.47 1019.35,1787.25 
  "/>
<polyline clip-path="url(#clip2700)" style="stroke:#000000; stroke-width:4; stroke-opacity:1; fill:none" points="
  1788.46,1807.47 1788.46,1787.25 
  "/>
<polyline clip-path="url(#clip2700)" style="stroke:#000000; stroke-width:4; stroke-opacity:1; fill:none" points="
  2557.57,1807.47 2557.57,1787.25 
  "/>
<polyline clip-path="url(#clip2700)" style="stroke:#000000; stroke-width:4; stroke-opacity:1; fill:none" points="
  167.279,1759.76 203.105,1759.76 
  "/>
<polyline clip-path="url(#clip2700)" style="stroke:#000000; stroke-width:4; stroke-opacity:1; fill:none" points="
  167.279,1362.17 203.105,1362.17 
  "/>
<polyline clip-path="url(#clip2700)" style="stroke:#000000; stroke-width:4; stroke-opacity:1; fill:none" points="
  167.279,964.575 203.105,964.575 
  "/>
<polyline clip-path="url(#clip2700)" style="stroke:#000000; stroke-width:4; stroke-opacity:1; fill:none" points="
  167.279,566.981 203.105,566.981 
  "/>
<polyline clip-path="url(#clip2700)" style="stroke:#000000; stroke-width:4; stroke-opacity:1; fill:none" points="
  167.279,169.386 203.105,169.386 
  "/>
<g clip-path="url(#clip2700)">
<text style="fill:#000000; fill-opacity:1; font-family:Arial,Helvetica Neue,Helvetica,sans-serif; font-size:48px; text-anchor:middle;" transform="rotate(0, 250.236, 1865.47)" x="250.236" y="1865.47">0</text>
</g>
<g clip-path="url(#clip2700)">
<text style="fill:#000000; fill-opacity:1; font-family:Arial,Helvetica Neue,Helvetica,sans-serif; font-size:48px; text-anchor:middle;" transform="rotate(0, 1019.35, 1865.47)" x="1019.35" y="1865.47">500</text>
</g>
<g clip-path="url(#clip2700)">
<text style="fill:#000000; fill-opacity:1; font-family:Arial,Helvetica Neue,Helvetica,sans-serif; font-size:48px; text-anchor:middle;" transform="rotate(0, 1788.46, 1865.47)" x="1788.46" y="1865.47">1000</text>
</g>
<g clip-path="url(#clip2700)">
<text style="fill:#000000; fill-opacity:1; font-family:Arial,Helvetica Neue,Helvetica,sans-serif; font-size:48px; text-anchor:middle;" transform="rotate(0, 2557.57, 1865.47)" x="2557.57" y="1865.47">1500</text>
</g>
<g clip-path="url(#clip2700)">
<text style="fill:#000000; fill-opacity:1; font-family:Arial,Helvetica Neue,Helvetica,sans-serif; font-size:48px; text-anchor:end;" transform="rotate(0, 135.279, 1777.26)" x="135.279" y="1777.26">0</text>
</g>
<g clip-path="url(#clip2700)">
<text style="fill:#000000; fill-opacity:1; font-family:Arial,Helvetica Neue,Helvetica,sans-serif; font-size:48px; text-anchor:end;" transform="rotate(0, 135.279, 1379.67)" x="135.279" y="1379.67">25</text>
</g>
<g clip-path="url(#clip2700)">
<text style="fill:#000000; fill-opacity:1; font-family:Arial,Helvetica Neue,Helvetica,sans-serif; font-size:48px; text-anchor:end;" transform="rotate(0, 135.279, 982.075)" x="135.279" y="982.075">50</text>
</g>
<g clip-path="url(#clip2700)">
<text style="fill:#000000; fill-opacity:1; font-family:Arial,Helvetica Neue,Helvetica,sans-serif; font-size:48px; text-anchor:end;" transform="rotate(0, 135.279, 584.481)" x="135.279" y="584.481">75</text>
</g>
<g clip-path="url(#clip2700)">
<text style="fill:#000000; fill-opacity:1; font-family:Arial,Helvetica Neue,Helvetica,sans-serif; font-size:48px; text-anchor:end;" transform="rotate(0, 135.279, 186.886)" x="135.279" y="186.886">100</text>
</g>
<polyline clip-path="url(#clip2702)" style="stroke:#000000; stroke-width:4; stroke-opacity:1; fill:none" points="
  167.279,121.675 3152.76,121.675 
  "/>
<polyline clip-path="url(#clip2702)" style="stroke:#000000; stroke-width:4; stroke-opacity:1; fill:none" points="
  3152.76,1807.47 3152.76,121.675 
  "/>
<g clip-path="url(#clip2700)">
<text style="fill:#000000; fill-opacity:1; font-family:Arial,Helvetica Neue,Helvetica,sans-serif; font-size:82px; text-anchor:middle;" transform="rotate(0, 1660.02, 72)" x="1660.02" y="72">TVP Network Connectedness</text>
</g>
<path clip-path="url(#clip2702)" d="
M251.774 1723.24 L253.312 1680.36 L254.85 1671.87 L256.388 1712.71 L257.927 1713.99 L259.465 1707.69 L261.003 1714.36 L262.541 1709.52 L264.08 1738.08 L265.618 1730.91 
  L267.156 1751.38 L268.694 1746.55 L270.232 1738.37 L271.771 1733.12 L273.309 1770.6 L274.847 1754.16 L276.385 1759.51 L277.924 1763.69 L279.462 1784.78 L281 1772.93 
  L282.538 1758.92 L284.076 1739.36 L285.615 1739.9 L287.153 1771.6 L288.691 1748.27 L290.229 1749.79 L291.768 1763.17 L293.306 1772.43 L294.844 1763.23 L296.382 1759.87 
  L297.92 1770.82 L299.459 1745.57 L300.997 1779.46 L302.535 1777.16 L304.073 1756.53 L305.612 1751.77 L307.15 1744.34 L308.688 1742.17 L310.226 1774.15 L311.764 1757.15 
  L313.303 1764.89 L314.841 1769.78 L316.379 1760.99 L317.917 1787.47 L319.456 1767.79 L320.994 1765.47 L322.532 1757.14 L324.07 1740.95 L325.609 1762.91 L327.147 1784.47 
  L328.685 1769.9 L330.223 1769.72 L331.761 1743.78 L333.3 1770.12 L334.838 1769.86 L336.376 1740.9 L337.914 1785.34 L339.453 1763.93 L340.991 1764.53 L342.529 1778.79 
  L344.067 1780.62 L345.605 1773.27 L347.144 1766.62 L348.682 1762.36 L350.22 1802.94 L351.758 1771.25 L353.297 1789.1 L354.835 1784.84 L356.373 1789.33 L357.911 1769.62 
  L359.449 1753.05 L360.988 1765.6 L362.526 1710.2 L364.064 1722.68 L365.602 1703.78 L367.141 1671.8 L368.679 1667.44 L370.217 1610.67 L371.755 1614.67 L373.293 1584.39 
  L374.832 1583.17 L376.37 1546.77 L377.908 1556.75 L379.446 1507.4 L380.985 1499.91 L382.523 1506.25 L384.061 1480.96 L385.599 1492.37 L387.137 1481.82 L388.676 1483.42 
  L390.214 1516.4 L391.752 1511.36 L393.29 1540.56 L394.829 1573.31 L396.367 1606.67 L397.905 1589.32 L399.443 1664.05 L400.981 1637.86 L402.52 1679.12 L404.058 1673.26 
  L405.596 1705.26 L407.134 1707.61 L408.673 1728.7 L410.211 1735.85 L411.749 1732.46 L413.287 1731.83 L414.825 1753.59 L416.364 1743.75 L417.902 1749.92 L419.44 1754.76 
  L420.978 1737.34 L422.517 1751.25 L424.055 1720.56 L425.593 1734.2 L427.131 1719.9 L428.669 1718.62 L430.208 1709.38 L431.746 1709.23 L433.284 1695.41 L434.822 1732.41 
  L436.361 1735.09 L437.899 1708.46 L439.437 1718.96 L440.975 1726.95 L442.514 1728.95 L444.052 1739.64 L445.59 1759.02 L447.128 1750.88 L448.666 1772.07 L450.205 1741.9 
  L451.743 1772.67 L453.281 1753.74 L454.819 1774.91 L456.358 1748.58 L457.896 1750.44 L459.434 1776.85 L460.972 1751.68 L462.51 1750.37 L464.049 1769.78 L465.587 1771.43 
  L467.125 1766.36 L468.663 1773.41 L470.202 1797.73 L471.74 1760.29 L473.278 1765 L474.816 1769.83 L476.354 1755.21 L477.893 1754.07 L479.431 1770.57 L480.969 1753.94 
  L482.507 1735.17 L484.046 1729.07 L485.584 1737.18 L487.122 1724.64 L488.66 1673.17 L490.198 1684.78 L491.737 1706.99 L493.275 1732.89 L494.813 1703.42 L496.351 1717.69 
  L497.89 1716.85 L499.428 1714.4 L500.966 1745.03 L502.504 1760.34 L504.042 1721.59 L505.581 1696.72 L507.119 1679.62 L508.657 1671.57 L510.195 1685.99 L511.734 1670.7 
  L513.272 1687.48 L514.81 1685.47 L516.348 1656.4 L517.886 1648.86 L519.425 1633.46 L520.963 1659.55 L522.501 1607.83 L524.039 1623.73 L525.578 1629.58 L527.116 1623.55 
  L528.654 1642.45 L530.192 1630.53 L531.73 1624.57 L533.269 1644.57 L534.807 1636.74 L536.345 1628.66 L537.883 1639 L539.422 1642.1 L540.96 1619.41 L542.498 1680.69 
  L544.036 1690.49 L545.574 1668.4 L547.113 1667.58 L548.651 1698.86 L550.189 1694.29 L551.727 1699.89 L553.266 1741.73 L554.804 1713.29 L556.342 1704.77 L557.88 1713.7 
  L559.419 1693.83 L560.957 1727.3 L562.495 1716.95 L564.033 1732.46 L565.571 1741.74 L567.11 1720.65 L568.648 1733.37 L570.186 1719.16 L571.724 1737.23 L573.263 1719.22 
  L574.801 1717.71 L576.339 1745.08 L577.877 1757.69 L579.415 1731.76 L580.954 1738.05 L582.492 1729.97 L584.03 1736.99 L585.568 1761.4 L587.107 1767.15 L588.645 1762.85 
  L590.183 1750.08 L591.721 1748.66 L593.259 1768.3 L594.798 1749.38 L596.336 1766.68 L597.874 1773.63 L599.412 1760.34 L600.951 1756.71 L602.489 1772.49 L604.027 1767.31 
  L605.565 1761.24 L607.103 1757.98 L608.642 1762.36 L610.18 1767.58 L611.718 1769.07 L613.256 1771.75 L614.795 1772.85 L616.333 1746.67 L617.871 1764.65 L619.409 1765.48 
  L620.947 1758.22 L622.486 1761.27 L624.024 1754.63 L625.562 1755.72 L627.1 1751.66 L628.639 1745.49 L630.177 1735.51 L631.715 1765.58 L633.253 1714.77 L634.791 1772.67 
  L636.33 1731.39 L637.868 1757.7 L639.406 1762.55 L640.944 1741.26 L642.483 1730.44 L644.021 1762.6 L645.559 1722.11 L647.097 1719.11 L648.635 1768.96 L650.174 1759.19 
  L651.712 1747.25 L653.25 1771.76 L654.788 1734.58 L656.327 1720.81 L657.865 1740.14 L659.403 1720.94 L660.941 1752.52 L662.479 1743.8 L664.018 1708.02 L665.556 1680.39 
  L667.094 1672.88 L668.632 1660.92 L670.171 1647.37 L671.709 1623.58 L673.247 1647.79 L674.785 1630.34 L676.323 1623.9 L677.862 1596.93 L679.4 1611.42 L680.938 1621.93 
  L682.476 1598.36 L684.015 1617.51 L685.553 1645.46 L687.091 1627.36 L688.629 1621.88 L690.168 1637.6 L691.706 1666.09 L693.244 1653.98 L694.782 1662.47 L696.32 1680.4 
  L697.859 1672.52 L699.397 1668.76 L700.935 1684.74 L702.473 1691.88 L704.012 1643.74 L705.55 1721.13 L707.088 1709.19 L708.626 1698.35 L710.164 1721.45 L711.703 1734.61 
  L713.241 1723.93 L714.779 1712.08 L716.317 1732.31 L717.856 1688.26 L719.394 1700.82 L720.932 1674.6 L722.47 1711.5 L724.008 1711.35 L725.547 1713.23 L727.085 1682.33 
  L728.623 1681.36 L730.161 1687.52 L731.7 1687 L733.238 1675.08 L734.776 1671.51 L736.314 1638.38 L737.852 1663.1 L739.391 1634.87 L740.929 1626.49 L742.467 1614.87 
  L744.005 1598.49 L745.544 1621.8 L747.082 1644.29 L748.62 1600.95 L750.158 1586.69 L751.696 1607.79 L753.235 1607.13 L754.773 1577.33 L756.311 1586.23 L757.849 1615.51 
  L759.388 1592.03 L760.926 1567.85 L762.464 1568.6 L764.002 1605.03 L765.54 1637.59 L767.079 1572.19 L768.617 1615.66 L770.155 1608.16 L771.693 1682.97 L773.232 1661.18 
  L774.77 1666.93 L776.308 1710.83 L777.846 1704.62 L779.384 1719.85 L780.923 1729.02 L782.461 1729.42 L783.999 1721.47 L785.537 1786.57 L787.076 1770.5 L788.614 1761.64 
  L790.152 1761.61 L791.69 1751.26 L793.228 1754.63 L794.767 1735.91 L796.305 1738.02 L797.843 1756.96 L799.381 1756.41 L800.92 1734.77 L802.458 1766.9 L803.996 1754.45 
  L805.534 1749.38 L807.073 1753.51 L808.611 1757.62 L810.149 1746.05 L811.687 1779.14 L813.225 1727.74 L814.764 1747 L816.302 1717 L817.84 1745.47 L819.378 1744.1 
  L820.917 1748.97 L822.455 1748.93 L823.993 1738.57 L825.531 1741.11 L827.069 1735.41 L828.608 1722.58 L830.146 1738.88 L831.684 1753.7 L833.222 1711.34 L834.761 1714.06 
  L836.299 1706.1 L837.837 1709.72 L839.375 1667.17 L840.913 1684.59 L842.452 1648.72 L843.99 1681.97 L845.528 1674.54 L847.066 1660.59 L848.605 1661.46 L850.143 1656.76 
  L851.681 1605.84 L853.219 1634.16 L854.757 1635.85 L856.296 1667.26 L857.834 1692.42 L859.372 1654.51 L860.91 1668.16 L862.449 1708.18 L863.987 1709.36 L865.525 1737.71 
  L867.063 1731.84 L868.601 1722.22 L870.14 1720.51 L871.678 1723.76 L873.216 1688.37 L874.754 1725.22 L876.293 1725.72 L877.831 1704.86 L879.369 1699.77 L880.907 1749.14 
  L882.445 1727.21 L883.984 1743.26 L885.522 1710.54 L887.06 1700.63 L888.598 1705.96 L890.137 1721.13 L891.675 1684.37 L893.213 1730.3 L894.751 1710.47 L896.289 1703.35 
  L897.828 1686.19 L899.366 1710.97 L900.904 1635.46 L902.442 1676.23 L903.981 1617.85 L905.519 1619.18 L907.057 1571.38 L908.595 1578 L910.133 1527.99 L911.672 1478.05 
  L913.21 1460.5 L914.748 1413.48 L916.286 1404.43 L917.825 1382.48 L919.363 1349.86 L920.901 1315.45 L922.439 1305.2 L923.978 1282.29 L925.516 1312.24 L927.054 1292.61 
  L928.592 1262.48 L930.13 1280.76 L931.669 1300.43 L933.207 1279.19 L934.745 1304.31 L936.283 1268.11 L937.822 1306.56 L939.36 1285.37 L940.898 1363.83 L942.436 1422.41 
  L943.974 1407.15 L945.513 1394.06 L947.051 1399.49 L948.589 1448.73 L950.127 1458.15 L951.666 1527.45 L953.204 1529.35 L954.742 1497.31 L956.28 1487.07 L957.818 1463.78 
  L959.357 1482.34 L960.895 1506.51 L962.433 1518.01 L963.971 1507.87 L965.51 1472.55 L967.048 1508.96 L968.586 1523.18 L970.124 1548.66 L971.662 1498.28 L973.201 1507.17 
  L974.739 1527.05 L976.277 1541.96 L977.815 1587.99 L979.354 1557.4 L980.892 1548.4 L982.43 1590.09 L983.968 1603.15 L985.506 1588.94 L987.045 1634.87 L988.583 1549.24 
  L990.121 1638.45 L991.659 1600.48 L993.198 1595.84 L994.736 1600.58 L996.274 1616.8 L997.812 1571.34 L999.35 1590.83 L1000.89 1606.04 L1002.43 1621.35 L1003.97 1639.9 
  L1005.5 1638.93 L1007.04 1631.89 L1008.58 1656.67 L1010.12 1676.52 L1011.66 1677.05 L1013.19 1685.62 L1014.73 1707.98 L1016.27 1696.7 L1017.81 1710.23 L1019.35 1723.19 
  L1020.89 1740.5 L1022.42 1752.2 L1023.96 1739.06 L1025.5 1771.89 L1027.04 1757.75 L1028.58 1779.9 L1030.11 1745.97 L1031.65 1749.22 L1033.19 1743.38 L1034.73 1749.61 
  L1036.27 1753.69 L1037.81 1770.98 L1039.34 1774.86 L1040.88 1753.59 L1042.42 1784.82 L1043.96 1770.67 L1045.5 1742.31 L1047.04 1749.65 L1048.57 1767.86 L1050.11 1743.5 
  L1051.65 1752.35 L1053.19 1738.16 L1054.73 1735.3 L1056.26 1716.27 L1057.8 1715.56 L1059.34 1734.02 L1060.88 1698.98 L1062.42 1742.34 L1063.96 1739.23 L1065.49 1743.85 
  L1067.03 1727.17 L1068.57 1750.85 L1070.11 1747.75 L1071.65 1736 L1073.19 1740.32 L1074.72 1757.71 L1076.26 1750.25 L1077.8 1756.09 L1079.34 1747.29 L1080.88 1742.96 
  L1082.41 1738.81 L1083.95 1742.15 L1085.49 1740.46 L1087.03 1745.32 L1088.57 1735.23 L1090.11 1743.97 L1091.64 1732.85 L1093.18 1738.99 L1094.72 1734.32 L1096.26 1748.92 
  L1097.8 1731.35 L1099.34 1715.29 L1100.87 1727.71 L1102.41 1720.58 L1103.95 1716.08 L1105.49 1685.23 L1107.03 1715.19 L1108.56 1721.36 L1110.1 1685.76 L1111.64 1708.28 
  L1113.18 1707.13 L1114.72 1719.32 L1116.26 1741.74 L1117.79 1736.23 L1119.33 1724.55 L1120.87 1773.64 L1122.41 1756.03 L1123.95 1759.2 L1125.48 1749.88 L1127.02 1749.45 
  L1128.56 1747.18 L1130.1 1744.14 L1131.64 1757.55 L1133.18 1744.47 L1134.71 1751.98 L1136.25 1731.76 L1137.79 1723.57 L1139.33 1711.58 L1140.87 1696.32 L1142.41 1716.65 
  L1143.94 1725.74 L1145.48 1708.78 L1147.02 1697.5 L1148.56 1681.92 L1150.1 1688.89 L1151.63 1685.52 L1153.17 1694.26 L1154.71 1688.18 L1156.25 1660.25 L1157.79 1648.99 
  L1159.33 1678.06 L1160.86 1649 L1162.4 1690.99 L1163.94 1647.58 L1165.48 1640.05 L1167.02 1637.2 L1168.56 1629.11 L1170.09 1668.59 L1171.63 1654.77 L1173.17 1609.57 
  L1174.71 1656.41 L1176.25 1648.61 L1177.78 1647.62 L1179.32 1635.81 L1180.86 1665.05 L1182.4 1587.96 L1183.94 1562.73 L1185.48 1516.74 L1187.01 1458.14 L1188.55 1395.56 
  L1190.09 1381.84 L1191.63 1294.38 L1193.17 1220.17 L1194.7 1264.85 L1196.24 1209.56 L1197.78 1179.63 L1199.32 1176.16 L1200.86 1138.9 L1202.4 1131.67 L1203.93 1138.07 
  L1205.47 1102.62 L1207.01 1129.59 L1208.55 1115.28 L1210.09 1110.15 L1211.63 1134.21 L1213.16 1140.01 L1214.7 1133.48 L1216.24 1138.39 L1217.78 1145.36 L1219.32 1121.33 
  L1220.85 1118.82 L1222.39 1118.06 L1223.93 1132.7 L1225.47 1189.32 L1227.01 1203.46 L1228.55 1183.39 L1230.08 1258.11 L1231.62 1279.93 L1233.16 1328.46 L1234.7 1383.86 
  L1236.24 1380.32 L1237.78 1484.19 L1239.31 1506.14 L1240.85 1576.65 L1242.39 1575.93 L1243.93 1601.57 L1245.47 1600.13 L1247 1652.43 L1248.54 1625.32 L1250.08 1665.9 
  L1251.62 1622.39 L1253.16 1603.46 L1254.7 1653.26 L1256.23 1641.65 L1257.77 1660.73 L1259.31 1611.78 L1260.85 1633.39 L1262.39 1657.72 L1263.92 1649.78 L1265.46 1634.28 
  L1267 1645.61 L1268.54 1631.95 L1270.08 1671.8 L1271.62 1688.2 L1273.15 1672.42 L1274.69 1707.66 L1276.23 1704.98 L1277.77 1676.41 L1279.31 1709.33 L1280.85 1734.41 
  L1282.38 1734.91 L1283.92 1743.01 L1285.46 1714.54 L1287 1721.1 L1288.54 1770.83 L1290.07 1757.96 L1291.61 1762.48 L1293.15 1733.28 L1294.69 1750.88 L1296.23 1746.93 
  L1297.77 1748.75 L1299.3 1751.95 L1300.84 1729.87 L1302.38 1740.24 L1303.92 1728.67 L1305.46 1732.58 L1307 1719.23 L1308.53 1715.2 L1310.07 1670.36 L1311.61 1714.26 
  L1313.15 1690.53 L1314.69 1684.54 L1316.22 1671.1 L1317.76 1701.8 L1319.3 1689.78 L1320.84 1692.58 L1322.38 1688.62 L1323.92 1688.63 L1325.45 1673.81 L1326.99 1684.01 
  L1328.53 1659.03 L1330.07 1656.01 L1331.61 1669.77 L1333.14 1617.19 L1334.68 1638.86 L1336.22 1559.19 L1337.76 1577.53 L1339.3 1518.65 L1340.84 1468.72 L1342.37 1408.93 
  L1343.91 1346.53 L1345.45 1362.44 L1346.99 1319.54 L1348.53 1298.03 L1350.07 1265.13 L1351.6 1275.66 L1353.14 1228.46 L1354.68 1178.56 L1356.22 1169.29 L1357.76 1204.42 
  L1359.29 1194.36 L1360.83 1176.83 L1362.37 1187.31 L1363.91 1189.23 L1365.45 1183.77 L1366.99 1161.6 L1368.52 1169.33 L1370.06 1207.43 L1371.6 1141.53 L1373.14 1134.79 
  L1374.68 1104.39 L1376.22 1127.04 L1377.75 1057.82 L1379.29 1028.22 L1380.83 1023.75 L1382.37 1017.24 L1383.91 976.877 L1385.44 984.317 L1386.98 968.128 L1388.52 972.736 
  L1390.06 1017.86 L1391.6 1005.53 L1393.14 1020.98 L1394.67 1026.88 L1396.21 1099.91 L1397.75 1130.35 L1399.29 1151.85 L1400.83 1149.36 L1402.37 1232.69 L1403.9 1222.5 
  L1405.44 1299.52 L1406.98 1316.11 L1408.52 1365.56 L1410.06 1398.56 L1411.59 1399.35 L1413.13 1432.11 L1414.67 1416.59 L1416.21 1449.83 L1417.75 1483.08 L1419.29 1443.09 
  L1420.82 1476.89 L1422.36 1499.57 L1423.9 1501.17 L1425.44 1467.66 L1426.98 1425.1 L1428.51 1422.17 L1430.05 1470.55 L1431.59 1434.68 L1433.13 1410.19 L1434.67 1361.77 
  L1436.21 1394.26 L1437.74 1393.2 L1439.28 1381.75 L1440.82 1359.85 L1442.36 1394.26 L1443.9 1322.62 L1445.44 1330.07 L1446.97 1348.55 L1448.51 1346.62 L1450.05 1367.75 
  L1451.59 1362.83 L1453.13 1362.37 L1454.66 1347.77 L1456.2 1363.94 L1457.74 1340.99 L1459.28 1318.48 L1460.82 1283.46 L1462.36 1257.74 L1463.89 1282.07 L1465.43 1240.36 
  L1466.97 1177.86 L1468.51 1224.14 L1470.05 1153.88 L1471.59 1183.37 L1473.12 1139.04 L1474.66 1098.67 L1476.2 1107.09 L1477.74 1085.44 L1479.28 1116.24 L1480.81 1158.3 
  L1482.35 1147.51 L1483.89 1117.48 L1485.43 1170.62 L1486.97 1175.84 L1488.51 1183.03 L1490.04 1225.3 L1491.58 1219.24 L1493.12 1226.44 L1494.66 1223.21 L1496.2 1238.93 
  L1497.73 1232.72 L1499.27 1258.42 L1500.81 1249.6 L1502.35 1231.74 L1503.89 1268.07 L1505.43 1267.18 L1506.96 1256.98 L1508.5 1236.83 L1510.04 1236.95 L1511.58 1248.34 
  L1513.12 1247.98 L1514.66 1203.43 L1516.19 1202.76 L1517.73 1177.79 L1519.27 1213.41 L1520.81 1163.66 L1522.35 1168.22 L1523.88 1122.02 L1525.42 1165.1 L1526.96 1142.06 
  L1528.5 1155.06 L1530.04 1121.96 L1531.58 1174.52 L1533.11 1147.09 L1534.65 1146.54 L1536.19 1118.69 L1537.73 1141.16 L1539.27 1169.21 L1540.81 1161.76 L1542.34 1172.56 
  L1543.88 1169.85 L1545.42 1155.35 L1546.96 1155.18 L1548.5 1164.05 L1550.03 1157.86 L1551.57 1205.37 L1553.11 1158.42 L1554.65 1166.77 L1556.19 1174.91 L1557.73 1160.92 
  L1559.26 1179.01 L1560.8 1179.17 L1562.34 1266.75 L1563.88 1214.85 L1565.42 1270.04 L1566.95 1244.17 L1568.49 1303.37 L1570.03 1310.56 L1571.57 1382.2 L1573.11 1388.8 
  L1574.65 1385.02 L1576.18 1470.59 L1577.72 1458.64 L1579.26 1464 L1580.8 1466.62 L1582.34 1464.01 L1583.88 1507.5 L1585.41 1455.04 L1586.95 1459.37 L1588.49 1402.09 
  L1590.03 1378.27 L1591.57 1355.05 L1593.1 1327.98 L1594.64 1327.98 L1596.18 1290.12 L1597.72 1265.97 L1599.26 1209.79 L1600.8 1201.44 L1602.33 1148.05 L1603.87 1161.22 
  L1605.41 1071.2 L1606.95 1050.16 L1608.49 1033.77 L1610.03 1015.41 L1611.56 1024.43 L1613.1 992.458 L1614.64 979.208 L1616.18 1010.13 L1617.72 965.132 L1619.25 1006.7 
  L1620.79 1053.06 L1622.33 1078.7 L1623.87 1168.48 L1625.41 1216.17 L1626.95 1260.65 L1628.48 1369 L1630.02 1427.76 L1631.56 1496.42 L1633.1 1566.25 L1634.64 1610.34 
  L1636.18 1610.93 L1637.71 1670.35 L1639.25 1646.68 L1640.79 1680.77 L1642.33 1629.18 L1643.87 1661.73 L1645.4 1638.94 L1646.94 1622.81 L1648.48 1651.45 L1650.02 1628.63 
  L1651.56 1617.47 L1653.1 1568.6 L1654.63 1619.78 L1656.17 1591.49 L1657.71 1585.38 L1659.25 1606 L1660.79 1585.88 L1662.32 1582.5 L1663.86 1607.75 L1665.4 1582.4 
  L1666.94 1643.85 L1668.48 1614.53 L1670.02 1606.15 L1671.55 1662.69 L1673.09 1633.69 L1674.63 1610.55 L1676.17 1595.54 L1677.71 1636.41 L1679.25 1591.12 L1680.78 1564.97 
  L1682.32 1537.24 L1683.86 1495.54 L1685.4 1477.4 L1686.94 1462.35 L1688.47 1464.07 L1690.01 1396.4 L1691.55 1397.13 L1693.09 1402.34 L1694.63 1453.18 L1696.17 1372.32 
  L1697.7 1384.78 L1699.24 1374.58 L1700.78 1395.83 L1702.32 1377.51 L1703.86 1337.08 L1705.4 1330.73 L1706.93 1319.04 L1708.47 1269.1 L1710.01 1218.21 L1711.55 1200.16 
  L1713.09 1200.77 L1714.62 1161.66 L1716.16 1154 L1717.7 1085.26 L1719.24 1101.81 L1720.78 1077.43 L1722.32 1116.94 L1723.85 1132.4 L1725.39 1115.91 L1726.93 1105.72 
  L1728.47 1157.41 L1730.01 1137.07 L1731.54 1134.56 L1733.08 1165.56 L1734.62 1212.06 L1736.16 1161.75 L1737.7 1210.2 L1739.24 1215.04 L1740.77 1181.32 L1742.31 1209.03 
  L1743.85 1214.15 L1745.39 1241.01 L1746.93 1286.84 L1748.47 1219.02 L1750 1305.08 L1751.54 1239.15 L1753.08 1292.9 L1754.62 1305.23 L1756.16 1368.64 L1757.69 1332.95 
  L1759.23 1410.59 L1760.77 1379.4 L1762.31 1419.58 L1763.85 1392.17 L1765.39 1427.39 L1766.92 1326.49 L1768.46 1318.28 L1770 1278.07 L1771.54 1188.29 L1773.08 1165.34 
  L1774.62 1094.4 L1776.15 1057.59 L1777.69 1032.27 L1779.23 1028.38 L1780.77 1017.77 L1782.31 990.345 L1783.84 998.311 L1785.38 971.516 L1786.92 1007.18 L1788.46 971.362 
  L1790 984.242 L1791.54 982.095 L1793.07 987.156 L1794.61 981.535 L1796.15 987.36 L1797.69 993.025 L1799.23 967.438 L1800.76 978.285 L1802.3 953.819 L1803.84 961.466 
  L1805.38 942.883 L1806.92 914.272 L1808.46 922.035 L1809.99 904.286 L1811.53 848.575 L1813.07 877.29 L1814.61 866.14 L1816.15 875.509 L1817.69 859.189 L1819.22 830.59 
  L1820.76 873.122 L1822.3 875.076 L1823.84 888.517 L1825.38 866.829 L1826.91 891.075 L1828.45 912.437 L1829.99 921.64 L1831.53 889.538 L1833.07 937.754 L1834.61 932.361 
  L1836.14 951.862 L1837.68 956.826 L1839.22 945.9 L1840.76 979.407 L1842.3 987.829 L1843.84 1018.69 L1845.37 1016.39 L1846.91 1024.35 L1848.45 1030.76 L1849.99 1028.2 
  L1851.53 1025.19 L1853.06 1037.93 L1854.6 1070.67 L1856.14 1013.64 L1857.68 1034.72 L1859.22 989.835 L1860.76 1015.07 L1862.29 955.356 L1863.83 951.252 L1865.37 952.999 
  L1866.91 943.28 L1868.45 901.8 L1869.99 891.565 L1871.52 922.499 L1873.06 891.149 L1874.6 873.121 L1876.14 873.645 L1877.68 839.634 L1879.21 870.053 L1880.75 883.377 
  L1882.29 873.792 L1883.83 853.535 L1885.37 866.743 L1886.91 895.18 L1888.44 924.013 L1889.98 915.415 L1891.52 951.656 L1893.06 967.068 L1894.6 979.424 L1896.13 1054.04 
  L1897.67 1099.41 L1899.21 1131.76 L1900.75 1206.27 L1902.29 1279.08 L1903.83 1274 L1905.36 1358.08 L1906.9 1373.38 L1908.44 1400.26 L1909.98 1390.71 L1911.52 1408.25 
  L1913.06 1429.74 L1914.59 1389.59 L1916.13 1400.67 L1917.67 1391.65 L1919.21 1380.77 L1920.75 1406.05 L1922.28 1402.62 L1923.82 1386.01 L1925.36 1425.05 L1926.9 1435.93 
  L1928.44 1438.18 L1929.98 1496.7 L1931.51 1525.25 L1933.05 1567.97 L1934.59 1574.88 L1936.13 1596.87 L1937.67 1579.6 L1939.21 1660.42 L1940.74 1626.87 L1942.28 1621.24 
  L1943.82 1636.08 L1945.36 1630.95 L1946.9 1666.67 L1948.43 1663.5 L1949.97 1664.33 L1951.51 1673.11 L1953.05 1698.78 L1954.59 1676.61 L1956.13 1718.24 L1957.66 1711.09 
  L1959.2 1716.68 L1960.74 1737.26 L1962.28 1704.56 L1963.82 1702.31 L1965.35 1738.92 L1966.89 1723.79 L1968.43 1711.86 L1969.97 1682.1 L1971.51 1670.69 L1973.05 1679.97 
  L1974.58 1576.26 L1976.12 1614.2 L1977.66 1550.47 L1979.2 1498.53 L1980.74 1470.82 L1982.28 1439 L1983.81 1466.58 L1985.35 1440.51 L1986.89 1440.46 L1988.43 1360.66 
  L1989.97 1420.24 L1991.5 1446.5 L1993.04 1403.76 L1994.58 1357.19 L1996.12 1458.98 L1997.66 1448.72 L1999.2 1517.18 L2000.73 1559.66 L2002.27 1600.1 L2003.81 1616.18 
  L2005.35 1668.03 L2006.89 1732.2 L2008.43 1706.83 L2009.96 1746.52 L2011.5 1760.65 L2013.04 1761.19 L2014.58 1752.58 L2016.12 1776.98 L2017.65 1744.68 L2019.19 1732.9 
  L2020.73 1727.33 L2022.27 1757.34 L2023.81 1747.92 L2025.35 1726.45 L2026.88 1687.01 L2028.42 1735.98 L2029.96 1728.81 L2031.5 1742.87 L2033.04 1759.64 L2034.57 1759.44 
  L2036.11 1746.52 L2037.65 1793.5 L2039.19 1768.23 L2040.73 1776.41 L2042.27 1798.08 L2043.8 1778 L2045.34 1777.74 L2046.88 1783.36 L2048.42 1791.77 L2049.96 1766.02 
  L2051.5 1764.4 L2053.03 1782.26 L2054.57 1779.47 L2056.11 1789.9 L2057.65 1770.3 L2059.19 1771.5 L2060.72 1753.55 L2062.26 1742.48 L2063.8 1724.45 L2065.34 1724.02 
  L2066.88 1724.5 L2068.42 1644.7 L2069.95 1623.15 L2071.49 1600.01 L2073.03 1612.03 L2074.57 1552.17 L2076.11 1565.53 L2077.65 1473.27 L2079.18 1455.12 L2080.72 1437.97 
  L2082.26 1385.17 L2083.8 1393.78 L2085.34 1371.03 L2086.87 1373.19 L2088.41 1356.16 L2089.95 1377.33 L2091.49 1395.39 L2093.03 1380.15 L2094.57 1432.13 L2096.1 1425.27 
  L2097.64 1459.37 L2099.18 1457.44 L2100.72 1533.05 L2102.26 1529.68 L2103.8 1571.46 L2105.33 1567.1 L2106.87 1603.81 L2108.41 1633.5 L2109.95 1620.14 L2111.49 1669.72 
  L2113.02 1669.12 L2114.56 1661.76 L2116.1 1702.41 L2117.64 1687.64 L2119.18 1733.82 L2120.72 1720.43 L2122.25 1743.4 L2123.79 1733.73 L2125.33 1738.88 L2126.87 1741.72 
  L2128.41 1710.72 L2129.94 1690.4 L2131.48 1704.23 L2133.02 1707.98 L2134.56 1692.46 L2136.1 1685.69 L2137.64 1692.29 L2139.17 1672.45 L2140.71 1650.72 L2142.25 1633.82 
  L2143.79 1580.17 L2145.33 1575.35 L2146.87 1591.83 L2148.4 1570.9 L2149.94 1585.22 L2151.48 1559.23 L2153.02 1597.31 L2154.56 1540.22 L2156.09 1596.22 L2157.63 1573.85 
  L2159.17 1582.28 L2160.71 1564.62 L2162.25 1577.22 L2163.79 1604.15 L2165.32 1588.66 L2166.86 1628.74 L2168.4 1609.19 L2169.94 1633.31 L2171.48 1648.93 L2173.02 1622.7 
  L2174.55 1613.82 L2176.09 1662.43 L2177.63 1628.93 L2179.17 1630.69 L2180.71 1703.35 L2182.24 1663.43 L2183.78 1620.19 L2185.32 1613.02 L2186.86 1630.9 L2188.4 1614.88 
  L2189.94 1602.16 L2191.47 1632.07 L2193.01 1606.78 L2194.55 1600.65 L2196.09 1572.93 L2197.63 1570.82 L2199.16 1558.97 L2200.7 1588.46 L2202.24 1497.17 L2203.78 1482.3 
  L2205.32 1514.7 L2206.86 1506.64 L2208.39 1486.18 L2209.93 1482.94 L2211.47 1492.98 L2213.01 1444.61 L2214.55 1447.23 L2216.09 1453.8 L2217.62 1463.73 L2219.16 1435.79 
  L2220.7 1428.86 L2222.24 1476.26 L2223.78 1410.09 L2225.31 1406.6 L2226.85 1404.85 L2228.39 1405.24 L2229.93 1435.41 L2231.47 1377.75 L2233.01 1391.16 L2234.54 1350.57 
  L2236.08 1341.38 L2237.62 1283.01 L2239.16 1287.12 L2240.7 1291.84 L2242.24 1264.28 L2243.77 1253.93 L2245.31 1270.19 L2246.85 1276.68 L2248.39 1287.75 L2249.93 1252.68 
  L2251.46 1267.59 L2253 1257.55 L2254.54 1287.25 L2256.08 1278.92 L2257.62 1274.01 L2259.16 1278.54 L2260.69 1255.41 L2262.23 1219.07 L2263.77 1244.72 L2265.31 1228.96 
  L2266.85 1233.24 L2268.38 1241 L2269.92 1215.25 L2271.46 1242.1 L2273 1244.41 L2274.54 1252.68 L2276.08 1258.1 L2277.61 1245.99 L2279.15 1314.6 L2280.69 1277.53 
  L2282.23 1332.2 L2283.77 1332.47 L2285.31 1336.9 L2286.84 1358.92 L2288.38 1346.26 L2289.92 1386 L2291.46 1334.11 L2293 1278.84 L2294.53 1259.19 L2296.07 1311.55 
  L2297.61 1268.64 L2299.15 1279 L2300.69 1273.27 L2302.23 1284.96 L2303.76 1307.15 L2305.3 1351.17 L2306.84 1360.35 L2308.38 1421.9 L2309.92 1427.67 L2311.46 1370.71 
  L2312.99 1462.31 L2314.53 1521.73 L2316.07 1523.56 L2317.61 1490.29 L2319.15 1500.64 L2320.68 1496.45 L2322.22 1482.17 L2323.76 1481.88 L2325.3 1452.65 L2326.84 1425.68 
  L2328.38 1323.6 L2329.91 1379.53 L2331.45 1337.63 L2332.99 1306.79 L2334.53 1310.6 L2336.07 1271.6 L2337.61 1266 L2339.14 1267.79 L2340.68 1300.31 L2342.22 1275.39 
  L2343.76 1283.24 L2345.3 1350.84 L2346.83 1326.04 L2348.37 1413.54 L2349.91 1462.71 L2351.45 1502.41 L2352.99 1516.34 L2354.53 1588.18 L2356.06 1600.89 L2357.6 1629.49 
  L2359.14 1667.46 L2360.68 1653.26 L2362.22 1667.53 L2363.75 1689.19 L2365.29 1678.62 L2366.83 1710.22 L2368.37 1719.13 L2369.91 1704.36 L2371.45 1714.21 L2372.98 1710.7 
  L2374.52 1703.94 L2376.06 1694.59 L2377.6 1703.14 L2379.14 1667.92 L2380.68 1670.37 L2382.21 1644.3 L2383.75 1563.57 L2385.29 1600.29 L2386.83 1516.12 L2388.37 1468.3 
  L2389.9 1417.39 L2391.44 1399.76 L2392.98 1316.65 L2394.52 1256.94 L2396.06 1237.31 L2397.6 1129.72 L2399.13 1134.38 L2400.67 1058.86 L2402.21 1019.17 L2403.75 993.271 
  L2405.29 950.491 L2406.83 912.219 L2408.36 876.052 L2409.9 866.784 L2411.44 845.17 L2412.98 810.07 L2414.52 787.185 L2416.05 789.3 L2417.59 787.876 L2419.13 768.719 
  L2420.67 751.612 L2422.21 742.332 L2423.75 736.707 L2425.28 727.024 L2426.82 737.561 L2428.36 728.228 L2429.9 726.717 L2431.44 740.714 L2432.97 752.887 L2434.51 757.627 
  L2436.05 752.671 L2437.59 773.484 L2439.13 775.918 L2440.67 824.308 L2442.2 822.13 L2443.74 869.911 L2445.28 876.478 L2446.82 933.565 L2448.36 926.557 L2449.9 991.979 
  L2451.43 978.097 L2452.97 1014.51 L2454.51 1015.22 L2456.05 1028.77 L2457.59 1053.13 L2459.12 1015.14 L2460.66 1011.25 L2462.2 1028.99 L2463.74 1027.58 L2465.28 1033.93 
  L2466.82 1018.09 L2468.35 1037.32 L2469.89 1104.59 L2471.43 1111.17 L2472.97 1099.42 L2474.51 1137.41 L2476.05 1173.4 L2477.58 1203.42 L2479.12 1192.65 L2480.66 1275.93 
  L2482.2 1358.89 L2483.74 1400.04 L2485.27 1412.67 L2486.81 1416.71 L2488.35 1518.24 L2489.89 1515.27 L2491.43 1573.25 L2492.97 1587.36 L2494.5 1621.32 L2496.04 1608.54 
  L2497.58 1605.1 L2499.12 1649.81 L2500.66 1632.69 L2502.19 1649.06 L2503.73 1622.1 L2505.27 1637.21 L2506.81 1624.64 L2508.35 1583.42 L2509.89 1601.5 L2511.42 1581.31 
  L2512.96 1564.49 L2514.5 1565.58 L2516.04 1589.91 L2517.58 1543.92 L2519.12 1551.77 L2520.65 1570.74 L2522.19 1542.08 L2523.73 1576.82 L2525.27 1533.97 L2526.81 1543.64 
  L2528.34 1499.78 L2529.88 1530.38 L2531.42 1494.45 L2532.96 1530.8 L2534.5 1501.48 L2536.04 1488.53 L2537.57 1488.87 L2539.11 1505.84 L2540.65 1440.65 L2542.19 1500.53 
  L2543.73 1493.14 L2545.27 1479.63 L2546.8 1517.05 L2548.34 1541.94 L2549.88 1533.94 L2551.42 1574.32 L2552.96 1595.64 L2554.49 1631.44 L2556.03 1604.51 L2557.57 1590.12 
  L2559.11 1616.45 L2560.65 1637.22 L2562.19 1623.36 L2563.72 1603.77 L2565.26 1609.17 L2566.8 1622.66 L2568.34 1646.34 L2569.88 1628 L2571.42 1607.03 L2572.95 1650.97 
  L2574.49 1651.79 L2576.03 1655.73 L2577.57 1631.25 L2579.11 1656.72 L2580.64 1673.32 L2582.18 1646.53 L2583.72 1688.23 L2585.26 1663.3 L2586.8 1677.51 L2588.34 1649.39 
  L2589.87 1660.55 L2591.41 1662.51 L2592.95 1657.19 L2594.49 1669.71 L2596.03 1656.54 L2597.56 1636.97 L2599.1 1665.11 L2600.64 1655.33 L2602.18 1631.23 L2603.72 1649.26 
  L2605.26 1651.31 L2606.79 1671.5 L2608.33 1650.25 L2609.87 1634.26 L2611.41 1647.78 L2612.95 1683.73 L2614.49 1690.73 L2616.02 1709.02 L2617.56 1678.69 L2619.1 1713.01 
  L2620.64 1719.92 L2622.18 1702.86 L2623.71 1693.19 L2625.25 1716.85 L2626.79 1683.85 L2628.33 1676.26 L2629.87 1698.47 L2631.41 1656.56 L2632.94 1680.22 L2634.48 1642.82 
  L2636.02 1648.81 L2637.56 1606.68 L2639.1 1594.61 L2640.64 1591.73 L2642.17 1572.7 L2643.71 1600.87 L2645.25 1546.91 L2646.79 1587.88 L2648.33 1532.91 L2649.86 1508.05 
  L2651.4 1536.78 L2652.94 1520.41 L2654.48 1515.67 L2656.02 1511.99 L2657.56 1538.21 L2659.09 1533.08 L2660.63 1560.51 L2662.17 1531.67 L2663.71 1537.25 L2665.25 1566.77 
  L2666.78 1586.31 L2668.32 1594.04 L2669.86 1573.06 L2671.4 1633.4 L2672.94 1645.43 L2674.48 1649.39 L2676.01 1639.93 L2677.55 1649.97 L2679.09 1653.47 L2680.63 1636.62 
  L2682.17 1672.07 L2683.71 1667.05 L2685.24 1708.87 L2686.78 1678.69 L2688.32 1688.34 L2689.86 1690.31 L2691.4 1692.41 L2692.93 1677.06 L2694.47 1705.26 L2696.01 1720.52 
  L2697.55 1725.69 L2699.09 1755.85 L2700.63 1683.42 L2702.16 1697.25 L2703.7 1717.36 L2705.24 1738.78 L2706.78 1712.76 L2708.32 1730.63 L2709.86 1717.03 L2711.39 1706.78 
  L2712.93 1688.1 L2714.47 1711.45 L2716.01 1652.93 L2717.55 1645.01 L2719.08 1666.28 L2720.62 1606.7 L2722.16 1556.86 L2723.7 1531.49 L2725.24 1528.55 L2726.78 1490.1 
  L2728.31 1458.68 L2729.85 1499.49 L2731.39 1437.59 L2732.93 1463.87 L2734.47 1473.92 L2736 1465.85 L2737.54 1431.07 L2739.08 1431.77 L2740.62 1460.62 L2742.16 1414.54 
  L2743.7 1426.58 L2745.23 1367.36 L2746.77 1352.12 L2748.31 1407.06 L2749.85 1356.04 L2751.39 1335.65 L2752.93 1307.36 L2754.46 1316.58 L2756 1300.64 L2757.54 1322.54 
  L2759.08 1313.66 L2760.62 1297.54 L2762.15 1327.73 L2763.69 1334.8 L2765.23 1417.99 L2766.77 1422.75 L2768.31 1423.02 L2769.85 1458.72 L2771.38 1542.42 L2772.92 1575.13 
  L2774.46 1606.59 L2776 1644.44 L2777.54 1676.43 L2779.08 1703.48 L2780.61 1711.91 L2782.15 1692.06 L2783.69 1700.1 L2785.23 1717.62 L2786.77 1737.44 L2788.3 1668.11 
  L2789.84 1720.74 L2791.38 1697.32 L2792.92 1714.84 L2794.46 1696.97 L2796 1708.65 L2797.53 1694.29 L2799.07 1709.52 L2800.61 1736.7 L2802.15 1740.58 L2803.69 1720.76 
  L2805.23 1716.67 L2806.76 1718.71 L2808.3 1704.05 L2809.84 1729.22 L2811.38 1701.05 L2812.92 1700.67 L2814.45 1689.74 L2815.99 1692.38 L2817.53 1714.79 L2819.07 1692.7 
  L2820.61 1680.76 L2822.15 1731.81 L2823.68 1680.38 L2825.22 1675.93 L2826.76 1696.82 L2828.3 1717.63 L2829.84 1730.1 L2831.37 1697.87 L2832.91 1697.08 L2834.45 1729.55 
  L2835.99 1694.59 L2837.53 1716.56 L2839.07 1702.05 L2840.6 1687.41 L2842.14 1668.64 L2843.68 1673.48 L2845.22 1680.67 L2846.76 1658.42 L2848.3 1661.63 L2849.83 1671.2 
  L2851.37 1663.05 L2852.91 1644.22 L2854.45 1634.76 L2855.99 1616.77 L2857.52 1620.36 L2859.06 1615.67 L2860.6 1626.73 L2862.14 1634.04 L2863.68 1599.57 L2865.22 1618.99 
  L2866.75 1618.5 L2868.29 1612.66 L2869.83 1618.96 L2871.37 1523.06 L2872.91 1550.8 L2874.45 1470.29 L2875.98 1439.74 L2877.52 1367.83 L2879.06 1298.2 L2880.6 1229.31 
  L2882.14 1177.37 L2883.67 1118.24 L2885.21 1028.02 L2886.75 1003.6 L2888.29 980.569 L2889.83 954.193 L2891.37 928.022 L2892.9 908.783 L2894.44 892.63 L2895.98 912.153 
  L2897.52 919.671 L2899.06 905.106 L2900.59 912.369 L2902.13 932.942 L2903.67 914.725 L2905.21 908.648 L2906.75 919.945 L2908.29 939.428 L2909.82 933.598 L2911.36 943.708 
  L2912.9 959.353 L2914.44 971.778 L2915.98 969.178 L2917.52 1001.92 L2919.05 1018.45 L2920.59 1014.91 L2922.13 1045.14 L2923.67 1027.02 L2925.21 1026.19 L2926.74 1043.56 
  L2928.28 1055.38 L2929.82 1091.45 L2931.36 1101.17 L2932.9 1097.31 L2934.44 1083.11 L2935.97 1131.93 L2937.51 1193.05 L2939.05 1176.65 L2940.59 1216.39 L2942.13 1274.7 
  L2943.67 1272.39 L2945.2 1253.41 L2946.74 1244.28 L2948.28 1206.5 L2949.82 1204.7 L2951.36 1159.59 L2952.89 1142.81 L2954.43 1151.73 L2955.97 1104.43 L2957.51 1083.02 
  L2959.05 1065.17 L2960.59 1078.01 L2962.12 1037.01 L2963.66 984.636 L2965.2 1002.86 L2966.74 1040.31 L2968.28 972.037 L2969.81 988.574 L2971.35 961.16 L2972.89 994.974 
  L2974.43 979.336 L2975.97 984.659 L2977.51 994.346 L2979.04 1015.11 L2980.58 1035.82 L2982.12 1062.13 L2983.66 1062.65 L2985.2 1151.67 L2986.74 1163.12 L2988.27 1254.39 
  L2989.81 1283.64 L2991.35 1361.52 L2992.89 1307.55 L2994.43 1452.87 L2995.96 1441.99 L2997.5 1499.89 L2999.04 1534.37 L3000.58 1579.44 L3002.12 1566.67 L3003.66 1642.41 
  L3005.19 1658.14 L3006.73 1674.78 L3008.27 1609.26 L3009.81 1669.78 L3011.35 1673.01 L3012.89 1688.79 L3014.42 1694.09 L3015.96 1719.64 L3017.5 1733.02 L3019.04 1723.71 
  L3020.58 1743.21 L3022.11 1718.88 L3023.65 1696.36 L3025.19 1714.14 L3026.73 1712.51 L3028.27 1720.53 L3029.81 1697.1 L3031.34 1690.24 L3032.88 1683.02 L3034.42 1674.01 
  L3035.96 1638.23 L3037.5 1638.49 L3039.04 1617.61 L3040.57 1593.76 L3042.11 1576.93 L3043.65 1500.94 L3045.19 1553.87 L3046.73 1518.13 L3048.26 1497.75 L3049.8 1470.18 
  L3051.34 1500.32 L3052.88 1498.59 L3054.42 1511.67 L3055.96 1533.97 L3057.49 1529.08 L3059.03 1524.09 L3060.57 1545.14 L3062.11 1542.73 L3063.65 1530.06 L3065.18 1536.46 
  L3066.72 1551.97 L3068.26 1524.11 L3068.26 974.987 L3066.72 973.079 L3065.18 971.978 L3063.65 980.131 L3062.11 932.765 L3060.57 913.147 L3059.03 923.455 L3057.49 935.539 
  L3055.96 937.052 L3054.42 938.962 L3052.88 951.954 L3051.34 945.857 L3049.8 940.159 L3048.26 974.878 L3046.73 997.792 L3045.19 991.57 L3043.65 1075.9 L3042.11 1119.92 
  L3040.57 1120.99 L3039.04 1163.83 L3037.5 1156.87 L3035.96 1224.12 L3034.42 1267.49 L3032.88 1260.98 L3031.34 1328.59 L3029.81 1336.72 L3028.27 1346.8 L3026.73 1313.85 
  L3025.19 1361.68 L3023.65 1366.31 L3022.11 1366.72 L3020.58 1340.1 L3019.04 1350.2 L3017.5 1328.86 L3015.96 1282.03 L3014.42 1294.24 L3012.89 1210.66 L3011.35 1189.23 
  L3009.81 1204.97 L3008.27 1188.8 L3006.73 1099.79 L3005.19 1011 L3003.66 1015.4 L3002.12 1021.82 L3000.58 993.533 L2999.04 959.789 L2997.5 926.666 L2995.96 904.369 
  L2994.43 847.724 L2992.89 860.998 L2991.35 827.488 L2989.81 798.742 L2988.27 772.228 L2986.74 765.065 L2985.2 703.306 L2983.66 718.769 L2982.12 711.561 L2980.58 690.18 
  L2979.04 681.912 L2977.51 677.497 L2975.97 701.25 L2974.43 666.501 L2972.89 669.723 L2971.35 665.824 L2969.81 672.168 L2968.28 683.595 L2966.74 666.022 L2965.2 659.285 
  L2963.66 701.623 L2962.12 682.951 L2960.59 686.788 L2959.05 710.147 L2957.51 712.793 L2955.97 689.612 L2954.43 709.357 L2952.89 729.231 L2951.36 741.333 L2949.82 760.585 
  L2948.28 741.295 L2946.74 774.254 L2945.2 810.883 L2943.67 773.196 L2942.13 785.81 L2940.59 765.271 L2939.05 789.658 L2937.51 723.994 L2935.97 738.536 L2934.44 751.476 
  L2932.9 727.098 L2931.36 732.716 L2929.82 700.301 L2928.28 711.478 L2926.74 692.19 L2925.21 699.678 L2923.67 712.493 L2922.13 693.124 L2920.59 701.082 L2919.05 694.032 
  L2917.52 717.986 L2915.98 716.273 L2914.44 702.074 L2912.9 695.713 L2911.36 717.507 L2909.82 705.921 L2908.29 680.914 L2906.75 701.267 L2905.21 697.329 L2903.67 689.018 
  L2902.13 688.259 L2900.59 697.677 L2899.06 680.277 L2897.52 666.306 L2895.98 672.799 L2894.44 669.977 L2892.9 667.575 L2891.37 672.904 L2889.83 676.568 L2888.29 656.184 
  L2886.75 678.098 L2885.21 691.896 L2883.67 704.652 L2882.14 713.995 L2880.6 760.568 L2879.06 788.122 L2877.52 835.824 L2875.98 862.284 L2874.45 953.932 L2872.91 1014.03 
  L2871.37 1072.22 L2869.83 1058.55 L2868.29 1120.3 L2866.75 1145.8 L2865.22 1142.11 L2863.68 1151.63 L2862.14 1143.63 L2860.6 1187.98 L2859.06 1114.81 L2857.52 1166.76 
  L2855.99 1210.95 L2854.45 1176.25 L2852.91 1166.53 L2851.37 1142.9 L2849.83 1202.43 L2848.3 1183.08 L2846.76 1187.46 L2845.22 1163.62 L2843.68 1211.29 L2842.14 1210.69 
  L2840.6 1216.66 L2839.07 1222.85 L2837.53 1242.81 L2835.99 1216.81 L2834.45 1236.23 L2832.91 1260.78 L2831.37 1279.92 L2829.84 1261.43 L2828.3 1269.38 L2826.76 1293.95 
  L2825.22 1310.88 L2823.68 1313.43 L2822.15 1253.55 L2820.61 1320.51 L2819.07 1285.98 L2817.53 1296.79 L2815.99 1265.75 L2814.45 1295.54 L2812.92 1313.45 L2811.38 1299.15 
  L2809.84 1273.76 L2808.3 1298.96 L2806.76 1279.3 L2805.23 1312.95 L2803.69 1298.76 L2802.15 1288.29 L2800.61 1281.63 L2799.07 1292.54 L2797.53 1319.32 L2796 1321.16 
  L2794.46 1332.95 L2792.92 1327.37 L2791.38 1309.37 L2789.84 1300.32 L2788.3 1354.06 L2786.77 1318.91 L2785.23 1297.35 L2783.69 1296.1 L2782.15 1249.7 L2780.61 1205.92 
  L2779.08 1199.92 L2777.54 1111.81 L2776 1089.04 L2774.46 1041.96 L2772.92 1002.87 L2771.38 972.517 L2769.85 926.384 L2768.31 927.374 L2766.77 846.874 L2765.23 834.902 
  L2763.69 810.768 L2762.15 825.701 L2760.62 814.709 L2759.08 851.849 L2757.54 827.022 L2756 843.864 L2754.46 805.895 L2752.93 839.238 L2751.39 839.951 L2749.85 857.558 
  L2748.31 838.52 L2746.77 889.213 L2745.23 897.644 L2743.7 893.162 L2742.16 891.157 L2740.62 903.708 L2739.08 894.44 L2737.54 903.97 L2736 915.794 L2734.47 900.775 
  L2732.93 904.971 L2731.39 889.878 L2729.85 901.016 L2728.31 942.483 L2726.78 955.413 L2725.24 949.478 L2723.7 1012.48 L2722.16 990.847 L2720.62 1064.4 L2719.08 1038.22 
  L2717.55 1095.42 L2716.01 1164.5 L2714.47 1157.15 L2712.93 1216.99 L2711.39 1193.33 L2709.86 1217.2 L2708.32 1265.47 L2706.78 1323.82 L2705.24 1288.27 L2703.7 1264.5 
  L2702.16 1260.63 L2700.63 1289.37 L2699.09 1247.1 L2697.55 1255.76 L2696.01 1171.89 L2694.47 1235.42 L2692.93 1234.24 L2691.4 1189.88 L2689.86 1143.72 L2688.32 1129.41 
  L2686.78 1134.01 L2685.24 1136.75 L2683.71 1122.21 L2682.17 1119.04 L2680.63 1121.49 L2679.09 1155.31 L2677.55 1133.4 L2676.01 1096.69 L2674.48 1113.41 L2672.94 1142.66 
  L2671.4 1086.4 L2669.86 1063.49 L2668.32 1048.54 L2666.78 1037.86 L2665.25 1052.77 L2663.71 1051.04 L2662.17 1032.74 L2660.63 995.406 L2659.09 996.496 L2657.56 1022.5 
  L2656.02 1006.91 L2654.48 1000.57 L2652.94 1020.79 L2651.4 1011.2 L2649.86 1106.3 L2648.33 1063.75 L2646.79 1051.77 L2645.25 1115.41 L2643.71 1055.43 L2642.17 1081.5 
  L2640.64 1124.36 L2639.1 1136.88 L2637.56 1170.13 L2636.02 1186.59 L2634.48 1203.58 L2632.94 1184.61 L2631.41 1231.35 L2629.87 1203.86 L2628.33 1236.68 L2626.79 1279.19 
  L2625.25 1276.85 L2623.71 1274.12 L2622.18 1259.26 L2620.64 1223.66 L2619.1 1185.8 L2617.56 1219.7 L2616.02 1246.94 L2614.49 1184.22 L2612.95 1179.48 L2611.41 1133.97 
  L2609.87 1184.42 L2608.33 1174.13 L2606.79 1104.11 L2605.26 1114.45 L2603.72 1101.92 L2602.18 1145.43 L2600.64 1156.92 L2599.1 1148.79 L2597.56 1143.39 L2596.03 1160.61 
  L2594.49 1097.57 L2592.95 1131.17 L2591.41 1144.05 L2589.87 1155.45 L2588.34 1135.93 L2586.8 1171.03 L2585.26 1125.81 L2583.72 1128.65 L2582.18 1186.89 L2580.64 1183.49 
  L2579.11 1214.7 L2577.57 1219.31 L2576.03 1208.45 L2574.49 1151.56 L2572.95 1208.29 L2571.42 1215.86 L2569.88 1192.13 L2568.34 1195.41 L2566.8 1218.57 L2565.26 1192.92 
  L2563.72 1212.22 L2562.19 1180.92 L2560.65 1160.85 L2559.11 1141.22 L2557.57 1131 L2556.03 1135.83 L2554.49 1053.23 L2552.96 1082.78 L2551.42 1018.69 L2549.88 1005.26 
  L2548.34 980.554 L2546.8 958.885 L2545.27 974.348 L2543.73 902.954 L2542.19 919.217 L2540.65 945.455 L2539.11 915.262 L2537.57 962.863 L2536.04 926.36 L2534.5 984.428 
  L2532.96 927.272 L2531.42 919.317 L2529.88 977.983 L2528.34 980.61 L2526.81 965.332 L2525.27 1003.6 L2523.73 971.988 L2522.19 979.884 L2520.65 969.606 L2519.12 978.631 
  L2517.58 1028.41 L2516.04 1045.94 L2514.5 1032.33 L2512.96 1051.41 L2511.42 1069.26 L2509.89 1036.79 L2508.35 1112 L2506.81 1152.08 L2505.27 1126.47 L2503.73 1124.12 
  L2502.19 1125.44 L2500.66 1177.63 L2499.12 1148.4 L2497.58 1132.21 L2496.04 1154.32 L2494.5 1101.84 L2492.97 1049.74 L2491.43 1017.35 L2489.89 1020.12 L2488.35 986.264 
  L2486.81 924.126 L2485.27 873.388 L2483.74 849.168 L2482.2 802.034 L2480.66 790.397 L2479.12 762.114 L2477.58 744.328 L2476.05 733.925 L2474.51 719.487 L2472.97 716.651 
  L2471.43 689.893 L2469.89 700.768 L2468.35 704.077 L2466.82 714.246 L2465.28 695.614 L2463.74 694.431 L2462.2 692.537 L2460.66 696.954 L2459.12 687.958 L2457.59 666.08 
  L2456.05 687.516 L2454.51 690.527 L2452.97 674.777 L2451.43 686.406 L2449.9 661.83 L2448.36 688.171 L2446.82 648.425 L2445.28 658.152 L2443.74 645.947 L2442.2 639.948 
  L2440.67 633.057 L2439.13 629.363 L2437.59 625.118 L2436.05 630.494 L2434.51 615.608 L2432.97 615.878 L2431.44 614.644 L2429.9 615.153 L2428.36 608.589 L2426.82 605.569 
  L2425.28 615.621 L2423.75 606.385 L2422.21 613.199 L2420.67 622.83 L2419.13 607.238 L2417.59 614.043 L2416.05 633.838 L2414.52 643.617 L2412.98 634.14 L2411.44 647.241 
  L2409.9 646.379 L2408.36 664.459 L2406.83 670.093 L2405.29 663.444 L2403.75 661.468 L2402.21 716.091 L2400.67 713.544 L2399.13 726.675 L2397.6 749.951 L2396.06 742.942 
  L2394.52 801.358 L2392.98 820.234 L2391.44 842.996 L2389.9 879.19 L2388.37 941.565 L2386.83 990.077 L2385.29 945.731 L2383.75 1035.62 L2382.21 1101.87 L2380.68 1138.43 
  L2379.14 1124.33 L2377.6 1162.13 L2376.06 1192.44 L2374.52 1167.87 L2372.98 1246.54 L2371.45 1216.81 L2369.91 1272.55 L2368.37 1208.54 L2366.83 1248.8 L2365.29 1179.92 
  L2363.75 1188.27 L2362.22 1183.26 L2360.68 1199.91 L2359.14 1139.59 L2357.6 1028.65 L2356.06 1045.85 L2354.53 991.814 L2352.99 953.721 L2351.45 905.519 L2349.91 835.986 
  L2348.37 856.832 L2346.83 856.898 L2345.3 826.903 L2343.76 826.192 L2342.22 827.85 L2340.68 812.552 L2339.14 822.77 L2337.61 814.985 L2336.07 800.595 L2334.53 812.674 
  L2332.99 855.715 L2331.45 865.294 L2329.91 877.433 L2328.38 889.894 L2326.84 906.882 L2325.3 974.321 L2323.76 908.113 L2322.22 932.442 L2320.68 975.504 L2319.15 965.966 
  L2317.61 993.216 L2316.07 929.685 L2314.53 980.049 L2312.99 920.672 L2311.46 900.676 L2309.92 887.112 L2308.38 851.754 L2306.84 840.052 L2305.3 814.396 L2303.76 787.594 
  L2302.23 841.972 L2300.69 808.976 L2299.15 822.33 L2297.61 779.129 L2296.07 778.544 L2294.53 835.612 L2293 835.852 L2291.46 824.932 L2289.92 806.996 L2288.38 848.936 
  L2286.84 872.945 L2285.31 845.621 L2283.77 825.73 L2282.23 844.669 L2280.69 817.516 L2279.15 794.612 L2277.61 804.546 L2276.08 785.31 L2274.54 795.82 L2273 817.075 
  L2271.46 766.698 L2269.92 799.825 L2268.38 796.069 L2266.85 770.787 L2265.31 810.917 L2263.77 787.873 L2262.23 782.063 L2260.69 819.736 L2259.16 782.656 L2257.62 804.042 
  L2256.08 803.1 L2254.54 833.124 L2253 827.826 L2251.46 814.372 L2249.93 820.4 L2248.39 840.353 L2246.85 826.366 L2245.31 755.028 L2243.77 835.697 L2242.24 833.299 
  L2240.7 863.07 L2239.16 822.984 L2237.62 881.192 L2236.08 892.902 L2234.54 849.198 L2233.01 868.964 L2231.47 882.15 L2229.93 853.02 L2228.39 896.778 L2226.85 890.446 
  L2225.31 906.005 L2223.78 924.37 L2222.24 895.721 L2220.7 914.534 L2219.16 859.343 L2217.62 915.734 L2216.09 854.668 L2214.55 875.956 L2213.01 905.101 L2211.47 910.721 
  L2209.93 899.354 L2208.39 977.842 L2206.86 970.597 L2205.32 959.599 L2203.78 1008.18 L2202.24 1011.83 L2200.7 990.691 L2199.16 980.971 L2197.63 1022 L2196.09 1020.47 
  L2194.55 1045.55 L2193.01 1072.16 L2191.47 1093.67 L2189.94 1150.15 L2188.4 1097.02 L2186.86 1069.42 L2185.32 1126.25 L2183.78 1106.26 L2182.24 1108.58 L2180.71 1051.17 
  L2179.17 1088.74 L2177.63 1095.14 L2176.09 1089.45 L2174.55 1089.41 L2173.02 1075.12 L2171.48 1047.37 L2169.94 1013.09 L2168.4 1018.52 L2166.86 1018.44 L2165.32 1033.16 
  L2163.79 1043.85 L2162.25 963.166 L2160.71 1018.16 L2159.17 1052 L2157.63 1052.64 L2156.09 989.957 L2154.56 1047.85 L2153.02 1010.96 L2151.48 1008.98 L2149.94 1005.39 
  L2148.4 1018.29 L2146.87 987.576 L2145.33 1034.85 L2143.79 1082.79 L2142.25 1034.78 L2140.71 1103.08 L2139.17 1126.18 L2137.64 1135.28 L2136.1 1205.55 L2134.56 1207.19 
  L2133.02 1281.61 L2131.48 1277.11 L2129.94 1306.17 L2128.41 1280.34 L2126.87 1295.45 L2125.33 1326.21 L2123.79 1331.93 L2122.25 1280.86 L2120.72 1330.43 L2119.18 1288.41 
  L2117.64 1284.07 L2116.1 1283.39 L2114.56 1235.84 L2113.02 1162.65 L2111.49 1172.25 L2109.95 1155.67 L2108.41 1144.32 L2106.87 1108.79 L2105.33 1072.95 L2103.8 1046.79 
  L2102.26 980.268 L2100.72 943.577 L2099.18 995.813 L2097.64 955.059 L2096.1 904.782 L2094.57 885.318 L2093.03 902.933 L2091.49 882.81 L2089.95 863.148 L2088.41 859.51 
  L2086.87 812.071 L2085.34 876.069 L2083.8 904.882 L2082.26 900.427 L2080.72 884.972 L2079.18 917.386 L2077.65 913.562 L2076.11 975.217 L2074.57 990.189 L2073.03 983.611 
  L2071.49 1091.67 L2069.95 1124.17 L2068.42 1113.33 L2066.88 1147.69 L2065.34 1175.24 L2063.8 1250.76 L2062.26 1266.66 L2060.72 1274.16 L2059.19 1295.12 L2057.65 1334.47 
  L2056.11 1316.97 L2054.57 1387.48 L2053.03 1356.38 L2051.5 1381.8 L2049.96 1426.2 L2048.42 1355.3 L2046.88 1365.69 L2045.34 1390.08 L2043.8 1400.45 L2042.27 1358.18 
  L2040.73 1380.63 L2039.19 1388.77 L2037.65 1341.91 L2036.11 1342.54 L2034.57 1313.07 L2033.04 1277.3 L2031.5 1342.54 L2029.96 1313.55 L2028.42 1283.35 L2026.88 1283.66 
  L2025.35 1294.52 L2023.81 1286.07 L2022.27 1318.98 L2020.73 1353.24 L2019.19 1381.7 L2017.65 1416.64 L2016.12 1364.72 L2014.58 1360.24 L2013.04 1409.78 L2011.5 1309.66 
  L2009.96 1317.76 L2008.43 1166.33 L2006.89 1110.95 L2005.35 1109.14 L2003.81 1004.03 L2002.27 956.75 L2000.73 931.692 L1999.2 928.945 L1997.66 898.807 L1996.12 880.585 
  L1994.58 875.313 L1993.04 867.596 L1991.5 841.694 L1989.97 868.703 L1988.43 838.953 L1986.89 865.622 L1985.35 857.524 L1983.81 807.452 L1982.28 892.189 L1980.74 941.426 
  L1979.2 895.685 L1977.66 902.172 L1976.12 941.281 L1974.58 970.164 L1973.05 1003.2 L1971.51 1020 L1969.97 1083.04 L1968.43 1096.71 L1966.89 1127.77 L1965.35 1117.79 
  L1963.82 1189.91 L1962.28 1180.65 L1960.74 1186.71 L1959.2 1183.57 L1957.66 1174.69 L1956.13 1185.01 L1954.59 1207.37 L1953.05 1159.84 L1951.51 1212.07 L1949.97 1166.3 
  L1948.43 1134.31 L1946.9 1162.86 L1945.36 1158.99 L1943.82 1193.89 L1942.28 1136.04 L1940.74 1103.69 L1939.21 1119.02 L1937.67 1060.46 L1936.13 1080.95 L1934.59 1022.48 
  L1933.05 1008.87 L1931.51 962.413 L1929.98 972.774 L1928.44 927.761 L1926.9 942.793 L1925.36 932.165 L1923.82 935.258 L1922.28 875.034 L1920.75 890.544 L1919.21 888.848 
  L1917.67 889.379 L1916.13 906.053 L1914.59 933.986 L1913.06 893.088 L1911.52 903.202 L1909.98 879.564 L1908.44 834.923 L1906.9 851.741 L1905.36 843.729 L1903.83 843.874 
  L1902.29 783.2 L1900.75 759.93 L1899.21 774.23 L1897.67 725.623 L1896.13 689.891 L1894.6 723.76 L1893.06 683.675 L1891.52 676.063 L1889.98 692.388 L1888.44 669.215 
  L1886.91 661.277 L1885.37 654.546 L1883.83 665.531 L1882.29 645.617 L1880.75 646.186 L1879.21 657.831 L1877.68 667.893 L1876.14 645.194 L1874.6 665.513 L1873.06 666.358 
  L1871.52 655.321 L1869.99 663.915 L1868.45 670.553 L1866.91 660.089 L1865.37 668.122 L1863.83 688.986 L1862.29 678.791 L1860.76 684.049 L1859.22 706.032 L1857.68 686.992 
  L1856.14 719.129 L1854.6 706.854 L1853.06 716.568 L1851.53 711.471 L1849.99 699.892 L1848.45 697.207 L1846.91 715.313 L1845.37 681.733 L1843.84 680.557 L1842.3 671.393 
  L1840.76 670.41 L1839.22 685.686 L1837.68 677.098 L1836.14 639.688 L1834.61 669.353 L1833.07 653.904 L1831.53 664.125 L1829.99 644.351 L1828.45 636.04 L1826.91 645.608 
  L1825.38 650.222 L1823.84 641.886 L1822.3 633.445 L1820.76 629.06 L1819.22 643.575 L1817.69 642.108 L1816.15 626.096 L1814.61 622.973 L1813.07 642.131 L1811.53 651.181 
  L1809.99 643.256 L1808.46 627.187 L1806.92 639.938 L1805.38 636.87 L1803.84 638.417 L1802.3 641.502 L1800.76 645.664 L1799.23 686.685 L1797.69 663.536 L1796.15 680.444 
  L1794.61 689.579 L1793.07 682.326 L1791.54 686.238 L1790 692.446 L1788.46 692.815 L1786.92 685.879 L1785.38 705.705 L1783.84 701.952 L1782.31 707.374 L1780.77 691.302 
  L1779.23 710.143 L1777.69 718.694 L1776.15 735.109 L1774.62 744.468 L1773.08 737.069 L1771.54 790.291 L1770 753.093 L1768.46 839.493 L1766.92 869.728 L1765.39 832.498 
  L1763.85 919.438 L1762.31 912.688 L1760.77 937.863 L1759.23 908.988 L1757.69 876.715 L1756.16 840.85 L1754.62 847.845 L1753.08 826.96 L1751.54 857.278 L1750 783.529 
  L1748.47 800.761 L1746.93 769.809 L1745.39 778.066 L1743.85 807.615 L1742.31 781.63 L1740.77 776.798 L1739.24 776.597 L1737.7 761.297 L1736.16 776.614 L1734.62 748.971 
  L1733.08 752.408 L1731.54 768.563 L1730.01 785.322 L1728.47 747.162 L1726.93 747.657 L1725.39 771.753 L1723.85 754.671 L1722.32 771.84 L1720.78 794.921 L1719.24 768.148 
  L1717.7 793.078 L1716.16 780.49 L1714.62 809.073 L1713.09 786.082 L1711.55 834.246 L1710.01 834.043 L1708.47 807.406 L1706.93 818.288 L1705.4 875.053 L1703.86 855.19 
  L1702.32 864.147 L1700.78 909.409 L1699.24 893.343 L1697.7 881.896 L1696.17 895.665 L1694.63 855.861 L1693.09 879.868 L1691.55 900.407 L1690.01 942.661 L1688.47 910.634 
  L1686.94 939.686 L1685.4 989.529 L1683.86 942.345 L1682.32 1013.78 L1680.78 1051.19 L1679.25 1042.15 L1677.71 1087.5 L1676.17 1106.26 L1674.63 1124.71 L1673.09 1129.61 
  L1671.55 1117.73 L1670.02 1119.92 L1668.48 1171.5 L1666.94 1123.22 L1665.4 1119.88 L1663.86 1089.05 L1662.32 1120.2 L1660.79 1078.55 L1659.25 1076.46 L1657.71 1077.12 
  L1656.17 1107.67 L1654.63 1106.05 L1653.1 1128.37 L1651.56 1101.55 L1650.02 1121.95 L1648.48 1076.32 L1646.94 1169.24 L1645.4 1110.79 L1643.87 1152.11 L1642.33 1188.46 
  L1640.79 1128.84 L1639.25 1164.21 L1637.71 1086.31 L1636.18 1090.99 L1634.64 1049.85 L1633.1 1039.43 L1631.56 959.682 L1630.02 899.578 L1628.48 870.343 L1626.95 785.895 
  L1625.41 749.64 L1623.87 742.122 L1622.33 723.261 L1620.79 685.697 L1619.25 702.915 L1617.72 705.076 L1616.18 673.821 L1614.64 690.627 L1613.1 692.734 L1611.56 685.286 
  L1610.03 718.578 L1608.49 716.524 L1606.95 724.732 L1605.41 734.056 L1603.87 733.069 L1602.33 743.348 L1600.8 750.966 L1599.26 769.601 L1597.72 809.133 L1596.18 784.006 
  L1594.64 833.863 L1593.1 849.609 L1591.57 906.215 L1590.03 926.685 L1588.49 946.847 L1586.95 954.765 L1585.41 1000.57 L1583.88 992.492 L1582.34 1012.93 L1580.8 1055.69 
  L1579.26 997.381 L1577.72 1034.86 L1576.18 952.372 L1574.65 916.109 L1573.11 889.387 L1571.57 905.597 L1570.03 877.206 L1568.49 831.4 L1566.95 836.666 L1565.42 804.076 
  L1563.88 826.432 L1562.34 797.887 L1560.8 771.552 L1559.26 793.717 L1557.73 778.403 L1556.19 744.674 L1554.65 720.072 L1553.11 751.246 L1551.57 735.328 L1550.03 736.502 
  L1548.5 775.35 L1546.96 734.117 L1545.42 764.305 L1543.88 742.949 L1542.34 740.626 L1540.81 781.043 L1539.27 749.666 L1537.73 745.444 L1536.19 772.18 L1534.65 747.152 
  L1533.11 734.27 L1531.58 726.475 L1530.04 739.138 L1528.5 736.393 L1526.96 768.408 L1525.42 763.936 L1523.88 764.222 L1522.35 781.517 L1520.81 763.003 L1519.27 776.494 
  L1517.73 800.564 L1516.19 802.069 L1514.66 820.01 L1513.12 839.756 L1511.58 837.68 L1510.04 829.84 L1508.5 852.653 L1506.96 824.419 L1505.43 820.597 L1503.89 816.446 
  L1502.35 841.271 L1500.81 830.52 L1499.27 799.682 L1497.73 851.282 L1496.2 840.663 L1494.66 840.565 L1493.12 809.239 L1491.58 810.268 L1490.04 791.38 L1488.51 810.833 
  L1486.97 823.872 L1485.43 774.118 L1483.89 775.299 L1482.35 748.649 L1480.81 734.469 L1479.28 781.043 L1477.74 762.571 L1476.2 780.738 L1474.66 769.985 L1473.12 765.44 
  L1471.59 775.888 L1470.05 809.932 L1468.51 764.976 L1466.97 807.536 L1465.43 797.645 L1463.89 820.18 L1462.36 854.929 L1460.82 845.976 L1459.28 842.938 L1457.74 869.635 
  L1456.2 890.166 L1454.66 858.123 L1453.13 884.76 L1451.59 894.618 L1450.05 910.457 L1448.51 889.392 L1446.97 934.237 L1445.44 907.504 L1443.9 940.082 L1442.36 899.915 
  L1440.82 903.677 L1439.28 940.473 L1437.74 902.399 L1436.21 928.329 L1434.67 920.587 L1433.13 959.304 L1431.59 933.904 L1430.05 930.282 L1428.51 960.739 L1426.98 957.199 
  L1425.44 960.593 L1423.9 935.247 L1422.36 911.407 L1420.82 911.875 L1419.29 982.864 L1417.75 954.173 L1416.21 1000.14 L1414.67 956.989 L1413.13 961.176 L1411.59 983.073 
  L1410.06 944.565 L1408.52 927.054 L1406.98 843.213 L1405.44 859.679 L1403.9 852.664 L1402.37 800.95 L1400.83 797.725 L1399.29 738.663 L1397.75 709.409 L1396.21 699.976 
  L1394.67 706.238 L1393.14 696.091 L1391.6 689.595 L1390.06 664.581 L1388.52 682.969 L1386.98 693.734 L1385.44 690.595 L1383.91 688.628 L1382.37 678.868 L1380.83 698.709 
  L1379.29 701.383 L1377.75 720.669 L1376.22 720.22 L1374.68 741.011 L1373.14 743.577 L1371.6 760.767 L1370.06 743.434 L1368.52 750.109 L1366.99 753.137 L1365.45 777.874 
  L1363.91 738.241 L1362.37 747.74 L1360.83 772.906 L1359.29 755.344 L1357.76 752.718 L1356.22 760.423 L1354.68 761.697 L1353.14 777.748 L1351.6 783.345 L1350.07 816.857 
  L1348.53 768.286 L1346.99 842.492 L1345.45 844.112 L1343.91 877.112 L1342.37 921.68 L1340.84 889.547 L1339.3 983.336 L1337.76 1016.44 L1336.22 1086.86 L1334.68 1102.42 
  L1333.14 1195.57 L1331.61 1198.15 L1330.07 1217 L1328.53 1240.39 L1326.99 1261.75 L1325.45 1256.12 L1323.92 1245.33 L1322.38 1302.57 L1320.84 1247.05 L1319.3 1270.73 
  L1317.76 1241.47 L1316.22 1316.71 L1314.69 1288.24 L1313.15 1257.08 L1311.61 1275.01 L1310.07 1285.4 L1308.53 1288.73 L1307 1263.68 L1305.46 1279.68 L1303.92 1307.28 
  L1302.38 1285.06 L1300.84 1378.38 L1299.3 1331.14 L1297.77 1299.22 L1296.23 1324.37 L1294.69 1317.8 L1293.15 1324.16 L1291.61 1348.37 L1290.07 1312.4 L1288.54 1284.19 
  L1287 1302.05 L1285.46 1275.48 L1283.92 1290.45 L1282.38 1300.2 L1280.85 1229.24 L1279.31 1227.27 L1277.77 1216.39 L1276.23 1235.89 L1274.69 1222.82 L1273.15 1187.94 
  L1271.62 1180.49 L1270.08 1162.57 L1268.54 1164.61 L1267 1167.22 L1265.46 1165.82 L1263.92 1152.18 L1262.39 1067.23 L1260.85 1158.06 L1259.31 1154.38 L1257.77 1121.99 
  L1256.23 1089.17 L1254.7 1126.16 L1253.16 1138.77 L1251.62 1101.79 L1250.08 1081.64 L1248.54 1076.29 L1247 1124.1 L1245.47 1142.02 L1243.93 1040.49 L1242.39 1030.79 
  L1240.85 940.787 L1239.31 954.909 L1237.78 878.75 L1236.24 870.442 L1234.7 833.555 L1233.16 814.146 L1231.62 818.461 L1230.08 758.578 L1228.55 758.098 L1227.01 763.787 
  L1225.47 741.478 L1223.93 751.626 L1222.39 720.404 L1220.85 734.748 L1219.32 750.18 L1217.78 726.54 L1216.24 725.174 L1214.7 720.381 L1213.16 716.38 L1211.63 729.568 
  L1210.09 734.532 L1208.55 737.51 L1207.01 730.317 L1205.47 731.138 L1203.93 742.338 L1202.4 772.638 L1200.86 725.062 L1199.32 726.805 L1197.78 781.844 L1196.24 742.033 
  L1194.7 787.534 L1193.17 832.12 L1191.63 824.705 L1190.09 850.252 L1188.55 891.645 L1187.01 956.548 L1185.48 934.338 L1183.94 993.843 L1182.4 1055.79 L1180.86 1043.61 
  L1179.32 1126.4 L1177.78 1162.74 L1176.25 1176.79 L1174.71 1161.5 L1173.17 1262.19 L1171.63 1197.8 L1170.09 1235.13 L1168.56 1224.81 L1167.02 1247.39 L1165.48 1257.13 
  L1163.94 1261.89 L1162.4 1191.48 L1160.86 1236.9 L1159.33 1224.06 L1157.79 1250.97 L1156.25 1210.53 L1154.71 1263.3 L1153.17 1183.38 L1151.63 1263.97 L1150.1 1210.67 
  L1148.56 1223.8 L1147.02 1244.23 L1145.48 1265.28 L1143.94 1290.85 L1142.41 1253.44 L1140.87 1299.66 L1139.33 1315.42 L1137.79 1344.72 L1136.25 1359.53 L1134.71 1333.17 
  L1133.18 1386.81 L1131.64 1408.73 L1130.1 1376.36 L1128.56 1402.56 L1127.02 1393.23 L1125.48 1419.29 L1123.95 1401.57 L1122.41 1411.9 L1120.87 1345 L1119.33 1362.56 
  L1117.79 1326.43 L1116.26 1319.98 L1114.72 1319.41 L1113.18 1295.79 L1111.64 1305.47 L1110.1 1232.66 L1108.56 1260 L1107.03 1235.72 L1105.49 1293.89 L1103.95 1256.71 
  L1102.41 1219.65 L1100.87 1295.15 L1099.34 1314.43 L1097.8 1290.07 L1096.26 1310.73 L1094.72 1390.47 L1093.18 1388.16 L1091.64 1399.15 L1090.11 1392.22 L1088.57 1380.11 
  L1087.03 1369.84 L1085.49 1420.76 L1083.95 1418.72 L1082.41 1439.07 L1080.88 1408.69 L1079.34 1402.02 L1077.8 1385.68 L1076.26 1400.83 L1074.72 1391.22 L1073.19 1391.91 
  L1071.65 1417.22 L1070.11 1420.7 L1068.57 1397.81 L1067.03 1375.78 L1065.49 1358.11 L1063.96 1351.48 L1062.42 1364.48 L1060.88 1369.97 L1059.34 1365.03 L1057.8 1348.68 
  L1056.26 1331.23 L1054.73 1359.87 L1053.19 1305.2 L1051.65 1338.21 L1050.11 1383.12 L1048.57 1337.65 L1047.04 1348.95 L1045.5 1387.11 L1043.96 1382.54 L1042.42 1380.73 
  L1040.88 1444.29 L1039.34 1360.16 L1037.81 1384.12 L1036.27 1346.67 L1034.73 1356.21 L1033.19 1395.94 L1031.65 1329.93 L1030.11 1356.88 L1028.58 1319.9 L1027.04 1322.27 
  L1025.5 1303.43 L1023.96 1317.58 L1022.42 1324.77 L1020.89 1331.55 L1019.35 1294.89 L1017.81 1296.11 L1016.27 1300.63 L1014.73 1269.69 L1013.19 1215.42 L1011.66 1222.32 
  L1010.12 1181.14 L1008.58 1135.78 L1007.04 1167.82 L1005.5 1120.02 L1003.97 1147.9 L1002.43 1047.27 L1000.89 1139.58 L999.35 1127.06 L997.812 1103.06 L996.274 1126.79 
  L994.736 1090.95 L993.198 1084.91 L991.659 1118.36 L990.121 1079.98 L988.583 1034.75 L987.045 1028.19 L985.506 1019.05 L983.968 1041.49 L982.43 1053.66 L980.892 1033.98 
  L979.354 999.381 L977.815 991.882 L976.277 928.524 L974.739 969.316 L973.201 989.147 L971.662 951.651 L970.124 956.313 L968.586 956.519 L967.048 970.833 L965.51 979.007 
  L963.971 946.659 L962.433 950.175 L960.895 963.535 L959.357 930.155 L957.818 946.326 L956.28 991.709 L954.742 982.354 L953.204 963.361 L951.666 983.647 L950.127 952.727 
  L948.589 911.53 L947.051 898.26 L945.513 887.777 L943.974 877.78 L942.436 817.872 L940.898 867.978 L939.36 820.293 L937.822 815.522 L936.283 844.692 L934.745 802.57 
  L933.207 801.069 L931.669 801.059 L930.13 797.924 L928.592 796.401 L927.054 829.439 L925.516 808.267 L923.978 810.983 L922.439 795.602 L920.901 818.991 L919.363 826.963 
  L917.825 858.562 L916.286 873.931 L914.748 871.321 L913.21 905.458 L911.672 915.296 L910.133 907.031 L908.595 947.133 L907.057 1008.26 L905.519 1063.91 L903.981 1077.23 
  L902.442 1095.78 L900.904 1104.71 L899.366 1152.14 L897.828 1194.29 L896.289 1215.46 L894.751 1287.31 L893.213 1292.73 L891.675 1302.18 L890.137 1343.75 L888.598 1313.56 
  L887.06 1316.76 L885.522 1308.77 L883.984 1334.36 L882.445 1308.66 L880.907 1333.34 L879.369 1331.4 L877.831 1311.01 L876.293 1355.64 L874.754 1371.05 L873.216 1329.46 
  L871.678 1323.54 L870.14 1324.09 L868.601 1282.41 L867.063 1280.05 L865.525 1226.9 L863.987 1250.12 L862.449 1215.07 L860.91 1235.29 L859.372 1276.15 L857.834 1165.89 
  L856.296 1181.55 L854.757 1198.27 L853.219 1249.1 L851.681 1186.59 L850.143 1184.18 L848.605 1227.95 L847.066 1198.25 L845.528 1212.56 L843.99 1170 L842.452 1245.62 
  L840.913 1220.63 L839.375 1188.16 L837.837 1186.41 L836.299 1207.01 L834.761 1212.28 L833.222 1254.8 L831.684 1211.28 L830.146 1240.23 L828.608 1289.54 L827.069 1290.65 
  L825.531 1242.07 L823.993 1260.43 L822.455 1284.77 L820.917 1277.72 L819.378 1270.62 L817.84 1297.47 L816.302 1360.15 L814.764 1332.39 L813.225 1332.59 L811.687 1324.39 
  L810.149 1329.74 L808.611 1334.93 L807.073 1402.27 L805.534 1389.82 L803.996 1386.85 L802.458 1397.79 L800.92 1406.66 L799.381 1415.22 L797.843 1386.89 L796.305 1400.75 
  L794.767 1413.69 L793.228 1403.24 L791.69 1399.74 L790.152 1355.33 L788.614 1345.69 L787.076 1344.66 L785.537 1300.14 L783.999 1384.83 L782.461 1260.1 L780.923 1240.16 
  L779.384 1195.26 L777.846 1159.36 L776.308 1084.04 L774.77 1136.75 L773.232 1146.43 L771.693 1020.81 L770.155 1092.47 L768.617 1100.09 L767.079 1104.87 L765.54 995.863 
  L764.002 1018.86 L762.464 1051.4 L760.926 1034.31 L759.388 1051.63 L757.849 1032.1 L756.311 1034.57 L754.773 1089.78 L753.235 1054.7 L751.696 1064.63 L750.158 1058.85 
  L748.62 1121.82 L747.082 1088.65 L745.544 1061.79 L744.005 1128.5 L742.467 1119.22 L740.929 1151.23 L739.391 1140.3 L737.852 1162.32 L736.314 1154.56 L734.776 1151.84 
  L733.238 1187.22 L731.7 1202.57 L730.161 1212.87 L728.623 1229.88 L727.085 1242.08 L725.547 1222.7 L724.008 1226.35 L722.47 1201.91 L720.932 1243.17 L719.394 1231.89 
  L717.856 1200.61 L716.317 1186.16 L714.779 1194.19 L713.241 1187.28 L711.703 1187.06 L710.164 1238.49 L708.626 1231.46 L707.088 1237.24 L705.55 1178.36 L704.012 1206.29 
  L702.473 1240.82 L700.935 1226.66 L699.397 1207.29 L697.859 1215.99 L696.32 1232.05 L694.782 1140.67 L693.244 1155.27 L691.706 1133.68 L690.168 1153.72 L688.629 1169.81 
  L687.091 1100.57 L685.553 1092.12 L684.015 1129.76 L682.476 1105.59 L680.938 1116.61 L679.4 1093.18 L677.862 1082.98 L676.323 1070.34 L674.785 1091.21 L673.247 1061.39 
  L671.709 1104.76 L670.171 1156.44 L668.632 1104.58 L667.094 1148.99 L665.556 1184 L664.018 1230.12 L662.479 1240.95 L660.941 1270.83 L659.403 1281.37 L657.865 1270.95 
  L656.327 1351.05 L654.788 1350.63 L653.25 1313.22 L651.712 1347.18 L650.174 1350.62 L648.635 1350.31 L647.097 1354.03 L645.559 1378.75 L644.021 1329.75 L642.483 1355.52 
  L640.944 1350.16 L639.406 1323.94 L637.868 1357.59 L636.33 1376.6 L634.791 1290.46 L633.253 1322.34 L631.715 1307.47 L630.177 1383.29 L628.639 1364.04 L627.1 1386.77 
  L625.562 1396.27 L624.024 1365.72 L622.486 1389.19 L620.947 1380.13 L619.409 1408.07 L617.871 1404.18 L616.333 1423.43 L614.795 1458.21 L613.256 1404.99 L611.718 1439.61 
  L610.18 1461.68 L608.642 1450.64 L607.103 1465.71 L605.565 1466.46 L604.027 1454.24 L602.489 1423.32 L600.951 1476.32 L599.412 1440.86 L597.874 1412.5 L596.336 1404.64 
  L594.798 1402.5 L593.259 1437.93 L591.721 1438.96 L590.183 1405.76 L588.645 1369.62 L587.107 1375.95 L585.568 1409.08 L584.03 1354.67 L582.492 1360.33 L580.954 1367.05 
  L579.415 1392.05 L577.877 1332.8 L576.339 1331.65 L574.801 1344.85 L573.263 1346.25 L571.724 1313.86 L570.186 1327.72 L568.648 1273.33 L567.11 1295.79 L565.571 1247.53 
  L564.033 1264.74 L562.495 1285.95 L560.957 1291.23 L559.419 1254.61 L557.88 1292.54 L556.342 1254.87 L554.804 1245.58 L553.266 1224.57 L551.727 1268.92 L550.189 1216.52 
  L548.651 1263.3 L547.113 1233.83 L545.574 1168.58 L544.036 1147.02 L542.498 1153.89 L540.96 1118.81 L539.422 1093.75 L537.883 1073.52 L536.345 1070.37 L534.807 1062.86 
  L533.269 1003.38 L531.73 1071.05 L530.192 1010.97 L528.654 1056.07 L527.116 1070.43 L525.578 1049.37 L524.039 1033.43 L522.501 1029.6 L520.963 1087.01 L519.425 1070.91 
  L517.886 1098.31 L516.348 1116.6 L514.81 1094.68 L513.272 1054.14 L511.734 1103.24 L510.195 1128.14 L508.657 1130.25 L507.119 1166.33 L505.581 1174.73 L504.042 1117 
  L502.504 1138.09 L500.966 1176.51 L499.428 1177.88 L497.89 1184.23 L496.351 1259.55 L494.813 1189.8 L493.275 1177.73 L491.737 1127.53 L490.198 1187.88 L488.66 1170.28 
  L487.122 1168.49 L485.584 1177.01 L484.046 1193.52 L482.507 1195.36 L480.969 1251.17 L479.431 1288.53 L477.893 1275.56 L476.354 1337.03 L474.816 1356.75 L473.278 1392.84 
  L471.74 1419.21 L470.202 1397.89 L468.663 1415.23 L467.125 1433.81 L465.587 1420.3 L464.049 1423.59 L462.51 1440.03 L460.972 1431.18 L459.434 1389.4 L457.896 1406.22 
  L456.358 1432.41 L454.819 1399.37 L453.281 1405.31 L451.743 1359.61 L450.205 1406.53 L448.666 1388.31 L447.128 1374.65 L445.59 1356.73 L444.052 1369.07 L442.514 1353.99 
  L440.975 1364.33 L439.437 1345.85 L437.899 1317.69 L436.361 1285.16 L434.822 1328.08 L433.284 1373.94 L431.746 1304.52 L430.208 1332.69 L428.669 1345.37 L427.131 1310.13 
  L425.593 1336.92 L424.055 1343.12 L422.517 1310.2 L420.978 1343.06 L419.44 1343.2 L417.902 1314.51 L416.364 1294.16 L414.825 1324.68 L413.287 1305.59 L411.749 1285.21 
  L410.211 1307.85 L408.673 1262.07 L407.134 1262.98 L405.596 1246.51 L404.058 1208.56 L402.52 1157.82 L400.981 1138.82 L399.443 1115.51 L397.905 1090.63 L396.367 1088.2 
  L394.829 1034.91 L393.29 1027 L391.752 1010.75 L390.214 995.14 L388.676 1020.26 L387.137 937.157 L385.599 935.306 L384.061 935.9 L382.523 910.461 L380.985 937.149 
  L379.446 977.928 L377.908 981.756 L376.37 1021.92 L374.832 1013.68 L373.293 1070.48 L371.755 1088.54 L370.217 1124.42 L368.679 1095.98 L367.141 1163.32 L365.602 1173.66 
  L364.064 1187.98 L362.526 1255.44 L360.988 1293.46 L359.449 1328.71 L357.911 1357.06 L356.373 1403.83 L354.835 1389.6 L353.297 1446.09 L351.758 1462.76 L350.22 1420.16 
  L348.682 1463.22 L347.144 1475 L345.605 1470.1 L344.067 1424.91 L342.529 1456.59 L340.991 1482.55 L339.453 1465.82 L337.914 1434.57 L336.376 1492.07 L334.838 1448.28 
  L333.3 1431.57 L331.761 1459.92 L330.223 1412.36 L328.685 1388.75 L327.147 1395.12 L325.609 1397.18 L324.07 1448.74 L322.532 1437.7 L320.994 1372.97 L319.456 1400.25 
  L317.917 1380.47 L316.379 1402.02 L314.841 1354.48 L313.303 1395.46 L311.764 1447.36 L310.226 1407.57 L308.688 1436.53 L307.15 1458.24 L305.612 1466.82 L304.073 1428.06 
  L302.535 1426.18 L300.997 1385.75 L299.459 1437.98 L297.92 1434.72 L296.382 1411.5 L294.844 1412.79 L293.306 1385.69 L291.768 1396.91 L290.229 1401.85 L288.691 1416.56 
  L287.153 1354.21 L285.615 1402.47 L284.076 1404.99 L282.538 1417.27 L281 1411.92 L279.462 1431.07 L277.924 1414.66 L276.385 1417.03 L274.847 1446.06 L273.309 1391.27 
  L271.771 1452.93 L270.232 1381.42 L268.694 1356.15 L267.156 1309.44 L265.618 1321.68 L264.08 1285.3 L262.541 1325 L261.003 1247.96 L259.465 1211.47 L257.927 1238.17 
  L256.388 1153.07 L254.85 1195.86 L253.312 1144.02 L251.774 1140.45  Z
  " fill="#000000" fill-rule="evenodd" fill-opacity="0.2"/>
<polyline clip-path="url(#clip2702)" style="stroke:#000000; stroke-width:4; stroke-opacity:1; fill:none" points="
  251.774,1431.85 253.312,1412.19 254.85,1433.86 256.388,1432.89 257.927,1476.08 259.465,1459.58 261.003,1481.16 262.541,1517.26 264.08,1511.69 265.618,1526.3 
  267.156,1530.41 268.694,1551.35 270.232,1559.89 271.771,1593.03 273.309,1580.94 274.847,1600.11 276.385,1588.27 277.924,1589.17 279.462,1607.93 281,1592.43 
  282.538,1588.1 284.076,1572.18 285.615,1571.19 287.153,1562.9 288.691,1582.41 290.229,1575.82 291.768,1580.04 293.306,1579.06 294.844,1588.01 296.382,1585.68 
  297.92,1602.77 299.459,1591.78 300.997,1582.61 302.535,1601.67 304.073,1592.29 305.612,1609.29 307.15,1601.29 308.688,1589.35 310.226,1590.86 311.764,1602.25 
  313.303,1580.17 314.841,1562.13 316.379,1581.5 317.917,1583.97 319.456,1584.02 320.994,1569.22 322.532,1597.42 324.07,1594.85 325.609,1580.05 327.147,1589.8 
  328.685,1579.32 330.223,1591.04 331.761,1601.85 333.3,1600.84 334.838,1609.07 336.376,1616.48 337.914,1609.96 339.453,1614.87 340.991,1623.54 342.529,1617.69 
  344.067,1602.77 345.605,1621.68 347.144,1620.81 348.682,1612.79 350.22,1611.55 351.758,1617 353.297,1617.59 354.835,1587.22 356.373,1596.58 357.911,1563.34 
  359.449,1540.88 360.988,1529.53 362.526,1482.82 364.064,1455.33 365.602,1438.72 367.141,1417.56 368.679,1381.71 370.217,1367.55 371.755,1351.61 373.293,1327.44 
  374.832,1298.42 376.37,1284.35 377.908,1269.25 379.446,1242.66 380.985,1218.53 382.523,1208.36 384.061,1208.43 385.599,1213.84 387.137,1209.49 388.676,1251.84 
  390.214,1255.77 391.752,1261.05 393.29,1283.78 394.829,1304.11 396.367,1347.43 397.905,1339.98 399.443,1389.78 400.981,1388.34 402.52,1418.47 404.058,1440.91 
  405.596,1475.89 407.134,1485.3 408.673,1495.38 410.211,1521.85 411.749,1508.84 413.287,1518.71 414.825,1539.13 416.364,1518.96 417.902,1532.21 419.44,1548.98 
  420.978,1540.2 422.517,1530.72 424.055,1531.84 425.593,1535.56 427.131,1515.02 428.669,1531.99 430.208,1521.04 431.746,1506.88 433.284,1534.67 434.822,1530.25 
  436.361,1510.12 437.899,1513.08 439.437,1532.4 440.975,1545.64 442.514,1541.47 444.052,1554.35 445.59,1557.88 447.128,1562.76 448.666,1580.19 450.205,1574.22 
  451.743,1566.14 453.281,1579.52 454.819,1587.14 456.358,1590.5 457.896,1578.33 459.434,1583.13 460.972,1591.43 462.51,1595.2 464.049,1596.69 465.587,1595.87 
  467.125,1600.09 468.663,1594.32 470.202,1597.81 471.74,1589.75 473.278,1578.92 474.816,1563.29 476.354,1546.12 477.893,1514.82 479.431,1529.55 480.969,1502.55 
  482.507,1465.26 484.046,1461.3 485.584,1457.1 487.122,1446.57 488.66,1421.73 490.198,1436.33 491.737,1417.26 493.275,1455.31 494.813,1446.61 496.351,1488.62 
  497.89,1450.54 499.428,1446.14 500.966,1460.77 502.504,1449.21 504.042,1419.29 505.581,1435.73 507.119,1422.98 508.657,1400.91 510.195,1407.07 511.734,1386.97 
  513.272,1370.81 514.81,1390.07 516.348,1386.5 517.886,1373.59 519.425,1352.19 520.963,1373.28 522.501,1318.72 524.039,1328.58 525.578,1339.47 527.116,1346.99 
  528.654,1349.26 530.192,1320.75 531.73,1347.81 533.269,1323.97 534.807,1349.8 536.345,1349.52 537.883,1356.26 539.422,1367.93 540.96,1369.11 542.498,1417.29 
  544.036,1418.76 545.574,1418.49 547.113,1450.71 548.651,1481.08 550.189,1455.4 551.727,1484.41 553.266,1483.15 554.804,1479.44 556.342,1479.82 557.88,1503.12 
  559.419,1474.22 560.957,1509.27 562.495,1501.45 564.033,1498.6 565.571,1494.63 567.11,1508.22 568.648,1503.35 570.186,1523.44 571.724,1525.55 573.263,1532.74 
  574.801,1531.28 576.339,1538.37 577.877,1545.25 579.415,1561.9 580.954,1552.55 582.492,1545.15 584.03,1545.83 585.568,1585.24 587.107,1571.55 588.645,1566.24 
  590.183,1577.92 591.721,1593.81 593.259,1603.12 594.798,1575.94 596.336,1585.66 597.874,1593.06 599.412,1600.6 600.951,1616.52 602.489,1597.9 604.027,1610.78 
  605.565,1613.85 607.103,1611.84 608.642,1606.5 610.18,1614.63 611.718,1604.34 613.256,1588.37 614.795,1615.53 616.333,1585.05 617.871,1584.41 619.409,1586.77 
  620.947,1569.18 622.486,1575.23 624.024,1560.17 625.562,1576 627.1,1569.21 628.639,1554.76 630.177,1559.4 631.715,1536.53 633.253,1518.56 634.791,1531.57 
  636.33,1554 637.868,1557.65 639.406,1543.25 640.944,1545.71 642.483,1542.98 644.021,1546.18 645.559,1550.43 647.097,1536.57 648.635,1559.64 650.174,1554.9 
  651.712,1547.22 653.25,1542.49 654.788,1542.61 656.327,1535.93 657.865,1505.55 659.403,1501.16 660.941,1511.68 662.479,1492.38 664.018,1469.07 665.556,1432.2 
  667.094,1410.93 668.632,1382.75 670.171,1401.9 671.709,1364.17 673.247,1354.59 674.785,1360.78 676.323,1347.12 677.862,1339.95 679.4,1352.3 680.938,1369.27 
  682.476,1351.98 684.015,1373.63 685.553,1368.79 687.091,1363.97 688.629,1395.84 690.168,1395.66 691.706,1399.89 693.244,1404.62 694.782,1401.57 696.32,1456.22 
  697.859,1444.26 699.397,1438.02 700.935,1455.7 702.473,1466.35 704.012,1425.01 705.55,1449.74 707.088,1473.22 708.626,1464.91 710.164,1479.97 711.703,1460.84 
  713.241,1455.6 714.779,1453.13 716.317,1459.23 717.856,1444.44 719.394,1466.36 720.932,1458.88 722.47,1456.7 724.008,1468.85 725.547,1467.97 727.085,1462.21 
  728.623,1455.62 730.161,1450.19 731.7,1444.79 733.238,1431.15 734.776,1411.67 736.314,1396.47 737.852,1412.71 739.391,1387.59 740.929,1388.86 742.467,1367.04 
  744.005,1363.5 745.544,1341.79 747.082,1366.47 748.62,1361.39 750.158,1322.77 751.696,1336.21 753.235,1330.91 754.773,1333.56 756.311,1310.4 757.849,1323.81 
  759.388,1321.83 760.926,1301.08 762.464,1310 764.002,1311.95 765.54,1316.72 767.079,1338.53 768.617,1357.88 770.155,1350.31 771.693,1351.89 773.232,1403.8 
  774.77,1401.84 776.308,1397.43 777.846,1431.99 779.384,1457.55 780.923,1484.59 782.461,1494.76 783.999,1553.15 785.537,1543.35 787.076,1557.58 788.614,1553.66 
  790.152,1558.47 791.69,1575.5 793.228,1578.94 794.767,1574.8 796.305,1569.38 797.843,1571.93 799.381,1585.81 800.92,1570.71 802.458,1582.34 803.996,1570.65 
  805.534,1569.6 807.073,1577.89 808.611,1546.27 810.149,1537.9 811.687,1551.76 813.225,1530.17 814.764,1539.7 816.302,1538.58 817.84,1521.47 819.378,1507.36 
  820.917,1513.35 822.455,1516.85 823.993,1499.5 825.531,1491.59 827.069,1513.03 828.608,1506.06 830.146,1489.55 831.684,1482.49 833.222,1483.07 834.761,1463.17 
  836.299,1456.56 837.837,1448.07 839.375,1427.66 840.913,1452.61 842.452,1447.17 843.99,1425.98 845.528,1443.55 847.066,1429.42 848.605,1444.7 850.143,1420.47 
  851.681,1396.22 853.219,1441.63 854.757,1417.06 856.296,1424.4 857.834,1429.15 859.372,1465.33 860.91,1451.72 862.449,1461.62 863.987,1479.74 865.525,1482.3 
  867.063,1505.94 868.601,1502.32 870.14,1522.3 871.678,1523.65 873.216,1508.92 874.754,1548.13 876.293,1540.68 877.831,1507.93 879.369,1515.58 880.907,1541.24 
  882.445,1517.94 883.984,1538.81 885.522,1509.66 887.06,1508.7 888.598,1509.76 890.137,1532.44 891.675,1493.27 893.213,1511.51 894.751,1498.89 896.289,1459.41 
  897.828,1440.24 899.366,1431.56 900.904,1370.09 902.442,1386.01 903.981,1347.54 905.519,1341.55 907.057,1289.82 908.595,1262.57 910.133,1217.51 911.672,1196.67 
  913.21,1182.98 914.748,1142.4 916.286,1139.18 917.825,1120.52 919.363,1088.41 920.901,1067.22 922.439,1050.4 923.978,1046.64 925.516,1060.26 927.054,1061.02 
  928.592,1029.44 930.13,1039.34 931.669,1050.74 933.207,1040.13 934.745,1053.44 936.283,1056.4 937.822,1061.04 939.36,1052.83 940.898,1115.91 942.436,1120.14 
  943.974,1142.46 945.513,1140.92 947.051,1148.88 948.589,1180.13 950.127,1205.44 951.666,1255.55 953.204,1246.36 954.742,1239.83 956.28,1239.39 957.818,1205.05 
  959.357,1206.25 960.895,1235.02 962.433,1234.09 963.971,1227.26 965.51,1225.78 967.048,1239.9 968.586,1239.85 970.124,1252.49 971.662,1224.96 973.201,1248.16 
  974.739,1248.18 976.277,1235.24 977.815,1289.94 979.354,1278.39 980.892,1291.19 982.43,1321.87 983.968,1322.32 985.506,1303.99 987.045,1331.53 988.583,1291.99 
  990.121,1359.21 991.659,1359.42 993.198,1340.38 994.736,1345.77 996.274,1371.8 997.812,1337.2 999.35,1358.95 1000.89,1372.81 1002.43,1334.31 1003.97,1393.9 
  1005.5,1379.48 1007.04,1399.86 1008.58,1396.23 1010.12,1428.83 1011.66,1449.68 1013.19,1450.52 1014.73,1488.83 1016.27,1498.66 1017.81,1503.17 1019.35,1509.04 
  1020.89,1536.03 1022.42,1538.49 1023.96,1528.32 1025.5,1537.66 1027.04,1540.01 1028.58,1549.9 1030.11,1551.43 1031.65,1539.58 1033.19,1569.66 1034.73,1552.91 
  1036.27,1550.18 1037.81,1577.55 1039.34,1567.51 1040.88,1598.94 1042.42,1582.78 1043.96,1576.61 1045.5,1564.71 1047.04,1549.3 1048.57,1552.76 1050.11,1563.31 
  1051.65,1545.28 1053.19,1521.68 1054.73,1547.59 1056.26,1523.75 1057.8,1532.12 1059.34,1549.53 1060.88,1534.48 1062.42,1553.41 1063.96,1545.36 1065.49,1550.98 
  1067.03,1551.47 1068.57,1574.33 1070.11,1584.22 1071.65,1576.61 1073.19,1566.11 1074.72,1574.47 1076.26,1575.54 1077.8,1570.88 1079.34,1574.66 1080.88,1575.82 
  1082.41,1588.94 1083.95,1580.44 1085.49,1580.61 1087.03,1557.58 1088.57,1557.67 1090.11,1568.1 1091.64,1566 1093.18,1563.57 1094.72,1562.39 1096.26,1529.82 
  1097.8,1510.71 1099.34,1514.86 1100.87,1511.43 1102.41,1470.12 1103.95,1486.4 1105.49,1489.56 1107.03,1475.46 1108.56,1490.68 1110.1,1459.21 1111.64,1506.87 
  1113.18,1501.46 1114.72,1519.37 1116.26,1530.86 1117.79,1531.33 1119.33,1543.55 1120.87,1559.32 1122.41,1583.97 1123.95,1580.39 1125.48,1584.59 1127.02,1571.34 
  1128.56,1574.87 1130.1,1560.25 1131.64,1583.14 1133.18,1565.64 1134.71,1542.57 1136.25,1545.65 1137.79,1534.15 1139.33,1513.5 1140.87,1497.99 1142.41,1485.05 
  1143.94,1508.29 1145.48,1487.03 1147.02,1470.86 1148.56,1452.86 1150.1,1449.78 1151.63,1474.74 1153.17,1438.82 1154.71,1475.74 1156.25,1435.39 1157.79,1449.98 
  1159.33,1451.06 1160.86,1442.95 1162.4,1441.23 1163.94,1454.73 1165.48,1448.59 1167.02,1442.29 1168.56,1426.96 1170.09,1451.86 1171.63,1426.29 1173.17,1435.88 
  1174.71,1408.96 1176.25,1412.7 1177.78,1405.18 1179.32,1381.1 1180.86,1354.33 1182.4,1321.88 1183.94,1278.29 1185.48,1225.54 1187.01,1207.34 1188.55,1143.6 
  1190.09,1116.05 1191.63,1059.54 1193.17,1026.14 1194.7,1026.19 1196.24,975.794 1197.78,980.738 1199.32,951.481 1200.86,931.982 1202.4,952.155 1203.93,940.202 
  1205.47,916.881 1207.01,929.954 1208.55,926.395 1210.09,922.34 1211.63,931.89 1213.16,928.196 1214.7,926.932 1216.24,931.781 1217.78,935.948 1219.32,935.754 
  1220.85,926.786 1222.39,919.233 1223.93,942.161 1225.47,965.401 1227.01,983.622 1228.55,970.742 1230.08,1008.35 1231.62,1049.19 1233.16,1071.3 1234.7,1108.71 
  1236.24,1125.38 1237.78,1181.47 1239.31,1230.52 1240.85,1258.72 1242.39,1303.36 1243.93,1321.03 1245.47,1371.07 1247,1388.26 1248.54,1350.81 1250.08,1373.77 
  1251.62,1362.09 1253.16,1371.11 1254.7,1389.71 1256.23,1365.41 1257.77,1391.36 1259.31,1383.08 1260.85,1395.73 1262.39,1362.47 1263.92,1400.98 1265.46,1400.05 
  1267,1406.41 1268.54,1398.28 1270.08,1417.18 1271.62,1434.34 1273.15,1430.18 1274.69,1465.24 1276.23,1470.43 1277.77,1446.4 1279.31,1468.3 1280.85,1481.83 
  1282.38,1517.56 1283.92,1516.73 1285.46,1495.01 1287,1511.58 1288.54,1527.51 1290.07,1535.18 1291.61,1555.42 1293.15,1528.72 1294.69,1534.34 1296.23,1535.65 
  1297.77,1523.99 1299.3,1541.54 1300.84,1554.12 1302.38,1512.65 1303.92,1517.97 1305.46,1506.13 1307,1491.45 1308.53,1501.96 1310.07,1477.88 1311.61,1494.64 
  1313.15,1473.8 1314.69,1486.39 1316.22,1493.91 1317.76,1471.63 1319.3,1480.26 1320.84,1469.81 1322.38,1495.6 1323.92,1466.98 1325.45,1464.96 1326.99,1472.88 
  1328.53,1449.71 1330.07,1436.5 1331.61,1433.96 1333.14,1406.38 1334.68,1370.64 1336.22,1323.03 1337.76,1296.98 1339.3,1250.99 1340.84,1179.13 1342.37,1165.3 
  1343.91,1111.82 1345.45,1103.27 1346.99,1081.02 1348.53,1033.16 1350.07,1040.99 1351.6,1029.5 1353.14,1003.1 1354.68,970.128 1356.22,964.855 1357.76,978.57 
  1359.29,974.85 1360.83,974.869 1362.37,967.526 1363.91,963.735 1365.45,980.821 1366.99,957.369 1368.52,959.72 1370.06,975.43 1371.6,951.149 1373.14,939.181 
  1374.68,922.702 1376.22,923.629 1377.75,889.247 1379.29,864.799 1380.83,861.23 1382.37,848.052 1383.91,832.753 1385.44,837.456 1386.98,830.931 1388.52,827.853 
  1390.06,841.222 1391.6,847.562 1393.14,858.534 1394.67,866.558 1396.21,899.941 1397.75,919.878 1399.29,945.254 1400.83,973.54 1402.37,1016.82 1403.9,1037.58 
  1405.44,1079.6 1406.98,1079.66 1408.52,1146.31 1410.06,1171.56 1411.59,1191.21 1413.13,1196.64 1414.67,1186.79 1416.21,1224.98 1417.75,1218.63 1419.29,1212.98 
  1420.82,1194.38 1422.36,1205.49 1423.9,1218.21 1425.44,1214.13 1426.98,1191.15 1428.51,1191.45 1430.05,1200.41 1431.59,1184.29 1433.13,1184.75 1434.67,1141.18 
  1436.21,1161.29 1437.74,1147.8 1439.28,1161.11 1440.82,1131.76 1442.36,1147.09 1443.9,1131.35 1445.44,1118.79 1446.97,1141.4 1448.51,1118.01 1450.05,1139.1 
  1451.59,1128.73 1453.13,1123.57 1454.66,1102.95 1456.2,1127.05 1457.74,1105.31 1459.28,1080.71 1460.82,1064.72 1462.36,1056.33 1463.89,1051.12 1465.43,1019 
  1466.97,992.696 1468.51,994.558 1470.05,981.908 1471.59,979.628 1473.12,952.242 1474.66,934.329 1476.2,943.915 1477.74,924.003 1479.28,948.641 1480.81,946.384 
  1482.35,948.081 1483.89,946.39 1485.43,972.371 1486.97,999.858 1488.51,996.933 1490.04,1008.34 1491.58,1014.75 1493.12,1017.84 1494.66,1031.89 1496.2,1039.8 
  1497.73,1042 1499.27,1029.05 1500.81,1040.06 1502.35,1036.51 1503.89,1042.26 1505.43,1043.89 1506.96,1040.7 1508.5,1044.74 1510.04,1033.4 1511.58,1043.01 
  1513.12,1043.87 1514.66,1011.72 1516.19,1002.41 1517.73,989.179 1519.27,994.952 1520.81,963.334 1522.35,974.868 1523.88,943.122 1525.42,964.519 1526.96,955.235 
  1528.5,945.726 1530.04,930.547 1531.58,950.497 1533.11,940.679 1534.65,946.846 1536.19,945.436 1537.73,943.302 1539.27,959.439 1540.81,971.402 1542.34,956.593 
  1543.88,956.399 1545.42,959.827 1546.96,944.65 1548.5,969.7 1550.03,947.182 1551.57,970.351 1553.11,954.833 1554.65,943.423 1556.19,959.791 1557.73,969.662 
  1559.26,986.361 1560.8,975.359 1562.34,1032.32 1563.88,1020.64 1565.42,1037.06 1566.95,1040.42 1568.49,1067.39 1570.03,1093.88 1571.57,1143.9 1573.11,1139.09 
  1574.65,1150.56 1576.18,1211.48 1577.72,1246.75 1579.26,1230.69 1580.8,1261.15 1582.34,1238.47 1583.88,1250 1585.41,1227.81 1586.95,1207.07 1588.49,1174.47 
  1590.03,1152.48 1591.57,1130.63 1593.1,1088.79 1594.64,1080.92 1596.18,1037.06 1597.72,1037.55 1599.26,989.694 1600.8,976.202 1602.33,945.697 1603.87,947.145 
  1605.41,902.627 1606.95,887.445 1608.49,875.146 1610.03,866.995 1611.56,854.859 1613.1,842.596 1614.64,834.917 1616.18,841.975 1617.72,835.104 1619.25,854.806 
  1620.79,869.379 1622.33,900.98 1623.87,955.303 1625.41,982.904 1626.95,1023.27 1628.48,1119.67 1630.02,1163.67 1631.56,1228.05 1633.1,1302.84 1634.64,1330.1 
  1636.18,1350.96 1637.71,1378.33 1639.25,1405.45 1640.79,1404.81 1642.33,1408.82 1643.87,1406.92 1645.4,1374.87 1646.94,1396.03 1648.48,1363.88 1650.02,1375.29 
  1651.56,1359.51 1653.1,1348.49 1654.63,1362.91 1656.17,1349.58 1657.71,1331.25 1659.25,1341.23 1660.79,1332.22 1662.32,1351.35 1663.86,1348.4 1665.4,1351.14 
  1666.94,1383.53 1668.48,1393.02 1670.02,1363.04 1671.55,1390.21 1673.09,1381.65 1674.63,1367.63 1676.17,1350.9 1677.71,1361.96 1679.25,1316.63 1680.78,1308.08 
  1682.32,1275.51 1683.86,1218.94 1685.4,1233.47 1686.94,1201.02 1688.47,1187.35 1690.01,1169.53 1691.55,1148.77 1693.09,1141.1 1694.63,1154.52 1696.17,1133.99 
  1697.7,1133.34 1699.24,1133.96 1700.78,1152.62 1702.32,1120.83 1703.86,1096.14 1705.4,1102.89 1706.93,1068.66 1708.47,1038.26 1710.01,1026.13 1711.55,1017.2 
  1713.09,993.427 1714.62,985.369 1716.16,967.243 1717.7,939.168 1719.24,934.978 1720.78,936.175 1722.32,944.389 1723.85,943.534 1725.39,943.832 1726.93,926.688 
  1728.47,952.286 1730.01,961.196 1731.54,951.563 1733.08,958.984 1734.62,980.516 1736.16,969.183 1737.7,985.75 1739.24,995.819 1740.77,979.058 1742.31,995.331 
  1743.85,1010.88 1745.39,1009.54 1746.93,1028.32 1748.47,1009.89 1750,1044.31 1751.54,1048.21 1753.08,1059.93 1754.62,1076.54 1756.16,1104.74 1757.69,1104.83 
  1759.23,1159.79 1760.77,1158.63 1762.31,1166.14 1763.85,1155.8 1765.39,1129.94 1766.92,1098.11 1768.46,1078.88 1770,1015.58 1771.54,989.293 1773.08,951.205 
  1774.62,919.433 1776.15,896.348 1777.69,875.483 1779.23,869.259 1780.77,854.535 1782.31,848.86 1783.84,850.131 1785.38,838.61 1786.92,846.53 1788.46,832.089 
  1790,838.344 1791.54,834.167 1793.07,834.741 1794.61,835.557 1796.15,833.902 1797.69,828.28 1799.23,827.062 1800.76,811.974 1802.3,797.66 1803.84,799.941 
  1805.38,789.877 1806.92,777.105 1808.46,774.611 1809.99,773.771 1811.53,749.878 1813.07,759.71 1814.61,744.556 1816.15,750.802 1817.69,750.648 1819.22,737.082 
  1820.76,751.091 1822.3,754.26 1823.84,765.201 1825.38,758.526 1826.91,768.342 1828.45,774.239 1829.99,782.996 1831.53,776.832 1833.07,795.829 1834.61,800.857 
  1836.14,795.775 1837.68,816.962 1839.22,815.793 1840.76,824.908 1842.3,829.611 1843.84,849.622 1845.37,849.06 1846.91,869.829 1848.45,863.985 1849.99,864.048 
  1851.53,868.332 1853.06,877.247 1854.6,888.763 1856.14,866.385 1857.68,860.854 1859.22,847.933 1860.76,849.56 1862.29,817.074 1863.83,820.119 1865.37,810.56 
  1866.91,801.685 1868.45,786.176 1869.99,777.74 1871.52,788.91 1873.06,778.753 1874.6,769.317 1876.14,759.42 1877.68,753.763 1879.21,763.942 1880.75,764.781 
  1882.29,759.705 1883.83,759.533 1885.37,760.645 1886.91,778.228 1888.44,796.614 1889.98,803.902 1891.52,813.859 1893.06,825.371 1894.6,851.592 1896.13,871.965 
  1897.67,912.519 1899.21,952.995 1900.75,983.101 1902.29,1031.14 1903.83,1058.93 1905.36,1100.91 1906.9,1112.56 1908.44,1117.59 1909.98,1135.14 1911.52,1155.73 
  1913.06,1161.42 1914.59,1161.79 1916.13,1153.36 1917.67,1140.51 1919.21,1134.81 1920.75,1148.3 1922.28,1138.83 1923.82,1160.63 1925.36,1178.61 1926.9,1189.36 
  1928.44,1182.97 1929.98,1234.74 1931.51,1243.83 1933.05,1288.42 1934.59,1298.68 1936.13,1338.91 1937.67,1320.03 1939.21,1389.72 1940.74,1365.28 1942.28,1378.64 
  1943.82,1414.98 1945.36,1394.97 1946.9,1414.77 1948.43,1398.9 1949.97,1415.31 1951.51,1442.59 1953.05,1429.31 1954.59,1441.99 1956.13,1451.62 1957.66,1442.89 
  1959.2,1450.13 1960.74,1461.98 1962.28,1442.61 1963.82,1446.11 1965.35,1428.36 1966.89,1425.78 1968.43,1404.29 1969.97,1382.57 1971.51,1345.35 1973.05,1341.58 
  1974.58,1273.21 1976.12,1277.74 1977.66,1226.32 1979.2,1197.11 1980.74,1206.12 1982.28,1165.6 1983.81,1137.02 1985.35,1149.02 1986.89,1153.04 1988.43,1099.81 
  1989.97,1144.47 1991.5,1144.1 1993.04,1135.68 1994.58,1116.25 1996.12,1169.78 1997.66,1173.76 1999.2,1223.06 2000.73,1245.68 2002.27,1278.42 2003.81,1310.11 
  2005.35,1388.58 2006.89,1421.58 2008.43,1436.58 2009.96,1532.14 2011.5,1535.15 2013.04,1585.49 2014.58,1556.41 2016.12,1570.85 2017.65,1580.66 2019.19,1557.3 
  2020.73,1540.29 2022.27,1538.16 2023.81,1516.99 2025.35,1510.48 2026.88,1485.33 2028.42,1509.66 2029.96,1521.18 2031.5,1542.7 2033.04,1518.47 2034.57,1536.25 
  2036.11,1544.53 2037.65,1567.71 2039.19,1578.5 2040.73,1578.52 2042.27,1578.13 2043.8,1589.23 2045.34,1583.91 2046.88,1574.52 2048.42,1573.53 2049.96,1596.11 
  2051.5,1573.1 2053.03,1569.32 2054.57,1583.47 2056.11,1553.43 2057.65,1552.38 2059.19,1533.31 2060.72,1513.85 2062.26,1504.57 2063.8,1487.6 2065.34,1449.63 
  2066.88,1436.1 2068.42,1379.02 2069.95,1373.66 2071.49,1345.84 2073.03,1297.82 2074.57,1271.18 2076.11,1270.37 2077.65,1193.41 2079.18,1186.25 2080.72,1161.47 
  2082.26,1142.8 2083.8,1149.33 2085.34,1123.55 2086.87,1092.63 2088.41,1107.83 2089.95,1120.24 2091.49,1139.1 2093.03,1141.54 2094.57,1158.72 2096.1,1165.03 
  2097.64,1207.21 2099.18,1226.63 2100.72,1238.31 2102.26,1254.98 2103.8,1309.13 2105.33,1320.02 2106.87,1356.3 2108.41,1388.91 2109.95,1387.91 2111.49,1420.98 
  2113.02,1415.89 2114.56,1448.8 2116.1,1492.9 2117.64,1485.86 2119.18,1511.12 2120.72,1525.43 2122.25,1512.13 2123.79,1532.83 2125.33,1532.55 2126.87,1518.59 
  2128.41,1495.53 2129.94,1498.28 2131.48,1490.67 2133.02,1494.8 2134.56,1449.83 2136.1,1445.62 2137.64,1413.79 2139.17,1399.32 2140.71,1376.9 2142.25,1334.3 
  2143.79,1331.48 2145.33,1305.1 2146.87,1289.71 2148.4,1294.59 2149.94,1295.3 2151.48,1284.11 2153.02,1304.14 2154.56,1294.03 2156.09,1293.09 2157.63,1313.25 
  2159.17,1317.14 2160.71,1291.39 2162.25,1270.19 2163.79,1324 2165.32,1310.91 2166.86,1323.59 2168.4,1313.86 2169.94,1323.2 2171.48,1348.15 2173.02,1348.91 
  2174.55,1351.61 2176.09,1375.94 2177.63,1362.04 2179.17,1359.71 2180.71,1377.26 2182.24,1386.01 2183.78,1363.22 2185.32,1369.64 2186.86,1350.16 2188.4,1355.95 
  2189.94,1376.15 2191.47,1362.87 2193.01,1339.47 2194.55,1323.1 2196.09,1296.7 2197.63,1296.41 2199.16,1269.97 2200.7,1289.58 2202.24,1254.5 2203.78,1245.24 
  2205.32,1237.15 2206.86,1238.62 2208.39,1232.01 2209.93,1191.15 2211.47,1201.85 2213.01,1174.86 2214.55,1161.59 2216.09,1154.23 2217.62,1189.73 2219.16,1147.57 
  2220.7,1171.7 2222.24,1185.99 2223.78,1167.23 2225.31,1156.3 2226.85,1147.65 2228.39,1151.01 2229.93,1144.22 2231.47,1129.95 2233.01,1130.06 2234.54,1099.88 
  2236.08,1117.14 2237.62,1082.1 2239.16,1055.05 2240.7,1077.46 2242.24,1048.79 2243.77,1044.81 2245.31,1012.61 2246.85,1051.52 2248.39,1064.05 2249.93,1036.54 
  2251.46,1040.98 2253,1042.69 2254.54,1060.19 2256.08,1041.01 2257.62,1039.03 2259.16,1030.6 2260.69,1037.57 2262.23,1000.57 2263.77,1016.3 2265.31,1019.94 
  2266.85,1002.01 2268.38,1018.53 2269.92,1007.54 2271.46,1004.4 2273,1030.74 2274.54,1024.25 2276.08,1021.71 2277.61,1025.27 2279.15,1054.61 2280.69,1047.52 
  2282.23,1088.44 2283.77,1079.1 2285.31,1091.26 2286.84,1115.93 2288.38,1097.6 2289.92,1096.5 2291.46,1079.52 2293,1057.34 2294.53,1047.4 2296.07,1045.05 
  2297.61,1023.88 2299.15,1050.67 2300.69,1041.12 2302.23,1063.46 2303.76,1047.37 2305.3,1082.78 2306.84,1100.2 2308.38,1136.82 2309.92,1157.39 2311.46,1135.69 
  2312.99,1191.49 2314.53,1250.89 2316.07,1226.62 2317.61,1241.75 2319.15,1233.3 2320.68,1235.98 2322.22,1207.31 2323.76,1195 2325.3,1213.49 2326.84,1166.28 
  2328.38,1106.75 2329.91,1128.48 2331.45,1101.46 2332.99,1081.25 2334.53,1061.64 2336.07,1036.1 2337.61,1040.49 2339.14,1045.28 2340.68,1056.43 2342.22,1051.62 
  2343.76,1054.71 2345.3,1088.87 2346.83,1091.47 2348.37,1135.19 2349.91,1149.35 2351.45,1203.96 2352.99,1235.03 2354.53,1290 2356.06,1323.37 2357.6,1329.07 
  2359.14,1403.53 2360.68,1426.58 2362.22,1425.39 2363.75,1438.73 2365.29,1429.27 2366.83,1479.51 2368.37,1463.84 2369.91,1488.45 2371.45,1465.51 2372.98,1478.62 
  2374.52,1435.91 2376.06,1443.51 2377.6,1432.64 2379.14,1396.13 2380.68,1404.4 2382.21,1373.09 2383.75,1299.6 2385.29,1273.01 2386.83,1253.1 2388.37,1204.93 
  2389.9,1148.29 2391.44,1121.38 2392.98,1068.44 2394.52,1029.15 2396.06,990.126 2397.6,939.837 2399.13,930.526 2400.67,886.204 2402.21,867.631 2403.75,827.369 
  2405.29,806.968 2406.83,791.156 2408.36,770.256 2409.9,756.582 2411.44,746.205 2412.98,722.105 2414.52,715.401 2416.05,711.569 2417.59,700.959 2419.13,687.978 
  2420.67,687.221 2422.21,677.765 2423.75,671.546 2425.28,671.322 2426.82,671.565 2428.36,668.408 2429.9,670.935 2431.44,677.679 2432.97,684.383 2434.51,686.617 
  2436.05,691.582 2437.59,699.301 2439.13,702.64 2440.67,728.683 2442.2,731.039 2443.74,757.929 2445.28,767.315 2446.82,790.995 2448.36,807.364 2449.9,826.905 
  2451.43,832.252 2452.97,844.646 2454.51,852.871 2456.05,858.143 2457.59,859.605 2459.12,851.548 2460.66,854.104 2462.2,860.765 2463.74,861.007 2465.28,864.773 
  2466.82,866.17 2468.35,870.697 2469.89,902.68 2471.43,900.529 2472.97,908.036 2474.51,928.446 2476.05,953.664 2477.58,973.873 2479.12,977.384 2480.66,1033.16 
  2482.2,1080.46 2483.74,1124.6 2485.27,1143.03 2486.81,1170.42 2488.35,1252.25 2489.89,1267.7 2491.43,1295.3 2492.97,1318.55 2494.5,1361.58 2496.04,1381.43 
  2497.58,1368.66 2499.12,1399.11 2500.66,1405.16 2502.19,1387.25 2503.73,1373.11 2505.27,1381.84 2506.81,1388.36 2508.35,1347.71 2509.89,1319.15 2511.42,1325.28 
  2512.96,1307.95 2514.5,1298.95 2516.04,1317.92 2517.58,1286.17 2519.12,1265.2 2520.65,1270.17 2522.19,1260.98 2523.73,1274.4 2525.27,1268.78 2526.81,1254.49 
  2528.34,1240.19 2529.88,1254.18 2531.42,1206.88 2532.96,1229.04 2534.5,1242.96 2536.04,1207.44 2537.57,1225.86 2539.11,1210.55 2540.65,1193.06 2542.19,1209.87 
  2543.73,1198.05 2545.27,1226.99 2546.8,1237.97 2548.34,1261.25 2549.88,1269.6 2551.42,1296.5 2552.96,1339.21 2554.49,1342.34 2556.03,1370.17 2557.57,1360.56 
  2559.11,1378.84 2560.65,1399.03 2562.19,1402.14 2563.72,1407.99 2565.26,1401.05 2566.8,1420.61 2568.34,1420.88 2569.88,1410.07 2571.42,1411.44 2572.95,1429.63 
  2574.49,1401.67 2576.03,1432.09 2577.57,1425.28 2579.11,1435.71 2580.64,1428.41 2582.18,1416.71 2583.72,1408.44 2585.26,1394.55 2586.8,1424.27 2588.34,1392.66 
  2589.87,1408 2591.41,1403.28 2592.95,1394.18 2594.49,1383.64 2596.03,1408.57 2597.56,1390.18 2599.1,1406.95 2600.64,1406.12 2602.18,1388.33 2603.72,1375.59 
  2605.26,1382.88 2606.79,1387.81 2608.33,1412.19 2609.87,1409.34 2611.41,1390.87 2612.95,1431.61 2614.49,1437.48 2616.02,1477.98 2617.56,1449.2 2619.1,1449.41 
  2620.64,1471.79 2622.18,1481.06 2623.71,1483.65 2625.25,1496.85 2626.79,1481.52 2628.33,1456.47 2629.87,1451.16 2631.41,1443.96 2632.94,1432.42 2634.48,1423.2 
  2636.02,1417.7 2637.56,1388.4 2639.1,1365.74 2640.64,1358.05 2642.17,1327.1 2643.71,1328.15 2645.25,1331.16 2646.79,1319.82 2648.33,1298.33 2649.86,1307.17 
  2651.4,1273.99 2652.94,1270.6 2654.48,1258.12 2656.02,1259.45 2657.56,1280.36 2659.09,1264.79 2660.63,1277.96 2662.17,1282.2 2663.71,1294.15 2665.25,1309.77 
  2666.78,1312.09 2668.32,1321.29 2669.86,1318.28 2671.4,1359.9 2672.94,1394.05 2674.48,1381.4 2676.01,1368.31 2677.55,1391.69 2679.09,1404.39 2680.63,1379.06 
  2682.17,1395.56 2683.71,1394.63 2685.24,1422.81 2686.78,1406.35 2688.32,1408.88 2689.86,1417.01 2691.4,1441.15 2692.93,1455.65 2694.47,1470.34 2696.01,1446.21 
  2697.55,1490.73 2699.09,1501.48 2700.63,1486.4 2702.16,1478.94 2703.7,1490.93 2705.24,1513.52 2706.78,1518.29 2708.32,1498.05 2709.86,1467.11 2711.39,1450.06 
  2712.93,1452.55 2714.47,1434.3 2716.01,1408.72 2717.55,1370.21 2719.08,1352.25 2720.62,1335.55 2722.16,1273.85 2723.7,1271.99 2725.24,1239.01 2726.78,1222.75 
  2728.31,1200.58 2729.85,1200.25 2731.39,1163.74 2732.93,1184.42 2734.47,1187.35 2736,1190.82 2737.54,1167.52 2739.08,1163.11 2740.62,1182.16 2742.16,1152.85 
  2743.7,1159.87 2745.23,1132.5 2746.77,1120.67 2748.31,1122.79 2749.85,1106.8 2751.39,1087.8 2752.93,1073.3 2754.46,1061.24 2756,1072.25 2757.54,1074.78 
  2759.08,1082.75 2760.62,1056.12 2762.15,1076.71 2763.69,1072.79 2765.23,1126.44 2766.77,1134.81 2768.31,1175.2 2769.85,1192.55 2771.38,1257.47 2772.92,1289 
  2774.46,1324.28 2776,1366.74 2777.54,1394.12 2779.08,1451.7 2780.61,1458.91 2782.15,1470.88 2783.69,1498.1 2785.23,1507.48 2786.77,1528.17 2788.3,1511.09 
  2789.84,1510.53 2791.38,1503.34 2792.92,1521.11 2794.46,1514.96 2796,1514.91 2797.53,1506.81 2799.07,1501.03 2800.61,1509.16 2802.15,1514.43 2803.69,1509.76 
  2805.23,1514.81 2806.76,1499.01 2808.3,1501.51 2809.84,1501.49 2811.38,1500.1 2812.92,1507.06 2814.45,1492.64 2815.99,1479.06 2817.53,1505.79 2819.07,1489.34 
  2820.61,1500.64 2822.15,1492.68 2823.68,1496.91 2825.22,1493.41 2826.76,1495.39 2828.3,1493.51 2829.84,1495.76 2831.37,1488.89 2832.91,1478.93 2834.45,1482.89 
  2835.99,1455.7 2837.53,1479.68 2839.07,1462.45 2840.6,1452.03 2842.14,1439.66 2843.68,1442.39 2845.22,1422.15 2846.76,1422.94 2848.3,1422.35 2849.83,1436.82 
  2851.37,1402.97 2852.91,1405.37 2854.45,1405.51 2855.99,1413.86 2857.52,1393.56 2859.06,1365.24 2860.6,1407.35 2862.14,1388.84 2863.68,1375.6 2865.22,1380.55 
  2866.75,1382.15 2868.29,1366.48 2869.83,1338.75 2871.37,1297.64 2872.91,1282.42 2874.45,1212.11 2875.98,1151.01 2877.52,1101.83 2879.06,1043.16 2880.6,994.938 
  2882.14,945.682 2883.67,911.449 2885.21,859.958 2886.75,840.847 2888.29,818.377 2889.83,815.381 2891.37,800.463 2892.9,788.179 2894.44,781.303 2895.98,792.476 
  2897.52,792.989 2899.06,792.692 2900.59,805.023 2902.13,810.601 2903.67,801.872 2905.21,802.988 2906.75,810.606 2908.29,810.171 2909.82,819.76 2911.36,830.608 
  2912.9,827.533 2914.44,836.926 2915.98,842.725 2917.52,859.951 2919.05,856.241 2920.59,857.994 2922.13,869.133 2923.67,869.758 2925.21,862.932 2926.74,867.877 
  2928.28,883.431 2929.82,895.875 2931.36,916.941 2932.9,912.205 2934.44,917.291 2935.97,935.234 2937.51,958.522 2939.05,983.154 2940.59,990.831 2942.13,1030.26 
  2943.67,1022.79 2945.2,1032.15 2946.74,1009.27 2948.28,973.897 2949.82,982.641 2951.36,950.463 2952.89,936.02 2954.43,930.545 2955.97,897.019 2957.51,897.905 
  2959.05,887.659 2960.59,882.4 2962.12,859.982 2963.66,843.129 2965.2,831.07 2966.74,853.168 2968.28,827.816 2969.81,830.371 2971.35,813.492 2972.89,832.348 
  2974.43,822.918 2975.97,842.954 2977.51,835.922 2979.04,848.51 2980.58,863 2982.12,886.847 2983.66,890.711 2985.2,927.486 2986.74,964.093 2988.27,1013.31 
  2989.81,1041.19 2991.35,1094.5 2992.89,1084.28 2994.43,1150.3 2995.96,1173.18 2997.5,1213.28 2999.04,1247.08 3000.58,1286.48 3002.12,1294.25 3003.66,1328.9 
  3005.19,1334.57 3006.73,1387.29 3008.27,1399.03 3009.81,1437.37 3011.35,1431.12 3012.89,1449.73 3014.42,1494.16 3015.96,1500.83 3017.5,1530.94 3019.04,1536.96 
  3020.58,1541.65 3022.11,1542.8 3023.65,1531.33 3025.19,1537.91 3026.73,1513.18 3028.27,1533.66 3029.81,1516.91 3031.34,1509.41 3032.88,1472 3034.42,1470.75 
  3035.96,1431.18 3037.5,1397.68 3039.04,1390.72 3040.57,1357.38 3042.11,1348.43 3043.65,1288.42 3045.19,1272.72 3046.73,1257.96 3048.26,1236.31 3049.8,1205.17 
  3051.34,1223.09 3052.88,1225.27 3054.42,1225.32 3055.96,1235.51 3057.49,1232.31 3059.03,1223.77 3060.57,1229.14 3062.11,1237.75 3063.65,1255.1 3065.18,1254.22 
  3066.72,1262.53 3068.26,1249.55 
  "/>
</svg>
