<?xml version="1.0" encoding="utf-8"?>
<svg xmlns="http://www.w3.org/2000/svg" xmlns:xlink="http://www.w3.org/1999/xlink" width="800" height="480" viewBox="0 0 3200 1920">
<defs>
  <clipPath id="clip4700">
    <rect x="0" y="0" width="3200" height="1920"/>
  </clipPath>
</defs>
<path clip-path="url(#clip4700)" d="
M0 1920 L3200 1920 L3200 0 L0 0  Z
  " fill="#ffffff" fill-rule="evenodd" fill-opacity="1"/>
<defs>
  <clipPath id="clip4701">
    <rect x="640" y="0" width="2241" height="1920"/>
  </clipPath>
</defs>
<path clip-path="url(#clip4700)" d="
M167.279 1807.47 L3152.76 1807.47 L3152.76 121.675 L167.279 121.675  Z
  " fill="#ffffff" fill-rule="evenodd" fill-opacity="1"/>
<defs>
  <clipPath id="clip4702">
    <rect x="167" y="121" width="2986" height="1687"/>
  </clipPath>
</defs>
<polyline clip-path="url(#clip4702)" style="stroke:#000000; stroke-width:2; stroke-opacity:0.1; fill:none" points="
  250.236,1807.47 250.236,121.675 
  "/>
<polyline clip-path="url(#clip4702)" style="stroke:#000000; stroke-width:2; stroke-opacity:0.1; fill:none" points="
  1019.35,1807.47 1019.35,121.675 
  "/>
<polyline clip-path="url(#clip4702)" style="stroke:#000000; stroke-width:2; stroke-opacity:0.1; fill:none" points="
  1788.46,1807.47 1788.46,121.675 
  "/>
<polyline clip-path="url(#clip4702)" style="stroke:#000000; stroke-width:2; stroke-opacity:0.1; fill:none" points="
  2557.57,1807.47 2557.57,121.675 
  "/>
<polyline clip-path="url(#clip4702)" style="stroke:#000000; stroke-width:2; stroke-opacity:0.1; fill:none" points="
  167.279,1759.76 3152.76,1759.76 
  "/>
<polyline clip-path="url(#clip4702)" style="stroke:#000000; stroke-width:2; stroke-opacity:0.1; fill:none" points="
  167.279,1362.17 3152.76,1362.17 
  "/>
<polyline clip-path="url(#clip4702)" style="stroke:#000000; stroke-width:2; stroke-opacity:0.1; fill:none" points="
  167.279,964.575 3152.76,964.575 
  "/>
<polyline clip-path="url(#clip4702)" style="stroke:#000000; stroke-width:2; stroke-opacity:0.1; fill:none" points="
  167.279,566.981 3152.76,566.981 
  "/>
<polyline clip-path="url(#clip4702)" style="stroke:#000000; stroke-width:2; stroke-opacity:0.1; fill:none" points="
  167.279,169.386 3152.76,169.386 
  "/>
<polyline clip-path="url(#clip4700)" style="stroke:#000000; stroke-width:4; stroke-opacity:1; fill:none" points="
  167.279,1807.47 3152.76,1807.47 
  "/>
<polyline clip-path="url(#clip4700)" style="stroke:#000000; stroke-width:4; stroke-opacity:1; fill:none" points="
  167.279,1807.47 167.279,121.675 
  "/>
<polyline clip-path="url(#clip4700)" style="stroke:#000000; stroke-width:4; stroke-opacity:1; fill:none" points="
  250.236,1807.47 250.236,1787.25 
  "/>
<polyline clip-path="url(#clip4700)" style="stroke:#000000; stroke-width:4; stroke-opacity:1; fill:none" points="
  1019.35,1807.47 1019.35,1787.25 
  "/>
<polyline clip-path="url(#clip4700)" style="stroke:#000000; stroke-width:4; stroke-opacity:1; fill:none" points="
  1788.46,1807.47 1788.46,1787.25 
  "/>
<polyline clip-path="url(#clip4700)" style="stroke:#000000; stroke-width:4; stroke-opacity:1; fill:none" points="
  2557.57,1807.47 2557.57,1787.25 
  "/>
<polyline clip-path="url(#clip4700)" style="stroke:#000000; stroke-width:4; stroke-opacity:1; fill:none" points="
  167.279,1759.76 203.105,1759.76 
  "/>
<polyline clip-path="url(#clip4700)" style="stroke:#000000; stroke-width:4; stroke-opacity:1; fill:none" points="
  167.279,1362.17 203.105,1362.17 
  "/>
<polyline clip-path="url(#clip4700)" style="stroke:#000000; stroke-width:4; stroke-opacity:1; fill:none" points="
  167.279,964.575 203.105,964.575 
  "/>
<polyline clip-path="url(#clip4700)" style="stroke:#000000; stroke-width:4; stroke-opacity:1; fill:none" points="
  167.279,566.981 203.105,566.981 
  "/>
<polyline clip-path="url(#clip4700)" style="stroke:#000000; stroke-width:4; stroke-opacity:1; fill:none" points="
  167.279,169.386 203.105,169.386 
  "/>
<g clip-path="url(#clip4700)">
<text style="fill:#000000; fill-opacity:1; font-family:Arial,Helvetica Neue,Helvetica,sans-serif; font-size:48px; text-anchor:middle;" transform="rotate(0, 250.236, 1865.47)" x="250.236" y="1865.47">0</text>
</g>
<g clip-path="url(#clip4700)">
<text style="fill:#000000; fill-opacity:1; font-family:Arial,Helvetica Neue,Helvetica,sans-serif; font-size:48px; text-anchor:middle;" transform="rotate(0, 1019.35, 1865.47)" x="1019.35" y="1865.47">500</text>
</g>
<g clip-path="url(#clip4700)">
<text style="fill:#000000; fill-opacity:1; font-family:Arial,Helvetica Neue,Helvetica,sans-serif; font-size:48px; text-anchor:middle;" transform="rotate(0, 1788.46, 1865.47)" x="1788.46" y="1865.47">1000</text>
</g>
<g clip-path="url(#clip4700)">
<text style="fill:#000000; fill-opacity:1; font-family:Arial,Helvetica Neue,Helvetica,sans-serif; font-size:48px; text-anchor:middle;" transform="rotate(0, 2557.57, 1865.47)" x="2557.57" y="1865.47">1500</text>
</g>
<g clip-path="url(#clip4700)">
<text style="fill:#000000; fill-opacity:1; font-family:Arial,Helvetica Neue,Helvetica,sans-serif; font-size:48px; text-anchor:end;" transform="rotate(0, 135.279, 1777.26)" x="135.279" y="1777.26">0</text>
</g>
<g clip-path="url(#clip4700)">
<text style="fill:#000000; fill-opacity:1; font-family:Arial,Helvetica Neue,Helvetica,sans-serif; font-size:48px; text-anchor:end;" transform="rotate(0, 135.279, 1379.67)" x="135.279" y="1379.67">25</text>
</g>
<g clip-path="url(#clip4700)">
<text style="fill:#000000; fill-opacity:1; font-family:Arial,Helvetica Neue,Helvetica,sans-serif; font-size:48px; text-anchor:end;" transform="rotate(0, 135.279, 982.075)" x="135.279" y="982.075">50</text>
</g>
<g clip-path="url(#clip4700)">
<text style="fill:#000000; fill-opacity:1; font-family:Arial,Helvetica Neue,Helvetica,sans-serif; font-size:48px; text-anchor:end;" transform="rotate(0, 135.279, 584.481)" x="135.279" y="584.481">75</text>
</g>
<g clip-path="url(#clip4700)">
<text style="fill:#000000; fill-opacity:1; font-family:Arial,Helvetica Neue,Helvetica,sans-serif; font-size:48px; text-anchor:end;" transform="rotate(0, 135.279, 186.886)" x="135.279" y="186.886">100</text>
</g>
<polyline clip-path="url(#clip4702)" style="stroke:#000000; stroke-width:4; stroke-opacity:1; fill:none" points="
  167.279,121.675 3152.76,121.675 
  "/>
<polyline clip-path="url(#clip4702)" style="stroke:#000000; stroke-width:4; stroke-opacity:1; fill:none" points="
  3152.76,1807.47 3152.76,121.675 
  "/>
<g clip-path="url(#clip4700)">
<text style="fill:#000000; fill-opacity:1; font-family:Arial,Helvetica Neue,Helvetica,sans-serif; font-size:82px; text-anchor:middle;" transform="rotate(0, 1660.02, 72)" x="1660.02" y="72">TVP Network Connectedness</text>
</g>
<path clip-path="url(#clip4702)" d="
M251.774 1687.14 L253.312 1701.9 L254.85 1689.19 L256.388 1708.52 L257.927 1747.76 L259.465 1697.51 L261.003 1713.07 L262.541 1727.65 L264.08 1761.69 L265.618 1707.41 
  L267.156 1756.19 L268.694 1748.56 L270.232 1741.63 L271.771 1760.52 L273.309 1777.5 L274.847 1778.39 L276.385 1796.96 L277.924 1781.46 L279.462 1745.39 L281 1766.34 
  L282.538 1779.38 L284.076 1783.1 L285.615 1772.5 L287.153 1758.75 L288.691 1752.19 L290.229 1758.27 L291.768 1769.02 L293.306 1750.23 L294.844 1776.89 L296.382 1757.06 
  L297.92 1746.39 L299.459 1754.9 L300.997 1801.63 L302.535 1755.88 L304.073 1745.8 L305.612 1757.23 L307.15 1755.28 L308.688 1751.13 L310.226 1751.68 L311.764 1756.55 
  L313.303 1738.97 L314.841 1737.87 L316.379 1761.83 L317.917 1766.59 L319.456 1776.71 L320.994 1745.8 L322.532 1753.97 L324.07 1755.69 L325.609 1760.16 L327.147 1749.19 
  L328.685 1754.05 L330.223 1741.99 L331.761 1769.12 L333.3 1738.64 L334.838 1754.35 L336.376 1757.55 L337.914 1779.19 L339.453 1765.37 L340.991 1762 L342.529 1798.47 
  L344.067 1774.89 L345.605 1799.14 L347.144 1762.26 L348.682 1799.15 L350.22 1788.95 L351.758 1772.37 L353.297 1788.83 L354.835 1803.78 L356.373 1781.48 L357.911 1756.78 
  L359.449 1772.73 L360.988 1747.88 L362.526 1748.95 L364.064 1700.82 L365.602 1682.45 L367.141 1653.46 L368.679 1656.06 L370.217 1643.54 L371.755 1604.29 L373.293 1621.26 
  L374.832 1627.5 L376.37 1548.98 L377.908 1525.7 L379.446 1459.83 L380.985 1537.39 L382.523 1529.93 L384.061 1507.17 L385.599 1491.82 L387.137 1504.19 L388.676 1550.96 
  L390.214 1487.19 L391.752 1548.19 L393.29 1555.45 L394.829 1596.13 L396.367 1581.81 L397.905 1590.06 L399.443 1636.19 L400.981 1690.73 L402.52 1682.12 L404.058 1692.64 
  L405.596 1696.94 L407.134 1709.83 L408.673 1763.81 L410.211 1726.8 L411.749 1756.37 L413.287 1740.46 L414.825 1765.28 L416.364 1767.42 L417.902 1777.74 L419.44 1724.9 
  L420.978 1752.37 L422.517 1716.57 L424.055 1733.79 L425.593 1744.29 L427.131 1743.23 L428.669 1744.79 L430.208 1686.65 L431.746 1704.09 L433.284 1723.76 L434.822 1696.24 
  L436.361 1689.17 L437.899 1691.93 L439.437 1722.12 L440.975 1739.48 L442.514 1735.34 L444.052 1731.64 L445.59 1711.62 L447.128 1776.22 L448.666 1738.82 L450.205 1752.94 
  L451.743 1753.39 L453.281 1783.29 L454.819 1786.63 L456.358 1786.43 L457.896 1754.79 L459.434 1752.54 L460.972 1769.21 L462.51 1763 L464.049 1776.92 L465.587 1749.56 
  L467.125 1762.06 L468.663 1773.74 L470.202 1790.24 L471.74 1749.67 L473.278 1783.96 L474.816 1758.73 L476.354 1750.73 L477.893 1767.04 L479.431 1787.5 L480.969 1743.74 
  L482.507 1731.94 L484.046 1746.35 L485.584 1748.48 L487.122 1710.91 L488.66 1680.53 L490.198 1693.59 L491.737 1742.24 L493.275 1692.43 L494.813 1706.99 L496.351 1751.65 
  L497.89 1721.87 L499.428 1711.05 L500.966 1739.02 L502.504 1699.02 L504.042 1683.48 L505.581 1729.33 L507.119 1697.21 L508.657 1681.65 L510.195 1684.07 L511.734 1664.02 
  L513.272 1635.17 L514.81 1671.88 L516.348 1676.24 L517.886 1674.64 L519.425 1688.08 L520.963 1657.16 L522.501 1619.16 L524.039 1651.57 L525.578 1622.3 L527.116 1601.16 
  L528.654 1664.5 L530.192 1636.85 L531.73 1642.73 L533.269 1617.52 L534.807 1638.25 L536.345 1648.48 L537.883 1671.45 L539.422 1669.02 L540.96 1666.59 L542.498 1679.5 
  L544.036 1664.65 L545.574 1689.96 L547.113 1702.77 L548.651 1706.07 L550.189 1708.43 L551.727 1671.17 L553.266 1696.25 L554.804 1691.67 L556.342 1712.31 L557.88 1698.78 
  L559.419 1704.97 L560.957 1698.32 L562.495 1736.53 L564.033 1727.8 L565.571 1738.07 L567.11 1754.78 L568.648 1708.73 L570.186 1737.01 L571.724 1722.43 L573.263 1745.36 
  L574.801 1716.93 L576.339 1724.49 L577.877 1749.89 L579.415 1735.24 L580.954 1751.62 L582.492 1757.36 L584.03 1729.64 L585.568 1759.65 L587.107 1779.66 L588.645 1767.78 
  L590.183 1764.4 L591.721 1773.55 L593.259 1746.2 L594.798 1789.35 L596.336 1773.45 L597.874 1795.83 L599.412 1757.92 L600.951 1763.29 L602.489 1756.99 L604.027 1773.52 
  L605.565 1782.51 L607.103 1780.35 L608.642 1764.02 L610.18 1772.92 L611.718 1769.3 L613.256 1761.46 L614.795 1773.13 L616.333 1762.56 L617.871 1759.32 L619.409 1786.1 
  L620.947 1770.52 L622.486 1751.05 L624.024 1740.71 L625.562 1740.27 L627.1 1748.25 L628.639 1755.62 L630.177 1753.85 L631.715 1756.41 L633.253 1753.79 L634.791 1737.61 
  L636.33 1749.99 L637.868 1726.14 L639.406 1769.44 L640.944 1731.1 L642.483 1733.61 L644.021 1741.71 L645.559 1769.22 L647.097 1731 L648.635 1758.67 L650.174 1777.61 
  L651.712 1723.15 L653.25 1755.06 L654.788 1755.75 L656.327 1760.37 L657.865 1764.87 L659.403 1728.38 L660.941 1719.66 L662.479 1695.33 L664.018 1718.73 L665.556 1706.66 
  L667.094 1660.92 L668.632 1623.98 L670.171 1645.07 L671.709 1602.98 L673.247 1583.84 L674.785 1577.85 L676.323 1597.47 L677.862 1599.56 L679.4 1567.86 L680.938 1589.27 
  L682.476 1582.32 L684.015 1608.31 L685.553 1584.8 L687.091 1634.13 L688.629 1620.88 L690.168 1626.45 L691.706 1616.67 L693.244 1650.18 L694.782 1688.27 L696.32 1645.31 
  L697.859 1665.25 L699.397 1682.68 L700.935 1666.85 L702.473 1697.63 L704.012 1687.89 L705.55 1685.49 L707.088 1683.95 L708.626 1687.18 L710.164 1709.02 L711.703 1686.48 
  L713.241 1679.05 L714.779 1718.35 L716.317 1729.3 L717.856 1688.47 L719.394 1709.57 L720.932 1736.99 L722.47 1736.34 L724.008 1717.99 L725.547 1709.17 L727.085 1721.25 
  L728.623 1707.51 L730.161 1700.46 L731.7 1667.24 L733.238 1684.48 L734.776 1630.09 L736.314 1650.53 L737.852 1687.3 L739.391 1577.79 L740.929 1612.93 L742.467 1629.99 
  L744.005 1596.59 L745.544 1622.24 L747.082 1616.58 L748.62 1627.75 L750.158 1574.38 L751.696 1617.24 L753.235 1554.03 L754.773 1603.53 L756.311 1574.06 L757.849 1591.31 
  L759.388 1572.79 L760.926 1609.47 L762.464 1564.67 L764.002 1577.67 L765.54 1615.43 L767.079 1585.48 L768.617 1609.23 L770.155 1622.41 L771.693 1607.97 L773.232 1634.32 
  L774.77 1662.42 L776.308 1683.91 L777.846 1705.91 L779.384 1707.13 L780.923 1737.66 L782.461 1734.76 L783.999 1725.03 L785.537 1744.2 L787.076 1763.97 L788.614 1762 
  L790.152 1763.58 L791.69 1770.04 L793.228 1763.19 L794.767 1753.72 L796.305 1745.2 L797.843 1756.72 L799.381 1753.06 L800.92 1732.66 L802.458 1754.13 L803.996 1737.82 
  L805.534 1740.63 L807.073 1760.58 L808.611 1737.03 L810.149 1769.61 L811.687 1777.56 L813.225 1737.82 L814.764 1761.91 L816.302 1736.87 L817.84 1728.42 L819.378 1747.17 
  L820.917 1738.47 L822.455 1709.29 L823.993 1722.3 L825.531 1745.73 L827.069 1740.2 L828.608 1750.1 L830.146 1733.46 L831.684 1689.97 L833.222 1728 L834.761 1716.8 
  L836.299 1708.35 L837.837 1684.63 L839.375 1688.14 L840.913 1708.92 L842.452 1701.45 L843.99 1660.28 L845.528 1665.59 L847.066 1651.9 L848.605 1621.33 L850.143 1648.35 
  L851.681 1653.88 L853.219 1628.29 L854.757 1636.01 L856.296 1645.94 L857.834 1672.72 L859.372 1633.3 L860.91 1622.23 L862.449 1679.67 L863.987 1724.29 L865.525 1699.98 
  L867.063 1706.4 L868.601 1695.97 L870.14 1701.95 L871.678 1711.99 L873.216 1712.39 L874.754 1733.25 L876.293 1708.13 L877.831 1703.82 L879.369 1715.12 L880.907 1708.27 
  L882.445 1723.97 L883.984 1712.12 L885.522 1737.44 L887.06 1726.73 L888.598 1736.45 L890.137 1723.99 L891.675 1730.31 L893.213 1710.7 L894.751 1708.44 L896.289 1712.88 
  L897.828 1706.85 L899.366 1714.08 L900.904 1652.81 L902.442 1631.47 L903.981 1607.02 L905.519 1613.76 L907.057 1582.5 L908.595 1556.36 L910.133 1525.27 L911.672 1472.62 
  L913.21 1479.44 L914.748 1406.04 L916.286 1362.37 L917.825 1402.77 L919.363 1343.59 L920.901 1333.9 L922.439 1319.65 L923.978 1296.05 L925.516 1324.58 L927.054 1303.04 
  L928.592 1238.65 L930.13 1307.09 L931.669 1276.37 L933.207 1272.19 L934.745 1321.37 L936.283 1299.93 L937.822 1303.81 L939.36 1361.41 L940.898 1330.18 L942.436 1383.29 
  L943.974 1381.98 L945.513 1443.48 L947.051 1455.14 L948.589 1486.39 L950.127 1513.45 L951.666 1482.38 L953.204 1525.48 L954.742 1515.85 L956.28 1488.27 L957.818 1517.11 
  L959.357 1516.73 L960.895 1481.04 L962.433 1480.51 L963.971 1515.7 L965.51 1482.07 L967.048 1509.08 L968.586 1490.44 L970.124 1471.86 L971.662 1470.92 L973.201 1516.35 
  L974.739 1545.54 L976.277 1552.29 L977.815 1564.11 L979.354 1564.84 L980.892 1554.92 L982.43 1575.29 L983.968 1610.08 L985.506 1601.52 L987.045 1594.92 L988.583 1606.26 
  L990.121 1613.15 L991.659 1639.51 L993.198 1612.1 L994.736 1610.22 L996.274 1575.79 L997.812 1619.88 L999.35 1594.65 L1000.89 1621.55 L1002.43 1605.36 L1003.97 1617.06 
  L1005.5 1629.23 L1007.04 1642.66 L1008.58 1651.11 L1010.12 1681.35 L1011.66 1711.56 L1013.19 1712.88 L1014.73 1711.59 L1016.27 1711.18 L1017.81 1744.47 L1019.35 1726.02 
  L1020.89 1748.1 L1022.42 1749.68 L1023.96 1743.73 L1025.5 1744.05 L1027.04 1774.1 L1028.58 1748.65 L1030.11 1741.59 L1031.65 1749.58 L1033.19 1740.38 L1034.73 1753.45 
  L1036.27 1768.04 L1037.81 1753.68 L1039.34 1754.86 L1040.88 1728.87 L1042.42 1759.03 L1043.96 1769.3 L1045.5 1754.97 L1047.04 1769.95 L1048.57 1769.61 L1050.11 1739.56 
  L1051.65 1743.14 L1053.19 1768.68 L1054.73 1759.31 L1056.26 1755.47 L1057.8 1747.62 L1059.34 1748.78 L1060.88 1739.39 L1062.42 1730.59 L1063.96 1763.66 L1065.49 1728.02 
  L1067.03 1736.4 L1068.57 1753.2 L1070.11 1764.69 L1071.65 1769.67 L1073.19 1723.52 L1074.72 1748.84 L1076.26 1739.88 L1077.8 1751.01 L1079.34 1749.91 L1080.88 1735.4 
  L1082.41 1753.14 L1083.95 1765.13 L1085.49 1762.18 L1087.03 1781.51 L1088.57 1748.77 L1090.11 1733.38 L1091.64 1749.23 L1093.18 1711.88 L1094.72 1758.89 L1096.26 1724.43 
  L1097.8 1729.8 L1099.34 1739.08 L1100.87 1733.17 L1102.41 1723.65 L1103.95 1701.47 L1105.49 1703.98 L1107.03 1673.42 L1108.56 1690.65 L1110.1 1742.84 L1111.64 1696.19 
  L1113.18 1727.82 L1114.72 1727.77 L1116.26 1728.6 L1117.79 1769.04 L1119.33 1764.76 L1120.87 1729.61 L1122.41 1729.35 L1123.95 1728.16 L1125.48 1764.56 L1127.02 1730.77 
  L1128.56 1776.77 L1130.1 1754.79 L1131.64 1730.59 L1133.18 1752.95 L1134.71 1743.22 L1136.25 1719.6 L1137.79 1744.13 L1139.33 1710.5 L1140.87 1716.32 L1142.41 1716.6 
  L1143.94 1717.26 L1145.48 1688.83 L1147.02 1675.86 L1148.56 1656.54 L1150.1 1704.12 L1151.63 1666.83 L1153.17 1684.12 L1154.71 1668.58 L1156.25 1659.97 L1157.79 1663.56 
  L1159.33 1635.47 L1160.86 1678.32 L1162.4 1636.44 L1163.94 1652.96 L1165.48 1675.25 L1167.02 1643.31 L1168.56 1659.77 L1170.09 1643.9 L1171.63 1647.38 L1173.17 1648.5 
  L1174.71 1672.55 L1176.25 1634.13 L1177.78 1671.17 L1179.32 1619.92 L1180.86 1635.6 L1182.4 1595 L1183.94 1526.98 L1185.48 1464.86 L1187.01 1424.71 L1188.55 1415.43 
  L1190.09 1345.37 L1191.63 1301.11 L1193.17 1230.7 L1194.7 1191.96 L1196.24 1198.22 L1197.78 1161.73 L1199.32 1189.71 L1200.86 1154.76 L1202.4 1129.2 L1203.93 1160.76 
  L1205.47 1090.82 L1207.01 1121.64 L1208.55 1135.18 L1210.09 1129.04 L1211.63 1140.71 L1213.16 1124.5 L1214.7 1111.55 L1216.24 1146.54 L1217.78 1086.47 L1219.32 1116.28 
  L1220.85 1182.63 L1222.39 1148.5 L1223.93 1159.95 L1225.47 1210.63 L1227.01 1179.84 L1228.55 1202.79 L1230.08 1226.15 L1231.62 1321.05 L1233.16 1288.61 L1234.7 1365.11 
  L1236.24 1401.7 L1237.78 1485.98 L1239.31 1564.94 L1240.85 1572.57 L1242.39 1527.51 L1243.93 1630.18 L1245.47 1626.84 L1247 1659.8 L1248.54 1639.85 L1250.08 1621.45 
  L1251.62 1658.71 L1253.16 1655.18 L1254.7 1634.21 L1256.23 1620.71 L1257.77 1645.85 L1259.31 1606.65 L1260.85 1644.94 L1262.39 1642.93 L1263.92 1609.26 L1265.46 1646.38 
  L1267 1672.25 L1268.54 1663.82 L1270.08 1646.37 L1271.62 1678.24 L1273.15 1682.03 L1274.69 1695.86 L1276.23 1685.04 L1277.77 1740.51 L1279.31 1738.59 L1280.85 1722.42 
  L1282.38 1740.28 L1283.92 1745.21 L1285.46 1739.2 L1287 1731.23 L1288.54 1734.05 L1290.07 1756.24 L1291.61 1749.76 L1293.15 1759.83 L1294.69 1759.44 L1296.23 1750.15 
  L1297.77 1745.64 L1299.3 1728.88 L1300.84 1748.18 L1302.38 1743.95 L1303.92 1706.98 L1305.46 1697.1 L1307 1703.1 L1308.53 1723.19 L1310.07 1663.08 L1311.61 1711.94 
  L1313.15 1703.51 L1314.69 1678.65 L1316.22 1661.22 L1317.76 1684.41 L1319.3 1701.6 L1320.84 1687.08 L1322.38 1657.95 L1323.92 1685.08 L1325.45 1640.21 L1326.99 1653 
  L1328.53 1676.25 L1330.07 1672.77 L1331.61 1648.07 L1333.14 1644 L1334.68 1663.89 L1336.22 1573.72 L1337.76 1587.28 L1339.3 1534.88 L1340.84 1474.21 L1342.37 1403.89 
  L1343.91 1377.82 L1345.45 1294.39 L1346.99 1314.02 L1348.53 1283.4 L1350.07 1248.13 L1351.6 1247.71 L1353.14 1196.11 L1354.68 1187.36 L1356.22 1199.48 L1357.76 1181.74 
  L1359.29 1191.82 L1360.83 1174.13 L1362.37 1206.66 L1363.91 1160.68 L1365.45 1144.03 L1366.99 1167.44 L1368.52 1152.84 L1370.06 1224.95 L1371.6 1115.94 L1373.14 1132.04 
  L1374.68 1100.95 L1376.22 1101 L1377.75 1080.21 L1379.29 1049.52 L1380.83 1046.71 L1382.37 1026.39 L1383.91 995.946 L1385.44 987.083 L1386.98 976.313 L1388.52 1003.3 
  L1390.06 986.896 L1391.6 1025.89 L1393.14 1003.32 L1394.67 1030.65 L1396.21 1074.17 L1397.75 1066.79 L1399.29 1189.94 L1400.83 1205.32 L1402.37 1219.55 L1403.9 1224.2 
  L1405.44 1313.37 L1406.98 1317.38 L1408.52 1360.35 L1410.06 1395.16 L1411.59 1399.3 L1413.13 1438.8 L1414.67 1405.25 L1416.21 1469.62 L1417.75 1473.84 L1419.29 1467.93 
  L1420.82 1480.37 L1422.36 1434.18 L1423.9 1441.69 L1425.44 1459.68 L1426.98 1460.48 L1428.51 1492.39 L1430.05 1457.83 L1431.59 1435.54 L1433.13 1409.32 L1434.67 1397.1 
  L1436.21 1396.69 L1437.74 1370.12 L1439.28 1376.37 L1440.82 1368.02 L1442.36 1386.08 L1443.9 1367.29 L1445.44 1355.32 L1446.97 1358.8 L1448.51 1352.01 L1450.05 1300.68 
  L1451.59 1363.97 L1453.13 1349.22 L1454.66 1332.8 L1456.2 1349.61 L1457.74 1253.96 L1459.28 1333.03 L1460.82 1275.38 L1462.36 1242.33 L1463.89 1227.59 L1465.43 1239.95 
  L1466.97 1188 L1468.51 1171.38 L1470.05 1145.59 L1471.59 1146.02 L1473.12 1124.58 L1474.66 1104.35 L1476.2 1110.6 L1477.74 1124.58 L1479.28 1084.37 L1480.81 1152.08 
  L1482.35 1125.12 L1483.89 1157.38 L1485.43 1136.31 L1486.97 1197.52 L1488.51 1176.25 L1490.04 1201.04 L1491.58 1211.36 L1493.12 1208.06 L1494.66 1270.89 L1496.2 1250.63 
  L1497.73 1221.71 L1499.27 1235.33 L1500.81 1219.68 L1502.35 1244.87 L1503.89 1285.44 L1505.43 1230.39 L1506.96 1214.71 L1508.5 1230.78 L1510.04 1226.77 L1511.58 1203.85 
  L1513.12 1221.92 L1514.66 1233.2 L1516.19 1197.26 L1517.73 1210.81 L1519.27 1199.89 L1520.81 1200.88 L1522.35 1190.61 L1523.88 1160.88 L1525.42 1175.99 L1526.96 1179.62 
  L1528.5 1124.75 L1530.04 1139.42 L1531.58 1116.3 L1533.11 1147.35 L1534.65 1171.41 L1536.19 1174.58 L1537.73 1134.86 L1539.27 1182.72 L1540.81 1182.24 L1542.34 1165.57 
  L1543.88 1190.38 L1545.42 1148.33 L1546.96 1197.61 L1548.5 1183.4 L1550.03 1134.8 L1551.57 1157.43 L1553.11 1136.28 L1554.65 1199.74 L1556.19 1191.41 L1557.73 1191.01 
  L1559.26 1200.02 L1560.8 1213.67 L1562.34 1223.36 L1563.88 1238.64 L1565.42 1218.31 L1566.95 1270.02 L1568.49 1314.82 L1570.03 1331.7 L1571.57 1351.79 L1573.11 1421.46 
  L1574.65 1422.44 L1576.18 1410.14 L1577.72 1445.17 L1579.26 1449.42 L1580.8 1494.17 L1582.34 1456.7 L1583.88 1474.31 L1585.41 1455.41 L1586.95 1443.8 L1588.49 1440.83 
  L1590.03 1411.03 L1591.57 1363.69 L1593.1 1355.38 L1594.64 1319.74 L1596.18 1295.39 L1597.72 1219.07 L1599.26 1200.74 L1600.8 1202.8 L1602.33 1133.93 L1603.87 1101.78 
  L1605.41 1068.21 L1606.95 1082.5 L1608.49 1019.72 L1610.03 1013.73 L1611.56 988.396 L1613.1 981.46 L1614.64 974.661 L1616.18 988.654 L1617.72 1001.79 L1619.25 1024.58 
  L1620.79 1005.76 L1622.33 1061.58 L1623.87 1129.54 L1625.41 1166.91 L1626.95 1242.07 L1628.48 1368.09 L1630.02 1441.78 L1631.56 1469.78 L1633.1 1557.7 L1634.64 1583.55 
  L1636.18 1638.7 L1637.71 1643.74 L1639.25 1645.63 L1640.79 1663.44 L1642.33 1659.97 L1643.87 1655.24 L1645.4 1664.06 L1646.94 1660.97 L1648.48 1593.47 L1650.02 1612.85 
  L1651.56 1612.75 L1653.1 1603.06 L1654.63 1583.97 L1656.17 1559.75 L1657.71 1558.05 L1659.25 1563.91 L1660.79 1587.32 L1662.32 1595.24 L1663.86 1610.26 L1665.4 1575.69 
  L1666.94 1591.22 L1668.48 1655.93 L1670.02 1632.96 L1671.55 1632.83 L1673.09 1658.88 L1674.63 1647.58 L1676.17 1617.75 L1677.71 1610.69 L1679.25 1613.74 L1680.78 1550.83 
  L1682.32 1555.49 L1683.86 1512.79 L1685.4 1466.21 L1686.94 1457.03 L1688.47 1434.9 L1690.01 1429.87 L1691.55 1383.07 L1693.09 1391.48 L1694.63 1388.3 L1696.17 1381.14 
  L1697.7 1361.55 L1699.24 1372.64 L1700.78 1377.8 L1702.32 1341.31 L1703.86 1327.34 L1705.4 1334.36 L1706.93 1302.21 L1708.47 1246.29 L1710.01 1213.13 L1711.55 1201.7 
  L1713.09 1162.92 L1714.62 1169.06 L1716.16 1154.64 L1717.7 1131.36 L1719.24 1106.06 L1720.78 1118.13 L1722.32 1106.31 L1723.85 1122 L1725.39 1121.57 L1726.93 1121.15 
  L1728.47 1126.84 L1730.01 1126.73 L1731.54 1157.09 L1733.08 1161.41 L1734.62 1171.93 L1736.16 1134.81 L1737.7 1193.44 L1739.24 1206.24 L1740.77 1191.05 L1742.31 1220.86 
  L1743.85 1266.98 L1745.39 1240.13 L1746.93 1254.63 L1748.47 1252.89 L1750 1253.51 L1751.54 1284.26 L1753.08 1295.43 L1754.62 1324.97 L1756.16 1368.46 L1757.69 1373.87 
  L1759.23 1362.76 L1760.77 1441.79 L1762.31 1438.15 L1763.85 1396.5 L1765.39 1408.5 L1766.92 1367.98 L1768.46 1313.63 L1770 1276.4 L1771.54 1185.51 L1773.08 1205.02 
  L1774.62 1173.03 L1776.15 1097.48 L1777.69 1040.31 L1779.23 1021.25 L1780.77 999.853 L1782.31 996.575 L1783.84 973.823 L1785.38 974.394 L1786.92 978.057 L1788.46 967.051 
  L1790 987.95 L1791.54 986.372 L1793.07 1009.78 L1794.61 990.871 L1796.15 952.845 L1797.69 989.136 L1799.23 990.936 L1800.76 977.693 L1802.3 944.902 L1803.84 915.134 
  L1805.38 931.203 L1806.92 944.599 L1808.46 911.42 L1809.99 913.267 L1811.53 891.454 L1813.07 861.022 L1814.61 853.934 L1816.15 867.308 L1817.69 858.678 L1819.22 870.024 
  L1820.76 846.674 L1822.3 881.625 L1823.84 882.007 L1825.38 850.81 L1826.91 867.992 L1828.45 890.244 L1829.99 919.726 L1831.53 900.173 L1833.07 912.472 L1834.61 938.023 
  L1836.14 956.585 L1837.68 962.787 L1839.22 948.138 L1840.76 977.307 L1842.3 991.37 L1843.84 977.614 L1845.37 991.378 L1846.91 1037.48 L1848.45 1015.43 L1849.99 1030.44 
  L1851.53 1071.88 L1853.06 1026.56 L1854.6 1028.72 L1856.14 1049.06 L1857.68 1037.98 L1859.22 1030.65 L1860.76 979.197 L1862.29 980.466 L1863.83 958.539 L1865.37 957.237 
  L1866.91 900.971 L1868.45 937.762 L1869.99 905.643 L1871.52 899.624 L1873.06 908.959 L1874.6 892.1 L1876.14 869.14 L1877.68 882.778 L1879.21 867.593 L1880.75 879.535 
  L1882.29 862.219 L1883.83 876.698 L1885.37 877.294 L1886.91 905.177 L1888.44 898.887 L1889.98 927.997 L1891.52 924.196 L1893.06 973.761 L1894.6 990.671 L1896.13 1038.09 
  L1897.67 1075.17 L1899.21 1137.64 L1900.75 1200.86 L1902.29 1238.48 L1903.83 1298 L1905.36 1311.67 L1906.9 1345.73 L1908.44 1434.52 L1909.98 1430.16 L1911.52 1415.11 
  L1913.06 1412.35 L1914.59 1429.29 L1916.13 1380.29 L1917.67 1392.07 L1919.21 1351.52 L1920.75 1357.52 L1922.28 1411.33 L1923.82 1419.19 L1925.36 1416.47 L1926.9 1423.05 
  L1928.44 1491.71 L1929.98 1463.57 L1931.51 1472.56 L1933.05 1511.98 L1934.59 1533.62 L1936.13 1557.63 L1937.67 1606.54 L1939.21 1628.06 L1940.74 1649.64 L1942.28 1613.65 
  L1943.82 1671.51 L1945.36 1670.77 L1946.9 1651.03 L1948.43 1655.47 L1949.97 1653.86 L1951.51 1691.98 L1953.05 1697.72 L1954.59 1705.12 L1956.13 1709.77 L1957.66 1736.03 
  L1959.2 1722.04 L1960.74 1720.3 L1962.28 1705.69 L1963.82 1737.78 L1965.35 1724.53 L1966.89 1729.1 L1968.43 1732.21 L1969.97 1671.53 L1971.51 1653.48 L1973.05 1655.41 
  L1974.58 1598.41 L1976.12 1594.71 L1977.66 1573.27 L1979.2 1532.33 L1980.74 1508.35 L1982.28 1500.2 L1983.81 1474.21 L1985.35 1429.03 L1986.89 1424.98 L1988.43 1435.37 
  L1989.97 1436.62 L1991.5 1435.51 L1993.04 1455.03 L1994.58 1472.91 L1996.12 1459.29 L1997.66 1512.01 L1999.2 1488.59 L2000.73 1532.92 L2002.27 1580.43 L2003.81 1639.2 
  L2005.35 1696.96 L2006.89 1700.85 L2008.43 1748.54 L2009.96 1751.68 L2011.5 1738.59 L2013.04 1790.6 L2014.58 1763.02 L2016.12 1739.42 L2017.65 1763.24 L2019.19 1766.52 
  L2020.73 1745.72 L2022.27 1726.46 L2023.81 1705.27 L2025.35 1701.44 L2026.88 1708.66 L2028.42 1704.31 L2029.96 1712.98 L2031.5 1716.5 L2033.04 1751.65 L2034.57 1764.04 
  L2036.11 1762.24 L2037.65 1787.72 L2039.19 1790.76 L2040.73 1769.32 L2042.27 1771.37 L2043.8 1783.77 L2045.34 1762.38 L2046.88 1782.02 L2048.42 1750.74 L2049.96 1770.34 
  L2051.5 1761.99 L2053.03 1763.83 L2054.57 1770.97 L2056.11 1778.94 L2057.65 1763.65 L2059.19 1773.67 L2060.72 1776.66 L2062.26 1740.28 L2063.8 1731.69 L2065.34 1729.48 
  L2066.88 1702.18 L2068.42 1665.95 L2069.95 1636.13 L2071.49 1638.84 L2073.03 1570.86 L2074.57 1520.31 L2076.11 1565.82 L2077.65 1506.48 L2079.18 1450.83 L2080.72 1375.88 
  L2082.26 1405.96 L2083.8 1364.41 L2085.34 1374.95 L2086.87 1361.46 L2088.41 1376.84 L2089.95 1395.08 L2091.49 1359.2 L2093.03 1407.73 L2094.57 1375.61 L2096.1 1456.85 
  L2097.64 1428.66 L2099.18 1457.97 L2100.72 1514.89 L2102.26 1535.64 L2103.8 1535.45 L2105.33 1577.91 L2106.87 1614.36 L2108.41 1615.87 L2109.95 1629.12 L2111.49 1685.32 
  L2113.02 1696.3 L2114.56 1692.5 L2116.1 1724.05 L2117.64 1709.01 L2119.18 1717.8 L2120.72 1714.24 L2122.25 1720.82 L2123.79 1708.22 L2125.33 1711.11 L2126.87 1723.85 
  L2128.41 1739.24 L2129.94 1727.62 L2131.48 1737.83 L2133.02 1724.65 L2134.56 1701.95 L2136.1 1705.86 L2137.64 1692.74 L2139.17 1658.97 L2140.71 1630.4 L2142.25 1656.67 
  L2143.79 1596.16 L2145.33 1610.91 L2146.87 1612.58 L2148.4 1556.25 L2149.94 1554.66 L2151.48 1570.05 L2153.02 1585.77 L2154.56 1527.36 L2156.09 1591.93 L2157.63 1589.83 
  L2159.17 1576.15 L2160.71 1580.97 L2162.25 1558.06 L2163.79 1590.11 L2165.32 1563.52 L2166.86 1574.81 L2168.4 1590.5 L2169.94 1619.45 L2171.48 1611.82 L2173.02 1583.53 
  L2174.55 1623.86 L2176.09 1598.15 L2177.63 1652.77 L2179.17 1642.62 L2180.71 1654.61 L2182.24 1604.25 L2183.78 1674.4 L2185.32 1636.55 L2186.86 1622.03 L2188.4 1603.85 
  L2189.94 1590.17 L2191.47 1602.56 L2193.01 1597.44 L2194.55 1613.71 L2196.09 1606.2 L2197.63 1587.47 L2199.16 1577.07 L2200.7 1546.41 L2202.24 1545.95 L2203.78 1508.25 
  L2205.32 1499.39 L2206.86 1489.03 L2208.39 1555.32 L2209.93 1470.36 L2211.47 1453.19 L2213.01 1474.96 L2214.55 1450.77 L2216.09 1425.14 L2217.62 1429.86 L2219.16 1433.45 
  L2220.7 1391.85 L2222.24 1399.33 L2223.78 1378.65 L2225.31 1416.38 L2226.85 1413.89 L2228.39 1378.14 L2229.93 1389.95 L2231.47 1382.49 L2233.01 1386.92 L2234.54 1368.87 
  L2236.08 1334.7 L2237.62 1309.81 L2239.16 1306.8 L2240.7 1322.95 L2242.24 1309.82 L2243.77 1253.87 L2245.31 1272.11 L2246.85 1313.88 L2248.39 1294.05 L2249.93 1280.07 
  L2251.46 1291.29 L2253 1246.39 L2254.54 1272.87 L2256.08 1291.65 L2257.62 1258.34 L2259.16 1299.88 L2260.69 1227.42 L2262.23 1261.01 L2263.77 1245.65 L2265.31 1202.66 
  L2266.85 1206.75 L2268.38 1240.97 L2269.92 1208.89 L2271.46 1212.66 L2273 1225.28 L2274.54 1271.74 L2276.08 1295.33 L2277.61 1291.86 L2279.15 1307.44 L2280.69 1329.25 
  L2282.23 1301.4 L2283.77 1357.69 L2285.31 1335.34 L2286.84 1337.72 L2288.38 1367.31 L2289.92 1307.09 L2291.46 1322.26 L2293 1286.76 L2294.53 1315.3 L2296.07 1291.18 
  L2297.61 1263.56 L2299.15 1303.17 L2300.69 1261.42 L2302.23 1310.78 L2303.76 1249.34 L2305.3 1297.79 L2306.84 1333.75 L2308.38 1396.32 L2309.92 1408.34 L2311.46 1418.84 
  L2312.99 1460.16 L2314.53 1498.89 L2316.07 1509.44 L2317.61 1519.61 L2319.15 1503.37 L2320.68 1496.07 L2322.22 1500.18 L2323.76 1482.53 L2325.3 1445.25 L2326.84 1418.14 
  L2328.38 1434.03 L2329.91 1365.61 L2331.45 1354.03 L2332.99 1348.3 L2334.53 1313.58 L2336.07 1320.88 L2337.61 1243.41 L2339.14 1283.55 L2340.68 1290.42 L2342.22 1314.67 
  L2343.76 1315.94 L2345.3 1341.59 L2346.83 1333.92 L2348.37 1364.04 L2349.91 1438.46 L2351.45 1475.94 L2352.99 1535.62 L2354.53 1548.94 L2356.06 1610.06 L2357.6 1658.4 
  L2359.14 1663.86 L2360.68 1681.85 L2362.22 1703.1 L2363.75 1701.6 L2365.29 1716.79 L2366.83 1714.09 L2368.37 1716.43 L2369.91 1722.85 L2371.45 1717.12 L2372.98 1712.38 
  L2374.52 1716.81 L2376.06 1687.38 L2377.6 1678.52 L2379.14 1674.99 L2380.68 1638.23 L2382.21 1625.05 L2383.75 1647.53 L2385.29 1591.45 L2386.83 1529.12 L2388.37 1497.84 
  L2389.9 1415.88 L2391.44 1370.56 L2392.98 1239.19 L2394.52 1229.4 L2396.06 1236.86 L2397.6 1135.72 L2399.13 1122.53 L2400.67 1032.69 L2402.21 993.263 L2403.75 952.565 
  L2405.29 956.489 L2406.83 908.695 L2408.36 884.833 L2409.9 851.517 L2411.44 846.377 L2412.98 823.337 L2414.52 795.95 L2416.05 770.258 L2417.59 765.328 L2419.13 757.412 
  L2420.67 756.393 L2422.21 741.277 L2423.75 747.048 L2425.28 741.741 L2426.82 743.817 L2428.36 738.812 L2429.9 727.115 L2431.44 730.156 L2432.97 738.257 L2434.51 753.127 
  L2436.05 760.813 L2437.59 779.435 L2439.13 798.172 L2440.67 799.944 L2442.2 806.012 L2443.74 850.205 L2445.28 874.276 L2446.82 907.167 L2448.36 919.365 L2449.9 956.042 
  L2451.43 1001.32 L2452.97 997.863 L2454.51 1009.11 L2456.05 1040.2 L2457.59 1042.87 L2459.12 1047.59 L2460.66 1007.9 L2462.2 1023.59 L2463.74 1029.05 L2465.28 1048.34 
  L2466.82 1043.02 L2468.35 1070.94 L2469.89 1087.21 L2471.43 1081.73 L2472.97 1140.64 L2474.51 1155.52 L2476.05 1169.62 L2477.58 1161.98 L2479.12 1200.01 L2480.66 1255.97 
  L2482.2 1332.04 L2483.74 1365.87 L2485.27 1438.56 L2486.81 1456.67 L2488.35 1486.13 L2489.89 1557.53 L2491.43 1563.27 L2492.97 1566.64 L2494.5 1568.9 L2496.04 1621.87 
  L2497.58 1656.53 L2499.12 1637.69 L2500.66 1644.25 L2502.19 1635.1 L2503.73 1603.68 L2505.27 1638.69 L2506.81 1640.73 L2508.35 1600.84 L2509.89 1572.4 L2511.42 1618.85 
  L2512.96 1556.37 L2514.5 1542.13 L2516.04 1538.17 L2517.58 1559.2 L2519.12 1570.23 L2520.65 1553.96 L2522.19 1558.69 L2523.73 1574.12 L2525.27 1515.8 L2526.81 1527.76 
  L2528.34 1548.16 L2529.88 1478.92 L2531.42 1545.44 L2532.96 1505.73 L2534.5 1503.78 L2536.04 1456.34 L2537.57 1508.02 L2539.11 1498.96 L2540.65 1466.34 L2542.19 1483.04 
  L2543.73 1506.6 L2545.27 1480.68 L2546.8 1513.31 L2548.34 1528.51 L2549.88 1562.52 L2551.42 1570.57 L2552.96 1585.01 L2554.49 1592.12 L2556.03 1568.39 L2557.57 1598.07 
  L2559.11 1633.32 L2560.65 1638.58 L2562.19 1655 L2563.72 1610.62 L2565.26 1633.37 L2566.8 1640.37 L2568.34 1633.09 L2569.88 1623.8 L2571.42 1625.42 L2572.95 1619.25 
  L2574.49 1648.63 L2576.03 1648.21 L2577.57 1622.8 L2579.11 1655.55 L2580.64 1666.42 L2582.18 1646.07 L2583.72 1654.72 L2585.26 1662.23 L2586.8 1660.76 L2588.34 1661.17 
  L2589.87 1669.34 L2591.41 1649.82 L2592.95 1695.7 L2594.49 1633.3 L2596.03 1624.87 L2597.56 1649.2 L2599.1 1611.86 L2600.64 1650.75 L2602.18 1647.11 L2603.72 1668.04 
  L2605.26 1617.92 L2606.79 1684.18 L2608.33 1656.57 L2609.87 1681.42 L2611.41 1656.78 L2612.95 1725.13 L2614.49 1665.06 L2616.02 1706.86 L2617.56 1675.65 L2619.1 1670.4 
  L2620.64 1723.92 L2622.18 1676.31 L2623.71 1719.39 L2625.25 1695.59 L2626.79 1703.16 L2628.33 1712.87 L2629.87 1671.47 L2631.41 1703.94 L2632.94 1640.84 L2634.48 1632.63 
  L2636.02 1659.56 L2637.56 1623.34 L2639.1 1626.46 L2640.64 1624.98 L2642.17 1586.66 L2643.71 1551.03 L2645.25 1549.01 L2646.79 1544.99 L2648.33 1538.72 L2649.86 1563.33 
  L2651.4 1544.17 L2652.94 1506.13 L2654.48 1505.81 L2656.02 1495.02 L2657.56 1532.21 L2659.09 1491.42 L2660.63 1552.2 L2662.17 1528.84 L2663.71 1512.98 L2665.25 1567.63 
  L2666.78 1553.54 L2668.32 1608.93 L2669.86 1603.4 L2671.4 1635.43 L2672.94 1638.99 L2674.48 1617.59 L2676.01 1662.59 L2677.55 1638.6 L2679.09 1679.5 L2680.63 1646.27 
  L2682.17 1682.04 L2683.71 1632.35 L2685.24 1650.5 L2686.78 1663.77 L2688.32 1689.75 L2689.86 1638.06 L2691.4 1669.03 L2692.93 1710.71 L2694.47 1691.06 L2696.01 1699.56 
  L2697.55 1708.9 L2699.09 1710.35 L2700.63 1723.78 L2702.16 1713.62 L2703.7 1712.83 L2705.24 1732.28 L2706.78 1723.82 L2708.32 1759.4 L2709.86 1715.09 L2711.39 1704.85 
  L2712.93 1688.93 L2714.47 1701.59 L2716.01 1690.72 L2717.55 1652.95 L2719.08 1608.83 L2720.62 1624.76 L2722.16 1587.02 L2723.7 1536.28 L2725.24 1467.9 L2726.78 1520.24 
  L2728.31 1492.43 L2729.85 1449.71 L2731.39 1458.6 L2732.93 1438.79 L2734.47 1429.8 L2736 1445.07 L2737.54 1403.73 L2739.08 1451.26 L2740.62 1459.48 L2742.16 1409.87 
  L2743.7 1382.93 L2745.23 1397.74 L2746.77 1371.06 L2748.31 1371.58 L2749.85 1382.21 L2751.39 1365.7 L2752.93 1323.73 L2754.46 1286.37 L2756 1294.81 L2757.54 1319.03 
  L2759.08 1281.26 L2760.62 1345.07 L2762.15 1337.1 L2763.69 1364.74 L2765.23 1319.44 L2766.77 1404.09 L2768.31 1422.32 L2769.85 1498.77 L2771.38 1547.21 L2772.92 1553.21 
  L2774.46 1632.02 L2776 1618.77 L2777.54 1690.16 L2779.08 1689.73 L2780.61 1689.46 L2782.15 1699.86 L2783.69 1697.32 L2785.23 1688.71 L2786.77 1722.13 L2788.3 1702.69 
  L2789.84 1689.46 L2791.38 1710.76 L2792.92 1736.56 L2794.46 1717.05 L2796 1741.76 L2797.53 1736.14 L2799.07 1708.13 L2800.61 1697.75 L2802.15 1703.17 L2803.69 1686.29 
  L2805.23 1735.33 L2806.76 1712.67 L2808.3 1686.8 L2809.84 1731.84 L2811.38 1703.27 L2812.92 1680.32 L2814.45 1703.36 L2815.99 1688.37 L2817.53 1741.83 L2819.07 1712.44 
  L2820.61 1692.26 L2822.15 1701.97 L2823.68 1685.95 L2825.22 1671.88 L2826.76 1719.91 L2828.3 1707.08 L2829.84 1692.36 L2831.37 1710.8 L2832.91 1697.52 L2834.45 1720.57 
  L2835.99 1741.87 L2837.53 1722.57 L2839.07 1715.54 L2840.6 1690.3 L2842.14 1691.58 L2843.68 1684.49 L2845.22 1678.72 L2846.76 1653.57 L2848.3 1658.43 L2849.83 1669.96 
  L2851.37 1618.46 L2852.91 1637.85 L2854.45 1625.13 L2855.99 1615.08 L2857.52 1632.6 L2859.06 1587.78 L2860.6 1612.91 L2862.14 1600.18 L2863.68 1650.65 L2865.22 1611.63 
  L2866.75 1653.34 L2868.29 1652.85 L2869.83 1618.76 L2871.37 1603.21 L2872.91 1540.43 L2874.45 1488.43 L2875.98 1433.22 L2877.52 1385.71 L2879.06 1350.02 L2880.6 1249.35 
  L2882.14 1152.55 L2883.67 1117.16 L2885.21 1041.98 L2886.75 1026.01 L2888.29 964.151 L2889.83 951.682 L2891.37 938.239 L2892.9 912.195 L2894.44 900.972 L2895.98 938.645 
  L2897.52 892.809 L2899.06 904.252 L2900.59 916.298 L2902.13 882.843 L2903.67 915.035 L2905.21 898.373 L2906.75 962.693 L2908.29 953.871 L2909.82 925.767 L2911.36 951.014 
  L2912.9 954.779 L2914.44 995.435 L2915.98 969.815 L2917.52 999.529 L2919.05 966.038 L2920.59 1018.87 L2922.13 1021.18 L2923.67 1032.29 L2925.21 1022.31 L2926.74 1069.81 
  L2928.28 1081.17 L2929.82 1087.4 L2931.36 1098.93 L2932.9 1149.19 L2934.44 1136.01 L2935.97 1179.74 L2937.51 1210.28 L2939.05 1167.07 L2940.59 1244.51 L2942.13 1213.48 
  L2943.67 1250.58 L2945.2 1271.4 L2946.74 1210.38 L2948.28 1232.14 L2949.82 1183.4 L2951.36 1169.56 L2952.89 1136.97 L2954.43 1117.33 L2955.97 1087.9 L2957.51 1041.98 
  L2959.05 1065.55 L2960.59 1074.93 L2962.12 1045.47 L2963.66 1019.8 L2965.2 1012.58 L2966.74 1010.53 L2968.28 948.429 L2969.81 980.618 L2971.35 993.367 L2972.89 995.243 
  L2974.43 967.674 L2975.97 965 L2977.51 1019.37 L2979.04 1011.7 L2980.58 1004.09 L2982.12 1077.16 L2983.66 1086.48 L2985.2 1126.53 L2986.74 1191.98 L2988.27 1206.81 
  L2989.81 1268.03 L2991.35 1336.65 L2992.89 1369.13 L2994.43 1438.53 L2995.96 1455.25 L2997.5 1543.9 L2999.04 1577.67 L3000.58 1527.61 L3002.12 1610.94 L3003.66 1597.69 
  L3005.19 1622.79 L3006.73 1612.48 L3008.27 1673.75 L3009.81 1705.66 L3011.35 1696.65 L3012.89 1710.75 L3014.42 1699.7 L3015.96 1751.3 L3017.5 1729.53 L3019.04 1722.3 
  L3020.58 1751.2 L3022.11 1731.29 L3023.65 1722.54 L3025.19 1723.06 L3026.73 1727.09 L3028.27 1692.13 L3029.81 1690.12 L3031.34 1693.32 L3032.88 1692.98 L3034.42 1657.93 
  L3035.96 1651.89 L3037.5 1647.85 L3039.04 1606.53 L3040.57 1568.73 L3042.11 1608.08 L3043.65 1552.64 L3045.19 1516.05 L3046.73 1506.65 L3048.26 1501.52 L3049.8 1485.33 
  L3051.34 1527.88 L3052.88 1505.66 L3054.42 1514.35 L3055.96 1504.03 L3057.49 1534.48 L3059.03 1522.65 L3060.57 1528.22 L3062.11 1534.69 L3063.65 1556.9 L3065.18 1584.16 
  L3066.72 1561 L3068.26 1583.96 L3068.26 949.424 L3066.72 971.004 L3065.18 869.522 L3063.65 955.434 L3062.11 974.123 L3060.57 968.474 L3059.03 894.282 L3057.49 931.573 
  L3055.96 906.21 L3054.42 920.626 L3052.88 957.579 L3051.34 937.635 L3049.8 982.632 L3048.26 959.742 L3046.73 980.456 L3045.19 1027.46 L3043.65 1066.08 L3042.11 1066.28 
  L3040.57 1160.7 L3039.04 1173.15 L3037.5 1179.92 L3035.96 1245.79 L3034.42 1279.95 L3032.88 1297.78 L3031.34 1353.74 L3029.81 1326.31 L3028.27 1343.77 L3026.73 1367.3 
  L3025.19 1365.28 L3023.65 1382.48 L3022.11 1358.25 L3020.58 1326.46 L3019.04 1350.49 L3017.5 1337.85 L3015.96 1282.36 L3014.42 1249.79 L3012.89 1234.48 L3011.35 1199.33 
  L3009.81 1141.18 L3008.27 1143.14 L3006.73 1058.12 L3005.19 1016.77 L3003.66 1023.33 L3002.12 1054.95 L3000.58 1001.45 L2999.04 947.487 L2997.5 903.291 L2995.96 895.835 
  L2994.43 888.747 L2992.89 848.217 L2991.35 786.157 L2989.81 821.449 L2988.27 772.154 L2986.74 764.816 L2985.2 758.798 L2983.66 713.362 L2982.12 692.882 L2980.58 705.256 
  L2979.04 681.652 L2977.51 667.454 L2975.97 686.945 L2974.43 679.498 L2972.89 660.503 L2971.35 675.663 L2969.81 691.421 L2968.28 679.217 L2966.74 676.339 L2965.2 677.666 
  L2963.66 696.901 L2962.12 679.998 L2960.59 686.161 L2959.05 699.447 L2957.51 714.456 L2955.97 735.528 L2954.43 726.911 L2952.89 728.106 L2951.36 769.877 L2949.82 780.022 
  L2948.28 762.358 L2946.74 767.678 L2945.2 768.205 L2943.67 792.185 L2942.13 773.289 L2940.59 749.837 L2939.05 796.069 L2937.51 721.446 L2935.97 711.767 L2934.44 732.019 
  L2932.9 705.242 L2931.36 717.318 L2929.82 694.71 L2928.28 717.145 L2926.74 708.241 L2925.21 727.279 L2923.67 704.918 L2922.13 704.487 L2920.59 689.824 L2919.05 729.757 
  L2917.52 699.845 L2915.98 702.185 L2914.44 699.375 L2912.9 715.973 L2911.36 704.65 L2909.82 709.053 L2908.29 702.893 L2906.75 682.733 L2905.21 697.538 L2903.67 707.437 
  L2902.13 694.962 L2900.59 698.428 L2899.06 692.713 L2897.52 697.743 L2895.98 664.755 L2894.44 664.996 L2892.9 670.847 L2891.37 665.785 L2889.83 679.491 L2888.29 670.772 
  L2886.75 693.175 L2885.21 694.834 L2883.67 709.817 L2882.14 777.567 L2880.6 786.893 L2879.06 795.405 L2877.52 842.457 L2875.98 862.415 L2874.45 975.606 L2872.91 971.876 
  L2871.37 1059.37 L2869.83 1044.52 L2868.29 1121.39 L2866.75 1143.4 L2865.22 1131.19 L2863.68 1120.16 L2862.14 1152.82 L2860.6 1169.01 L2859.06 1182.9 L2857.52 1201.37 
  L2855.99 1152.48 L2854.45 1201.3 L2852.91 1205.74 L2851.37 1193.44 L2849.83 1197.61 L2848.3 1191.49 L2846.76 1260.38 L2845.22 1167.09 L2843.68 1184.15 L2842.14 1195.66 
  L2840.6 1224.24 L2839.07 1169.92 L2837.53 1230.26 L2835.99 1171.42 L2834.45 1237.41 L2832.91 1269.92 L2831.37 1267.14 L2829.84 1261.28 L2828.3 1257.13 L2826.76 1315.26 
  L2825.22 1318.35 L2823.68 1265.82 L2822.15 1289.78 L2820.61 1301.4 L2819.07 1264.45 L2817.53 1258.38 L2815.99 1303.6 L2814.45 1314.61 L2812.92 1294.33 L2811.38 1287.18 
  L2809.84 1255.65 L2808.3 1306.63 L2806.76 1323.35 L2805.23 1282.39 L2803.69 1254.67 L2802.15 1291.51 L2800.61 1286.43 L2799.07 1285.58 L2797.53 1306.25 L2796 1278.7 
  L2794.46 1298.18 L2792.92 1292.17 L2791.38 1339.62 L2789.84 1358.13 L2788.3 1339.64 L2786.77 1318.68 L2785.23 1349.61 L2783.69 1304.47 L2782.15 1299.48 L2780.61 1252.56 
  L2779.08 1189.13 L2777.54 1155.16 L2776 1100.48 L2774.46 1044.08 L2772.92 1004.27 L2771.38 913.866 L2769.85 875.422 L2768.31 926.062 L2766.77 907.158 L2765.23 866.307 
  L2763.69 834.661 L2762.15 843.36 L2760.62 821.255 L2759.08 852.482 L2757.54 820.008 L2756 838.251 L2754.46 853.034 L2752.93 853.758 L2751.39 864.456 L2749.85 844.225 
  L2748.31 883.398 L2746.77 880.54 L2745.23 908.761 L2743.7 886.928 L2742.16 881.651 L2740.62 888.011 L2739.08 887.567 L2737.54 946.333 L2736 907.31 L2734.47 889.231 
  L2732.93 902.725 L2731.39 911.417 L2729.85 946.615 L2728.31 932.293 L2726.78 922.146 L2725.24 947.83 L2723.7 979.184 L2722.16 990.94 L2720.62 1016.88 L2719.08 1079.15 
  L2717.55 1111.27 L2716.01 1131.55 L2714.47 1186.76 L2712.93 1214.26 L2711.39 1222.52 L2709.86 1251.93 L2708.32 1262.68 L2706.78 1222.53 L2705.24 1254.13 L2703.7 1284.37 
  L2702.16 1305.21 L2700.63 1287.28 L2699.09 1286.75 L2697.55 1263.17 L2696.01 1248.7 L2694.47 1210.29 L2692.93 1225.7 L2691.4 1201.12 L2689.86 1177.43 L2688.32 1175.03 
  L2686.78 1133.81 L2685.24 1114.18 L2683.71 1224.35 L2682.17 1106.94 L2680.63 1141.2 L2679.09 1100.82 L2677.55 1109.61 L2676.01 1088.72 L2674.48 1112.52 L2672.94 1060.95 
  L2671.4 1055.82 L2669.86 1065.23 L2668.32 1035.62 L2666.78 1095.58 L2665.25 1068.16 L2663.71 1037.22 L2662.17 1016.31 L2660.63 1005.93 L2659.09 1039.56 L2657.56 1048.46 
  L2656.02 1003.61 L2654.48 1068.96 L2652.94 1062.64 L2651.4 1014.08 L2649.86 1054.99 L2648.33 1029.14 L2646.79 1093.57 L2645.25 1138.01 L2643.71 1141.63 L2642.17 1145.04 
  L2640.64 1089.93 L2639.1 1127.24 L2637.56 1155.22 L2636.02 1126.94 L2634.48 1198.32 L2632.94 1210.92 L2631.41 1208.11 L2629.87 1291.57 L2628.33 1223.6 L2626.79 1286.59 
  L2625.25 1284.23 L2623.71 1256.04 L2622.18 1284.35 L2620.64 1265.34 L2619.1 1275.13 L2617.56 1247.28 L2616.02 1241.26 L2614.49 1210.41 L2612.95 1149.31 L2611.41 1197.3 
  L2609.87 1163.44 L2608.33 1169.03 L2606.79 1151.28 L2605.26 1128.39 L2603.72 1129.03 L2602.18 1129.84 L2600.64 1154.67 L2599.1 1113.31 L2597.56 1140.94 L2596.03 1150.79 
  L2594.49 1135.77 L2592.95 1151.36 L2591.41 1186.46 L2589.87 1150.38 L2588.34 1141.24 L2586.8 1141.74 L2585.26 1179.59 L2583.72 1111.25 L2582.18 1221.85 L2580.64 1201.08 
  L2579.11 1161.75 L2577.57 1224.14 L2576.03 1170.81 L2574.49 1212.39 L2572.95 1209.97 L2571.42 1215.87 L2569.88 1202.82 L2568.34 1200.05 L2566.8 1181.3 L2565.26 1182.85 
  L2563.72 1190.37 L2562.19 1193.97 L2560.65 1154.03 L2559.11 1133.77 L2557.57 1120.6 L2556.03 1107.99 L2554.49 1050.63 L2552.96 1041.99 L2551.42 1041.27 L2549.88 949.547 
  L2548.34 931.044 L2546.8 928.027 L2545.27 926.361 L2543.73 937.98 L2542.19 955.478 L2540.65 955.048 L2539.11 892.506 L2537.57 924.615 L2536.04 929.403 L2534.5 961.107 
  L2532.96 927.494 L2531.42 931.34 L2529.88 970.731 L2528.34 969.964 L2526.81 958.027 L2525.27 1005.58 L2523.73 972.21 L2522.19 949.12 L2520.65 980.95 L2519.12 1018.76 
  L2517.58 990.31 L2516.04 1030.38 L2514.5 1036.45 L2512.96 1090.36 L2511.42 1094.51 L2509.89 1128.94 L2508.35 1116.3 L2506.81 1105.62 L2505.27 1124.87 L2503.73 1191.61 
  L2502.19 1203.98 L2500.66 1178.12 L2499.12 1128.82 L2497.58 1120.09 L2496.04 1129.29 L2494.5 1047.71 L2492.97 1045.21 L2491.43 1055.88 L2489.89 1005.95 L2488.35 936.995 
  L2486.81 946.17 L2485.27 868.971 L2483.74 841.454 L2482.2 824.71 L2480.66 785.095 L2479.12 792.243 L2477.58 790.31 L2476.05 739.353 L2474.51 735.654 L2472.97 706.94 
  L2471.43 739.059 L2469.89 707.167 L2468.35 696.619 L2466.82 696.895 L2465.28 714.489 L2463.74 705.496 L2462.2 701.201 L2460.66 689.249 L2459.12 676.542 L2457.59 686.875 
  L2456.05 689.364 L2454.51 701.839 L2452.97 671.923 L2451.43 671.466 L2449.9 674.809 L2448.36 655.96 L2446.82 653.123 L2445.28 659.76 L2443.74 660.542 L2442.2 648.948 
  L2440.67 650.314 L2439.13 626.984 L2437.59 620.496 L2436.05 619.839 L2434.51 627.653 L2432.97 609.945 L2431.44 612.978 L2429.9 615.277 L2428.36 613.34 L2426.82 603.357 
  L2425.28 611.875 L2423.75 604.277 L2422.21 617.664 L2420.67 611.049 L2419.13 621.733 L2417.59 625.378 L2416.05 641.276 L2414.52 630.784 L2412.98 637.956 L2411.44 659.667 
  L2409.9 666.89 L2408.36 667.136 L2406.83 674.71 L2405.29 679.255 L2403.75 707.59 L2402.21 742.076 L2400.67 746.207 L2399.13 711.933 L2397.6 758.049 L2396.06 774.439 
  L2394.52 817.252 L2392.98 848.229 L2391.44 858.369 L2389.9 819.058 L2388.37 910.047 L2386.83 982.959 L2385.29 1029.48 L2383.75 1033.07 L2382.21 1079.65 L2380.68 1143.26 
  L2379.14 1168.17 L2377.6 1190.61 L2376.06 1175.66 L2374.52 1210.93 L2372.98 1211.48 L2371.45 1239.19 L2369.91 1217.99 L2368.37 1222.57 L2366.83 1236.32 L2365.29 1176.94 
  L2363.75 1249.47 L2362.22 1170.04 L2360.68 1155.12 L2359.14 1091.56 L2357.6 1092.62 L2356.06 1030.66 L2354.53 1023.5 L2352.99 927.708 L2351.45 943.532 L2349.91 894.376 
  L2348.37 871.695 L2346.83 856.591 L2345.3 808.053 L2343.76 837.233 L2342.22 755.212 L2340.68 809.801 L2339.14 812.958 L2337.61 810.164 L2336.07 801.489 L2334.53 811.113 
  L2332.99 849.584 L2331.45 839.236 L2329.91 901.083 L2328.38 850.711 L2326.84 925.716 L2325.3 894.443 L2323.76 917.956 L2322.22 952.397 L2320.68 982.49 L2319.15 970.039 
  L2317.61 983.142 L2316.07 936.529 L2314.53 973.34 L2312.99 914.316 L2311.46 904.243 L2309.92 838.365 L2308.38 856.342 L2306.84 869.464 L2305.3 826.41 L2303.76 805.835 
  L2302.23 856.951 L2300.69 822.43 L2299.15 782.017 L2297.61 770.253 L2296.07 782.434 L2294.53 796.383 L2293 797.694 L2291.46 836.586 L2289.92 849.497 L2288.38 849.966 
  L2286.84 838.425 L2285.31 847.16 L2283.77 790.653 L2282.23 821.427 L2280.69 802.569 L2279.15 809.388 L2277.61 818.481 L2276.08 831.385 L2274.54 785.079 L2273 806.341 
  L2271.46 813.407 L2269.92 772.038 L2268.38 774.18 L2266.85 808.368 L2265.31 801.616 L2263.77 794.704 L2262.23 788.398 L2260.69 800.358 L2259.16 828.354 L2257.62 798.679 
  L2256.08 778.5 L2254.54 831.717 L2253 774.346 L2251.46 791.766 L2249.93 789.345 L2248.39 772.432 L2246.85 832.3 L2245.31 816.196 L2243.77 818.262 L2242.24 850.454 
  L2240.7 835.387 L2239.16 818.231 L2237.62 817.811 L2236.08 852.213 L2234.54 877.815 L2233.01 864.835 L2231.47 877.079 L2229.93 845.669 L2228.39 888.409 L2226.85 909.502 
  L2225.31 913.614 L2223.78 889.974 L2222.24 888.348 L2220.7 918.152 L2219.16 890.355 L2217.62 893.198 L2216.09 874.784 L2214.55 863.913 L2213.01 884.616 L2211.47 906.911 
  L2209.93 914.985 L2208.39 951.503 L2206.86 924.229 L2205.32 994.489 L2203.78 970.724 L2202.24 972.31 L2200.7 988.617 L2199.16 1017.38 L2197.63 1022.87 L2196.09 1019.91 
  L2194.55 1027.5 L2193.01 1088.05 L2191.47 1071.82 L2189.94 1087.36 L2188.4 1087.68 L2186.86 1157.69 L2185.32 1110.97 L2183.78 1053.69 L2182.24 1115.44 L2180.71 1141.92 
  L2179.17 1129.96 L2177.63 1115.7 L2176.09 1112.84 L2174.55 1106.44 L2173.02 1009.92 L2171.48 1042.85 L2169.94 1052.37 L2168.4 1032.03 L2166.86 1030.71 L2165.32 1035.97 
  L2163.79 1029.72 L2162.25 993.881 L2160.71 1021.66 L2159.17 1013.45 L2157.63 1009.99 L2156.09 992.413 L2154.56 1041.17 L2153.02 993.519 L2151.48 991.617 L2149.94 1010.84 
  L2148.4 1032.02 L2146.87 1044.83 L2145.33 989.035 L2143.79 1069.2 L2142.25 1042.3 L2140.71 1077.83 L2139.17 1126.55 L2137.64 1144.1 L2136.1 1157.35 L2134.56 1225.78 
  L2133.02 1241.22 L2131.48 1208.76 L2129.94 1295.08 L2128.41 1288.64 L2126.87 1316.52 L2125.33 1307.63 L2123.79 1322.83 L2122.25 1342.96 L2120.72 1303.11 L2119.18 1265.09 
  L2117.64 1284.84 L2116.1 1264.1 L2114.56 1256.9 L2113.02 1188.26 L2111.49 1187.28 L2109.95 1154.12 L2108.41 1123.75 L2106.87 1088.37 L2105.33 1030.34 L2103.8 1034.39 
  L2102.26 1024.76 L2100.72 989.809 L2099.18 955.205 L2097.64 953.078 L2096.1 925.8 L2094.57 890.473 L2093.03 891.081 L2091.49 878.241 L2089.95 893.373 L2088.41 856.075 
  L2086.87 882.356 L2085.34 868.69 L2083.8 911.472 L2082.26 915.437 L2080.72 921.459 L2079.18 952.8 L2077.65 953.158 L2076.11 924.5 L2074.57 1032.74 L2073.03 1031.25 
  L2071.49 1055.77 L2069.95 1072.47 L2068.42 1152.14 L2066.88 1165.65 L2065.34 1196.74 L2063.8 1184.57 L2062.26 1267.6 L2060.72 1278.76 L2059.19 1336.43 L2057.65 1357.61 
  L2056.11 1349.52 L2054.57 1358.25 L2053.03 1378.75 L2051.5 1388.4 L2049.96 1379.93 L2048.42 1403.64 L2046.88 1402 L2045.34 1383.09 L2043.8 1427.35 L2042.27 1415.87 
  L2040.73 1428.17 L2039.19 1359.88 L2037.65 1371.6 L2036.11 1352.51 L2034.57 1321.61 L2033.04 1322.11 L2031.5 1294.13 L2029.96 1309.67 L2028.42 1280.95 L2026.88 1287.57 
  L2025.35 1348.11 L2023.81 1307.35 L2022.27 1321.94 L2020.73 1304.12 L2019.19 1341.19 L2017.65 1343.06 L2016.12 1401.76 L2014.58 1400.26 L2013.04 1333.38 L2011.5 1321.2 
  L2009.96 1222.29 L2008.43 1221.29 L2006.89 1134.41 L2005.35 1061.93 L2003.81 1017.18 L2002.27 1022.97 L2000.73 950.768 L1999.2 905.936 L1997.66 869.072 L1996.12 877.577 
  L1994.58 859.499 L1993.04 806.845 L1991.5 829.661 L1989.97 877.614 L1988.43 849.366 L1986.89 852.478 L1985.35 851.885 L1983.81 877.539 L1982.28 896.233 L1980.74 885.019 
  L1979.2 903.789 L1977.66 925.989 L1976.12 952.262 L1974.58 931.304 L1973.05 1046.55 L1971.51 1041.41 L1969.97 1072.34 L1968.43 1067.05 L1966.89 1080.36 L1965.35 1097.13 
  L1963.82 1101.43 L1962.28 1142.11 L1960.74 1139.47 L1959.2 1217.11 L1957.66 1175.95 L1956.13 1183.48 L1954.59 1215.91 L1953.05 1208.9 L1951.51 1160.42 L1949.97 1209.47 
  L1948.43 1163.81 L1946.9 1135.73 L1945.36 1164.62 L1943.82 1142.78 L1942.28 1152.19 L1940.74 1139.97 L1939.21 1095.04 L1937.67 1119.69 L1936.13 1051.69 L1934.59 1074.16 
  L1933.05 1000.53 L1931.51 1012.82 L1929.98 992.609 L1928.44 949.095 L1926.9 956.589 L1925.36 911.301 L1923.82 903.023 L1922.28 889.353 L1920.75 909.351 L1919.21 897.507 
  L1917.67 882.189 L1916.13 909.738 L1914.59 892.187 L1913.06 885.334 L1911.52 936.469 L1909.98 911.241 L1908.44 853.144 L1906.9 883.736 L1905.36 838.306 L1903.83 835.065 
  L1902.29 806.455 L1900.75 760.587 L1899.21 746.705 L1897.67 703.026 L1896.13 719.9 L1894.6 705.565 L1893.06 665.386 L1891.52 688.037 L1889.98 662.687 L1888.44 650.552 
  L1886.91 650.917 L1885.37 657.334 L1883.83 650.662 L1882.29 652.854 L1880.75 640.796 L1879.21 642.47 L1877.68 648.673 L1876.14 652.585 L1874.6 635.458 L1873.06 658.547 
  L1871.52 670.872 L1869.99 670.721 L1868.45 654.427 L1866.91 669.842 L1865.37 678.242 L1863.83 705.434 L1862.29 690.357 L1860.76 702.796 L1859.22 692.785 L1857.68 682.498 
  L1856.14 717.324 L1854.6 721.583 L1853.06 721.548 L1851.53 686.766 L1849.99 698.706 L1848.45 711.559 L1846.91 673.643 L1845.37 693.233 L1843.84 695.77 L1842.3 693.459 
  L1840.76 667.387 L1839.22 682.188 L1837.68 671.916 L1836.14 670.469 L1834.61 655.453 L1833.07 663.541 L1831.53 660.982 L1829.99 657.443 L1828.45 645.006 L1826.91 655.344 
  L1825.38 665.142 L1823.84 658.93 L1822.3 621.129 L1820.76 631.149 L1819.22 626.156 L1817.69 640.248 L1816.15 618.734 L1814.61 651.269 L1813.07 639.858 L1811.53 623.669 
  L1809.99 635.308 L1808.46 641.573 L1806.92 649.466 L1805.38 649.051 L1803.84 650.425 L1802.3 652.836 L1800.76 643.458 L1799.23 663.803 L1797.69 660.367 L1796.15 679.024 
  L1794.61 675.885 L1793.07 689.627 L1791.54 673.92 L1790 688.827 L1788.46 710.645 L1786.92 701.512 L1785.38 711.25 L1783.84 707.569 L1782.31 686.761 L1780.77 718.523 
  L1779.23 718.438 L1777.69 713.362 L1776.15 756.715 L1774.62 714.228 L1773.08 730.246 L1771.54 774.724 L1770 790.091 L1768.46 826.85 L1766.92 871.795 L1765.39 894.417 
  L1763.85 908.802 L1762.31 899.823 L1760.77 910.505 L1759.23 897.624 L1757.69 863.658 L1756.16 861.165 L1754.62 834.813 L1753.08 823.915 L1751.54 823.871 L1750 833.256 
  L1748.47 805.594 L1746.93 806.883 L1745.39 790.02 L1743.85 760.791 L1742.31 774.707 L1740.77 791.936 L1739.24 767.119 L1737.7 800.381 L1736.16 745 L1734.62 758.286 
  L1733.08 787.548 L1731.54 773.412 L1730.01 753.868 L1728.47 760.569 L1726.93 753.077 L1725.39 788.78 L1723.85 769.207 L1722.32 755.421 L1720.78 763.922 L1719.24 746.995 
  L1717.7 784.103 L1716.16 796.338 L1714.62 802.4 L1713.09 797.388 L1711.55 794.731 L1710.01 830.629 L1708.47 863.866 L1706.93 866.625 L1705.4 846.084 L1703.86 876.362 
  L1702.32 864.624 L1700.78 894.253 L1699.24 845.842 L1697.7 915.344 L1696.17 906.855 L1694.63 860.324 L1693.09 861.486 L1691.55 856.477 L1690.01 867.864 L1688.47 921.282 
  L1686.94 920.933 L1685.4 948.559 L1683.86 952.669 L1682.32 976.059 L1680.78 996.646 L1679.25 1087.41 L1677.71 1081 L1676.17 1084.99 L1674.63 1132.59 L1673.09 1126.38 
  L1671.55 1118.29 L1670.02 1153.91 L1668.48 1152.57 L1666.94 1130.62 L1665.4 1133.05 L1663.86 1094.24 L1662.32 1102.19 L1660.79 1122.1 L1659.25 1099.85 L1657.71 1064.05 
  L1656.17 1151.96 L1654.63 1119.1 L1653.1 1092.06 L1651.56 1100.43 L1650.02 1103.96 L1648.48 1109.22 L1646.94 1136.6 L1645.4 1151.39 L1643.87 1182.16 L1642.33 1166.46 
  L1640.79 1207.43 L1639.25 1155.03 L1637.71 1120.8 L1636.18 1130.78 L1634.64 1059.93 L1633.1 981.703 L1631.56 965.451 L1630.02 854.466 L1628.48 826.246 L1626.95 796.604 
  L1625.41 764.383 L1623.87 773.59 L1622.33 702.986 L1620.79 731.745 L1619.25 697.626 L1617.72 707.607 L1616.18 698.249 L1614.64 690.662 L1613.1 691.244 L1611.56 695.38 
  L1610.03 693.632 L1608.49 718.07 L1606.95 707.035 L1605.41 720.099 L1603.87 739.639 L1602.33 754.868 L1600.8 768.137 L1599.26 783.997 L1597.72 786.279 L1596.18 798.393 
  L1594.64 810.798 L1593.1 851.974 L1591.57 852.909 L1590.03 945.143 L1588.49 965.326 L1586.95 968.868 L1585.41 964.369 L1583.88 1024.37 L1582.34 1025.77 L1580.8 982.235 
  L1579.26 986.597 L1577.72 988.64 L1576.18 980.242 L1574.65 977.229 L1573.11 911.784 L1571.57 891.829 L1570.03 879.785 L1568.49 864.327 L1566.95 805.138 L1565.42 853.67 
  L1563.88 823.878 L1562.34 780.887 L1560.8 749.842 L1559.26 790.945 L1557.73 757.897 L1556.19 744.65 L1554.65 750.156 L1553.11 736.68 L1551.57 737.395 L1550.03 750.5 
  L1548.5 750.427 L1546.96 758.499 L1545.42 758.438 L1543.88 767.017 L1542.34 768.466 L1540.81 768.879 L1539.27 724.867 L1537.73 735.739 L1536.19 742.124 L1534.65 741.556 
  L1533.11 779.869 L1531.58 753.496 L1530.04 776.585 L1528.5 727.707 L1526.96 739.718 L1525.42 768.459 L1523.88 794.606 L1522.35 749.134 L1520.81 748.597 L1519.27 755.36 
  L1517.73 785.419 L1516.19 820.08 L1514.66 786.578 L1513.12 843.91 L1511.58 821.278 L1510.04 821.856 L1508.5 819.869 L1506.96 872.853 L1505.43 850.022 L1503.89 820.768 
  L1502.35 831.593 L1500.81 841.436 L1499.27 819.559 L1497.73 843.37 L1496.2 832.393 L1494.66 848.116 L1493.12 823.957 L1491.58 804.67 L1490.04 818.288 L1488.51 806.139 
  L1486.97 792.323 L1485.43 786.358 L1483.89 763.925 L1482.35 772.282 L1480.81 762.131 L1479.28 764.739 L1477.74 758.412 L1476.2 751.905 L1474.66 786.83 L1473.12 774.093 
  L1471.59 765.475 L1470.05 798.134 L1468.51 785.536 L1466.97 779.566 L1465.43 824.185 L1463.89 818.15 L1462.36 851.142 L1460.82 846.065 L1459.28 828.441 L1457.74 872.826 
  L1456.2 875.951 L1454.66 909.068 L1453.13 896.435 L1451.59 888.493 L1450.05 916.467 L1448.51 883.002 L1446.97 895.145 L1445.44 927.026 L1443.9 924.233 L1442.36 914.921 
  L1440.82 922.177 L1439.28 916.019 L1437.74 915.235 L1436.21 913.402 L1434.67 939.571 L1433.13 903.946 L1431.59 979.448 L1430.05 968.157 L1428.51 923.018 L1426.98 948.761 
  L1425.44 994.149 L1423.9 965.032 L1422.36 991.575 L1420.82 945.501 L1419.29 942.678 L1417.75 975.811 L1416.21 963.015 L1414.67 957.473 L1413.13 942.294 L1411.59 970.154 
  L1410.06 928.152 L1408.52 925.291 L1406.98 857.742 L1405.44 851.332 L1403.9 853.731 L1402.37 771.392 L1400.83 746.969 L1399.29 735.067 L1397.75 739.126 L1396.21 725.413 
  L1394.67 694.021 L1393.14 673.698 L1391.6 674.353 L1390.06 679.855 L1388.52 682.336 L1386.98 692.897 L1385.44 672.439 L1383.91 688.843 L1382.37 685.978 L1380.83 687.656 
  L1379.29 700.436 L1377.75 700.028 L1376.22 724.008 L1374.68 728.962 L1373.14 765.674 L1371.6 731.882 L1370.06 709.228 L1368.52 751.874 L1366.99 754.137 L1365.45 779.942 
  L1363.91 783.787 L1362.37 786.246 L1360.83 763.18 L1359.29 749.219 L1357.76 759.522 L1356.22 751.784 L1354.68 756.494 L1353.14 750.761 L1351.6 740.363 L1350.07 821.88 
  L1348.53 765.604 L1346.99 817.301 L1345.45 833.718 L1343.91 843.934 L1342.37 918.157 L1340.84 925.502 L1339.3 987.585 L1337.76 1035.47 L1336.22 1086.22 L1334.68 1109.25 
  L1333.14 1180.73 L1331.61 1178.87 L1330.07 1225.69 L1328.53 1265.93 L1326.99 1260.82 L1325.45 1286.9 L1323.92 1279.95 L1322.38 1319.38 L1320.84 1297.02 L1319.3 1279.32 
  L1317.76 1305.72 L1316.22 1303.79 L1314.69 1289.55 L1313.15 1265.17 L1311.61 1276.24 L1310.07 1301.94 L1308.53 1296 L1307 1297.02 L1305.46 1320.39 L1303.92 1313.47 
  L1302.38 1291.53 L1300.84 1328.82 L1299.3 1335.42 L1297.77 1309.3 L1296.23 1353.44 L1294.69 1305.2 L1293.15 1320.4 L1291.61 1312.79 L1290.07 1299.57 L1288.54 1323.46 
  L1287 1335.1 L1285.46 1357.57 L1283.92 1281.32 L1282.38 1257.76 L1280.85 1228.24 L1279.31 1253.23 L1277.77 1220.62 L1276.23 1248.15 L1274.69 1221.79 L1273.15 1139.92 
  L1271.62 1160.61 L1270.08 1174.98 L1268.54 1129.55 L1267 1117.82 L1265.46 1142.65 L1263.92 1154.93 L1262.39 1096.96 L1260.85 1101.07 L1259.31 1164.8 L1257.77 1121.12 
  L1256.23 1152.62 L1254.7 1128.33 L1253.16 1088.5 L1251.62 1115.31 L1250.08 1129.5 L1248.54 1147.87 L1247 1093.72 L1245.47 1098.39 L1243.93 1068.18 L1242.39 1057.97 
  L1240.85 1014.82 L1239.31 932.29 L1237.78 940.052 L1236.24 906.634 L1234.7 841.977 L1233.16 806.672 L1231.62 811.75 L1230.08 762.45 L1228.55 737.611 L1227.01 762.857 
  L1225.47 762.265 L1223.93 735.287 L1222.39 730.948 L1220.85 736.882 L1219.32 755.186 L1217.78 738.722 L1216.24 722.903 L1214.7 743.756 L1213.16 740.31 L1211.63 692.414 
  L1210.09 712.217 L1208.55 739.32 L1207.01 719.706 L1205.47 729.407 L1203.93 741.456 L1202.4 743.173 L1200.86 745.684 L1199.32 739.794 L1197.78 766.142 L1196.24 761.634 
  L1194.7 797.954 L1193.17 780.734 L1191.63 820.713 L1190.09 839.725 L1188.55 850.48 L1187.01 957.61 L1185.48 947.696 L1183.94 1033.2 L1182.4 988.754 L1180.86 1085.23 
  L1179.32 1119.26 L1177.78 1119.43 L1176.25 1181.69 L1174.71 1175.63 L1173.17 1189.13 L1171.63 1225.85 L1170.09 1238.68 L1168.56 1231.26 L1167.02 1242.38 L1165.48 1218.05 
  L1163.94 1241.41 L1162.4 1252.24 L1160.86 1225.93 L1159.33 1241.21 L1157.79 1200.61 L1156.25 1172.39 L1154.71 1196.4 L1153.17 1226.11 L1151.63 1221.61 L1150.1 1234.37 
  L1148.56 1215.68 L1147.02 1239.01 L1145.48 1276.86 L1143.94 1265.65 L1142.41 1280.62 L1140.87 1334.27 L1139.33 1321.91 L1137.79 1291.37 L1136.25 1375.51 L1134.71 1347.12 
  L1133.18 1387.23 L1131.64 1430.43 L1130.1 1396.33 L1128.56 1344.57 L1127.02 1424.26 L1125.48 1406.09 L1123.95 1432.21 L1122.41 1429.34 L1120.87 1398.2 L1119.33 1344.53 
  L1117.79 1326.81 L1116.26 1336.97 L1114.72 1256.4 L1113.18 1269.95 L1111.64 1251.41 L1110.1 1239.11 L1108.56 1288.32 L1107.03 1276.67 L1105.49 1263.98 L1103.95 1259.26 
  L1102.41 1237.66 L1100.87 1303.52 L1099.34 1294.27 L1097.8 1326.68 L1096.26 1348.12 L1094.72 1307.25 L1093.18 1380.21 L1091.64 1355.84 L1090.11 1394.13 L1088.57 1378.96 
  L1087.03 1377.04 L1085.49 1384.97 L1083.95 1378.71 L1082.41 1406.78 L1080.88 1421.79 L1079.34 1409.98 L1077.8 1384.09 L1076.26 1444.41 L1074.72 1408.34 L1073.19 1401.23 
  L1071.65 1367.12 L1070.11 1396.77 L1068.57 1376.99 L1067.03 1398.71 L1065.49 1364.66 L1063.96 1341.67 L1062.42 1361.99 L1060.88 1360.89 L1059.34 1374.22 L1057.8 1294.46 
  L1056.26 1291.61 L1054.73 1328.22 L1053.19 1363.82 L1051.65 1367.53 L1050.11 1355.03 L1048.57 1341.13 L1047.04 1329.43 L1045.5 1370.19 L1043.96 1363.99 L1042.42 1381.68 
  L1040.88 1413.86 L1039.34 1375.48 L1037.81 1384.02 L1036.27 1356.35 L1034.73 1406.79 L1033.19 1378.75 L1031.65 1345.88 L1030.11 1334.79 L1028.58 1363.07 L1027.04 1280.07 
  L1025.5 1317.73 L1023.96 1323.21 L1022.42 1316.99 L1020.89 1319.03 L1019.35 1315.39 L1017.81 1297.58 L1016.27 1276.65 L1014.73 1263.09 L1013.19 1196.79 L1011.66 1240.7 
  L1010.12 1217.01 L1008.58 1117.19 L1007.04 1148.68 L1005.5 1135.97 L1003.97 1121.69 L1002.43 1125.19 L1000.89 1121.06 L999.35 1107.5 L997.812 1096.25 L996.274 1124.63 
  L994.736 1087.01 L993.198 1066.76 L991.659 1081.23 L990.121 1061.3 L988.583 1058.46 L987.045 1075.2 L985.506 1048.87 L983.968 1085.87 L982.43 1052.24 L980.892 1028.41 
  L979.354 1017.35 L977.815 970.475 L976.277 1019.85 L974.739 935.265 L973.201 1008.42 L971.662 958.005 L970.124 958.192 L968.586 972.082 L967.048 963.489 L965.51 979.891 
  L963.971 960.124 L962.433 951.153 L960.895 943.804 L959.357 895.007 L957.818 943.854 L956.28 948.502 L954.742 965.489 L953.204 916.888 L951.666 956.237 L950.127 932.883 
  L948.589 913.167 L947.051 906.934 L945.513 878.673 L943.974 879.289 L942.436 908.615 L940.898 873.327 L939.36 819.431 L937.822 807.846 L936.283 832.141 L934.745 816.076 
  L933.207 791.682 L931.669 788.323 L930.13 799.273 L928.592 781.234 L927.054 806.841 L925.516 761.044 L923.978 802.047 L922.439 789.071 L920.901 799.612 L919.363 827.858 
  L917.825 841.074 L916.286 884.014 L914.748 869.448 L913.21 910.748 L911.672 906.236 L910.133 905.718 L908.595 964.037 L907.057 977.456 L905.519 1020.63 L903.981 1103.42 
  L902.442 1063.37 L900.904 1086.18 L899.366 1153.51 L897.828 1194.24 L896.289 1194.86 L894.751 1209.82 L893.213 1268.61 L891.675 1284.83 L890.137 1280.41 L888.598 1266.98 
  L887.06 1326.27 L885.522 1309.15 L883.984 1315.49 L882.445 1290.46 L880.907 1338.48 L879.369 1374.81 L877.831 1367.8 L876.293 1302.35 L874.754 1298.63 L873.216 1305.08 
  L871.678 1333.53 L870.14 1322.45 L868.601 1305.89 L867.063 1280.07 L865.525 1304.3 L863.987 1249.68 L862.449 1228.76 L860.91 1269.74 L859.372 1241.15 L857.834 1183.29 
  L856.296 1185.95 L854.757 1230.34 L853.219 1181.53 L851.681 1144.33 L850.143 1189.15 L848.605 1180.35 L847.066 1191.49 L845.528 1200.11 L843.99 1191.94 L842.452 1210.53 
  L840.913 1239.6 L839.375 1205.89 L837.837 1232.61 L836.299 1225.39 L834.761 1224.53 L833.222 1309.55 L831.684 1305.23 L830.146 1227.3 L828.608 1262.27 L827.069 1286.4 
  L825.531 1254.15 L823.993 1286.43 L822.455 1311.72 L820.917 1315.45 L819.378 1288.1 L817.84 1333.77 L816.302 1307.29 L814.764 1285.45 L813.225 1366.81 L811.687 1327.34 
  L810.149 1339.76 L808.611 1327.84 L807.073 1414.5 L805.534 1400.63 L803.996 1370.19 L802.458 1406.36 L800.92 1395.08 L799.381 1373.66 L797.843 1371.09 L796.305 1409.29 
  L794.767 1376.94 L793.228 1385.84 L791.69 1390.12 L790.152 1395.41 L788.614 1405.47 L787.076 1343.61 L785.537 1348.89 L783.999 1335.04 L782.461 1284.62 L780.923 1271.9 
  L779.384 1205.95 L777.846 1186.93 L776.308 1134.99 L774.77 1072.44 L773.232 1127.36 L771.693 1111.3 L770.155 1079.46 L768.617 1116.98 L767.079 1078.86 L765.54 1049.99 
  L764.002 1081.81 L762.464 1029.85 L760.926 1055.33 L759.388 1050.1 L757.849 1062.45 L756.311 1058.47 L754.773 1023.28 L753.235 1084.1 L751.696 1066.92 L750.158 1086.55 
  L748.62 1077.21 L747.082 1126.97 L745.544 1089.56 L744.005 1153.91 L742.467 1101.31 L740.929 1223.28 L739.391 1149.57 L737.852 1154.99 L736.314 1166.25 L734.776 1191.49 
  L733.238 1164.4 L731.7 1243.16 L730.161 1173.17 L728.623 1204.77 L727.085 1258.16 L725.547 1180.2 L724.008 1226.97 L722.47 1247.39 L720.932 1215.17 L719.394 1179.42 
  L717.856 1203.88 L716.317 1185.82 L714.779 1167.61 L713.241 1239.96 L711.703 1210.89 L710.164 1207.05 L708.626 1264.18 L707.088 1253.56 L705.55 1231.04 L704.012 1186.47 
  L702.473 1184.05 L700.935 1187.68 L699.397 1249.99 L697.859 1185.36 L696.32 1214.99 L694.782 1166.14 L693.244 1145.3 L691.706 1155.9 L690.168 1161.34 L688.629 1143.85 
  L687.091 1135.95 L685.553 1156.44 L684.015 1080.4 L682.476 1118.16 L680.938 1101.23 L679.4 1096.32 L677.862 1081.09 L676.323 1078.23 L674.785 1054.75 L673.247 1133.17 
  L671.709 1107.27 L670.171 1136.25 L668.632 1155.65 L667.094 1150.31 L665.556 1198.11 L664.018 1215.74 L662.479 1211.61 L660.941 1269.25 L659.403 1277.41 L657.865 1340.85 
  L656.327 1277.02 L654.788 1352.59 L653.25 1344.5 L651.712 1364.75 L650.174 1318.86 L648.635 1404.27 L647.097 1382.53 L645.559 1368.48 L644.021 1358.81 L642.483 1379.17 
  L640.944 1329.52 L639.406 1336.92 L637.868 1333.07 L636.33 1317.59 L634.791 1314.38 L633.253 1327.7 L631.715 1334.87 L630.177 1338.77 L628.639 1344.72 L627.1 1365.28 
  L625.562 1391.44 L624.024 1407.12 L622.486 1389.2 L620.947 1414.9 L619.409 1410.99 L617.871 1420.38 L616.333 1412.34 L614.795 1422.38 L613.256 1432.2 L611.718 1430.83 
  L610.18 1453.05 L608.642 1437.41 L607.103 1427.58 L605.565 1418.73 L604.027 1448.87 L602.489 1465.14 L600.951 1444.63 L599.412 1452.77 L597.874 1390.12 L596.336 1433.96 
  L594.798 1413.37 L593.259 1393.97 L591.721 1362.6 L590.183 1387.47 L588.645 1353.37 L587.107 1383.63 L585.568 1386.89 L584.03 1393.98 L582.492 1361.59 L580.954 1310.55 
  L579.415 1373.21 L577.877 1313.62 L576.339 1385.85 L574.801 1318.7 L573.263 1298.02 L571.724 1326.5 L570.186 1313.2 L568.648 1323.97 L567.11 1280.69 L565.571 1305.84 
  L564.033 1296.67 L562.495 1248.27 L560.957 1303.64 L559.419 1294.52 L557.88 1289.87 L556.342 1312.15 L554.804 1290.32 L553.266 1219.01 L551.727 1255.9 L550.189 1199.6 
  L548.651 1213.11 L547.113 1241.57 L545.574 1176.57 L544.036 1174.81 L542.498 1114.83 L540.96 1091.2 L539.422 1066.97 L537.883 1112.9 L536.345 1068.15 L534.807 1015.64 
  L533.269 1063.26 L531.73 1030.18 L530.192 1008.89 L528.654 1038.03 L527.116 1059.34 L525.578 1051.85 L524.039 1044.77 L522.501 1065.89 L520.963 1107.17 L519.425 1073.31 
  L517.886 1106.12 L516.348 1100.57 L514.81 1091.25 L513.272 1107.7 L511.734 1102.11 L510.195 1140.76 L508.657 1114.71 L507.119 1166.69 L505.581 1172 L504.042 1174.14 
  L502.504 1211.28 L500.966 1190.17 L499.428 1185.72 L497.89 1170.9 L496.351 1153.64 L494.813 1149.58 L493.275 1153.15 L491.737 1166.99 L490.198 1166.58 L488.66 1219.2 
  L487.122 1224.55 L485.584 1171.96 L484.046 1190.3 L482.507 1191.31 L480.969 1214.74 L479.431 1211.9 L477.893 1289.65 L476.354 1285.06 L474.816 1364.04 L473.278 1363.71 
  L471.74 1422.55 L470.202 1368.29 L468.663 1435.29 L467.125 1445.74 L465.587 1407.16 L464.049 1426.9 L462.51 1433.02 L460.972 1423.36 L459.434 1418.87 L457.896 1413.18 
  L456.358 1418.26 L454.819 1369.98 L453.281 1376.75 L451.743 1454.89 L450.205 1393.4 L448.666 1402.2 L447.128 1378.26 L445.59 1380.64 L444.052 1370.88 L442.514 1323.35 
  L440.975 1314.93 L439.437 1365.01 L437.899 1344.42 L436.361 1324.66 L434.822 1355.42 L433.284 1334.6 L431.746 1349.04 L430.208 1345.55 L428.669 1304.08 L427.131 1323.83 
  L425.593 1312.99 L424.055 1334.69 L422.517 1362.61 L420.978 1308.12 L419.44 1366.63 L417.902 1272.95 L416.364 1319.69 L414.825 1288.68 L413.287 1287.67 L411.749 1269.81 
  L410.211 1259.32 L408.673 1256.8 L407.134 1234.87 L405.596 1218.53 L404.058 1167.95 L402.52 1173.92 L400.981 1114.96 L399.443 1130.02 L397.905 1110.15 L396.367 1042.94 
  L394.829 1028.33 L393.29 1015.32 L391.752 1055.27 L390.214 977.713 L388.676 940.721 L387.137 925.125 L385.599 920.408 L384.061 972.783 L382.523 955.947 L380.985 946.275 
  L379.446 1018.98 L377.908 952.979 L376.37 967.628 L374.832 1006.15 L373.293 1026.46 L371.755 1041.39 L370.217 1103.4 L368.679 1147.03 L367.141 1128.15 L365.602 1160.36 
  L364.064 1251.26 L362.526 1242.87 L360.988 1287.61 L359.449 1355.12 L357.911 1384.54 L356.373 1395.8 L354.835 1395.16 L353.297 1441.59 L351.758 1465.26 L350.22 1439.29 
  L348.682 1438.04 L347.144 1476.14 L345.605 1430.76 L344.067 1460.11 L342.529 1425.99 L340.991 1436.77 L339.453 1477.05 L337.914 1435.58 L336.376 1413.18 L334.838 1443.81 
  L333.3 1446.69 L331.761 1441.97 L330.223 1465.49 L328.685 1430.72 L327.147 1434.15 L325.609 1428.49 L324.07 1420.29 L322.532 1423.11 L320.994 1393.6 L319.456 1363.51 
  L317.917 1394.85 L316.379 1419.58 L314.841 1414.86 L313.303 1400.76 L311.764 1420.15 L310.226 1395.62 L308.688 1414.24 L307.15 1402.16 L305.612 1430.77 L304.073 1452.31 
  L302.535 1419.72 L300.997 1401.43 L299.459 1403.37 L297.92 1447.02 L296.382 1409.31 L294.844 1393.25 L293.306 1412.19 L291.768 1384.89 L290.229 1417.07 L288.691 1394.54 
  L287.153 1385.14 L285.615 1395.56 L284.076 1371.27 L282.538 1412.2 L281 1420.55 L279.462 1390.71 L277.924 1394.93 L276.385 1424.23 L274.847 1391.04 L273.309 1398.05 
  L271.771 1377.9 L270.232 1367.2 L268.694 1369.63 L267.156 1314.86 L265.618 1330.5 L264.08 1262.67 L262.541 1283.67 L261.003 1282.29 L259.465 1233.78 L257.927 1194.87 
  L256.388 1176.51 L254.85 1265.72 L253.312 1164.45 L251.774 1142.8  Z
  " fill="#000000" fill-rule="evenodd" fill-opacity="0.2"/>
<polyline clip-path="url(#clip4702)" style="stroke:#000000; stroke-width:4; stroke-opacity:1; fill:none" points="
  251.774,1414.97 253.312,1433.18 254.85,1477.46 256.388,1442.51 257.927,1471.32 259.465,1465.64 261.003,1497.68 262.541,1505.66 264.08,1512.18 265.618,1518.96 
  267.156,1535.53 268.694,1559.1 270.232,1554.41 271.771,1569.21 273.309,1587.78 274.847,1584.72 276.385,1610.6 277.924,1588.19 279.462,1568.05 281,1593.45 
  282.538,1595.79 284.076,1577.18 285.615,1584.03 287.153,1571.95 288.691,1573.37 290.229,1587.67 291.768,1576.95 293.306,1581.21 294.844,1585.07 296.382,1583.18 
  297.92,1596.71 299.459,1579.13 300.997,1601.53 302.535,1587.8 304.073,1599.06 305.612,1594 307.15,1578.72 308.688,1582.69 310.226,1573.65 311.764,1588.35 
  313.303,1569.87 314.841,1576.37 316.379,1590.7 317.917,1580.72 319.456,1570.11 320.994,1569.7 322.532,1588.54 324.07,1587.99 325.609,1594.33 327.147,1591.67 
  328.685,1592.38 330.223,1603.74 331.761,1605.55 333.3,1592.66 334.838,1599.08 336.376,1585.37 337.914,1607.38 339.453,1621.21 340.991,1599.39 342.529,1612.23 
  344.067,1617.5 345.605,1614.95 347.144,1619.2 348.682,1618.59 350.22,1614.12 351.758,1618.82 353.297,1615.21 354.835,1599.47 356.373,1588.64 357.911,1570.66 
  359.449,1563.92 360.988,1517.75 362.526,1495.91 364.064,1476.04 365.602,1421.4 367.141,1390.81 368.679,1401.54 370.217,1373.47 371.755,1322.84 373.293,1323.86 
  374.832,1316.82 376.37,1258.3 377.908,1239.34 379.446,1239.4 380.985,1241.83 382.523,1242.94 384.061,1239.98 385.599,1206.11 387.137,1214.66 388.676,1245.84 
  390.214,1232.45 391.752,1301.73 393.29,1285.39 394.829,1312.23 396.367,1312.38 397.905,1350.11 399.443,1383.11 400.981,1402.84 402.52,1428.02 404.058,1430.3 
  405.596,1457.73 407.134,1472.35 408.673,1510.31 410.211,1493.06 411.749,1513.09 413.287,1514.07 414.825,1526.98 416.364,1543.55 417.902,1525.35 419.44,1545.76 
  420.978,1530.25 422.517,1539.59 424.055,1534.24 425.593,1528.64 427.131,1533.53 428.669,1524.43 430.208,1516.1 431.746,1526.56 433.284,1529.18 434.822,1525.83 
  436.361,1506.92 437.899,1518.17 439.437,1543.56 440.975,1527.21 442.514,1529.35 444.052,1551.26 445.59,1546.13 447.128,1577.24 448.666,1570.51 450.205,1573.17 
  451.743,1604.14 453.281,1580.02 454.819,1578.31 456.358,1602.35 457.896,1583.98 459.434,1585.71 460.972,1596.29 462.51,1598.01 464.049,1601.91 465.587,1578.36 
  467.125,1603.9 468.663,1604.51 470.202,1579.27 471.74,1586.11 473.278,1573.84 474.816,1561.38 476.354,1517.89 477.893,1528.35 479.431,1499.7 480.969,1479.24 
  482.507,1461.62 484.046,1468.32 485.584,1460.22 487.122,1467.73 488.66,1449.86 490.198,1430.09 491.737,1454.62 493.275,1422.79 494.813,1428.29 496.351,1452.64 
  497.89,1446.38 499.428,1448.38 500.966,1464.59 502.504,1455.15 504.042,1428.81 505.581,1450.66 507.119,1431.95 508.657,1398.18 510.195,1412.41 511.734,1383.06 
  513.272,1371.44 514.81,1381.57 516.348,1388.4 517.886,1390.38 519.425,1380.69 520.963,1382.17 522.501,1342.52 524.039,1348.17 525.578,1337.08 527.116,1330.25 
  528.654,1351.27 530.192,1322.87 531.73,1336.45 533.269,1340.39 534.807,1326.95 536.345,1358.32 537.883,1392.17 539.422,1367.99 540.96,1378.9 542.498,1397.16 
  544.036,1419.73 545.574,1433.27 547.113,1472.17 548.651,1459.59 550.189,1454.01 551.727,1463.54 553.266,1457.63 554.804,1491 556.342,1512.23 557.88,1494.32 
  559.419,1499.75 560.957,1500.98 562.495,1492.4 564.033,1512.24 565.571,1521.96 567.11,1517.74 568.648,1516.35 570.186,1525.11 571.724,1524.46 573.263,1521.69 
  574.801,1517.82 576.339,1555.17 577.877,1531.75 579.415,1554.22 580.954,1531.08 582.492,1559.48 584.03,1561.81 585.568,1573.27 587.107,1581.65 588.645,1560.58 
  590.183,1575.93 591.721,1568.07 593.259,1570.09 594.798,1601.36 596.336,1603.7 597.874,1592.97 599.412,1605.35 600.951,1603.96 602.489,1611.06 604.027,1611.2 
  605.565,1600.62 607.103,1603.96 608.642,1600.71 610.18,1612.99 611.718,1600.06 613.256,1596.83 614.795,1597.75 616.333,1587.45 617.871,1589.85 619.409,1598.55 
  620.947,1592.71 622.486,1570.13 624.024,1573.91 625.562,1565.85 627.1,1556.77 628.639,1550.17 630.177,1546.31 631.715,1545.64 633.253,1540.75 634.791,1525.99 
  636.33,1533.79 637.868,1529.6 639.406,1553.18 640.944,1530.31 642.483,1556.39 644.021,1550.26 645.559,1568.85 647.097,1556.76 648.635,1581.47 650.174,1548.23 
  651.712,1543.95 653.25,1549.78 654.788,1554.17 656.327,1518.69 657.865,1552.86 659.403,1502.89 660.941,1494.45 662.479,1453.47 664.018,1467.24 665.556,1452.39 
  667.094,1405.61 668.632,1389.81 670.171,1390.66 671.709,1355.12 673.247,1358.51 674.785,1316.3 676.323,1337.85 677.862,1340.33 679.4,1332.09 680.938,1345.25 
  682.476,1350.24 684.015,1344.35 685.553,1370.62 687.091,1385.04 688.629,1382.37 690.168,1393.89 691.706,1386.29 693.244,1397.74 694.782,1427.2 696.32,1430.15 
  697.859,1425.3 699.397,1466.34 700.935,1427.26 702.473,1440.84 704.012,1437.18 705.55,1458.27 707.088,1468.75 708.626,1475.68 710.164,1458.03 711.703,1448.68 
  713.241,1459.51 714.779,1442.98 716.317,1457.56 717.856,1446.18 719.394,1444.49 720.932,1476.08 722.47,1491.87 724.008,1472.48 725.547,1444.68 727.085,1489.7 
  728.623,1456.14 730.161,1436.81 731.7,1455.2 733.238,1424.44 734.776,1410.79 736.314,1408.39 737.852,1421.14 739.391,1363.68 740.929,1418.11 742.467,1365.65 
  744.005,1375.25 745.544,1355.9 747.082,1371.77 748.62,1352.48 750.158,1330.46 751.696,1342.08 753.235,1319.07 754.773,1313.41 756.311,1316.26 757.849,1326.88 
  759.388,1311.45 760.926,1332.4 762.464,1297.26 764.002,1329.74 765.54,1332.71 767.079,1332.17 768.617,1363.11 770.155,1350.93 771.693,1359.64 773.232,1380.84 
  774.77,1367.43 776.308,1409.45 777.846,1446.42 779.384,1456.54 780.923,1504.78 782.461,1509.69 783.999,1530.03 785.537,1546.55 787.076,1553.79 788.614,1583.74 
  790.152,1579.5 791.69,1580.08 793.228,1574.52 794.767,1565.33 796.305,1577.24 797.843,1563.91 799.381,1563.36 800.92,1563.87 802.458,1580.25 803.996,1554 
  805.534,1570.63 807.073,1587.54 808.611,1532.43 810.149,1554.69 811.687,1552.45 813.225,1552.32 814.764,1523.68 816.302,1522.08 817.84,1531.1 819.378,1517.63 
  820.917,1526.96 822.455,1510.51 823.993,1504.37 825.531,1499.94 827.069,1513.3 828.608,1506.19 830.146,1480.38 831.684,1497.6 833.222,1518.78 834.761,1470.66 
  836.299,1466.87 837.837,1458.62 839.375,1447.02 840.913,1474.26 842.452,1455.99 843.99,1426.11 845.528,1432.85 847.066,1421.69 848.605,1400.84 850.143,1418.75 
  851.681,1399.11 853.219,1404.91 854.757,1433.18 856.296,1415.95 857.834,1428 859.372,1437.22 860.91,1445.98 862.449,1454.21 863.987,1486.98 865.525,1502.14 
  867.063,1493.23 868.601,1500.93 870.14,1512.2 871.678,1522.76 873.216,1508.73 874.754,1515.94 876.293,1505.24 877.831,1535.81 879.369,1544.97 880.907,1523.38 
  882.445,1507.21 883.984,1513.81 885.522,1523.3 887.06,1526.5 888.598,1501.72 890.137,1502.2 891.675,1507.57 893.213,1489.65 894.751,1459.13 896.289,1453.87 
  897.828,1450.55 899.366,1433.8 900.904,1369.5 902.442,1347.42 903.981,1355.22 905.519,1317.2 907.057,1279.98 908.595,1260.2 910.133,1215.5 911.672,1189.43 
  913.21,1195.09 914.748,1137.75 916.286,1123.19 917.825,1121.92 919.363,1085.73 920.901,1066.76 922.439,1054.36 923.978,1049.05 925.516,1042.81 927.054,1054.94 
  928.592,1009.94 930.13,1053.18 931.669,1032.35 933.207,1031.94 934.745,1068.72 936.283,1066.03 937.822,1055.83 939.36,1090.42 940.898,1101.75 942.436,1145.95 
  943.974,1130.64 945.513,1161.08 947.051,1181.04 948.589,1199.78 950.127,1223.17 951.666,1219.31 953.204,1221.19 954.742,1240.67 956.28,1218.39 957.818,1230.48 
  959.357,1205.87 960.895,1212.42 962.433,1215.83 963.971,1237.91 965.51,1230.98 967.048,1236.29 968.586,1231.26 970.124,1215.03 971.662,1214.46 973.201,1262.39 
  974.739,1240.4 976.277,1286.07 977.815,1267.29 979.354,1291.09 980.892,1291.67 982.43,1313.77 983.968,1347.97 985.506,1325.2 987.045,1335.06 988.583,1332.36 
  990.121,1337.22 991.659,1360.37 993.198,1339.43 994.736,1348.62 996.274,1350.21 997.812,1358.06 999.35,1351.07 1000.89,1371.31 1002.43,1365.28 1003.97,1369.38 
  1005.5,1382.6 1007.04,1395.67 1008.58,1384.15 1010.12,1449.18 1011.66,1476.13 1013.19,1454.83 1014.73,1487.34 1016.27,1493.91 1017.81,1521.02 1019.35,1520.7 
  1020.89,1533.56 1022.42,1533.33 1023.96,1533.47 1025.5,1530.89 1027.04,1527.09 1028.58,1555.86 1030.11,1538.19 1031.65,1547.73 1033.19,1559.56 1034.73,1580.12 
  1036.27,1562.2 1037.81,1568.85 1039.34,1565.17 1040.88,1571.36 1042.42,1570.35 1043.96,1566.65 1045.5,1562.58 1047.04,1549.69 1048.57,1555.37 1050.11,1547.3 
  1051.65,1555.33 1053.19,1566.25 1054.73,1543.76 1056.26,1523.54 1057.8,1521.04 1059.34,1561.5 1060.88,1550.14 1062.42,1546.29 1063.96,1552.66 1065.49,1546.34 
  1067.03,1567.55 1068.57,1565.1 1070.11,1580.73 1071.65,1568.4 1073.19,1562.38 1074.72,1578.59 1076.26,1592.15 1077.8,1567.55 1079.34,1579.94 1080.88,1578.59 
  1082.41,1579.96 1083.95,1571.92 1085.49,1573.57 1087.03,1579.28 1088.57,1563.86 1090.11,1563.75 1091.64,1552.53 1093.18,1546.05 1094.72,1533.07 1096.26,1536.27 
  1097.8,1528.24 1099.34,1516.67 1100.87,1518.35 1102.41,1480.66 1103.95,1480.36 1105.49,1483.98 1107.03,1475.05 1108.56,1489.49 1110.1,1490.98 1111.64,1473.8 
  1113.18,1498.89 1114.72,1492.08 1116.26,1532.79 1117.79,1547.93 1119.33,1554.65 1120.87,1563.91 1122.41,1579.35 1123.95,1580.18 1125.48,1585.33 1127.02,1577.52 
  1128.56,1560.67 1130.1,1575.56 1131.64,1580.51 1133.18,1570.09 1134.71,1545.17 1136.25,1547.56 1137.79,1517.75 1139.33,1516.21 1140.87,1525.29 1142.41,1498.61 
  1143.94,1491.45 1145.48,1482.84 1147.02,1457.43 1148.56,1436.11 1150.1,1469.25 1151.63,1444.22 1153.17,1455.11 1154.71,1432.49 1156.25,1416.18 1157.79,1432.08 
  1159.33,1438.34 1160.86,1452.13 1162.4,1444.34 1163.94,1447.18 1165.48,1446.65 1167.02,1442.84 1168.56,1445.52 1170.09,1441.29 1171.63,1436.62 1173.17,1418.81 
  1174.71,1424.09 1176.25,1407.91 1177.78,1395.3 1179.32,1369.59 1180.86,1360.42 1182.4,1291.87 1183.94,1280.09 1185.48,1206.28 1187.01,1191.16 1188.55,1132.95 
  1190.09,1092.55 1191.63,1060.91 1193.17,1005.72 1194.7,994.956 1196.24,979.926 1197.78,963.936 1199.32,964.752 1200.86,950.223 1202.4,936.186 1203.93,951.107 
  1205.47,910.113 1207.01,920.671 1208.55,937.252 1210.09,920.63 1211.63,916.561 1213.16,932.405 1214.7,927.654 1216.24,934.721 1217.78,912.596 1219.32,935.735 
  1220.85,959.756 1222.39,939.723 1223.93,947.62 1225.47,986.449 1227.01,971.35 1228.55,970.199 1230.08,994.298 1231.62,1066.4 1233.16,1047.64 1234.7,1103.55 
  1236.24,1154.17 1237.78,1213.02 1239.31,1248.62 1240.85,1293.69 1242.39,1292.74 1243.93,1349.18 1245.47,1362.62 1247,1376.76 1248.54,1393.86 1250.08,1375.47 
  1251.62,1387.01 1253.16,1371.84 1254.7,1381.27 1256.23,1386.66 1257.77,1383.48 1259.31,1385.73 1260.85,1373 1262.39,1369.95 1263.92,1382.09 1265.46,1394.51 
  1267,1395.04 1268.54,1396.69 1270.08,1410.68 1271.62,1419.42 1273.15,1410.98 1274.69,1458.83 1276.23,1466.6 1277.77,1480.57 1279.31,1495.91 1280.85,1475.33 
  1282.38,1499.02 1283.92,1513.27 1285.46,1548.38 1287,1533.17 1288.54,1528.75 1290.07,1527.9 1291.61,1531.28 1293.15,1540.11 1294.69,1532.32 1296.23,1551.8 
  1297.77,1527.47 1299.3,1532.15 1300.84,1538.5 1302.38,1517.74 1303.92,1510.23 1305.46,1508.74 1307,1500.06 1308.53,1509.59 1310.07,1482.51 1311.61,1494.09 
  1313.15,1484.34 1314.69,1484.1 1316.22,1482.51 1317.76,1495.07 1319.3,1490.46 1320.84,1492.05 1322.38,1488.67 1323.92,1482.51 1325.45,1463.56 1326.99,1456.91 
  1328.53,1471.09 1330.07,1449.23 1331.61,1413.47 1333.14,1412.37 1334.68,1386.57 1336.22,1329.97 1337.76,1311.38 1339.3,1261.23 1340.84,1199.86 1342.37,1161.02 
  1343.91,1110.88 1345.45,1064.06 1346.99,1065.66 1348.53,1024.5 1350.07,1035.01 1351.6,994.039 1353.14,973.435 1354.68,971.929 1356.22,975.63 1357.76,970.628 
  1359.29,970.517 1360.83,968.653 1362.37,996.455 1363.91,972.232 1365.45,961.986 1366.99,960.789 1368.52,952.357 1370.06,967.087 1371.6,923.911 1373.14,948.858 
  1374.68,914.954 1376.22,912.502 1377.75,890.119 1379.29,874.976 1380.83,867.183 1382.37,856.182 1383.91,842.394 1385.44,829.761 1386.98,834.605 1388.52,842.818 
  1390.06,833.375 1391.6,850.121 1393.14,838.508 1394.67,862.337 1396.21,899.792 1397.75,902.956 1399.29,962.503 1400.83,976.146 1402.37,995.47 1403.9,1038.97 
  1405.44,1082.35 1406.98,1087.56 1408.52,1142.82 1410.06,1161.66 1411.59,1184.73 1413.13,1190.55 1414.67,1181.36 1416.21,1216.32 1417.75,1224.83 1419.29,1205.3 
  1420.82,1212.93 1422.36,1212.88 1423.9,1203.36 1425.44,1226.91 1426.98,1204.62 1428.51,1207.71 1430.05,1212.99 1431.59,1207.49 1433.13,1156.63 1434.67,1168.34 
  1436.21,1155.05 1437.74,1142.68 1439.28,1146.19 1440.82,1145.1 1442.36,1150.5 1443.9,1145.76 1445.44,1141.17 1446.97,1126.97 1448.51,1117.51 1450.05,1108.57 
  1451.59,1126.23 1453.13,1122.83 1454.66,1120.94 1456.2,1112.78 1457.74,1063.39 1459.28,1080.74 1460.82,1060.72 1462.36,1046.74 1463.89,1022.87 1465.43,1032.07 
  1466.97,983.782 1468.51,978.459 1470.05,971.864 1471.59,955.748 1473.12,949.336 1474.66,945.591 1476.2,931.25 1477.74,941.495 1479.28,924.553 1480.81,957.105 
  1482.35,948.701 1483.89,960.652 1485.43,961.333 1486.97,994.923 1488.51,991.193 1490.04,1009.66 1491.58,1008.02 1493.12,1016.01 1494.66,1059.51 1496.2,1041.51 
  1497.73,1032.54 1499.27,1027.44 1500.81,1030.56 1502.35,1038.23 1503.89,1053.1 1505.43,1040.21 1506.96,1043.78 1508.5,1025.32 1510.04,1024.31 1511.58,1012.56 
  1513.12,1032.91 1514.66,1009.89 1516.19,1008.67 1517.73,998.112 1519.27,977.626 1520.81,974.738 1522.35,969.871 1523.88,977.741 1525.42,972.223 1526.96,959.668 
  1528.5,926.229 1530.04,958.004 1531.58,934.898 1533.11,963.608 1534.65,956.485 1536.19,958.352 1537.73,935.298 1539.27,953.792 1540.81,975.561 1542.34,967.017 
  1543.88,978.696 1545.42,953.385 1546.96,978.056 1548.5,966.916 1550.03,942.648 1551.57,947.412 1553.11,936.481 1554.65,974.951 1556.19,968.03 1557.73,974.453 
  1559.26,995.483 1560.8,981.757 1562.34,1002.13 1563.88,1031.26 1565.42,1035.99 1566.95,1037.58 1568.49,1089.57 1570.03,1105.74 1571.57,1121.81 1573.11,1166.62 
  1574.65,1199.83 1576.18,1195.19 1577.72,1216.9 1579.26,1218.01 1580.8,1238.2 1582.34,1241.24 1583.88,1249.34 1585.41,1209.89 1586.95,1206.34 1588.49,1203.08 
  1590.03,1178.09 1591.57,1108.3 1593.1,1103.68 1594.64,1065.27 1596.18,1046.89 1597.72,1002.67 1599.26,992.369 1600.8,985.469 1602.33,944.399 1603.87,920.712 
  1605.41,894.152 1606.95,894.77 1608.49,868.895 1610.03,853.683 1611.56,841.888 1613.1,836.352 1614.64,832.661 1616.18,843.451 1617.72,854.697 1619.25,861.103 
  1620.79,868.754 1622.33,882.281 1623.87,951.567 1625.41,965.647 1626.95,1019.34 1628.48,1097.17 1630.02,1148.12 1631.56,1217.61 1633.1,1269.7 1634.64,1321.74 
  1636.18,1384.74 1637.71,1382.27 1639.25,1400.33 1640.79,1435.43 1642.33,1413.22 1643.87,1418.7 1645.4,1407.72 1646.94,1398.78 1648.48,1351.35 1650.02,1358.4 
  1651.56,1356.59 1653.1,1347.56 1654.63,1351.53 1656.17,1355.85 1657.71,1311.05 1659.25,1331.88 1660.79,1354.71 1662.32,1348.72 1663.86,1352.25 1665.4,1354.37 
  1666.94,1360.92 1668.48,1404.25 1670.02,1393.44 1671.55,1375.56 1673.09,1392.63 1674.63,1390.08 1676.17,1351.37 1677.71,1345.85 1679.25,1350.57 1680.78,1273.74 
  1682.32,1265.78 1683.86,1232.73 1685.4,1207.38 1686.94,1188.98 1688.47,1178.09 1690.01,1148.87 1691.55,1119.77 1693.09,1126.48 1694.63,1124.31 1696.17,1144 
  1697.7,1138.45 1699.24,1109.24 1700.78,1136.03 1702.32,1102.97 1703.86,1101.85 1705.4,1090.22 1706.93,1084.42 1708.47,1055.08 1710.01,1021.88 1711.55,998.218 
  1713.09,980.152 1714.62,985.728 1716.16,975.49 1717.7,957.733 1719.24,926.527 1720.78,941.027 1722.32,930.867 1723.85,945.605 1725.39,955.177 1726.93,937.114 
  1728.47,943.705 1730.01,940.298 1731.54,965.249 1733.08,974.48 1734.62,965.107 1736.16,939.906 1737.7,996.913 1739.24,986.681 1740.77,991.491 1742.31,997.785 
  1743.85,1013.89 1745.39,1015.08 1746.93,1030.76 1748.47,1029.24 1750,1043.38 1751.54,1054.07 1753.08,1059.67 1754.62,1079.89 1756.16,1114.81 1757.69,1118.76 
  1759.23,1130.19 1760.77,1176.15 1762.31,1168.98 1763.85,1152.65 1765.39,1151.46 1766.92,1119.89 1768.46,1070.24 1770,1033.25 1771.54,980.118 1773.08,967.631 
  1774.62,943.63 1776.15,927.1 1777.69,876.837 1779.23,869.843 1780.77,859.188 1782.31,841.668 1783.84,840.696 1785.38,842.822 1786.92,839.784 1788.46,838.848 
  1790,838.388 1791.54,830.146 1793.07,849.703 1794.61,833.378 1796.15,815.935 1797.69,824.752 1799.23,827.37 1800.76,810.576 1802.3,798.869 1803.84,782.779 
  1805.38,790.127 1806.92,797.032 1808.46,776.496 1809.99,774.287 1811.53,757.561 1813.07,750.44 1814.61,752.602 1816.15,743.021 1817.69,749.463 1819.22,748.09 
  1820.76,738.911 1822.3,751.377 1823.84,770.469 1825.38,757.976 1826.91,761.668 1828.45,767.625 1829.99,788.584 1831.53,780.578 1833.07,788.007 1834.61,796.738 
  1836.14,813.527 1837.68,817.352 1839.22,815.163 1840.76,822.347 1842.3,842.414 1843.84,836.692 1845.37,842.305 1846.91,855.561 1848.45,863.496 1849.99,864.573 
  1851.53,879.324 1853.06,874.056 1854.6,875.15 1856.14,883.194 1857.68,860.241 1859.22,861.716 1860.76,840.997 1862.29,835.411 1863.83,831.986 1865.37,817.74 
  1866.91,785.407 1868.45,796.094 1869.99,788.182 1871.52,785.248 1873.06,783.753 1874.6,763.779 1876.14,760.862 1877.68,765.726 1879.21,755.032 1880.75,760.166 
  1882.29,757.537 1883.83,763.68 1885.37,767.314 1886.91,778.047 1888.44,774.72 1889.98,795.342 1891.52,806.116 1893.06,819.574 1894.6,848.118 1896.13,878.997 
  1897.67,889.099 1899.21,942.175 1900.75,980.723 1902.29,1022.46 1903.83,1066.53 1905.36,1074.99 1906.9,1114.73 1908.44,1143.83 1909.98,1170.7 1911.52,1175.79 
  1913.06,1148.84 1914.59,1160.74 1916.13,1145.02 1917.67,1137.13 1919.21,1124.51 1920.75,1133.44 1922.28,1150.34 1923.82,1161.11 1925.36,1163.89 1926.9,1189.82 
  1928.44,1220.4 1929.98,1228.09 1931.51,1242.69 1933.05,1256.25 1934.59,1303.89 1936.13,1304.66 1937.67,1363.11 1939.21,1361.55 1940.74,1394.8 1942.28,1382.92 
  1943.82,1407.15 1945.36,1417.69 1946.9,1393.38 1948.43,1409.64 1949.97,1431.66 1951.51,1426.2 1953.05,1453.31 1954.59,1460.51 1956.13,1446.63 1957.66,1455.99 
  1959.2,1469.57 1960.74,1429.89 1962.28,1423.9 1963.82,1419.6 1965.35,1410.83 1966.89,1404.73 1968.43,1399.63 1969.97,1371.94 1971.51,1347.45 1973.05,1350.98 
  1974.58,1264.85 1976.12,1273.49 1977.66,1249.63 1979.2,1218.06 1980.74,1196.68 1982.28,1198.22 1983.81,1175.87 1985.35,1140.46 1986.89,1138.73 1988.43,1142.37 
  1989.97,1157.12 1991.5,1132.59 1993.04,1130.94 1994.58,1166.2 1996.12,1168.43 1997.66,1190.54 1999.2,1197.26 2000.73,1241.84 2002.27,1301.7 2003.81,1328.19 
  2005.35,1379.45 2006.89,1417.63 2008.43,1484.92 2009.96,1486.99 2011.5,1529.9 2013.04,1561.99 2014.58,1581.64 2016.12,1570.59 2017.65,1553.15 2019.19,1553.86 
  2020.73,1524.92 2022.27,1524.2 2023.81,1506.31 2025.35,1524.77 2026.88,1498.12 2028.42,1492.63 2029.96,1511.33 2031.5,1505.32 2033.04,1536.88 2034.57,1542.83 
  2036.11,1557.37 2037.65,1579.66 2039.19,1575.32 2040.73,1598.75 2042.27,1593.62 2043.8,1605.56 2045.34,1572.73 2046.88,1592.01 2048.42,1577.19 2049.96,1575.14 
  2051.5,1575.19 2053.03,1571.29 2054.57,1564.61 2056.11,1564.23 2057.65,1560.63 2059.19,1555.05 2060.72,1527.71 2062.26,1503.94 2063.8,1458.13 2065.34,1463.11 
  2066.88,1433.91 2068.42,1409.04 2069.95,1354.3 2071.49,1347.31 2073.03,1301.05 2074.57,1276.52 2076.11,1245.16 2077.65,1229.82 2079.18,1201.81 2080.72,1148.67 
  2082.26,1160.7 2083.8,1137.94 2085.34,1121.82 2086.87,1121.91 2088.41,1116.46 2089.95,1144.22 2091.49,1118.72 2093.03,1149.4 2094.57,1133.04 2096.1,1191.33 
  2097.64,1190.87 2099.18,1206.59 2100.72,1252.35 2102.26,1280.2 2103.8,1284.92 2105.33,1304.13 2106.87,1351.37 2108.41,1369.81 2109.95,1391.62 2111.49,1436.3 
  2113.02,1442.28 2114.56,1474.7 2116.1,1494.08 2117.64,1496.92 2119.18,1491.45 2120.72,1508.67 2122.25,1531.89 2123.79,1515.53 2125.33,1509.37 2126.87,1520.18 
  2128.41,1513.94 2129.94,1511.35 2131.48,1473.3 2133.02,1482.94 2134.56,1463.87 2136.1,1431.61 2137.64,1418.42 2139.17,1392.76 2140.71,1354.11 2142.25,1349.49 
  2143.79,1332.68 2145.33,1299.97 2146.87,1328.7 2148.4,1294.14 2149.94,1282.75 2151.48,1280.84 2153.02,1289.64 2154.56,1284.26 2156.09,1292.17 2157.63,1299.91 
  2159.17,1294.8 2160.71,1301.31 2162.25,1275.97 2163.79,1309.92 2165.32,1299.74 2166.86,1302.76 2168.4,1311.27 2169.94,1335.91 2171.48,1327.33 2173.02,1296.73 
  2174.55,1365.15 2176.09,1355.49 2177.63,1384.23 2179.17,1386.29 2180.71,1398.26 2182.24,1359.84 2183.78,1364.05 2185.32,1373.76 2186.86,1389.86 2188.4,1345.76 
  2189.94,1338.77 2191.47,1337.19 2193.01,1342.75 2194.55,1320.6 2196.09,1313.05 2197.63,1305.17 2199.16,1297.23 2200.7,1267.51 2202.24,1259.13 2203.78,1239.49 
  2205.32,1246.94 2206.86,1206.63 2208.39,1253.41 2209.93,1192.67 2211.47,1180.05 2213.01,1179.79 2214.55,1157.34 2216.09,1149.96 2217.62,1161.53 2219.16,1161.9 
  2220.7,1155 2222.24,1143.84 2223.78,1134.31 2225.31,1165 2226.85,1161.7 2228.39,1133.28 2229.93,1117.81 2231.47,1129.79 2233.01,1125.88 2234.54,1123.34 
  2236.08,1093.46 2237.62,1063.81 2239.16,1062.52 2240.7,1079.17 2242.24,1080.14 2243.77,1036.06 2245.31,1044.15 2246.85,1073.09 2248.39,1033.24 2249.93,1034.71 
  2251.46,1041.53 2253,1010.37 2254.54,1052.29 2256.08,1035.08 2257.62,1028.51 2259.16,1064.12 2260.69,1013.89 2262.23,1024.7 2263.77,1020.18 2265.31,1002.14 
  2266.85,1007.56 2268.38,1007.58 2269.92,990.464 2271.46,1013.03 2273,1015.81 2274.54,1028.41 2276.08,1063.36 2277.61,1055.17 2279.15,1058.41 2280.69,1065.91 
  2282.23,1061.41 2283.77,1074.17 2285.31,1091.25 2286.84,1088.07 2288.38,1108.64 2289.92,1078.29 2291.46,1079.42 2293,1042.23 2294.53,1055.84 2296.07,1036.8 
  2297.61,1016.91 2299.15,1042.59 2300.69,1041.92 2302.23,1083.86 2303.76,1027.59 2305.3,1062.1 2306.84,1101.61 2308.38,1126.33 2309.92,1123.35 2311.46,1161.54 
  2312.99,1187.24 2314.53,1236.12 2316.07,1222.99 2317.61,1251.38 2319.15,1236.7 2320.68,1239.28 2322.22,1226.29 2323.76,1200.24 2325.3,1169.84 2326.84,1171.93 
  2328.38,1142.37 2329.91,1133.34 2331.45,1096.63 2332.99,1098.94 2334.53,1062.35 2336.07,1061.18 2337.61,1026.79 2339.14,1048.25 2340.68,1050.11 2342.22,1034.94 
  2343.76,1076.59 2345.3,1074.82 2346.83,1095.26 2348.37,1117.87 2349.91,1166.42 2351.45,1209.74 2352.99,1231.66 2354.53,1286.22 2356.06,1320.36 2357.6,1375.51 
  2359.14,1377.71 2360.68,1418.48 2362.22,1436.57 2363.75,1475.53 2365.29,1446.87 2366.83,1475.21 2368.37,1469.5 2369.91,1470.42 2371.45,1478.15 2372.98,1461.93 
  2374.52,1463.87 2376.06,1431.52 2377.6,1434.57 2379.14,1421.58 2380.68,1390.74 2382.21,1352.35 2383.75,1340.3 2385.29,1310.46 2386.83,1256.04 2388.37,1203.94 
  2389.9,1117.47 2391.44,1114.47 2392.98,1043.71 2394.52,1023.33 2396.06,1005.65 2397.6,946.886 2399.13,917.233 2400.67,889.446 2402.21,867.669 2403.75,830.077 
  2405.29,817.872 2406.83,791.702 2408.36,775.984 2409.9,759.204 2411.44,753.022 2412.98,730.646 2414.52,713.367 2416.05,705.767 2417.59,695.353 2419.13,689.572 
  2420.67,683.721 2422.21,679.47 2423.75,675.663 2425.28,676.808 2426.82,673.587 2428.36,676.076 2429.9,671.196 2431.44,671.567 2432.97,674.101 2434.51,690.39 
  2436.05,690.326 2437.59,699.965 2439.13,712.578 2440.67,725.129 2442.2,727.48 2443.74,755.374 2445.28,767.018 2446.82,780.145 2448.36,787.663 2449.9,815.425 
  2451.43,836.394 2452.97,834.893 2454.51,855.473 2456.05,864.781 2457.59,864.871 2459.12,862.065 2460.66,848.574 2462.2,862.398 2463.74,867.271 2465.28,881.412 
  2466.82,869.96 2468.35,883.778 2469.89,897.187 2471.43,910.396 2472.97,923.792 2474.51,945.589 2476.05,954.488 2477.58,976.146 2479.12,996.127 2480.66,1020.53 
  2482.2,1078.37 2483.74,1103.66 2485.27,1153.77 2486.81,1201.42 2488.35,1211.56 2489.89,1281.74 2491.43,1309.58 2492.97,1305.92 2494.5,1308.3 2496.04,1375.58 
  2497.58,1388.31 2499.12,1383.26 2500.66,1411.18 2502.19,1419.54 2503.73,1397.65 2505.27,1381.78 2506.81,1373.18 2508.35,1358.57 2509.89,1350.67 2511.42,1356.68 
  2512.96,1323.37 2514.5,1289.29 2516.04,1284.28 2517.58,1274.75 2519.12,1294.5 2520.65,1267.46 2522.19,1253.9 2523.73,1273.17 2525.27,1260.69 2526.81,1242.89 
  2528.34,1259.06 2529.88,1224.83 2531.42,1238.39 2532.96,1216.61 2534.5,1232.44 2536.04,1192.87 2537.57,1216.32 2539.11,1195.73 2540.65,1210.7 2542.19,1219.26 
  2543.73,1222.29 2545.27,1203.52 2546.8,1220.67 2548.34,1229.78 2549.88,1256.03 2551.42,1305.92 2552.96,1313.5 2554.49,1321.37 2556.03,1338.19 2557.57,1359.33 
  2559.11,1383.55 2560.65,1396.31 2562.19,1424.48 2563.72,1400.5 2565.26,1408.11 2566.8,1410.84 2568.34,1416.57 2569.88,1413.31 2571.42,1420.64 2572.95,1414.61 
  2574.49,1430.51 2576.03,1409.51 2577.57,1423.47 2579.11,1408.65 2580.64,1433.75 2582.18,1433.96 2583.72,1382.99 2585.26,1420.91 2586.8,1401.25 2588.34,1401.2 
  2589.87,1409.86 2591.41,1418.14 2592.95,1423.53 2594.49,1384.54 2596.03,1387.83 2597.56,1395.07 2599.1,1362.59 2600.64,1402.71 2602.18,1388.47 2603.72,1398.54 
  2605.26,1373.16 2606.79,1417.73 2608.33,1412.8 2609.87,1422.43 2611.41,1427.04 2612.95,1437.22 2614.49,1437.74 2616.02,1474.06 2617.56,1461.47 2619.1,1472.77 
  2620.64,1494.63 2622.18,1480.33 2623.71,1487.71 2625.25,1489.91 2626.79,1494.87 2628.33,1468.24 2629.87,1481.52 2631.41,1456.03 2632.94,1425.88 2634.48,1415.47 
  2636.02,1393.25 2637.56,1389.28 2639.1,1376.85 2640.64,1357.45 2642.17,1365.85 2643.71,1346.33 2645.25,1343.51 2646.79,1319.28 2648.33,1283.93 2649.86,1309.16 
  2651.4,1279.12 2652.94,1284.39 2654.48,1287.39 2656.02,1249.32 2657.56,1290.33 2659.09,1265.49 2660.63,1279.07 2662.17,1272.58 2663.71,1275.1 2665.25,1317.9 
  2666.78,1324.56 2668.32,1322.27 2669.86,1334.31 2671.4,1345.62 2672.94,1349.97 2674.48,1365.06 2676.01,1375.65 2677.55,1374.11 2679.09,1390.16 2680.63,1393.74 
  2682.17,1394.49 2683.71,1428.35 2685.24,1382.34 2686.78,1398.79 2688.32,1432.39 2689.86,1407.74 2691.4,1435.07 2692.93,1468.2 2694.47,1450.68 2696.01,1474.13 
  2697.55,1486.03 2699.09,1498.55 2700.63,1505.53 2702.16,1509.41 2703.7,1498.6 2705.24,1493.21 2706.78,1473.18 2708.32,1511.04 2709.86,1483.51 2711.39,1463.68 
  2712.93,1451.59 2714.47,1444.17 2716.01,1411.13 2717.55,1382.11 2719.08,1343.99 2720.62,1320.82 2722.16,1288.98 2723.7,1257.73 2725.24,1207.86 2726.78,1221.19 
  2728.31,1212.36 2729.85,1198.16 2731.39,1185.01 2732.93,1170.76 2734.47,1159.52 2736,1176.19 2737.54,1175.03 2739.08,1169.41 2740.62,1173.74 2742.16,1145.76 
  2743.7,1134.93 2745.23,1153.25 2746.77,1125.8 2748.31,1127.49 2749.85,1113.22 2751.39,1115.08 2752.93,1088.75 2754.46,1069.7 2756,1066.53 2757.54,1069.52 
  2759.08,1066.87 2760.62,1083.16 2762.15,1090.23 2763.69,1099.7 2765.23,1092.87 2766.77,1155.62 2768.31,1174.19 2769.85,1187.1 2771.38,1230.54 2772.92,1278.74 
  2774.46,1338.05 2776,1359.62 2777.54,1422.66 2779.08,1439.43 2780.61,1471.01 2782.15,1499.67 2783.69,1500.9 2785.23,1519.16 2786.77,1520.4 2788.3,1521.16 
  2789.84,1523.8 2791.38,1525.19 2792.92,1514.36 2794.46,1507.61 2796,1510.23 2797.53,1521.19 2799.07,1496.85 2800.61,1492.09 2802.15,1497.34 2803.69,1470.48 
  2805.23,1508.86 2806.76,1518.01 2808.3,1496.72 2809.84,1493.74 2811.38,1495.23 2812.92,1487.32 2814.45,1508.98 2815.99,1495.99 2817.53,1500.11 2819.07,1488.44 
  2820.61,1496.83 2822.15,1495.88 2823.68,1475.89 2825.22,1495.11 2826.76,1517.59 2828.3,1482.1 2829.84,1476.82 2831.37,1488.97 2832.91,1483.72 2834.45,1478.99 
  2835.99,1456.64 2837.53,1476.42 2839.07,1442.73 2840.6,1457.27 2842.14,1443.62 2843.68,1434.32 2845.22,1422.91 2846.76,1456.97 2848.3,1424.96 2849.83,1433.79 
  2851.37,1405.95 2852.91,1421.8 2854.45,1413.21 2855.99,1383.78 2857.52,1416.98 2859.06,1385.34 2860.6,1390.96 2862.14,1376.5 2863.68,1385.41 2865.22,1371.41 
  2866.75,1398.37 2868.29,1387.12 2869.83,1331.64 2871.37,1331.29 2872.91,1256.15 2874.45,1232.02 2875.98,1147.82 2877.52,1114.09 2879.06,1072.71 2880.6,1018.12 
  2882.14,965.057 2883.67,913.488 2885.21,868.409 2886.75,859.594 2888.29,817.461 2889.83,815.587 2891.37,802.012 2892.9,791.521 2894.44,782.984 2895.98,801.7 
  2897.52,795.276 2899.06,798.482 2900.59,807.363 2902.13,788.902 2903.67,811.236 2905.21,797.955 2906.75,822.713 2908.29,828.382 2909.82,817.41 2911.36,827.832 
  2912.9,835.376 2914.44,847.405 2915.98,836 2917.52,849.687 2919.05,847.898 2920.59,854.347 2922.13,862.831 2923.67,868.602 2925.21,874.793 2926.74,889.026 
  2928.28,899.157 2929.82,891.055 2931.36,908.122 2932.9,927.215 2934.44,934.016 2935.97,945.751 2937.51,965.861 2939.05,981.568 2940.59,997.175 2942.13,993.383 
  2943.67,1021.38 2945.2,1019.8 2946.74,989.03 2948.28,997.249 2949.82,981.712 2951.36,969.72 2952.89,932.54 2954.43,922.122 2955.97,911.715 2957.51,878.217 
  2959.05,882.5 2960.59,880.547 2962.12,862.735 2963.66,858.352 2965.2,845.125 2966.74,843.435 2968.28,813.823 2969.81,836.019 2971.35,834.515 2972.89,827.873 
  2974.43,823.586 2975.97,825.972 2977.51,843.41 2979.04,846.675 2980.58,854.672 2982.12,885.02 2983.66,899.921 2985.2,942.663 2986.74,978.395 2988.27,989.48 
  2989.81,1044.74 2991.35,1061.4 2992.89,1108.67 2994.43,1163.64 2995.96,1175.54 2997.5,1223.59 2999.04,1262.58 3000.58,1264.53 3002.12,1332.94 3003.66,1310.51 
  3005.19,1319.78 3006.73,1335.3 3008.27,1408.44 3009.81,1423.42 3011.35,1447.99 3012.89,1472.62 3014.42,1474.75 3015.96,1516.83 3017.5,1533.69 3019.04,1536.4 
  3020.58,1538.83 3022.11,1544.77 3023.65,1552.51 3025.19,1544.17 3026.73,1547.2 3028.27,1517.95 3029.81,1508.21 3031.34,1523.53 3032.88,1495.38 3034.42,1468.94 
  3035.96,1448.84 3037.5,1413.89 3039.04,1389.84 3040.57,1364.71 3042.11,1337.18 3043.65,1309.36 3045.19,1271.75 3046.73,1243.55 3048.26,1230.63 3049.8,1233.98 
  3051.34,1232.76 3052.88,1231.62 3054.42,1217.49 3055.96,1205.12 3057.49,1233.03 3059.03,1208.47 3060.57,1248.35 3062.11,1254.4 3063.65,1256.17 3065.18,1226.84 
  3066.72,1266 3068.26,1266.69 
  "/>
</svg>
