<?xml version="1.0" encoding="utf-8"?>
<svg xmlns="http://www.w3.org/2000/svg" xmlns:xlink="http://www.w3.org/1999/xlink" width="500" height="400" viewBox="0 0 2000 1600">
<defs>
  <clipPath id="clip3500">
    <rect x="0" y="0" width="2000" height="1600"/>
  </clipPath>
</defs>
<path clip-path="url(#clip3500)" d="
M0 1600 L2000 1600 L2000 0 L0 0  Z
  " fill="#ffffff" fill-rule="evenodd" fill-opacity="1"/>
<defs>
  <clipPath id="clip3501">
    <rect x="400" y="0" width="1401" height="1401"/>
  </clipPath>
</defs>
<path clip-path="url(#clip3500)" d="
M157.865 1500.89 L1952.76 1500.89 L1952.76 98.2019 L157.865 98.2019  Z
  " fill="#ffffff" fill-rule="evenodd" fill-opacity="1"/>
<defs>
  <clipPath id="clip3502">
    <rect x="157" y="98" width="1796" height="1404"/>
  </clipPath>
</defs>
<polyline clip-path="url(#clip3502)" style="stroke:#000000; stroke-width:2; stroke-opacity:0.1; fill:none" points="
  207.739,1500.89 207.739,98.2019 
  "/>
<polyline clip-path="url(#clip3502)" style="stroke:#000000; stroke-width:2; stroke-opacity:0.1; fill:none" points="
  670.134,1500.89 670.134,98.2019 
  "/>
<polyline clip-path="url(#clip3502)" style="stroke:#000000; stroke-width:2; stroke-opacity:0.1; fill:none" points="
  1132.53,1500.89 1132.53,98.2019 
  "/>
<polyline clip-path="url(#clip3502)" style="stroke:#000000; stroke-width:2; stroke-opacity:0.1; fill:none" points="
  1594.93,1500.89 1594.93,98.2019 
  "/>
<polyline clip-path="url(#clip3502)" style="stroke:#000000; stroke-width:2; stroke-opacity:0.1; fill:none" points="
  157.865,1461.19 1952.76,1461.19 
  "/>
<polyline clip-path="url(#clip3502)" style="stroke:#000000; stroke-width:2; stroke-opacity:0.1; fill:none" points="
  157.865,1130.37 1952.76,1130.37 
  "/>
<polyline clip-path="url(#clip3502)" style="stroke:#000000; stroke-width:2; stroke-opacity:0.1; fill:none" points="
  157.865,799.545 1952.76,799.545 
  "/>
<polyline clip-path="url(#clip3502)" style="stroke:#000000; stroke-width:2; stroke-opacity:0.1; fill:none" points="
  157.865,468.723 1952.76,468.723 
  "/>
<polyline clip-path="url(#clip3502)" style="stroke:#000000; stroke-width:2; stroke-opacity:0.1; fill:none" points="
  157.865,137.901 1952.76,137.901 
  "/>
<polyline clip-path="url(#clip3500)" style="stroke:#000000; stroke-width:4; stroke-opacity:1; fill:none" points="
  157.865,1500.89 1952.76,1500.89 
  "/>
<polyline clip-path="url(#clip3500)" style="stroke:#000000; stroke-width:4; stroke-opacity:1; fill:none" points="
  157.865,1500.89 157.865,98.2019 
  "/>
<polyline clip-path="url(#clip3500)" style="stroke:#000000; stroke-width:4; stroke-opacity:1; fill:none" points="
  207.739,1500.89 207.739,1484.06 
  "/>
<polyline clip-path="url(#clip3500)" style="stroke:#000000; stroke-width:4; stroke-opacity:1; fill:none" points="
  670.134,1500.89 670.134,1484.06 
  "/>
<polyline clip-path="url(#clip3500)" style="stroke:#000000; stroke-width:4; stroke-opacity:1; fill:none" points="
  1132.53,1500.89 1132.53,1484.06 
  "/>
<polyline clip-path="url(#clip3500)" style="stroke:#000000; stroke-width:4; stroke-opacity:1; fill:none" points="
  1594.93,1500.89 1594.93,1484.06 
  "/>
<polyline clip-path="url(#clip3500)" style="stroke:#000000; stroke-width:4; stroke-opacity:1; fill:none" points="
  157.865,1461.19 179.403,1461.19 
  "/>
<polyline clip-path="url(#clip3500)" style="stroke:#000000; stroke-width:4; stroke-opacity:1; fill:none" points="
  157.865,1130.37 179.403,1130.37 
  "/>
<polyline clip-path="url(#clip3500)" style="stroke:#000000; stroke-width:4; stroke-opacity:1; fill:none" points="
  157.865,799.545 179.403,799.545 
  "/>
<polyline clip-path="url(#clip3500)" style="stroke:#000000; stroke-width:4; stroke-opacity:1; fill:none" points="
  157.865,468.723 179.403,468.723 
  "/>
<polyline clip-path="url(#clip3500)" style="stroke:#000000; stroke-width:4; stroke-opacity:1; fill:none" points="
  157.865,137.901 179.403,137.901 
  "/>
<g clip-path="url(#clip3500)">
<text style="fill:#000000; fill-opacity:1; font-family:Arial,Helvetica Neue,Helvetica,sans-serif; font-size:48px; text-anchor:middle;" transform="rotate(0, 207.739, 1552.89)" x="207.739" y="1552.89">0</text>
</g>
<g clip-path="url(#clip3500)">
<text style="fill:#000000; fill-opacity:1; font-family:Arial,Helvetica Neue,Helvetica,sans-serif; font-size:48px; text-anchor:middle;" transform="rotate(0, 670.134, 1552.89)" x="670.134" y="1552.89">500</text>
</g>
<g clip-path="url(#clip3500)">
<text style="fill:#000000; fill-opacity:1; font-family:Arial,Helvetica Neue,Helvetica,sans-serif; font-size:48px; text-anchor:middle;" transform="rotate(0, 1132.53, 1552.89)" x="1132.53" y="1552.89">1000</text>
</g>
<g clip-path="url(#clip3500)">
<text style="fill:#000000; fill-opacity:1; font-family:Arial,Helvetica Neue,Helvetica,sans-serif; font-size:48px; text-anchor:middle;" transform="rotate(0, 1594.93, 1552.89)" x="1594.93" y="1552.89">1500</text>
</g>
<g clip-path="url(#clip3500)">
<text style="fill:#000000; fill-opacity:1; font-family:Arial,Helvetica Neue,Helvetica,sans-serif; font-size:48px; text-anchor:end;" transform="rotate(0, 137.865, 1478.69)" x="137.865" y="1478.69">-4</text>
</g>
<g clip-path="url(#clip3500)">
<text style="fill:#000000; fill-opacity:1; font-family:Arial,Helvetica Neue,Helvetica,sans-serif; font-size:48px; text-anchor:end;" transform="rotate(0, 137.865, 1147.87)" x="137.865" y="1147.87">-2</text>
</g>
<g clip-path="url(#clip3500)">
<text style="fill:#000000; fill-opacity:1; font-family:Arial,Helvetica Neue,Helvetica,sans-serif; font-size:48px; text-anchor:end;" transform="rotate(0, 137.865, 817.045)" x="137.865" y="817.045">0</text>
</g>
<g clip-path="url(#clip3500)">
<text style="fill:#000000; fill-opacity:1; font-family:Arial,Helvetica Neue,Helvetica,sans-serif; font-size:48px; text-anchor:end;" transform="rotate(0, 137.865, 486.223)" x="137.865" y="486.223">2</text>
</g>
<g clip-path="url(#clip3500)">
<text style="fill:#000000; fill-opacity:1; font-family:Arial,Helvetica Neue,Helvetica,sans-serif; font-size:48px; text-anchor:end;" transform="rotate(0, 137.865, 155.401)" x="137.865" y="155.401">4</text>
</g>
<polyline clip-path="url(#clip3502)" style="stroke:#000000; stroke-width:4; stroke-opacity:1; fill:none" points="
  157.865,98.2019 1952.76,98.2019 
  "/>
<polyline clip-path="url(#clip3502)" style="stroke:#000000; stroke-width:4; stroke-opacity:1; fill:none" points="
  1952.76,1500.89 1952.76,98.2019 
  "/>
<g clip-path="url(#clip3500)">
<text style="fill:#000000; fill-opacity:1; font-family:Arial,Helvetica Neue,Helvetica,sans-serif; font-size:84px; text-anchor:middle;" transform="rotate(0, 1055.31, 73.2)" x="1055.31" y="73.2">Directional NET for variable 3</text>
</g>
<path clip-path="url(#clip3502)" d="
M208.663 876.248 L209.588 879.199 L210.513 887.434 L211.438 877.257 L212.363 868.69 L213.287 870.064 L214.212 853.087 L215.137 871.443 L216.062 851.38 L216.986 844.966 
  L217.911 864.204 L218.836 863.631 L219.761 851.287 L220.686 831.809 L221.61 852.026 L222.535 844.258 L223.46 833.467 L224.385 861.681 L225.31 839.696 L226.234 836.373 
  L227.159 845.92 L228.084 848.445 L229.009 851.098 L229.934 860.003 L230.858 853.636 L231.783 854.549 L232.708 844.045 L233.633 858.058 L234.558 899.528 L235.482 862.129 
  L236.407 858.833 L237.332 862.642 L238.257 862.538 L239.181 862.807 L240.106 876.419 L241.031 850.273 L241.956 863.16 L242.881 848.395 L243.805 850.981 L244.73 859.95 
  L245.655 865.513 L246.58 865.057 L247.505 866.297 L248.429 859.985 L249.354 882.074 L250.279 856.894 L251.204 865.683 L252.129 866.134 L253.053 863.038 L253.978 855.799 
  L254.903 856.807 L255.828 867.935 L256.753 864.976 L257.677 874.208 L258.602 891.041 L259.527 869.305 L260.452 892.292 L261.376 880.493 L262.301 947.063 L263.226 938.337 
  L264.151 895.246 L265.076 966.768 L266 1004.16 L266.925 1041 L267.85 942.64 L268.775 917.31 L269.7 951.23 L270.624 964.147 L271.549 951.955 L272.474 1046.33 
  L273.399 1045.04 L274.324 1034.04 L275.248 1110.11 L276.173 1096.84 L277.098 1093.18 L278.023 1118.43 L278.948 1022.53 L279.872 1057.9 L280.797 1021.9 L281.722 1072.88 
  L282.647 1054.82 L283.571 996.364 L284.496 1005.94 L285.421 1003.5 L286.346 1138.88 L287.271 1049.63 L288.195 1035.63 L289.12 1041 L290.045 1040.01 L290.97 1026.4 
  L291.895 1023.26 L292.819 1135.93 L293.744 1057.14 L294.669 1158.41 L295.594 1044.99 L296.519 1088.18 L297.443 1047.75 L298.368 1069.03 L299.293 1086.11 L300.218 1097.04 
  L301.143 1043.8 L302.067 1101.77 L302.992 1033.06 L303.917 1049.28 L304.842 1069.88 L305.766 1025.51 L306.691 1014.8 L307.616 1005.27 L308.541 973.396 L309.466 952.862 
  L310.39 952.578 L311.315 912.729 L312.24 1019.99 L313.165 988.554 L314.09 946.105 L315.014 948.009 L315.939 899.817 L316.864 895.666 L317.789 871.242 L318.714 901.355 
  L319.638 905.285 L320.563 870.104 L321.488 878.716 L322.413 891.78 L323.338 890.714 L324.262 875.56 L325.187 885.971 L326.112 881.566 L327.037 901.936 L327.961 908.643 
  L328.886 910.173 L329.811 935.56 L330.736 994.489 L331.661 885.414 L332.585 914.265 L333.51 907.065 L334.435 891.773 L335.36 890.08 L336.285 905.434 L337.209 907.436 
  L338.134 955.608 L339.059 874.171 L339.984 930.797 L340.909 915.52 L341.833 984.829 L342.758 954.252 L343.683 1060.34 L344.608 1070.05 L345.533 1158 L346.457 1153.66 
  L347.382 1171.5 L348.307 1167.22 L349.232 1240.92 L350.157 1138.05 L351.081 1259.41 L352.006 1197.6 L352.931 1233.1 L353.856 1149.85 L354.78 1267.51 L355.705 1247.31 
  L356.63 1117.46 L357.555 1162.84 L358.48 1173.9 L359.404 1068.99 L360.329 1113.53 L361.254 1097.72 L362.179 979.451 L363.104 985.67 L364.028 977.039 L364.953 945.558 
  L365.878 914.779 L366.803 934.445 L367.728 921.15 L368.652 901.327 L369.577 915.267 L370.502 881.678 L371.427 924.632 L372.352 886.749 L373.276 896.016 L374.201 879.8 
  L375.126 859.929 L376.051 900.971 L376.975 914.083 L377.9 890.154 L378.825 881.128 L379.75 876.596 L380.675 873.306 L381.599 884.92 L382.524 857.476 L383.449 866.128 
  L384.374 868.875 L385.299 854.488 L386.223 860.097 L387.148 876.684 L388.073 851.743 L388.998 856.748 L389.923 863.771 L390.847 857.903 L391.772 864.511 L392.697 860.712 
  L393.622 867.45 L394.547 862.744 L395.471 853.133 L396.396 859.24 L397.321 836.43 L398.246 872.872 L399.17 838.742 L400.095 841.532 L401.02 840.557 L401.945 839.642 
  L402.87 831.654 L403.794 845.041 L404.719 852.366 L405.644 836.848 L406.569 842.597 L407.494 853.47 L408.418 884.591 L409.343 859.862 L410.268 899.913 L411.193 871.68 
  L412.118 887.312 L413.042 898.823 L413.967 887.187 L414.892 888.262 L415.817 894.363 L416.742 888.342 L417.666 904.786 L418.591 880.632 L419.516 891.942 L420.441 877.232 
  L421.365 874.729 L422.29 886.176 L423.215 913.726 L424.14 862.3 L425.065 869.027 L425.989 841.449 L426.914 860.164 L427.839 862.223 L428.764 852.573 L429.689 858.902 
  L430.613 843.391 L431.538 844.944 L432.463 855.059 L433.388 867.93 L434.313 839.99 L435.237 863.323 L436.162 855.792 L437.087 929.954 L438.012 855.299 L438.937 882.532 
  L439.861 882.2 L440.786 869.277 L441.711 870.422 L442.636 858.754 L443.56 872.179 L444.485 879.661 L445.41 901.781 L446.335 917.42 L447.26 897.498 L448.184 890.243 
  L449.109 914.667 L450.034 944.187 L450.959 931.613 L451.884 924.799 L452.808 930.526 L453.733 930.738 L454.658 939.742 L455.583 916.223 L456.508 923.775 L457.432 909.261 
  L458.357 886.984 L459.282 909.781 L460.207 905.245 L461.132 888.367 L462.056 900.351 L462.981 889.647 L463.906 889.246 L464.831 884.583 L465.755 900.498 L466.68 927.73 
  L467.605 908.413 L468.53 889.511 L469.455 922.171 L470.379 901.551 L471.304 931.866 L472.229 949.716 L473.154 906.848 L474.079 920.459 L475.003 910.383 L475.928 936.832 
  L476.853 892.866 L477.778 888.658 L478.703 887.668 L479.627 864.232 L480.552 869.498 L481.477 882.131 L482.402 860.465 L483.327 859.986 L484.251 841.483 L485.176 849.606 
  L486.101 835.899 L487.026 835.187 L487.95 833.895 L488.875 830.502 L489.8 829.506 L490.725 832.889 L491.65 834.548 L492.574 826.767 L493.499 829.626 L494.424 827.257 
  L495.349 853.256 L496.274 829.548 L497.198 829.83 L498.123 829.852 L499.048 833.3 L499.973 833.032 L500.898 846.588 L501.822 842.014 L502.747 833.906 L503.672 837.88 
  L504.597 836.403 L505.522 855.457 L506.446 847.471 L507.371 853.513 L508.296 857.917 L509.221 865.066 L510.145 850.62 L511.07 875.203 L511.995 869.074 L512.92 862.262 
  L513.845 867.331 L514.769 878.66 L515.694 901.376 L516.619 892.313 L517.544 926.322 L518.469 902.353 L519.393 891.729 L520.318 932.853 L521.243 935.105 L522.168 914.614 
  L523.093 938.115 L524.017 938.727 L524.942 930.594 L525.867 969.629 L526.792 977.151 L527.717 953.012 L528.641 930.963 L529.566 951.596 L530.491 975.667 L531.416 951.385 
  L532.34 913.552 L533.265 920.466 L534.19 915.539 L535.115 946.26 L536.04 935.643 L536.964 922.681 L537.889 938.272 L538.814 931.17 L539.739 914.597 L540.664 905.432 
  L541.588 925.108 L542.513 918.548 L543.438 950.956 L544.363 995.234 L545.288 921.348 L546.212 937.691 L547.137 958.603 L548.062 921.707 L548.987 934.457 L549.912 979.671 
  L550.836 923.443 L551.761 910.206 L552.686 915.451 L553.611 912.942 L554.535 891.608 L555.46 875.375 L556.385 868.191 L557.31 873.865 L558.235 894.015 L559.159 872.963 
  L560.084 878.35 L561.009 878.7 L561.934 877.459 L562.859 853.091 L563.783 866.185 L564.708 875.284 L565.633 874.957 L566.558 886.721 L567.483 859.928 L568.407 903.115 
  L569.332 897.173 L570.257 889.737 L571.182 884.892 L572.107 892.062 L573.031 951.567 L573.956 903.287 L574.881 899.708 L575.806 895.49 L576.73 887.013 L577.655 919.825 
  L578.58 886.032 L579.505 864.592 L580.43 856.702 L581.354 858.216 L582.279 876.889 L583.204 856.843 L584.129 855.907 L585.054 863.472 L585.978 844.793 L586.903 854.195 
  L587.828 847.364 L588.753 845.902 L589.678 845.485 L590.602 846.597 L591.527 848.193 L592.452 849.382 L593.377 880.637 L594.302 847.094 L595.226 873.051 L596.151 865.691 
  L597.076 884.931 L598.001 891.465 L598.925 911.567 L599.85 913.413 L600.775 947.449 L601.7 921.828 L602.625 979.567 L603.549 983.865 L604.474 952.527 L605.399 958.49 
  L606.324 984.433 L607.249 1001.4 L608.173 948.668 L609.098 947.206 L610.023 952.534 L610.948 970.257 L611.873 967.415 L612.797 981.891 L613.722 955.681 L614.647 962.973 
  L615.572 958.522 L616.497 990.859 L617.421 1036.69 L618.346 954.664 L619.271 975.238 L620.196 978.538 L621.12 977.238 L622.045 965.97 L622.97 963.779 L623.895 942.955 
  L624.82 926.305 L625.744 958.755 L626.669 902.011 L627.594 917.502 L628.519 880.503 L629.444 886.467 L630.368 869.86 L631.293 874.311 L632.218 860.432 L633.143 859.713 
  L634.068 857.874 L634.992 870.591 L635.917 866.502 L636.842 868.646 L637.767 872.553 L638.692 867.232 L639.616 869.916 L640.541 870.994 L641.466 884.685 L642.391 869.962 
  L643.315 875.975 L644.24 875.754 L645.165 878.052 L646.09 873.574 L647.015 868.452 L647.939 869.192 L648.864 872.207 L649.789 885.32 L650.714 873.657 L651.639 871.976 
  L652.563 871.726 L653.488 869.793 L654.413 876.257 L655.338 869.847 L656.263 876.306 L657.187 877.654 L658.112 881.17 L659.037 877.744 L659.962 879.232 L660.887 870.007 
  L661.811 862.222 L662.736 862.41 L663.661 867.031 L664.586 857.207 L665.51 859.921 L666.435 888.136 L667.36 872.24 L668.285 855.551 L669.21 877.992 L670.134 872.748 
  L671.059 851.437 L671.984 856.368 L672.909 882.386 L673.834 861.38 L674.758 903.789 L675.683 887.763 L676.608 868.584 L677.533 875.95 L678.458 862.489 L679.382 907.468 
  L680.307 905.381 L681.232 880.808 L682.157 923.402 L683.082 892.983 L684.006 924.836 L684.931 903.497 L685.856 901.111 L686.781 876.984 L687.705 951.38 L688.63 885.019 
  L689.555 902.233 L690.48 915.775 L691.405 878.424 L692.329 913.844 L693.254 872.565 L694.179 867.912 L695.104 876.564 L696.029 872.263 L696.953 884.889 L697.878 876.31 
  L698.803 887.591 L699.728 866.59 L700.653 880.072 L701.577 879.897 L702.502 874.283 L703.427 892.947 L704.352 858.741 L705.277 865.452 L706.201 849.203 L707.126 841.482 
  L708.051 854.347 L708.976 875.908 L709.901 845.005 L710.825 838.092 L711.75 861.547 L712.675 843.067 L713.6 846.174 L714.524 846.315 L715.449 848.84 L716.374 862.467 
  L717.299 865.853 L718.224 852.922 L719.148 860.303 L720.073 856.334 L720.998 852.404 L721.923 833.615 L722.848 849.425 L723.772 841.403 L724.697 853.387 L725.622 838.052 
  L726.547 841.861 L727.472 839.59 L728.396 843.832 L729.321 842.491 L730.246 846.134 L731.171 836.158 L732.096 848.732 L733.02 842.122 L733.945 850.932 L734.87 881.861 
  L735.795 848.813 L736.719 864.286 L737.644 867.427 L738.569 859.198 L739.494 880.797 L740.419 880.632 L741.343 874.514 L742.268 879.358 L743.193 895.425 L744.118 904.214 
  L745.043 927.863 L745.967 896.249 L746.892 895.399 L747.817 875.586 L748.742 877.726 L749.667 871.035 L750.591 863.484 L751.516 876.669 L752.441 857.625 L753.366 843.419 
  L754.291 836.526 L755.215 844.346 L756.14 830.185 L757.065 832.21 L757.99 824.219 L758.914 823.033 L759.839 824.078 L760.764 825.345 L761.689 825.1 L762.614 819.043 
  L763.538 824.138 L764.463 825.483 L765.388 829.242 L766.313 826.942 L767.238 833.09 L768.162 833.235 L769.087 838.223 L770.012 843.617 L770.937 841.617 L771.862 845.719 
  L772.786 846.205 L773.711 848.404 L774.636 847.546 L775.561 847.338 L776.486 850.272 L777.41 849.461 L778.335 848.932 L779.26 851.047 L780.185 845.88 L781.109 846.326 
  L782.034 846.867 L782.959 842.917 L783.884 843.259 L784.809 844.231 L785.733 840.592 L786.658 843.252 L787.583 838.951 L788.508 839.258 L789.433 833.743 L790.357 833.639 
  L791.282 831.07 L792.207 833.803 L793.132 833.695 L794.057 834.099 L794.981 827.482 L795.906 832.458 L796.831 829.087 L797.756 825.782 L798.681 828.164 L799.605 826.524 
  L800.53 825.513 L801.455 829.604 L802.38 830.988 L803.304 830.508 L804.229 828.882 L805.154 829.551 L806.079 828.317 L807.004 826.196 L807.928 844.91 L808.853 826.346 
  L809.778 837.43 L810.703 832.004 L811.628 824.495 L812.552 838.757 L813.477 831.824 L814.402 841.946 L815.327 847.626 L816.252 838.402 L817.176 844.585 L818.101 843.999 
  L819.026 840.71 L819.951 847.139 L820.876 843.116 L821.8 866.241 L822.725 845.692 L823.65 856.182 L824.575 858.842 L825.499 856.544 L826.424 870.854 L827.349 870.306 
  L828.274 854.379 L829.199 856.615 L830.123 869.947 L831.048 903.631 L831.973 917.76 L832.898 890.771 L833.823 919.55 L834.747 881.107 L835.672 904.729 L836.597 898.665 
  L837.522 889.395 L838.447 875.466 L839.371 884.651 L840.296 891.504 L841.221 882.201 L842.146 876.983 L843.071 874.097 L843.995 893.99 L844.92 870.65 L845.845 856.936 
  L846.77 889.942 L847.694 851.795 L848.619 860.209 L849.544 898.244 L850.469 858.731 L851.394 856.739 L852.318 842.467 L853.243 843.418 L854.168 863.068 L855.093 836.52 
  L856.018 835.871 L856.942 844.82 L857.867 853.773 L858.792 855.64 L859.717 861.919 L860.642 876.508 L861.566 878.034 L862.491 882.502 L863.416 875.003 L864.341 881.59 
  L865.266 894.595 L866.19 881.662 L867.115 886.494 L868.04 889.126 L868.965 879.816 L869.889 888.789 L870.814 881.279 L871.739 869.721 L872.664 871.05 L873.589 865.555 
  L874.513 862.534 L875.438 856.857 L876.363 850.137 L877.288 854.63 L878.213 846.839 L879.137 849.277 L880.062 846.428 L880.987 848.206 L881.912 842.434 L882.837 842.026 
  L883.761 844.745 L884.686 844.738 L885.611 841.766 L886.536 838.741 L887.461 846.121 L888.385 846.957 L889.31 846.752 L890.235 839.339 L891.16 839.756 L892.084 841.514 
  L893.009 847.985 L893.934 845.47 L894.859 848.014 L895.784 844.69 L896.708 840.367 L897.633 851.541 L898.558 841.383 L899.483 849.142 L900.408 847.944 L901.332 860.411 
  L902.257 851.535 L903.182 882.089 L904.107 859.712 L905.032 854.009 L905.956 870.249 L906.881 904.777 L907.806 877.942 L908.731 872.684 L909.656 884.137 L910.58 887.754 
  L911.505 874.06 L912.43 876.509 L913.355 894.251 L914.279 870.012 L915.204 889.867 L916.129 882.66 L917.054 877.563 L917.979 894.442 L918.903 871.348 L919.828 892.344 
  L920.753 881.927 L921.678 879.797 L922.603 894.675 L923.527 904.308 L924.452 900.388 L925.377 921.392 L926.302 911.118 L927.227 900.851 L928.151 951.435 L929.076 920.972 
  L930.001 918.016 L930.926 963.685 L931.851 1008.27 L932.775 983.904 L933.7 1014.67 L934.625 1080.41 L935.55 1128.03 L936.474 1112.18 L937.399 1168.31 L938.324 1253.88 
  L939.249 1268.76 L940.174 1216.14 L941.098 1284.86 L942.023 1259.17 L942.948 1255.87 L943.873 1290.19 L944.798 1280.35 L945.722 1311.43 L946.647 1231.36 L947.572 1230.23 
  L948.497 1228.35 L949.422 1140.21 L950.346 1223.62 L951.271 1211.76 L952.196 1157.83 L953.121 1166.04 L954.046 1116.04 L954.97 1095.67 L955.895 1069.15 L956.82 1027.86 
  L957.745 1049.36 L958.669 1018.47 L959.594 940.187 L960.519 989.52 L961.444 935.873 L962.369 926.589 L963.293 928.992 L964.218 929.873 L965.143 925.629 L966.068 943.648 
  L966.993 903.923 L967.917 898.453 L968.842 884.322 L969.767 898.684 L970.692 876.7 L971.617 871.091 L972.541 871.076 L973.466 871.407 L974.391 862.698 L975.316 855.417 
  L976.241 845.37 L977.165 842.733 L978.09 831.247 L979.015 813.89 L979.94 811.295 L980.864 812.454 L981.789 789.949 L982.714 787.702 L983.639 766.537 L984.564 760.65 
  L985.488 764.696 L986.413 769.139 L987.338 769.915 L988.263 754.473 L989.188 765.638 L990.112 762.389 L991.037 771.502 L991.962 789.615 L992.887 780.428 L993.812 808.522 
  L994.736 820.07 L995.661 845.881 L996.586 864.393 L997.511 920.209 L998.436 907.665 L999.36 931.565 L1000.29 893.748 L1001.21 923.994 L1002.13 901.327 L1003.06 934.683 
  L1003.98 926.674 L1004.91 899.098 L1005.83 861.176 L1006.76 861.518 L1007.68 842.297 L1008.61 852.206 L1009.53 844.057 L1010.46 837.256 L1011.38 830.727 L1012.31 823.38 
  L1013.23 827.848 L1014.16 841.134 L1015.08 812.842 L1016.01 792.855 L1016.93 796.48 L1017.86 792.461 L1018.78 782.252 L1019.71 782.264 L1020.63 773.496 L1021.56 776.898 
  L1022.48 750.57 L1023.4 758.055 L1024.33 757.501 L1025.25 749.252 L1026.18 755.115 L1027.1 742.426 L1028.03 727.756 L1028.95 728.417 L1029.88 720.269 L1030.8 737.369 
  L1031.73 743.36 L1032.65 750.879 L1033.58 772.932 L1034.5 778.556 L1035.43 790.611 L1036.35 811.638 L1037.28 812.299 L1038.2 829.901 L1039.13 830.051 L1040.05 834.162 
  L1040.98 827.807 L1041.9 846.815 L1042.83 842.219 L1043.75 843.736 L1044.68 838.908 L1045.6 846.325 L1046.52 843.505 L1047.45 854.739 L1048.37 844.645 L1049.3 853.888 
  L1050.22 880.097 L1051.15 858.565 L1052.07 849.923 L1053 876.404 L1053.92 864.151 L1054.85 844.88 L1055.77 856.461 L1056.7 855.091 L1057.62 849.513 L1058.55 846.816 
  L1059.47 846.742 L1060.4 837.554 L1061.32 843.177 L1062.25 847.242 L1063.17 840.674 L1064.1 875.265 L1065.02 874.65 L1065.95 889.227 L1066.87 867.546 L1067.79 868.609 
  L1068.72 873.508 L1069.64 897.009 L1070.57 865.545 L1071.49 908.607 L1072.42 894.225 L1073.34 858.081 L1074.27 874.25 L1075.19 864.378 L1076.12 853.244 L1077.04 857.279 
  L1077.97 850.493 L1078.89 850.249 L1079.82 830.7 L1080.74 794.717 L1081.67 792.911 L1082.59 768.91 L1083.52 749.39 L1084.44 735.011 L1085.37 719.39 L1086.29 704.91 
  L1087.22 686.349 L1088.14 675.889 L1089.07 700.32 L1089.99 668.631 L1090.91 659.33 L1091.84 673.06 L1092.76 673.298 L1093.69 687.501 L1094.61 674.385 L1095.54 672.362 
  L1096.46 688.76 L1097.39 696.374 L1098.31 699.476 L1099.24 691.324 L1100.16 709.716 L1101.09 696.64 L1102.01 704.286 L1102.94 694.375 L1103.86 728.98 L1104.79 699.768 
  L1105.71 699.186 L1106.64 699.539 L1107.56 695.597 L1108.49 680.781 L1109.41 702.578 L1110.34 695.436 L1111.26 692.497 L1112.18 700.426 L1113.11 723.872 L1114.03 732.146 
  L1114.96 722.335 L1115.88 762.309 L1116.81 739.998 L1117.73 736.202 L1118.66 752.959 L1119.58 753.789 L1120.51 750.577 L1121.43 746.222 L1122.36 736.242 L1123.28 739.839 
  L1124.21 752.781 L1125.13 727.789 L1126.06 729.174 L1126.98 743.443 L1127.91 712.641 L1128.83 735.823 L1129.76 715.264 L1130.68 712.78 L1131.61 716.821 L1132.53 723.935 
  L1133.46 717.282 L1134.38 711.036 L1135.3 730.252 L1136.23 734.284 L1137.15 735.017 L1138.08 751.988 L1139 747.954 L1139.93 763.108 L1140.85 760.195 L1141.78 760.474 
  L1142.7 773.563 L1143.63 774.982 L1144.55 778.319 L1145.48 778.717 L1146.4 781.104 L1147.33 782.366 L1148.25 780.619 L1149.18 788.421 L1150.1 793.773 L1151.03 788.538 
  L1151.95 796.938 L1152.88 790.13 L1153.8 796.379 L1154.73 790.509 L1155.65 797.479 L1156.57 799.057 L1157.5 805.367 L1158.42 793.434 L1159.35 803.991 L1160.27 808.206 
  L1161.2 809.245 L1162.12 817.893 L1163.05 826.606 L1163.97 825.18 L1164.9 832.74 L1165.82 839.668 L1166.75 823.26 L1167.67 830.112 L1168.6 823.124 L1169.52 830.223 
  L1170.45 824.525 L1171.37 816.692 L1172.3 807.025 L1173.22 803.532 L1174.15 799.748 L1175.07 805.447 L1176 781.708 L1176.92 766.231 L1177.85 759.206 L1178.77 754.675 
  L1179.69 773.682 L1180.62 756.279 L1181.54 746.673 L1182.47 755.226 L1183.39 744.013 L1184.32 739.168 L1185.24 738.325 L1186.17 734.129 L1187.09 735.974 L1188.02 745.093 
  L1188.94 746.431 L1189.87 736.215 L1190.79 750.772 L1191.72 758.306 L1192.64 747.391 L1193.57 756.201 L1194.49 752.015 L1195.42 758.292 L1196.34 748.927 L1197.27 751.02 
  L1198.19 747.984 L1199.12 748.829 L1200.04 752.083 L1200.96 740.995 L1201.89 732.742 L1202.81 712.102 L1203.74 702.152 L1204.66 699.578 L1205.59 678.391 L1206.51 681.733 
  L1207.44 639.71 L1208.36 662.146 L1209.29 767.87 L1210.21 722.899 L1211.14 622.729 L1212.06 853.321 L1212.99 813.624 L1213.91 1109.98 L1214.84 872.049 L1215.76 1126.54 
  L1216.69 1034.66 L1217.61 829.231 L1218.54 996.409 L1219.46 911.719 L1220.39 895.69 L1221.31 1050.75 L1222.24 792.588 L1223.16 921.734 L1224.08 829.707 L1225.01 928.038 
  L1225.93 918.193 L1226.86 1073.34 L1227.78 803.083 L1228.71 980.715 L1229.63 815.902 L1230.56 1083.54 L1231.48 1039.22 L1232.41 1036.01 L1233.33 933.905 L1234.26 1064.54 
  L1235.18 1313.04 L1236.11 973.53 L1237.03 1009.85 L1237.96 1233.17 L1238.88 1369.01 L1239.81 1182.66 L1240.73 1214.52 L1241.66 1133.45 L1242.58 1085.63 L1243.51 1069.84 
  L1244.43 1490.88 L1245.35 1049.18 L1246.28 904.094 L1247.2 840.857 L1248.13 763.411 L1249.05 775.268 L1249.98 728.952 L1250.9 830.315 L1251.83 756.403 L1252.75 699.25 
  L1253.68 728.541 L1254.6 719.953 L1255.53 712.716 L1256.45 762.722 L1257.38 738.712 L1258.3 736.363 L1259.23 752.688 L1260.15 745.855 L1261.08 826.366 L1262 841.535 
  L1262.93 885.995 L1263.85 883.594 L1264.78 890.144 L1265.7 856.684 L1266.63 901.165 L1267.55 880.311 L1268.47 933.886 L1269.4 917.043 L1270.32 944.772 L1271.25 837.711 
  L1272.17 852.793 L1273.1 860.088 L1274.02 860.383 L1274.95 888.419 L1275.87 860.886 L1276.8 893.227 L1277.72 820.977 L1278.65 840.458 L1279.57 852.104 L1280.5 886.595 
  L1281.42 890.996 L1282.35 864.248 L1283.27 931.585 L1284.2 916.409 L1285.12 918.818 L1286.05 1142.02 L1286.97 905.88 L1287.9 855.699 L1288.82 888.666 L1289.74 897.395 
  L1290.67 882.443 L1291.59 958.515 L1292.52 851.878 L1293.44 891.214 L1294.37 834.89 L1295.29 867.437 L1296.22 900.758 L1297.14 849.785 L1298.07 875.707 L1298.99 875.342 
  L1299.92 875.544 L1300.84 832.787 L1301.77 834.328 L1302.69 820.144 L1303.62 806.468 L1304.54 801.311 L1305.47 791.151 L1306.39 790.733 L1307.32 770.022 L1308.24 824.158 
  L1309.17 784.011 L1310.09 791.413 L1311.02 803.432 L1311.94 794.896 L1312.86 793.898 L1313.79 791.461 L1314.71 811.699 L1315.64 785.188 L1316.56 820.015 L1317.49 796.538 
  L1318.41 800.861 L1319.34 819.235 L1320.26 866.564 L1321.19 849.77 L1322.11 872.928 L1323.04 890.754 L1323.96 828.392 L1324.89 858.961 L1325.81 865.492 L1326.74 853.83 
  L1327.66 911.796 L1328.59 931.833 L1329.51 885.596 L1330.44 857.915 L1331.36 856.752 L1332.29 828.031 L1333.21 860.168 L1334.13 840.035 L1335.06 842.361 L1335.98 846.626 
  L1336.91 869.687 L1337.83 846.438 L1338.76 854.951 L1339.68 835.377 L1340.61 920.782 L1341.53 841.415 L1342.46 832.553 L1343.38 841.503 L1344.31 836.799 L1345.23 817.6 
  L1346.16 810.134 L1347.08 792.307 L1348.01 840.662 L1348.93 794.694 L1349.86 805.713 L1350.78 815.62 L1351.71 808.823 L1352.63 810.898 L1353.56 844.497 L1354.48 813.404 
  L1355.41 799.352 L1356.33 810.301 L1357.25 809.702 L1358.18 823.101 L1359.1 816.718 L1360.03 825.547 L1360.95 812.525 L1361.88 812.701 L1362.8 817.226 L1363.73 809.951 
  L1364.65 814.174 L1365.58 822.839 L1366.5 819.64 L1367.43 821.841 L1368.35 821.535 L1369.28 817.552 L1370.2 818.227 L1371.13 824.532 L1372.05 826.828 L1372.98 823.66 
  L1373.9 821.603 L1374.83 822.303 L1375.75 832.015 L1376.68 830.504 L1377.6 831.756 L1378.52 829.586 L1379.45 833.518 L1380.37 830.36 L1381.3 828.344 L1382.22 828.388 
  L1383.15 825.368 L1384.07 820.984 L1385 821.063 L1385.92 826.315 L1386.85 829.08 L1387.77 825.17 L1388.7 812.757 L1389.62 802.524 L1390.55 814.872 L1391.47 814.242 
  L1392.4 801.483 L1393.32 810.872 L1394.25 812.804 L1395.17 800.911 L1396.1 802.471 L1397.02 807.371 L1397.95 813.939 L1398.87 814.702 L1399.8 797.343 L1400.72 812.206 
  L1401.64 814.914 L1402.57 819.918 L1403.49 810.541 L1404.42 805.111 L1405.34 799.193 L1406.27 813.155 L1407.19 811.328 L1408.12 806.032 L1409.04 799.622 L1409.97 804.432 
  L1410.89 805.058 L1411.82 812.572 L1412.74 806.763 L1413.67 803.325 L1414.59 804.296 L1415.52 797.621 L1416.44 797.437 L1417.37 802.408 L1418.29 789.264 L1419.22 792.89 
  L1420.14 788.042 L1421.07 789.28 L1421.99 800.321 L1422.91 779.86 L1423.84 793.707 L1424.76 783.099 L1425.69 789.146 L1426.61 776.76 L1427.54 790.133 L1428.46 786.173 
  L1429.39 789.46 L1430.31 799.137 L1431.24 792.463 L1432.16 792.995 L1433.09 802.139 L1434.01 813.382 L1434.94 773.89 L1435.86 785.835 L1436.79 774.263 L1437.71 780.456 
  L1438.64 790.776 L1439.56 785.181 L1440.49 791.618 L1441.41 801.394 L1442.34 801.649 L1443.26 812.539 L1444.19 822.791 L1445.11 815.787 L1446.03 820.483 L1446.96 819.003 
  L1447.88 827.017 L1448.81 847.346 L1449.73 845.728 L1450.66 839.766 L1451.58 838.518 L1452.51 845.235 L1453.43 857.601 L1454.36 854.212 L1455.28 850.557 L1456.21 855.955 
  L1457.13 865.308 L1458.06 865.858 L1458.98 859.309 L1459.91 857.718 L1460.83 852.906 L1461.76 854.216 L1462.68 842.055 L1463.61 848.207 L1464.53 843.25 L1465.46 845.356 
  L1466.38 833.471 L1467.3 833.98 L1468.23 821.917 L1469.15 818.613 L1470.08 821.232 L1471 830.483 L1471.93 827.3 L1472.85 811.543 L1473.78 820.849 L1474.7 819.148 
  L1475.63 809.16 L1476.55 819.701 L1477.48 822.536 L1478.4 829.903 L1479.33 818.538 L1480.25 820.558 L1481.18 832.514 L1482.1 838.702 L1483.03 834.329 L1483.95 829.048 
  L1484.88 829.261 L1485.8 830.136 L1486.73 814.742 L1487.65 799.258 L1488.58 802.289 L1489.5 823.167 L1490.42 817.068 L1491.35 800.159 L1492.27 804.207 L1493.2 807.451 
  L1494.12 800.818 L1495.05 808.128 L1495.97 809.76 L1496.9 808.473 L1497.82 823.292 L1498.75 823.091 L1499.67 830.617 L1500.6 839.206 L1501.52 839.811 L1502.45 851.353 
  L1503.37 855.53 L1504.3 859.728 L1505.22 869.519 L1506.15 878.289 L1507.07 881.769 L1508 887.747 L1508.92 890.446 L1509.85 896.876 L1510.77 899.719 L1511.69 905.737 
  L1512.62 904.396 L1513.54 907.523 L1514.47 909.62 L1515.39 909.331 L1516.32 914.283 L1517.24 914.439 L1518.17 914.51 L1519.09 913.154 L1520.02 914.453 L1520.94 907.52 
  L1521.87 914.373 L1522.79 909.991 L1523.72 909.773 L1524.64 904.55 L1525.57 901.134 L1526.49 892.04 L1527.42 902.101 L1528.34 886.866 L1529.27 877.374 L1530.19 873.017 
  L1531.12 859.393 L1532.04 860.922 L1532.97 849.192 L1533.89 842.221 L1534.81 844.773 L1535.74 837.994 L1536.66 835.208 L1537.59 831.342 L1538.51 830.885 L1539.44 825.592 
  L1540.36 828.329 L1541.29 836.695 L1542.21 825.82 L1543.14 820.826 L1544.06 828.86 L1544.99 824.481 L1545.91 829.534 L1546.84 822.106 L1547.76 822.671 L1548.69 822.599 
  L1549.61 825.715 L1550.54 815.36 L1551.46 828.083 L1552.39 821.81 L1553.31 823.021 L1554.24 828.102 L1555.16 831.673 L1556.08 844.801 L1557.01 841.947 L1557.93 843.277 
  L1558.86 870.603 L1559.78 851.601 L1560.71 874.743 L1561.63 875.796 L1562.56 877.729 L1563.48 893.492 L1564.41 890.471 L1565.33 896.304 L1566.26 890.18 L1567.18 873.756 
  L1568.11 885.589 L1569.03 890.059 L1569.96 864.51 L1570.88 876.56 L1571.81 873.298 L1572.73 864.645 L1573.66 849.559 L1574.58 846.922 L1575.51 846.798 L1576.43 836.708 
  L1577.36 837.624 L1578.28 824.635 L1579.2 827.131 L1580.13 825.116 L1581.05 822.047 L1581.98 826.625 L1582.9 816.735 L1583.83 829.803 L1584.75 827.235 L1585.68 821.127 
  L1586.6 829.194 L1587.53 827.65 L1588.45 817.879 L1589.38 827.153 L1590.3 839.196 L1591.23 834.253 L1592.15 815.606 L1593.08 839.852 L1594 824.099 L1594.93 817.389 
  L1595.85 818.686 L1596.78 838.841 L1597.7 824.347 L1598.63 824.581 L1599.55 818.912 L1600.47 822.759 L1601.4 834.926 L1602.32 825.406 L1603.25 824.668 L1604.17 820.71 
  L1605.1 853.87 L1606.02 840.175 L1606.95 835.21 L1607.87 844.164 L1608.8 863.309 L1609.72 870.16 L1610.65 845.049 L1611.57 881.916 L1612.5 901.185 L1613.42 887.09 
  L1614.35 834.31 L1615.27 885.547 L1616.2 902 L1617.12 887.192 L1618.05 873.889 L1618.97 878.083 L1619.9 897.668 L1620.82 874.642 L1621.75 947.846 L1622.67 1092.34 
  L1623.59 876.171 L1624.52 881.793 L1625.44 894.838 L1626.37 850.785 L1627.29 840.624 L1628.22 876.457 L1629.14 840.101 L1630.07 854.759 L1630.99 852.545 L1631.92 880.107 
  L1632.84 872.301 L1633.77 876.067 L1634.69 840.738 L1635.62 847.81 L1636.54 859.418 L1637.47 827.759 L1638.39 843.23 L1639.32 834.367 L1640.24 823.466 L1641.17 832.249 
  L1642.09 825.968 L1643.02 820.73 L1643.94 831.214 L1644.86 825.991 L1645.79 836.828 L1646.71 834.106 L1647.64 815.482 L1648.56 840.383 L1649.49 817.284 L1650.41 824.075 
  L1651.34 823.772 L1652.26 819.086 L1653.19 819.841 L1654.11 822.174 L1655.04 824.679 L1655.96 828.67 L1656.89 823.383 L1657.81 826.654 L1658.74 833.576 L1659.66 840.706 
  L1660.59 834.808 L1661.51 846.433 L1662.44 834.18 L1663.36 826.206 L1664.29 832.457 L1665.21 839.499 L1666.14 828.074 L1667.06 827.517 L1667.98 829.191 L1668.91 825.865 
  L1669.83 826.152 L1670.76 822.296 L1671.68 820.296 L1672.61 822.605 L1673.53 823.095 L1674.46 825.721 L1675.38 820.574 L1676.31 819.9 L1677.23 833.461 L1678.16 827.906 
  L1679.08 823.644 L1680.01 827.087 L1680.93 828.47 L1681.86 818.212 L1682.78 831.294 L1683.71 824.664 L1684.63 818.634 L1685.56 818.211 L1686.48 823.592 L1687.41 828.028 
  L1688.33 818.395 L1689.25 825.4 L1690.18 820.15 L1691.1 817.858 L1692.03 818.679 L1692.95 820.708 L1693.88 822.841 L1694.8 819.491 L1695.73 827.402 L1696.65 826.586 
  L1697.58 828.462 L1698.5 821.913 L1699.43 828.691 L1700.35 828.154 L1701.28 816.931 L1702.2 822.803 L1703.13 821.296 L1704.05 820.182 L1704.98 830.444 L1705.9 814.689 
  L1706.83 828.269 L1707.75 822.375 L1708.68 832.112 L1709.6 817.08 L1710.53 824.155 L1711.45 823.469 L1712.37 822.783 L1713.3 820.682 L1714.22 822.256 L1715.15 818.994 
  L1716.07 818.047 L1717 819.434 L1717.92 820.312 L1718.85 820.732 L1719.77 820.252 L1720.7 816.543 L1721.62 824.12 L1722.55 820.326 L1723.47 823.388 L1724.4 828.424 
  L1725.32 820.606 L1726.25 818.56 L1727.17 816.852 L1728.1 819.844 L1729.02 820.683 L1729.95 820.227 L1730.87 818.924 L1731.8 818.983 L1732.72 815.228 L1733.64 815.327 
  L1734.57 827.09 L1735.49 818.831 L1736.42 814.752 L1737.34 820.928 L1738.27 817.865 L1739.19 817.552 L1740.12 819.637 L1741.04 815.225 L1741.97 823.091 L1742.89 819.331 
  L1743.82 815.616 L1744.74 815.679 L1745.67 811.04 L1746.59 813.04 L1747.52 812.761 L1748.44 819.486 L1749.37 815.897 L1750.29 812.649 L1751.22 815.16 L1752.14 818.268 
  L1753.07 819.426 L1753.99 812.927 L1754.92 831.652 L1755.84 831.188 L1756.76 850.866 L1757.69 824.914 L1758.61 825.523 L1759.54 862.261 L1760.46 844.34 L1761.39 880.519 
  L1762.31 852.532 L1763.24 849.677 L1764.16 852.073 L1765.09 851.195 L1766.01 868.857 L1766.94 857.706 L1767.86 836.409 L1768.79 849.346 L1769.71 841.637 L1770.64 832.254 
  L1771.56 823.66 L1772.49 881.805 L1773.41 837.014 L1774.34 835.225 L1775.26 854.041 L1776.19 834.004 L1777.11 829.332 L1778.03 832.49 L1778.96 830.853 L1779.88 838.896 
  L1780.81 821.382 L1781.73 840.818 L1782.66 837.414 L1783.58 817.9 L1784.51 814.637 L1785.43 808.231 L1786.36 804.803 L1787.28 794.365 L1788.21 777.17 L1789.13 767.806 
  L1790.06 766.424 L1790.98 749.535 L1791.91 742.37 L1792.83 746.788 L1793.76 737.284 L1794.68 745.12 L1795.61 741.33 L1796.53 748.41 L1797.46 760.801 L1798.38 759.381 
  L1799.31 771.153 L1800.23 785.356 L1801.15 770.428 L1802.08 777.523 L1803 813.369 L1803.93 778.234 L1804.85 775.561 L1805.78 776.914 L1806.7 796.954 L1807.63 780.489 
  L1808.55 793.019 L1809.48 780.412 L1810.4 777.011 L1811.33 766.556 L1812.25 758.615 L1813.18 766.03 L1814.1 762.551 L1815.03 748.983 L1815.95 739.631 L1816.88 727.128 
  L1817.8 728.194 L1818.73 735.944 L1819.65 744.725 L1820.58 731.301 L1821.5 710.482 L1822.43 719.94 L1823.35 746.005 L1824.27 752.451 L1825.2 749.348 L1826.12 786.863 
  L1827.05 776.504 L1827.97 799.201 L1828.9 787.429 L1829.82 798.063 L1830.75 797.54 L1831.67 846.202 L1832.6 788.641 L1833.52 812.787 L1834.45 791.281 L1835.37 783.673 
  L1836.3 801.917 L1837.22 793.033 L1838.15 794.429 L1839.07 768.958 L1840 777.236 L1840.92 779.881 L1841.85 783.092 L1842.77 785.987 L1843.7 788.773 L1844.62 785.044 
  L1845.54 792.369 L1846.47 794.008 L1847.39 787.29 L1848.32 786.081 L1849.24 794.609 L1850.17 793.649 L1851.09 801.115 L1852.02 790.709 L1852.94 793.982 L1853.87 788.111 
  L1854.79 809.371 L1855.72 799.558 L1856.64 798.405 L1857.57 799.373 L1858.49 849.956 L1859.42 822.871 L1860.34 819.078 L1861.27 817.741 L1862.19 808.716 L1863.12 801.955 
  L1864.04 860.939 L1864.97 814.985 L1865.89 822.531 L1866.82 819.117 L1867.74 835.899 L1868.66 825.467 L1869.59 830.169 L1870.51 836.847 L1871.44 837.256 L1872.36 833.861 
  L1873.29 842.486 L1874.21 827.915 L1875.14 826.312 L1876.06 819.024 L1876.99 823.72 L1877.91 818.446 L1878.84 843.605 L1879.76 834.752 L1880.69 835.643 L1881.61 848.484 
  L1882.54 840.959 L1883.46 850.456 L1884.39 815.974 L1885.31 826.15 L1886.24 823.645 L1887.16 821.101 L1888.09 821.744 L1889.01 813.86 L1889.93 822.219 L1890.86 812.785 
  L1891.78 809.037 L1892.71 809.855 L1893.63 814.645 L1894.56 814.321 L1895.48 807.894 L1896.41 805.382 L1897.33 820.897 L1898.26 816.419 L1899.18 822.758 L1900.11 819.251 
  L1901.03 809.309 L1901.96 809.517 L1901.96 669.592 L1901.03 668.991 L1900.11 662.728 L1899.18 672.644 L1898.26 683.602 L1897.33 678.323 L1896.41 688.896 L1895.48 699.558 
  L1894.56 685.282 L1893.63 681.724 L1892.71 693.188 L1891.78 686.64 L1890.86 667.714 L1889.93 664.929 L1889.01 674.041 L1888.09 668.597 L1887.16 675.193 L1886.24 679.035 
  L1885.31 683.097 L1884.39 701.646 L1883.46 672.026 L1882.54 693.224 L1881.61 683.982 L1880.69 708.587 L1879.76 716.98 L1878.84 701.766 L1877.91 734.609 L1876.99 716.601 
  L1876.06 728.337 L1875.14 709.742 L1874.21 704.514 L1873.29 682.148 L1872.36 684.58 L1871.44 671.819 L1870.51 654.058 L1869.59 672.09 L1868.66 641.821 L1867.74 625.948 
  L1866.82 633.077 L1865.89 611.607 L1864.97 608.189 L1864.04 543.102 L1863.12 617.896 L1862.19 598.242 L1861.27 571.239 L1860.34 528.086 L1859.42 544.782 L1858.49 487.818 
  L1857.57 536.648 L1856.64 515.739 L1855.72 558.78 L1854.79 553.872 L1853.87 574.547 L1852.94 562.323 L1852.02 590.835 L1851.09 591.013 L1850.17 582.405 L1849.24 592.771 
  L1848.32 615.29 L1847.39 618.042 L1846.47 615.354 L1845.54 613.235 L1844.62 628.163 L1843.7 611.957 L1842.77 613.673 L1841.85 600.144 L1840.92 587.908 L1840 616.564 
  L1839.07 594.538 L1838.15 578.224 L1837.22 600.597 L1836.3 586.283 L1835.37 564.834 L1834.45 588.042 L1833.52 561.066 L1832.6 558.402 L1831.67 492.716 L1830.75 561.463 
  L1829.82 505.786 L1828.9 541.517 L1827.97 504.302 L1827.05 479.286 L1826.12 465.639 L1825.2 463.547 L1824.27 408.788 L1823.35 430.374 L1822.43 439.519 L1821.5 469.494 
  L1820.58 436.036 L1819.65 480.681 L1818.73 492.957 L1817.8 492.998 L1816.88 504.929 L1815.95 496.455 L1815.03 530.109 L1814.1 520.741 L1813.18 524.484 L1812.25 536.564 
  L1811.33 536.395 L1810.4 546.548 L1809.48 539.072 L1808.55 535.405 L1807.63 547.214 L1806.7 555.039 L1805.78 581.838 L1804.85 567.607 L1803.93 565.953 L1803 539.036 
  L1802.08 553.673 L1801.15 567.529 L1800.23 559.158 L1799.31 568.18 L1798.38 572.204 L1797.46 571.854 L1796.53 571.125 L1795.61 587.347 L1794.68 592.852 L1793.76 579.277 
  L1792.83 583.499 L1791.91 591.76 L1790.98 596.739 L1790.06 599.398 L1789.13 619.982 L1788.21 599.517 L1787.28 615.717 L1786.36 644.25 L1785.43 637.829 L1784.51 640.247 
  L1783.58 649.488 L1782.66 642.168 L1781.73 639.01 L1780.81 669.318 L1779.88 640.376 L1778.96 660.863 L1778.03 653.577 L1777.11 655.535 L1776.19 639.455 L1775.26 611.952 
  L1774.34 641.461 L1773.41 642.126 L1772.49 573.132 L1771.56 635.664 L1770.64 619.497 L1769.71 593.76 L1768.79 576.271 L1767.86 589.414 L1766.94 583.182 L1766.01 550.665 
  L1765.09 577.549 L1764.16 578.708 L1763.24 609.172 L1762.31 601.548 L1761.39 589.839 L1760.46 654.657 L1759.54 631.109 L1758.61 687.413 L1757.69 703.673 L1756.76 687.102 
  L1755.84 718.626 L1754.92 729.892 L1753.99 761.867 L1753.07 756.67 L1752.14 763.983 L1751.22 773.457 L1750.29 779.906 L1749.37 776.685 L1748.44 773.843 L1747.52 784.199 
  L1746.59 785.299 L1745.67 790.29 L1744.74 785.5 L1743.82 787.662 L1742.89 783.855 L1741.97 781.101 L1741.04 785.587 L1740.12 780.288 L1739.19 784.555 L1738.27 784.25 
  L1737.34 777.763 L1736.42 783.063 L1735.49 780.529 L1734.57 762.498 L1733.64 778.969 L1732.72 776.635 L1731.8 767.84 L1730.87 768.653 L1729.95 763.586 L1729.02 754.506 
  L1728.1 758.984 L1727.17 756.679 L1726.25 752.597 L1725.32 748.203 L1724.4 740.58 L1723.47 739.28 L1722.55 755.278 L1721.62 740.306 L1720.7 757.293 L1719.77 746.871 
  L1718.85 747.193 L1717.92 749.769 L1717 757.15 L1716.07 755.199 L1715.15 754.559 L1714.22 754.476 L1713.3 752.427 L1712.37 744.066 L1711.45 753.231 L1710.53 740.128 
  L1709.6 749.634 L1708.68 725.314 L1707.75 737.69 L1706.83 733.287 L1705.9 741.999 L1704.98 721.587 L1704.05 728.24 L1703.13 724.544 L1702.2 723.996 L1701.28 728.835 
  L1700.35 715.724 L1699.43 709.841 L1698.5 721.313 L1697.58 713.376 L1696.65 717.045 L1695.73 720.961 L1694.8 732.435 L1693.88 724.989 L1692.95 738.307 L1692.03 745.191 
  L1691.1 741.252 L1690.18 752.725 L1689.25 750.54 L1688.33 755.637 L1687.41 754.6 L1686.48 752.239 L1685.56 770.773 L1684.63 767.063 L1683.71 762.117 L1682.78 758.523 
  L1681.86 768.94 L1680.93 759.139 L1680.01 761.09 L1679.08 768.801 L1678.16 755.848 L1677.23 751.618 L1676.31 756.655 L1675.38 756.386 L1674.46 742.461 L1673.53 736.512 
  L1672.61 730.808 L1671.68 723.383 L1670.76 717.698 L1669.83 701.064 L1668.91 695.633 L1667.98 686.965 L1667.06 687.039 L1666.14 685.444 L1665.21 666.703 L1664.29 681.361 
  L1663.36 681.455 L1662.44 680.134 L1661.51 672.1 L1660.59 695.693 L1659.66 687.845 L1658.74 699.896 L1657.81 710.842 L1656.89 727.236 L1655.96 725.342 L1655.04 730.219 
  L1654.11 733.627 L1653.19 741.432 L1652.26 744.286 L1651.34 739.953 L1650.41 747.996 L1649.49 749.56 L1648.56 719.842 L1647.64 753.192 L1646.71 728.986 L1645.79 716.675 
  L1644.86 723.8 L1643.94 714.493 L1643.02 723.901 L1642.09 720.363 L1641.17 704.206 L1640.24 708.768 L1639.32 690.239 L1638.39 663.912 L1637.47 689.013 L1636.54 640.789 
  L1635.62 667.912 L1634.69 664.835 L1633.77 610.39 L1632.84 598.912 L1631.92 578.184 L1630.99 597.059 L1630.07 619.038 L1629.14 594.278 L1628.22 547.104 L1627.29 567.154 
  L1626.37 548.898 L1625.44 499.405 L1624.52 475.081 L1623.59 480.581 L1622.67 206.407 L1621.75 365.87 L1620.82 476.116 L1619.9 437.667 L1618.97 430.465 L1618.05 441.994 
  L1617.12 411.232 L1616.2 385.21 L1615.27 447.911 L1614.35 553.619 L1613.42 455.633 L1612.5 512.602 L1611.57 536.482 L1610.65 634.906 L1609.72 623.304 L1608.8 640.059 
  L1607.87 688.626 L1606.95 709.36 L1606.02 712.107 L1605.1 710.307 L1604.17 755.88 L1603.25 748.466 L1602.32 747.859 L1601.4 749.283 L1600.47 762.481 L1599.55 764.908 
  L1598.63 753.578 L1597.7 756.346 L1596.78 730.222 L1595.85 746.753 L1594.93 744.448 L1594 733.303 L1593.08 714.561 L1592.15 738.248 L1591.23 702.077 L1590.3 699.75 
  L1589.38 716.194 L1588.45 731.547 L1587.53 716.125 L1586.6 715.757 L1585.68 742.604 L1584.75 737.987 L1583.83 740.135 L1582.9 756.407 L1581.98 753.063 L1581.05 762.149 
  L1580.13 769.553 L1579.2 771.65 L1578.28 773.112 L1577.36 768.854 L1576.43 774.436 L1575.51 774.986 L1574.58 773.756 L1573.66 776.925 L1572.73 767.13 L1571.81 774.53 
  L1570.88 769.505 L1569.96 780.04 L1569.03 765.488 L1568.11 767.127 L1567.18 778.169 L1566.26 753.186 L1565.33 763.045 L1564.41 763.589 L1563.48 751.502 L1562.56 754.077 
  L1561.63 750.778 L1560.71 748.223 L1559.78 754.497 L1558.86 739.786 L1557.93 744.112 L1557.01 746.967 L1556.08 730.578 L1555.16 735.754 L1554.24 732.409 L1553.31 736.409 
  L1552.39 731.812 L1551.46 724.615 L1550.54 746.433 L1549.61 725.247 L1548.69 737.013 L1547.76 730.782 L1546.84 730.361 L1545.91 738.203 L1544.99 735.62 L1544.06 745.857 
  L1543.14 748.465 L1542.21 731.14 L1541.29 743.802 L1540.36 747.207 L1539.44 752.242 L1538.51 752.647 L1537.59 749.406 L1536.66 737.553 L1535.74 749.22 L1534.81 743.421 
  L1533.89 756.441 L1532.97 753.992 L1532.04 760.67 L1531.12 774.89 L1530.19 769.456 L1529.27 786.956 L1528.34 789.525 L1527.42 796.183 L1526.49 814.124 L1525.57 826.056 
  L1524.64 830.372 L1523.72 834.503 L1522.79 841.962 L1521.87 844.381 L1520.94 854.78 L1520.02 851.448 L1519.09 854.414 L1518.17 853.281 L1517.24 860.686 L1516.32 855.61 
  L1515.39 859.112 L1514.47 857.264 L1513.54 854.845 L1512.62 850.883 L1511.69 846.483 L1510.77 839.727 L1509.85 837.894 L1508.92 835.466 L1508 827.233 L1507.07 818.743 
  L1506.15 805.413 L1505.22 807.254 L1504.3 798.459 L1503.37 788.241 L1502.45 775.276 L1501.52 768.574 L1500.6 752.348 L1499.67 743.263 L1498.75 734.519 L1497.82 708.889 
  L1496.9 700.492 L1495.97 677.951 L1495.05 673.699 L1494.12 653.077 L1493.2 634.313 L1492.27 620.015 L1491.35 611.837 L1490.42 596.859 L1489.5 610.894 L1488.58 632.539 
  L1487.65 644.229 L1486.73 642.036 L1485.8 669.09 L1484.88 683.427 L1483.95 700.963 L1483.03 706.307 L1482.1 713.331 L1481.18 708.456 L1480.25 720.03 L1479.33 717.545 
  L1478.4 708.555 L1477.48 713.326 L1476.55 727.165 L1475.63 733.725 L1474.7 701.252 L1473.78 704.149 L1472.85 705.786 L1471.93 679.049 L1471 679.651 L1470.08 700.731 
  L1469.15 711.542 L1468.23 712.843 L1467.3 696.961 L1466.38 712.981 L1465.46 732.718 L1464.53 736.691 L1463.61 736.18 L1462.68 753.379 L1461.76 755.84 L1460.83 762.554 
  L1459.91 764.662 L1458.98 757.748 L1458.06 763.086 L1457.13 758.82 L1456.21 762.472 L1455.28 762.225 L1454.36 763.313 L1453.43 758.565 L1452.51 759.355 L1451.58 762.866 
  L1450.66 758.312 L1449.73 746.084 L1448.81 732.728 L1447.88 742.735 L1446.96 731.652 L1446.03 723.506 L1445.11 719.857 L1444.19 696.712 L1443.26 680.845 L1442.34 681.332 
  L1441.41 682.939 L1440.49 667.941 L1439.56 663.345 L1438.64 629.444 L1437.71 638.186 L1436.79 646.418 L1435.86 611.76 L1434.94 635.604 L1434.01 608.405 L1433.09 635.895 
  L1432.16 640.885 L1431.24 643.238 L1430.31 635.558 L1429.39 661.384 L1428.46 662.52 L1427.54 661.256 L1426.61 668.569 L1425.69 657.89 L1424.76 673.517 L1423.84 675.97 
  L1422.91 675.439 L1421.99 664.38 L1421.07 673.543 L1420.14 689.603 L1419.22 678.524 L1418.29 676.845 L1417.37 660.656 L1416.44 693.482 L1415.52 691.17 L1414.59 671.009 
  L1413.67 681.168 L1412.74 683.364 L1411.82 680.34 L1410.89 686.341 L1409.97 680.469 L1409.04 675.819 L1408.12 670.188 L1407.19 656.305 L1406.27 664.29 L1405.34 679.415 
  L1404.42 670.2 L1403.49 662.992 L1402.57 635.994 L1401.64 654.574 L1400.72 638.422 L1399.8 662.417 L1398.87 644.194 L1397.95 635.571 L1397.02 648.261 L1396.1 662.216 
  L1395.17 668.135 L1394.25 655.513 L1393.32 673.702 L1392.4 687.004 L1391.47 653.038 L1390.55 678.578 L1389.62 701.921 L1388.7 688.577 L1387.77 687.043 L1386.85 704.826 
  L1385.92 716.461 L1385 737.428 L1384.07 742.314 L1383.15 758.665 L1382.22 754.249 L1381.3 764.896 L1380.37 765.088 L1379.45 756.369 L1378.52 770.366 L1377.6 769.628 
  L1376.68 775.473 L1375.75 769.684 L1374.83 775.234 L1373.9 774.197 L1372.98 769.088 L1372.05 751.866 L1371.13 743.786 L1370.2 748.281 L1369.28 738.925 L1368.35 728.909 
  L1367.43 713.879 L1366.5 700.06 L1365.58 687.81 L1364.65 686.731 L1363.73 696.371 L1362.8 671.955 L1361.88 654.097 L1360.95 660.363 L1360.03 635.04 L1359.1 643.464 
  L1358.18 612.617 L1357.25 624.617 L1356.33 631.247 L1355.41 635.533 L1354.48 618.514 L1353.56 582.235 L1352.63 610.402 L1351.71 612.352 L1350.78 586.104 L1349.86 616.098 
  L1348.93 602.808 L1348.01 545.433 L1347.08 608.278 L1346.16 584.12 L1345.23 582.952 L1344.31 563.111 L1343.38 579.235 L1342.46 598.334 L1341.53 588.921 L1340.61 495.424 
  L1339.68 622.546 L1338.76 606.045 L1337.83 614.065 L1336.91 572.405 L1335.98 621.875 L1335.06 631.62 L1334.13 626.855 L1333.21 562.702 L1332.29 613.299 L1331.36 565.659 
  L1330.44 516.297 L1329.51 511.482 L1328.59 408.362 L1327.66 394.29 L1326.74 485.931 L1325.81 462.76 L1324.89 469.537 L1323.96 496.414 L1323.04 354.25 L1322.11 416.476 
  L1321.19 448.726 L1320.26 427.871 L1319.34 475.378 L1318.41 504.469 L1317.49 499.045 L1316.56 508.889 L1315.64 546.326 L1314.71 531.823 L1313.79 586.773 L1312.86 556.707 
  L1311.94 557.14 L1311.02 551.992 L1310.09 568.543 L1309.17 568.391 L1308.24 520.695 L1307.32 583.945 L1306.39 578.413 L1305.47 574.598 L1304.54 542.046 L1303.62 499.512 
  L1302.69 513.002 L1301.77 478.852 L1300.84 455.704 L1299.92 424.471 L1298.99 446.607 L1298.07 473.441 L1297.14 492.349 L1296.22 412.135 L1295.29 461.514 L1294.37 526.366 
  L1293.44 441.562 L1292.52 503.219 L1291.59 367.313 L1290.67 434.41 L1289.74 426.334 L1288.82 428.733 L1287.9 430.704 L1286.97 365.016 L1286.05 37.5639 L1285.12 333.112 
  L1284.2 345.105 L1283.27 319.051 L1282.35 424.334 L1281.42 368.172 L1280.5 362.559 L1279.57 399.724 L1278.65 468.421 L1277.72 482.63 L1276.8 382.406 L1275.87 361.163 
  L1274.95 386.116 L1274.02 417.184 L1273.1 441.568 L1272.17 475.239 L1271.25 458.343 L1270.32 370.458 L1269.4 412.457 L1268.47 339.859 L1267.55 485.191 L1266.63 388.733 
  L1265.7 517.932 L1264.78 372.087 L1263.85 372.977 L1262.93 312.286 L1262 337.037 L1261.08 320.59 L1260.15 392.633 L1259.23 317.03 L1258.3 300.131 L1257.38 308.3 
  L1256.45 203.932 L1255.53 253.077 L1254.6 256.64 L1253.68 213.48 L1252.75 224.578 L1251.83 154.804 L1250.9 95.5633 L1249.98 164.653 L1249.05 93.8604 L1248.13 173.916 
  L1247.2 -35.2211 L1246.28 -207.281 L1245.35 -444.17 L1244.43 -992.89 L1243.51 -303.536 L1242.58 -377.362 L1241.66 -490.19 L1240.73 -582.068 L1239.81 -631.891 L1238.88 -780.633 
  L1237.96 -588.225 L1237.03 -318.821 L1236.11 -157.202 L1235.18 -582.31 L1234.26 -283.839 L1233.33 -72.0605 L1232.41 -337.691 L1231.48 -154.891 L1230.56 -251.658 L1229.63 41.3055 
  L1228.71 -107.901 L1227.78 173.475 L1226.86 -230.824 L1225.93 45.7707 L1225.01 13.6081 L1224.08 179.057 L1223.16 37.0545 L1222.24 155.412 L1221.31 -230.857 L1220.39 -96.2835 
  L1219.46 -46.913 L1218.54 -192.728 L1217.61 -84.1438 L1216.69 -433.425 L1215.76 -575.739 L1214.84 -328.695 L1213.91 -457.936 L1212.99 -142.418 L1212.06 -211.662 L1211.14 200.992 
  L1210.21 94.2552 L1209.29 46.5881 L1208.36 229.524 L1207.44 294.25 L1206.51 308.062 L1205.59 355.331 L1204.66 395.095 L1203.74 436.37 L1202.81 471.012 L1201.89 460.859 
  L1200.96 495.636 L1200.04 511.415 L1199.12 543.071 L1198.19 537.497 L1197.27 555.465 L1196.34 554.537 L1195.42 578.399 L1194.49 574.534 L1193.57 585.285 L1192.64 596.439 
  L1191.72 594.063 L1190.79 604.138 L1189.87 611.507 L1188.94 603.426 L1188.02 595.857 L1187.09 593.714 L1186.17 608.711 L1185.24 601.967 L1184.32 581.448 L1183.39 571.807 
  L1182.47 555.535 L1181.54 576.88 L1180.62 553.891 L1179.69 533.551 L1178.77 575.999 L1177.85 579.044 L1176.92 578.595 L1176 586.584 L1175.07 593.178 L1174.15 635.59 
  L1173.22 662.07 L1172.3 677.057 L1171.37 681.422 L1170.45 695.616 L1169.52 711.642 L1168.6 704.716 L1167.67 712.271 L1166.75 724.982 L1165.82 701.659 L1164.9 705.839 
  L1163.97 713.224 L1163.05 711.02 L1162.12 699.933 L1161.2 702.38 L1160.27 701.441 L1159.35 703.333 L1158.42 696.114 L1157.5 694.661 L1156.57 689.3 L1155.65 695.215 
  L1154.73 691.05 L1153.8 693.071 L1152.88 693.295 L1151.95 685.923 L1151.03 695.447 L1150.1 689.119 L1149.18 680.923 L1148.25 683.307 L1147.33 671.904 L1146.4 668.049 
  L1145.48 668.129 L1144.55 658.457 L1143.63 649.065 L1142.7 630.277 L1141.78 621.108 L1140.85 612.152 L1139.93 604.313 L1139 597.277 L1138.08 577.229 L1137.15 565.584 
  L1136.23 563.512 L1135.3 544.953 L1134.38 552.7 L1133.46 540.755 L1132.53 549.112 L1131.61 551.219 L1130.68 540.37 L1129.76 545.205 L1128.83 539.476 L1127.91 559.88 
  L1126.98 558.584 L1126.06 563.059 L1125.13 571.569 L1124.21 527.564 L1123.28 571.281 L1122.36 563.725 L1121.43 562.354 L1120.51 561.065 L1119.58 542.311 L1118.66 546.012 
  L1117.73 564.046 L1116.81 541.495 L1115.88 502.476 L1114.96 521.187 L1114.03 479.906 L1113.11 497.483 L1112.18 512.962 L1111.26 524.679 L1110.34 494.48 L1109.41 488.18 
  L1108.49 486.015 L1107.56 498.323 L1106.64 487.745 L1105.71 504.76 L1104.79 474.382 L1103.86 461.845 L1102.94 513.232 L1102.01 520.848 L1101.09 522.069 L1100.16 526.028 
  L1099.24 526.197 L1098.31 520.125 L1097.39 528.136 L1096.46 517.153 L1095.54 528.409 L1094.61 527.772 L1093.69 506.986 L1092.76 508.129 L1091.84 525.749 L1090.91 520.971 
  L1089.99 515.206 L1089.07 482.718 L1088.14 507.342 L1087.22 527.638 L1086.29 512.749 L1085.37 550.782 L1084.44 531.231 L1083.52 544 L1082.59 561.683 L1081.67 577.544 
  L1080.74 607.216 L1079.82 615.561 L1078.89 621.416 L1077.97 655.817 L1077.04 671.917 L1076.12 713.8 L1075.19 703.202 L1074.27 735.786 L1073.34 748.723 L1072.42 733.352 
  L1071.49 734.112 L1070.57 770.629 L1069.64 747.91 L1068.72 755.71 L1067.79 762.74 L1066.87 764.156 L1065.95 750.806 L1065.02 763.388 L1064.1 751.496 L1063.17 781.103 
  L1062.25 779.092 L1061.32 782.456 L1060.4 787.905 L1059.47 782.982 L1058.55 788.527 L1057.62 787.89 L1056.7 784.387 L1055.77 787.351 L1054.85 791.116 L1053.92 779.453 
  L1053 767.618 L1052.07 788.358 L1051.15 787.172 L1050.22 765.721 L1049.3 785.309 L1048.37 789.591 L1047.45 779.462 L1046.52 787.257 L1045.6 782.791 L1044.68 788.086 
  L1043.75 779.794 L1042.83 777.753 L1041.9 774.475 L1040.98 776.107 L1040.05 758.437 L1039.13 741.79 L1038.2 707.311 L1037.28 691.273 L1036.35 653.232 L1035.43 652.101 
  L1034.5 621.325 L1033.58 619.622 L1032.65 599.037 L1031.73 589.213 L1030.8 582.988 L1029.88 569.889 L1028.95 566.204 L1028.03 570.015 L1027.1 564.103 L1026.18 541.903 
  L1025.25 573.545 L1024.33 557.948 L1023.4 603.07 L1022.48 598.187 L1021.56 600.699 L1020.63 624.382 L1019.71 640.281 L1018.78 616.202 L1017.86 635.255 L1016.93 624.242 
  L1016.01 653.3 L1015.08 633.783 L1014.16 625.616 L1013.23 656.371 L1012.31 664.944 L1011.38 676.991 L1010.46 695.355 L1009.53 697.469 L1008.61 704.372 L1007.68 736.756 
  L1006.76 726.569 L1005.83 737.366 L1004.91 717.586 L1003.98 715.717 L1003.06 707.647 L1002.13 721.186 L1001.21 691.907 L1000.29 681.349 L999.36 637.224 L998.436 626.522 
  L997.511 575.856 L996.586 609.242 L995.661 565.584 L994.736 601.729 L993.812 571.501 L992.887 577.473 L991.962 541.509 L991.037 550.477 L990.112 575.227 L989.188 575.243 
  L988.263 577.398 L987.338 564.899 L986.413 587.147 L985.488 601.128 L984.564 594.988 L983.639 619.594 L982.714 618.083 L981.789 634.679 L980.864 639.476 L979.94 647.379 
  L979.015 673.711 L978.09 680.518 L977.165 695.895 L976.241 699.479 L975.316 720.647 L974.391 709.371 L973.466 729.961 L972.541 741.586 L971.617 756.945 L970.692 747.636 
  L969.767 731.789 L968.842 750.695 L967.917 748.022 L966.993 738.791 L966.068 723.719 L965.143 743.506 L964.218 737.908 L963.293 735.25 L962.369 748.533 L961.444 744.911 
  L960.519 735.091 L959.594 761.304 L958.669 744.355 L957.745 722.92 L956.82 754.156 L955.895 756.899 L954.97 740.007 L954.046 767.491 L953.121 739.561 L952.196 762.042 
  L951.271 751.872 L950.346 726.38 L949.422 814.686 L948.497 748.936 L947.572 769.047 L946.647 778.621 L945.722 735.739 L944.798 759.44 L943.873 798.613 L942.948 770.118 
  L942.023 787.957 L941.098 781.248 L940.174 780.12 L939.249 748.243 L938.324 746.834 L937.399 756.038 L936.474 782.773 L935.55 750.137 L934.625 750.311 L933.7 759.47 
  L932.775 759.949 L931.851 734.865 L930.926 763.279 L930.001 760.611 L929.076 761.532 L928.151 745.247 L927.227 769.549 L926.302 755.127 L925.377 744.714 L924.452 752.846 
  L923.527 760.309 L922.603 759.108 L921.678 773.31 L920.753 773.581 L919.828 770.123 L918.903 780.706 L917.979 765.231 L917.054 775.286 L916.129 776.02 L915.204 774.349 
  L914.279 783.228 L913.355 759.062 L912.43 777.847 L911.505 782.915 L910.58 770.922 L909.656 771.75 L908.731 777.863 L907.806 771.643 L906.881 748.167 L905.956 774.69 
  L905.032 778.454 L904.107 770.994 L903.182 753.624 L902.257 775.983 L901.332 762.016 L900.408 768.931 L899.483 772.417 L898.558 776.138 L897.633 761.362 L896.708 772.038 
  L895.784 767.965 L894.859 774.548 L893.934 767.945 L893.009 766.953 L892.084 774.654 L891.16 781.324 L890.235 771.704 L889.31 770.925 L888.385 776.479 L887.461 779.453 
  L886.536 775.253 L885.611 772.917 L884.686 768.352 L883.761 772.928 L882.837 772.76 L881.912 770.637 L880.987 770.732 L880.062 777.191 L879.137 778.897 L878.213 781.591 
  L877.288 784.506 L876.363 789.158 L875.438 793.562 L874.513 795.142 L873.589 793.148 L872.664 801.306 L871.739 806.158 L870.814 801.643 L869.889 796.453 L868.965 804.826 
  L868.04 807.254 L867.115 807.688 L866.19 805.309 L865.266 800.543 L864.341 803.97 L863.416 801.125 L862.491 787.148 L861.566 788.478 L860.642 781.149 L859.717 784.033 
  L858.792 782.934 L857.867 781.13 L856.942 785.324 L856.018 785.695 L855.093 782.649 L854.168 767.418 L853.243 780.624 L852.318 781.343 L851.394 774.409 L850.469 777.873 
  L849.544 748.724 L848.619 778.294 L847.694 780.818 L846.77 762.377 L845.845 783.535 L844.92 774.595 L843.995 769.386 L843.071 773.705 L842.146 771.454 L841.221 769.428 
  L840.296 766.13 L839.371 767.933 L838.447 776.852 L837.522 767.598 L836.597 769.44 L835.672 763.029 L834.747 771.412 L833.823 744.884 L832.898 762.951 L831.973 746.256 
  L831.048 764.297 L830.123 775.349 L829.199 784.348 L828.274 785.588 L827.349 770.22 L826.424 773.751 L825.499 781.526 L824.575 779.095 L823.65 781.119 L822.725 787.682 
  L821.8 772.498 L820.876 789.739 L819.951 785.954 L819.026 787.743 L818.101 785.131 L817.176 782.649 L816.252 788.866 L815.327 782.065 L814.402 785.935 L813.477 788.837 
  L812.552 784.144 L811.628 792.771 L810.703 789.052 L809.778 783.559 L808.853 790.241 L807.928 777.639 L807.004 788.262 L806.079 787.497 L805.154 780.543 L804.229 777.916 
  L803.304 769.955 L802.38 754.68 L801.455 750.458 L800.53 750.439 L799.605 741.242 L798.681 747.687 L797.756 740.687 L796.831 744.462 L795.906 750.672 L794.981 759.187 
  L794.057 756.493 L793.132 767.927 L792.207 776.359 L791.282 776.482 L790.357 783.923 L789.433 786.25 L788.508 784.23 L787.583 791.409 L786.658 786.809 L785.733 789.177 
  L784.809 793.024 L783.884 794.62 L782.959 793.148 L782.034 795.619 L781.109 798.54 L780.185 794.016 L779.26 799.026 L778.335 800.779 L777.41 801.334 L776.486 804.875 
  L775.561 801.071 L774.636 803.328 L773.711 801.932 L772.786 801.243 L771.862 799.23 L770.937 798.873 L770.012 796.545 L769.087 794.614 L768.162 796.14 L767.238 792.233 
  L766.313 793.887 L765.388 791.46 L764.463 792.181 L763.538 792.07 L762.614 795.342 L761.689 791.09 L760.764 791.683 L759.839 792.008 L758.914 792.761 L757.99 793.264 
  L757.065 788.81 L756.14 789.876 L755.215 785.457 L754.291 789.133 L753.366 789.245 L752.441 782.244 L751.516 772.328 L750.591 784.153 L749.667 778.869 L748.742 780.721 
  L747.817 788.805 L746.892 776.461 L745.967 771.933 L745.043 745.028 L744.118 771.685 L743.193 772.244 L742.268 785.623 L741.343 784.237 L740.419 776.049 L739.494 775.821 
  L738.569 787.071 L737.644 777.913 L736.719 780.062 L735.795 787.594 L734.87 759.507 L733.945 779.045 L733.02 785.379 L732.096 782.343 L731.171 788.835 L730.246 786.299 
  L729.321 786.667 L728.396 785.242 L727.472 789.551 L726.547 789.154 L725.622 791.671 L724.697 784.893 L723.772 792.511 L722.848 786.681 L721.923 794.632 L720.998 784.276 
  L720.073 786.338 L719.148 777.401 L718.224 783.731 L717.299 773.939 L716.374 775.044 L715.449 782.512 L714.524 783.83 L713.6 785.112 L712.675 788.596 L711.75 775.575 
  L710.825 787.619 L709.901 785.093 L708.976 761.572 L708.051 773.055 L707.126 784.463 L706.201 781.059 L705.277 775.151 L704.352 781.904 L703.427 753.318 L702.502 769.472 
  L701.577 769.023 L700.653 764.242 L699.728 769.728 L698.803 756.12 L697.878 769.447 L696.953 767.195 L696.029 769.977 L695.104 765.214 L694.179 773.734 L693.254 771.997 
  L692.329 741.4 L691.405 767.09 L690.48 739.846 L689.555 758.362 L688.63 763.659 L687.705 707.776 L686.781 771.679 L685.856 758.427 L684.931 762.464 L684.006 734.969 
  L683.082 752.651 L682.157 744.717 L681.232 763.683 L680.307 760.359 L679.382 742.961 L678.458 776.645 L677.533 768.629 L676.608 774.035 L675.683 765.129 L674.758 746.575 
  L673.834 776.073 L672.909 766.418 L671.984 778.383 L671.059 782.362 L670.134 765.663 L669.21 766.109 L668.285 780.299 L667.36 769.272 L666.435 756.889 L665.51 781.267 
  L664.586 782.312 L663.661 776.728 L662.736 780.211 L661.811 786.606 L660.887 783.048 L659.962 781.555 L659.037 781.392 L658.112 772.176 L657.187 788.612 L656.263 780.467 
  L655.338 782.933 L654.413 783.755 L653.488 784.247 L652.563 784.272 L651.639 786.351 L650.714 787.501 L649.789 776.039 L648.864 782.295 L647.939 785.651 L647.015 785.48 
  L646.09 782.966 L645.165 780.76 L644.24 786.495 L643.315 781.038 L642.391 786.87 L641.466 777.697 L640.541 780.912 L639.616 781.781 L638.692 784.136 L637.767 778.628 
  L636.842 781.843 L635.917 781.199 L634.992 787.749 L634.068 785.424 L633.143 783.317 L632.218 776.38 L631.293 779.346 L630.368 778.726 L629.444 772.128 L628.519 776.669 
  L627.594 761.417 L626.669 781.044 L625.744 763.61 L624.82 775.568 L623.895 762.388 L622.97 765.421 L622.045 788.93 L621.12 771.365 L620.196 773.628 L619.271 795.361 
  L618.346 800.656 L617.421 724.449 L616.497 774.865 L615.572 797.869 L614.647 784.392 L613.722 795.033 L612.797 791.125 L611.873 799.17 L610.948 790.171 L610.023 796.404 
  L609.098 793.936 L608.173 796.974 L607.249 764.302 L606.324 764.247 L605.399 789.679 L604.474 782.069 L603.549 750.328 L602.625 747.487 L601.7 773.457 L600.775 762.478 
  L599.85 760.617 L598.925 746.653 L598.001 758.526 L597.076 763.374 L596.151 764.992 L595.226 764.731 L594.302 774.135 L593.377 756.494 L592.452 769.079 L591.527 763.925 
  L590.602 771.221 L589.678 775.719 L588.753 771.935 L587.828 773.575 L586.903 769.769 L585.978 775.078 L585.054 770.469 L584.129 770.263 L583.204 775.443 L582.279 761.426 
  L581.354 777.952 L580.43 781.923 L579.505 781.434 L578.58 766.642 L577.655 741.775 L576.73 766.538 L575.806 762.765 L574.881 764.518 L573.956 755.145 L573.031 723.23 
  L572.107 769.447 L571.182 771.921 L570.257 767.954 L569.332 764.459 L568.407 764.992 L567.483 778.96 L566.558 773.105 L565.633 771.017 L564.708 772.183 L563.783 774.521 
  L562.859 785.586 L561.934 775.983 L561.009 766.056 L560.084 768.687 L559.159 774.031 L558.235 759.355 L557.31 769.321 L556.385 778.601 L555.46 776.431 L554.535 765.479 
  L553.611 749.301 L552.686 753.996 L551.761 756.536 L550.836 759.642 L549.912 724.332 L548.987 745.801 L548.062 757.193 L547.137 736.709 L546.212 742.757 L545.288 754.239 
  L544.363 717.032 L543.438 749.195 L542.513 754.622 L541.588 749.9 L540.664 761.351 L539.739 749.879 L538.814 744.79 L537.889 740.44 L536.964 749.981 L536.04 746.121 
  L535.115 735.772 L534.19 755.191 L533.265 755.065 L532.34 761.063 L531.416 735.579 L530.491 722.07 L529.566 741.403 L528.641 753.536 L527.717 739.761 L526.792 731.194 
  L525.867 726.234 L524.942 766.408 L524.017 753.063 L523.093 747.843 L522.168 766.473 L521.243 758.504 L520.318 752.925 L519.393 781.152 L518.469 777.076 L517.544 758.723 
  L516.619 782.963 L515.694 773.679 L514.769 783.412 L513.845 785.527 L512.92 791.266 L511.995 782.148 L511.07 780.945 L510.145 792.372 L509.221 779.035 L508.296 781.22 
  L507.371 784.846 L506.446 784.536 L505.522 777.317 L504.597 788.63 L503.672 786.524 L502.747 788.936 L501.822 782.312 L500.898 782.25 L499.973 789.422 L499.048 785.373 
  L498.123 789.951 L497.198 792.117 L496.274 790.387 L495.349 772.485 L494.424 791.298 L493.499 788.814 L492.574 791.07 L491.65 786.802 L490.725 789.014 L489.8 792.688 
  L488.875 790.055 L487.95 790.299 L487.026 790.599 L486.101 789.306 L485.176 785.024 L484.251 788.649 L483.327 779.967 L482.402 781.618 L481.477 766.383 L480.552 783.308 
  L479.627 780.319 L478.703 773.534 L477.778 777.097 L476.853 775.902 L475.928 741.865 L475.003 768.28 L474.079 768.165 L473.154 768.581 L472.229 745.784 L471.304 758.026 
  L470.379 782.364 L469.455 769.924 L468.53 776.783 L467.605 775.802 L466.68 769.519 L465.755 783.73 L464.831 790.339 L463.906 784.614 L462.981 778.615 L462.056 777.984 
  L461.132 781.989 L460.207 769.442 L459.282 775.917 L458.357 782.179 L457.432 772.53 L456.508 765.527 L455.583 759.853 L454.658 750.701 L453.733 756.245 L452.808 751.666 
  L451.884 762.6 L450.959 749.562 L450.034 736.236 L449.109 756.782 L448.184 759.694 L447.26 751.729 L446.335 741.966 L445.41 744.963 L444.485 752.978 L443.56 761.493 
  L442.636 776.314 L441.711 762.719 L440.786 758.638 L439.861 755.088 L438.937 747.569 L438.012 771.409 L437.087 708.044 L436.162 764.759 L435.237 764.374 L434.313 778.669 
  L433.388 755.147 L432.463 770.921 L431.538 777.587 L430.613 780.157 L429.689 769.982 L428.764 777.473 L427.839 771.357 L426.914 775.292 L425.989 784.29 L425.065 771.581 
  L424.14 777.648 L423.215 741.807 L422.29 761.31 L421.365 774.312 L420.441 772.513 L419.516 768.204 L418.591 770.312 L417.666 757.74 L416.742 775.984 L415.817 772.175 
  L414.892 772.186 L413.967 765.405 L413.042 758.56 L412.118 770.723 L411.193 775.485 L410.268 748.858 L409.343 776.657 L408.418 761.653 L407.494 778.589 L406.569 785.186 
  L405.644 788.979 L404.719 776.295 L403.794 780.371 L402.87 789.037 L401.945 783.233 L401.02 782.934 L400.095 782.66 L399.17 782.649 L398.246 755.199 L397.321 783.758 
  L396.396 770.03 L395.471 777.609 L394.547 772.751 L393.622 768.56 L392.697 777.365 L391.772 774.413 L390.847 774.473 L389.923 771.47 L388.998 780.102 L388.073 780.365 
  L387.148 765.098 L386.223 773.749 L385.299 777.196 L384.374 773.216 L383.449 776.011 L382.524 777.909 L381.599 761.409 L380.675 764.829 L379.75 768.229 L378.825 756.143 
  L377.9 760.024 L376.975 739.756 L376.051 755.984 L375.126 773.084 L374.201 762.176 L373.276 756.02 L372.352 763.387 L371.427 757.979 L370.502 767.796 L369.577 760.479 
  L368.652 771.924 L367.728 752.322 L366.803 747.508 L365.878 764.234 L364.953 755.921 L364.028 741.88 L363.104 751.04 L362.179 747.856 L361.254 665.39 L360.329 676.759 
  L359.404 704.497 L358.48 662.105 L357.555 680.86 L356.63 710.815 L355.705 598.517 L354.78 603.614 L353.856 705.372 L352.931 678.177 L352.006 683.533 L351.081 661.431 
  L350.157 718.773 L349.232 622.621 L348.307 694.331 L347.382 684.97 L346.457 654.326 L345.533 633.42 L344.608 706.997 L343.683 672.703 L342.758 737.688 L341.833 689.359 
  L340.909 754.001 L339.984 728.47 L339.059 772.526 L338.134 702.253 L337.209 753.452 L336.285 754.508 L335.36 760.762 L334.435 765.072 L333.51 752.227 L332.585 755.985 
  L331.661 770.651 L330.736 677.524 L329.811 732.473 L328.886 748.126 L327.961 755.86 L327.037 757.452 L326.112 772.15 L325.187 765.669 L324.262 782.824 L323.338 765.35 
  L322.413 765.466 L321.488 772.73 L320.563 775.03 L319.638 767.348 L318.714 756.272 L317.789 779.208 L316.864 765.637 L315.939 765.943 L315.014 733.029 L314.09 736.878 
  L313.165 721.926 L312.24 705.148 L311.315 765.064 L310.39 746.52 L309.466 743.82 L308.541 754.545 L307.616 728.721 L306.691 717.002 L305.766 708.471 L304.842 695.053 
  L303.917 704.228 L302.992 731.32 L302.067 693.772 L301.143 727.389 L300.218 696.446 L299.293 702.347 L298.368 697.94 L297.443 718.634 L296.519 707.82 L295.594 718.268 
  L294.669 638.581 L293.744 721.867 L292.819 684.309 L291.895 753.597 L290.97 740.262 L290.045 765.128 L289.12 731.052 L288.195 739.913 L287.271 738.255 L286.346 684.871 
  L285.421 767.55 L284.496 757.845 L283.571 764.19 L282.647 733.206 L281.722 719.002 L280.797 754.408 L279.872 722.716 L278.948 754.357 L278.023 688.346 L277.098 691.175 
  L276.173 695.475 L275.248 671.647 L274.324 699.253 L273.399 687.425 L272.474 674.681 L271.549 738.486 L270.624 722.124 L269.7 730.176 L268.775 750.242 L267.85 738.912 
  L266.925 680.88 L266 700.404 L265.076 720.02 L264.151 767.949 L263.226 735.27 L262.301 723.716 L261.376 770.333 L260.452 758.294 L259.527 771.002 L258.602 760.728 
  L257.677 771.034 L256.753 773.957 L255.828 770.857 L254.903 776.882 L253.978 774.392 L253.053 768.754 L252.129 763.613 L251.204 764.81 L250.279 777.271 L249.354 749.46 
  L248.429 770.035 L247.505 766.378 L246.58 765.645 L245.655 766.895 L244.73 759.853 L243.805 772.187 L242.881 773.22 L241.956 768.537 L241.031 776.157 L240.106 760.966 
  L239.181 767.468 L238.257 773.836 L237.332 775.597 L236.407 773.285 L235.482 769.498 L234.558 740.176 L233.633 776.719 L232.708 785.88 L231.783 780.866 L230.858 776.493 
  L229.934 775.249 L229.009 778.735 L228.084 782.213 L227.159 782.119 L226.234 786.729 L225.31 781.879 L224.385 764.36 L223.46 788.102 L222.535 781.259 L221.61 780.676 
  L220.686 791.11 L219.761 780.411 L218.836 772.757 L217.911 774.258 L216.986 784.171 L216.062 782.511 L215.137 770.218 L214.212 779.395 L213.287 772.392 L212.363 771.256 
  L211.438 760.825 L210.513 756.783 L209.588 760.991 L208.663 748.639  Z
  " fill="#000000" fill-rule="evenodd" fill-opacity="0.2"/>
<polyline clip-path="url(#clip3502)" style="stroke:#000000; stroke-width:4; stroke-opacity:1; fill:none" points="
  208.663,812.444 209.588,820.095 210.513,822.109 211.438,819.041 212.363,819.973 213.287,821.228 214.212,816.241 215.137,820.83 216.062,816.945 216.986,814.569 
  217.911,819.231 218.836,818.194 219.761,815.849 220.686,811.459 221.61,816.351 222.535,812.758 223.46,810.784 224.385,813.02 225.31,810.787 226.234,811.551 
  227.159,814.02 228.084,815.329 229.009,814.916 229.934,817.626 230.858,815.065 231.783,817.707 232.708,814.962 233.633,817.389 234.558,819.852 235.482,815.814 
  236.407,816.059 237.332,819.12 238.257,818.187 239.181,815.138 240.106,818.692 241.031,813.215 241.956,815.848 242.881,810.807 243.805,811.584 244.73,809.901 
  245.655,816.204 246.58,815.351 247.505,816.337 248.429,815.01 249.354,815.767 250.279,817.082 251.204,815.246 252.129,814.874 253.053,815.896 253.978,815.095 
  254.903,816.845 255.828,819.396 256.753,819.467 257.677,822.621 258.602,825.885 259.527,820.154 260.452,825.293 261.376,825.413 262.301,835.39 263.226,836.803 
  264.151,831.598 265.076,843.394 266,852.284 266.925,860.942 267.85,840.776 268.775,833.776 269.7,840.703 270.624,843.135 271.549,845.221 272.474,860.507 
  273.399,866.234 274.324,866.648 275.248,890.877 276.173,896.159 277.098,892.178 278.023,903.389 278.948,888.441 279.872,890.307 280.797,888.153 281.722,895.943 
  282.647,894.012 283.571,880.277 284.496,881.893 285.421,885.524 286.346,911.876 287.271,893.944 288.195,887.772 289.12,886.024 290.045,902.57 290.97,883.328 
  291.895,888.43 292.819,910.121 293.744,889.501 294.669,898.497 295.594,881.631 296.519,898.003 297.443,883.191 298.368,883.484 299.293,894.23 300.218,896.743 
  301.143,885.592 302.067,897.772 302.992,882.19 303.917,876.752 304.842,882.467 305.766,866.99 306.691,865.902 307.616,866.997 308.541,863.97 309.466,848.341 
  310.39,849.549 311.315,838.896 312.24,862.57 313.165,855.24 314.09,841.491 315.014,840.519 315.939,832.88 316.864,830.651 317.789,825.225 318.714,828.814 
  319.638,836.316 320.563,822.567 321.488,825.723 322.413,828.623 323.338,828.032 324.262,829.192 325.187,825.82 326.112,826.858 327.037,829.694 327.961,832.251 
  328.886,829.149 329.811,834.017 330.736,836.006 331.661,828.033 332.585,835.125 333.51,829.646 334.435,828.423 335.36,825.421 336.285,829.971 337.209,830.444 
  338.134,828.931 339.059,823.348 339.984,829.634 340.909,834.761 341.833,837.094 342.758,845.97 343.683,866.524 344.608,888.522 345.533,895.709 346.457,903.991 
  347.382,928.237 348.307,930.776 349.232,931.771 350.157,928.413 351.081,960.419 352.006,940.567 352.931,955.636 353.856,927.612 354.78,935.564 355.705,922.913 
  356.63,914.138 357.555,921.848 358.48,918.001 359.404,886.746 360.329,895.145 361.254,881.555 362.179,863.653 363.104,868.355 364.028,859.46 364.953,850.739 
  365.878,839.507 366.803,840.976 367.728,836.736 368.652,836.625 369.577,837.873 370.502,824.737 371.427,841.305 372.352,825.068 373.276,826.018 374.201,820.988 
  375.126,816.506 376.051,828.478 376.975,826.919 377.9,825.089 378.825,818.635 379.75,822.412 380.675,819.067 381.599,823.164 382.524,817.692 383.449,821.069 
  384.374,821.046 385.299,815.842 386.223,816.923 387.148,820.891 388.073,816.054 388.998,818.425 389.923,817.62 390.847,816.188 391.772,819.462 392.697,819.038 
  393.622,818.005 394.547,817.748 395.471,815.371 396.396,814.635 397.321,810.094 398.246,814.035 399.17,810.695 400.095,812.096 401.02,811.745 401.945,811.438 
  402.87,810.346 403.794,812.706 404.719,814.331 405.644,812.914 406.569,813.891 407.494,816.029 408.418,823.122 409.343,818.26 410.268,824.385 411.193,823.583 
  412.118,829.018 413.042,828.691 413.967,826.296 414.892,830.224 415.817,833.269 416.742,832.163 417.666,831.263 418.591,825.472 419.516,830.073 420.441,824.872 
  421.365,824.52 422.29,823.743 423.215,827.766 424.14,819.974 425.065,820.304 425.989,812.87 426.914,817.728 427.839,816.79 428.764,815.023 429.689,814.442 
  430.613,811.774 431.538,811.266 432.463,812.99 433.388,811.538 434.313,809.33 435.237,813.849 436.162,810.276 437.087,818.999 438.012,813.354 438.937,815.051 
  439.861,818.644 440.786,813.957 441.711,816.57 442.636,817.534 443.56,816.836 444.485,816.319 445.41,823.372 446.335,829.693 447.26,824.614 448.184,824.969 
  449.109,835.725 450.034,840.212 450.959,840.587 451.884,843.699 452.808,841.096 453.733,843.491 454.658,845.222 455.583,838.038 456.508,844.651 457.432,840.896 
  458.357,834.582 459.282,842.849 460.207,837.344 461.132,835.178 462.056,839.167 462.981,834.131 463.906,836.93 464.831,837.461 465.755,842.114 466.68,848.624 
  467.605,842.107 468.53,833.147 469.455,846.047 470.379,841.957 471.304,844.946 472.229,847.75 473.154,837.714 474.079,844.312 475.003,839.331 475.928,839.349 
  476.853,834.384 477.778,832.878 478.703,830.601 479.627,822.276 480.552,826.403 481.477,824.257 482.402,821.041 483.327,819.977 484.251,815.066 485.176,817.315 
  486.101,812.603 487.026,812.893 487.95,812.097 488.875,810.278 489.8,811.097 490.725,810.951 491.65,810.675 492.574,808.918 493.499,809.22 494.424,809.277 
  495.349,812.871 496.274,809.968 497.198,810.973 498.123,809.902 499.048,809.337 499.973,811.227 500.898,814.419 501.822,812.163 502.747,811.421 503.672,812.202 
  504.597,812.516 505.522,816.387 506.446,816.004 507.371,819.18 508.296,819.568 509.221,822.05 510.145,821.496 511.07,828.074 511.995,825.611 512.92,826.764 
  513.845,826.429 514.769,831.036 515.694,837.527 516.619,837.638 517.544,842.522 518.469,839.714 519.393,836.44 520.318,842.889 521.243,846.804 522.168,840.544 
  523.093,842.979 524.017,845.895 524.942,848.501 525.867,847.931 526.792,854.172 527.717,846.387 528.641,842.249 529.566,846.5 530.491,848.869 531.416,843.482 
  532.34,837.308 533.265,837.765 534.19,835.365 535.115,841.016 536.04,840.882 536.964,836.331 537.889,839.356 538.814,837.98 539.739,832.238 540.664,833.391 
  541.588,837.504 542.513,836.585 543.438,850.076 544.363,856.133 545.288,837.793 546.212,840.224 547.137,847.656 548.062,839.45 548.987,840.129 549.912,852.001 
  550.836,841.542 551.761,833.371 552.686,834.723 553.611,831.121 554.535,828.543 555.46,825.903 556.385,823.396 557.31,821.593 558.235,826.685 559.159,823.497 
  560.084,823.518 561.009,822.378 561.934,826.721 562.859,819.339 563.783,820.353 564.708,823.733 565.633,822.987 566.558,829.913 567.483,819.444 568.407,834.054 
  569.332,830.816 570.257,828.846 571.182,828.406 572.107,830.755 573.031,837.398 573.956,829.216 574.881,832.113 575.806,829.127 576.73,826.775 577.655,830.8 
  578.58,826.337 579.505,823.013 580.43,819.312 581.354,818.084 582.279,819.158 583.204,816.143 584.129,813.085 585.054,816.971 585.978,809.935 586.903,811.982 
  587.828,810.47 588.753,808.918 589.678,810.602 590.602,808.909 591.527,806.059 592.452,809.231 593.377,818.565 594.302,810.615 595.226,818.891 596.151,815.341 
  597.076,824.153 598.001,824.996 598.925,829.11 599.85,837.015 600.775,854.964 601.7,847.643 602.625,863.527 603.549,867.096 604.474,867.298 605.399,874.084 
  606.324,874.34 607.249,882.85 608.173,872.821 609.098,870.571 610.023,874.469 610.948,880.214 611.873,883.292 612.797,886.508 613.722,875.357 614.647,873.683 
  615.572,878.196 616.497,882.862 617.421,880.571 618.346,877.66 619.271,885.299 620.196,876.083 621.12,874.301 622.045,877.45 622.97,864.6 623.895,852.671 
  624.82,850.936 625.744,861.183 626.669,841.527 627.594,839.46 628.519,828.586 629.444,829.297 630.368,824.293 631.293,826.829 632.218,818.406 633.143,821.515 
  634.068,821.649 634.992,829.17 635.917,823.851 636.842,825.245 637.767,825.59 638.692,825.684 639.616,825.848 640.541,825.953 641.466,831.191 642.391,828.416 
  643.315,828.506 644.24,831.124 645.165,829.406 646.09,828.27 647.015,826.966 647.939,827.422 648.864,827.251 649.789,830.679 650.714,830.579 651.639,829.164 
  652.563,827.999 653.488,827.02 654.413,830.006 655.338,826.39 656.263,828.387 657.187,833.133 658.112,826.673 659.037,829.568 659.962,830.393 660.887,826.528 
  661.811,824.414 662.736,821.311 663.661,821.88 664.586,819.759 665.51,820.594 666.435,822.512 667.36,820.756 668.285,817.925 669.21,822.05 670.134,819.205 
  671.059,816.9 671.984,817.375 672.909,824.402 673.834,818.726 674.758,825.182 675.683,826.446 676.608,821.31 677.533,822.289 678.458,819.567 679.382,825.214 
  680.307,832.87 681.232,822.245 682.157,834.06 683.082,822.817 684.006,829.902 684.931,832.981 685.856,829.769 686.781,824.331 687.705,829.578 688.63,824.339 
  689.555,830.298 690.48,827.811 691.405,822.757 692.329,827.622 693.254,822.281 694.179,820.823 695.104,820.889 696.029,821.12 696.953,826.042 697.878,822.879 
  698.803,821.856 699.728,818.159 700.653,822.157 701.577,824.46 702.502,821.877 703.427,823.132 704.352,820.323 705.277,820.302 706.201,815.131 707.126,812.973 
  708.051,813.701 708.976,818.74 709.901,815.049 710.825,812.856 711.75,818.561 712.675,815.832 713.6,815.643 714.524,815.072 715.449,815.676 716.374,818.756 
  717.299,819.896 718.224,818.326 719.148,818.852 720.073,821.336 720.998,818.34 721.923,814.124 722.848,818.053 723.772,816.957 724.697,819.14 725.622,814.861 
  726.547,815.508 727.472,814.571 728.396,814.537 729.321,814.579 730.246,816.216 731.171,812.496 732.096,815.538 733.02,813.751 733.945,814.988 734.87,820.684 
  735.795,818.204 736.719,822.174 737.644,822.67 738.569,823.135 739.494,828.309 740.419,828.341 741.343,829.375 742.268,832.49 743.193,833.835 744.118,837.949 
  745.043,836.445 745.967,834.091 746.892,835.93 747.817,832.195 748.742,829.223 749.667,824.952 750.591,823.819 751.516,824.499 752.441,819.934 753.366,816.332 
  754.291,812.829 755.215,814.902 756.14,810.03 757.065,810.51 757.99,808.741 758.914,807.897 759.839,808.043 760.764,808.514 761.689,808.095 762.614,807.192 
  763.538,808.104 764.463,808.832 765.388,810.351 766.313,810.415 767.238,812.661 768.162,814.687 769.087,816.418 770.012,820.081 770.937,820.245 771.862,822.475 
  772.786,823.724 773.711,825.168 774.636,825.437 775.561,824.204 776.486,827.574 777.41,825.398 778.335,824.856 779.26,825.037 780.185,819.948 781.109,822.433 
  782.034,821.243 782.959,818.033 783.884,818.939 784.809,818.627 785.733,814.884 786.658,815.031 787.583,815.18 788.508,811.744 789.433,809.996 790.357,808.781 
  791.282,803.776 792.207,805.081 793.132,800.811 794.057,795.296 794.981,793.335 795.906,791.565 796.831,786.774 797.756,783.235 798.681,787.925 799.605,783.883 
  800.53,787.976 801.455,790.031 802.38,792.834 803.304,800.232 804.229,803.399 805.154,805.047 806.079,807.907 807.004,807.229 807.928,811.274 808.853,808.294 
  809.778,810.494 810.703,810.528 811.628,808.633 812.552,811.45 813.477,810.33 814.402,813.94 815.327,814.845 816.252,813.634 817.176,813.617 818.101,814.565 
  819.026,814.227 819.951,816.547 820.876,816.428 821.8,819.369 822.725,816.687 823.65,818.65 824.575,818.969 825.499,819.035 826.424,822.302 827.349,820.263 
  828.274,819.983 829.199,820.481 830.123,822.648 831.048,833.964 831.973,832.008 832.898,826.861 833.823,832.217 834.747,826.259 835.672,833.879 836.597,834.053 
  837.522,828.497 838.447,826.159 839.371,826.292 840.296,828.817 841.221,825.815 842.146,824.219 843.071,823.901 843.995,831.688 844.92,822.623 845.845,820.236 
  846.77,826.159 847.694,816.306 848.619,819.251 849.544,823.484 850.469,818.302 851.394,815.574 852.318,811.905 853.243,812.021 854.168,815.243 855.093,809.585 
  856.018,810.783 856.942,815.072 857.867,817.451 858.792,819.287 859.717,822.976 860.642,828.828 861.566,833.256 862.491,834.825 863.416,838.064 864.341,842.78 
  865.266,847.569 866.19,843.486 867.115,847.091 868.04,848.19 868.965,842.321 869.889,842.621 870.814,841.461 871.739,837.94 872.664,836.178 873.589,829.351 
  874.513,828.838 875.438,825.209 876.363,819.648 877.288,819.568 878.213,814.215 879.137,814.087 880.062,811.809 880.987,809.469 881.912,806.536 882.837,807.393 
  883.761,808.836 884.686,806.545 885.611,807.342 886.536,806.997 887.461,812.787 888.385,811.718 889.31,808.839 890.235,805.521 891.16,810.54 892.084,808.084 
  893.009,807.469 893.934,806.707 894.859,811.281 895.784,806.327 896.708,806.202 897.633,806.452 898.558,808.76 899.483,810.78 900.408,808.437 901.332,811.213 
  902.257,813.759 903.182,817.857 904.107,815.353 905.032,816.232 905.956,822.47 906.881,826.472 907.806,824.792 908.731,825.274 909.656,827.943 910.58,829.338 
  911.505,828.488 912.43,827.178 913.355,826.656 914.279,826.62 915.204,832.108 916.129,829.34 917.054,826.424 917.979,829.836 918.903,826.027 919.828,831.234 
  920.753,827.754 921.678,826.554 922.603,826.891 923.527,832.309 924.452,826.617 925.377,833.053 926.302,833.122 927.227,835.2 928.151,848.341 929.076,841.252 
  930.001,839.314 930.926,863.482 931.851,871.569 932.775,871.926 933.7,887.07 934.625,915.359 935.55,939.083 936.474,947.479 937.399,962.172 938.324,1000.36 
  939.249,1008.5 940.174,998.128 941.098,1033.06 942.023,1023.56 942.948,1012.99 943.873,1044.4 944.798,1019.89 945.722,1023.58 946.647,1004.99 947.572,999.637 
  948.497,988.641 949.422,977.448 950.346,975 951.271,981.814 952.196,959.933 953.121,952.802 954.046,941.764 954.97,917.839 955.895,913.023 956.82,891.01 
  957.745,886.138 958.669,881.413 959.594,850.745 960.519,862.306 961.444,840.392 962.369,837.561 963.293,832.121 964.218,833.891 965.143,834.568 966.068,833.684 
  966.993,821.357 967.917,823.238 968.842,817.508 969.767,815.237 970.692,812.168 971.617,814.018 972.541,806.331 973.466,800.684 974.391,786.034 975.316,788.032 
  976.241,772.424 977.165,769.314 978.09,755.882 979.015,743.801 979.94,729.337 980.864,725.965 981.789,712.314 982.714,702.893 983.639,693.066 984.564,677.819 
  985.488,682.912 986.413,678.143 987.338,667.407 988.263,665.936 989.188,670.44 990.112,668.808 991.037,660.99 991.962,665.562 992.887,678.951 993.812,690.012 
  994.736,710.9 995.661,705.732 996.586,736.818 997.511,748.033 998.436,767.094 999.36,784.394 1000.29,787.549 1001.21,807.95 1002.13,811.256 1003.06,821.165 
  1003.98,821.196 1004.91,808.342 1005.83,799.271 1006.76,794.044 1007.68,789.526 1008.61,778.289 1009.53,770.763 1010.46,766.305 1011.38,753.859 1012.31,744.162 
  1013.23,742.109 1014.16,733.375 1015.08,723.313 1016.01,723.077 1016.93,710.361 1017.86,713.858 1018.78,699.227 1019.71,711.272 1020.63,698.939 1021.56,688.799 
  1022.48,674.379 1023.4,680.562 1024.33,657.724 1025.25,661.398 1026.18,648.509 1027.1,653.265 1028.03,648.886 1028.95,647.31 1029.88,645.079 1030.8,660.179 
  1031.73,666.287 1032.65,674.958 1033.58,696.277 1034.5,699.941 1035.43,721.356 1036.35,732.435 1037.28,751.786 1038.2,768.606 1039.13,785.92 1040.05,796.3 
  1040.98,801.957 1041.9,810.645 1042.83,809.986 1043.75,811.765 1044.68,813.497 1045.6,814.558 1046.52,815.381 1047.45,817.1 1048.37,817.118 1049.3,819.598 
  1050.22,822.909 1051.15,822.868 1052.07,819.14 1053,822.011 1053.92,821.802 1054.85,817.998 1055.77,821.906 1056.7,819.739 1057.62,818.702 1058.55,817.672 
  1059.47,814.862 1060.4,812.729 1061.32,812.817 1062.25,813.167 1063.17,810.889 1064.1,813.38 1065.02,819.019 1065.95,820.017 1066.87,815.851 1067.79,815.675 
  1068.72,814.609 1069.64,822.459 1070.57,818.087 1071.49,821.36 1072.42,813.788 1073.34,803.402 1074.27,805.018 1075.19,783.79 1076.12,783.522 1077.04,764.598 
  1077.97,753.155 1078.89,735.833 1079.82,723.13 1080.74,700.966 1081.67,685.228 1082.59,665.297 1083.52,646.695 1084.44,633.121 1085.37,635.086 1086.29,608.829 
  1087.22,606.993 1088.14,591.616 1089.07,591.519 1089.99,591.919 1090.91,590.15 1091.84,599.404 1092.76,590.714 1093.69,597.244 1094.61,601.079 1095.54,600.386 
  1096.46,602.956 1097.39,612.255 1098.31,609.8 1099.24,608.76 1100.16,617.872 1101.09,609.354 1102.01,612.567 1102.94,603.803 1103.86,595.413 1104.79,587.075 
  1105.71,601.973 1106.64,593.642 1107.56,596.96 1108.49,583.398 1109.41,595.379 1110.34,594.958 1111.26,608.588 1112.18,606.694 1113.11,610.678 1114.03,606.026 
  1114.96,621.761 1115.88,632.392 1116.81,640.747 1117.73,650.124 1118.66,649.485 1119.58,648.05 1120.51,655.821 1121.43,654.288 1122.36,649.983 1123.28,655.56 
  1124.21,640.173 1125.13,649.679 1126.06,646.116 1126.98,651.013 1127.91,636.261 1128.83,637.649 1129.76,630.234 1130.68,626.575 1131.61,634.02 1132.53,636.524 
  1133.46,629.018 1134.38,631.868 1135.3,637.602 1136.23,648.898 1137.15,650.3 1138.08,664.609 1139,672.616 1139.93,683.711 1140.85,686.173 1141.78,690.791 
  1142.7,701.92 1143.63,712.024 1144.55,718.388 1145.48,723.423 1146.4,724.576 1147.33,727.135 1148.25,731.963 1149.18,734.672 1150.1,741.446 1151.03,741.993 
  1151.95,741.43 1152.88,741.713 1153.8,744.725 1154.73,740.779 1155.65,746.347 1156.57,744.178 1157.5,750.014 1158.42,744.774 1159.35,753.662 1160.27,754.824 
  1161.2,755.812 1162.12,758.913 1163.05,768.813 1163.97,769.202 1164.9,769.289 1165.82,770.664 1166.75,774.121 1167.67,771.191 1168.6,763.92 1169.52,770.932 
  1170.45,760.07 1171.37,749.057 1172.3,742.041 1173.22,732.801 1174.15,717.669 1175.07,699.313 1176,684.146 1176.92,672.413 1177.85,669.125 1178.77,665.337 
  1179.69,653.616 1180.62,655.085 1181.54,661.777 1182.47,655.381 1183.39,657.91 1184.32,660.308 1185.24,670.146 1186.17,671.42 1187.09,664.844 1188.02,670.475 
  1188.94,674.929 1189.87,673.861 1190.79,677.455 1191.72,676.184 1192.64,671.915 1193.57,670.743 1194.49,663.275 1195.42,668.346 1196.34,651.732 1197.27,653.243 
  1198.19,642.741 1199.12,645.95 1200.04,631.749 1200.96,618.315 1201.89,596.801 1202.81,591.557 1203.74,569.261 1204.66,547.337 1205.59,516.861 1206.51,494.897 
  1207.44,466.98 1208.36,445.835 1209.29,407.229 1210.21,408.577 1211.14,411.861 1212.06,320.829 1212.99,335.603 1213.91,326.019 1214.84,271.677 1215.76,275.398 
  1216.69,300.618 1217.61,372.544 1218.54,401.84 1219.46,432.403 1220.39,399.703 1221.31,409.945 1222.24,474 1223.16,479.394 1224.08,504.382 1225.01,470.823 
  1225.93,481.982 1226.86,421.258 1227.78,488.279 1228.71,436.407 1229.63,428.604 1230.56,415.939 1231.48,442.166 1232.41,349.158 1233.33,430.922 1234.26,390.352 
  1235.18,365.363 1236.11,408.164 1237.03,345.516 1237.96,322.473 1238.88,294.188 1239.81,275.382 1240.73,316.229 1241.66,321.631 1242.58,354.136 1243.51,383.154 
  1244.43,248.995 1245.35,302.503 1246.28,348.407 1247.2,402.818 1248.13,468.663 1249.05,434.564 1249.98,446.803 1250.9,462.939 1251.83,455.603 1252.75,461.914 
  1253.68,471.011 1254.6,488.297 1255.53,482.896 1256.45,483.327 1257.38,523.506 1258.3,518.247 1259.23,534.859 1260.15,569.244 1261.08,573.478 1262,589.286 
  1262.93,599.14 1263.85,628.285 1264.78,631.116 1265.7,687.308 1266.63,644.949 1267.55,682.751 1268.47,636.873 1269.4,664.75 1270.32,657.615 1271.25,648.027 
  1272.17,664.016 1273.1,650.828 1274.02,638.784 1274.95,637.268 1275.87,611.025 1276.8,637.817 1277.72,651.803 1278.65,654.44 1279.57,625.914 1280.5,624.577 
  1281.42,629.584 1282.35,644.291 1283.27,625.318 1284.2,630.757 1285.12,625.965 1286.05,589.794 1286.97,635.448 1287.9,643.201 1288.82,658.7 1289.74,661.864 
  1290.67,658.427 1291.59,662.914 1292.52,677.549 1293.44,666.388 1294.37,680.628 1295.29,664.475 1296.22,656.446 1297.14,671.067 1298.07,674.574 1298.99,660.975 
  1299.92,650.007 1300.84,644.245 1301.77,656.59 1302.69,666.573 1303.62,652.99 1304.54,671.678 1305.47,682.874 1306.39,684.573 1307.32,676.983 1308.24,672.427 
  1309.17,676.201 1310.09,679.978 1311.02,677.712 1311.94,676.018 1312.86,675.303 1313.79,689.117 1314.71,671.761 1315.64,665.757 1316.56,664.452 1317.49,647.792 
  1318.41,652.665 1319.34,647.306 1320.26,647.218 1321.19,649.248 1322.11,644.702 1323.04,622.502 1323.96,662.403 1324.89,664.249 1325.81,664.126 1326.74,669.88 
  1327.66,653.043 1328.59,670.097 1329.51,698.539 1330.44,687.106 1331.36,711.205 1332.29,720.665 1333.21,711.435 1334.13,733.445 1335.06,736.99 1335.98,734.251 
  1336.91,721.046 1337.83,730.252 1338.76,730.498 1339.68,728.962 1340.61,708.103 1341.53,715.168 1342.46,715.443 1343.38,710.369 1344.31,699.955 1345.23,700.276 
  1346.16,697.127 1347.08,700.293 1348.01,693.048 1348.93,698.751 1349.86,710.905 1350.78,700.862 1351.71,710.587 1352.63,710.65 1353.56,713.366 1354.48,715.959 
  1355.41,717.442 1356.33,720.774 1357.25,717.159 1358.18,717.859 1359.1,730.091 1360.03,730.293 1360.95,736.444 1361.88,733.399 1362.8,744.59 1363.73,753.161 
  1364.65,750.453 1365.58,755.324 1366.5,759.85 1367.43,767.86 1368.35,775.222 1369.28,778.239 1370.2,783.254 1371.13,784.159 1372.05,789.347 1372.98,796.374 
  1373.9,797.9 1374.83,798.769 1375.75,800.85 1376.68,802.989 1377.6,800.692 1378.52,799.976 1379.45,794.944 1380.37,797.724 1381.3,796.62 1382.22,791.319 
  1383.15,792.016 1384.07,781.649 1385,779.245 1385.92,771.388 1386.85,766.953 1387.77,756.107 1388.7,750.667 1389.62,752.222 1390.55,746.725 1391.47,733.64 
  1392.4,744.244 1393.32,742.287 1394.25,734.158 1395.17,734.523 1396.1,732.344 1397.02,727.816 1397.95,724.755 1398.87,729.448 1399.8,729.88 1400.72,725.314 
  1401.64,734.744 1402.57,727.956 1403.49,736.766 1404.42,737.655 1405.34,739.304 1406.27,738.723 1407.19,733.816 1408.12,738.11 1409.04,737.72 1409.97,742.451 
  1410.89,745.7 1411.82,746.456 1412.74,745.063 1413.67,742.247 1414.59,737.653 1415.52,744.395 1416.44,745.459 1417.37,731.532 1418.29,733.054 1419.22,735.707 
  1420.14,738.823 1421.07,731.411 1421.99,732.35 1422.91,727.649 1423.84,734.838 1424.76,728.308 1425.69,723.518 1426.61,722.664 1427.54,725.695 1428.46,724.346 
  1429.39,725.422 1430.31,717.348 1431.24,717.85 1432.16,716.94 1433.09,719.017 1434.01,710.894 1434.94,704.747 1435.86,698.798 1436.79,710.34 1437.71,709.321 
  1438.64,710.11 1439.56,724.263 1440.49,729.779 1441.41,742.166 1442.34,741.49 1443.26,746.692 1444.19,759.752 1445.11,767.822 1446.03,771.994 1446.96,775.327 
  1447.88,784.876 1448.81,790.037 1449.73,795.906 1450.66,799.039 1451.58,800.692 1452.51,802.295 1453.43,808.083 1454.36,808.763 1455.28,806.391 1456.21,809.213 
  1457.13,812.064 1458.06,814.472 1458.98,808.529 1459.91,811.19 1460.83,807.73 1461.76,805.028 1462.68,797.717 1463.61,792.193 1464.53,789.97 1465.46,789.037 
  1466.38,773.226 1467.3,765.47 1468.23,767.38 1469.15,765.078 1470.08,760.982 1471,755.067 1471.93,753.174 1472.85,758.665 1473.78,762.499 1474.7,760.2 
  1475.63,771.443 1476.55,773.433 1477.48,767.931 1478.4,769.229 1479.33,768.041 1480.25,770.294 1481.18,770.485 1482.1,776.016 1483.03,770.318 1483.95,765.006 
  1484.88,756.344 1485.8,749.613 1486.73,728.389 1487.65,721.743 1488.58,717.414 1489.5,717.03 1490.42,706.964 1491.35,705.998 1492.27,712.111 1493.2,720.882 
  1494.12,726.948 1495.05,740.913 1495.97,743.856 1496.9,754.483 1497.82,766.091 1498.75,778.805 1499.67,786.94 1500.6,795.777 1501.52,804.192 1502.45,813.314 
  1503.37,821.886 1504.3,829.094 1505.22,838.386 1506.15,841.851 1507.07,850.256 1508,857.49 1508.92,862.956 1509.85,867.385 1510.77,869.723 1511.69,876.11 
  1512.62,877.639 1513.54,881.184 1514.47,883.442 1515.39,884.222 1516.32,884.947 1517.24,887.562 1518.17,883.896 1519.09,883.784 1520.02,882.951 1520.94,881.15 
  1521.87,879.377 1522.79,875.977 1523.72,872.138 1524.64,867.461 1525.57,863.595 1526.49,853.082 1527.42,849.142 1528.34,838.196 1529.27,832.165 1530.19,821.236 
  1531.12,817.142 1532.04,810.796 1532.97,801.592 1533.89,799.331 1534.81,794.097 1535.74,793.607 1536.66,786.381 1537.59,790.374 1538.51,791.766 1539.44,788.917 
  1540.36,787.768 1541.29,790.248 1542.21,778.48 1543.14,784.645 1544.06,787.358 1544.99,780.05 1545.91,783.868 1546.84,776.233 1547.76,776.727 1548.69,779.806 
  1549.61,775.481 1550.54,780.896 1551.46,776.349 1552.39,776.811 1553.31,779.715 1554.24,780.255 1555.16,783.713 1556.08,787.69 1557.01,794.457 1557.93,793.694 
  1558.86,805.194 1559.78,803.049 1560.71,811.483 1561.63,813.287 1562.56,815.903 1563.48,822.497 1564.41,827.03 1565.33,829.674 1566.26,821.683 1567.18,825.963 
  1568.11,826.358 1569.03,827.773 1569.96,822.275 1570.88,823.032 1571.81,823.914 1572.73,815.887 1573.66,813.242 1574.58,810.339 1575.51,810.892 1576.43,805.572 
  1577.36,803.239 1578.28,798.873 1579.2,799.39 1580.13,797.335 1581.05,792.098 1581.98,789.844 1582.9,786.571 1583.83,784.969 1584.75,782.611 1585.68,781.866 
  1586.6,772.476 1587.53,771.887 1588.45,774.713 1589.38,771.674 1590.3,769.473 1591.23,768.165 1592.15,776.927 1593.08,777.207 1594,778.701 1594.93,780.919 
  1595.85,782.72 1596.78,784.531 1597.7,790.346 1598.63,789.08 1599.55,791.91 1600.47,792.62 1601.4,792.104 1602.32,786.633 1603.25,786.567 1604.17,788.295 
  1605.1,782.088 1606.02,776.141 1606.95,772.285 1607.87,766.395 1608.8,751.684 1609.72,746.732 1610.65,739.978 1611.57,709.199 1612.5,706.893 1613.42,671.362 
  1614.35,693.964 1615.27,666.729 1616.2,643.605 1617.12,649.212 1618.05,657.941 1618.97,654.274 1619.9,667.667 1620.82,675.379 1621.75,656.858 1622.67,649.374 
  1623.59,678.376 1624.52,678.437 1625.44,697.122 1626.37,699.842 1627.29,703.889 1628.22,711.781 1629.14,717.19 1630.07,736.898 1630.99,724.802 1631.92,729.145 
  1632.84,735.607 1633.77,743.229 1634.69,752.787 1635.62,757.861 1636.54,750.104 1637.47,758.386 1638.39,753.571 1639.32,762.303 1640.24,766.117 1641.17,768.228 
  1642.09,773.166 1643.02,772.315 1643.94,772.854 1644.86,774.896 1645.79,776.751 1646.71,781.546 1647.64,784.337 1648.56,780.113 1649.49,783.422 1650.41,786.035 
  1651.34,781.863 1652.26,781.686 1653.19,780.637 1654.11,777.901 1655.04,777.449 1655.96,777.006 1656.89,775.31 1657.81,768.748 1658.74,766.736 1659.66,764.275 
  1660.59,765.25 1661.51,759.266 1662.44,757.157 1663.36,753.83 1664.29,756.909 1665.21,753.101 1666.14,756.759 1667.06,757.278 1667.98,758.078 1668.91,760.749 
  1669.83,763.608 1670.76,769.997 1671.68,771.839 1672.61,776.707 1673.53,779.804 1674.46,784.091 1675.38,788.48 1676.31,788.278 1677.23,792.54 1678.16,791.877 
  1679.08,796.222 1680.01,794.088 1680.93,793.804 1681.86,793.576 1682.78,794.909 1683.71,793.391 1684.63,792.849 1685.56,794.492 1686.48,787.915 1687.41,791.314 
  1688.33,787.016 1689.25,787.97 1690.18,786.437 1691.1,779.555 1692.03,781.935 1692.95,779.508 1693.88,773.915 1694.8,775.963 1695.73,774.182 1696.65,771.815 
  1697.58,770.919 1698.5,771.613 1699.43,769.266 1700.35,771.939 1701.28,772.883 1702.2,773.399 1703.13,772.92 1704.05,774.211 1704.98,776.015 1705.9,778.344 
  1706.83,780.778 1707.75,780.033 1708.68,778.713 1709.6,783.357 1710.53,782.141 1711.45,788.35 1712.37,783.425 1713.3,786.555 1714.22,788.366 1715.15,786.776 
  1716.07,786.623 1717,788.292 1717.92,785.041 1718.85,783.962 1719.77,783.561 1720.7,786.918 1721.62,782.213 1722.55,787.802 1723.47,781.334 1724.4,784.502 
  1725.32,784.405 1726.25,785.578 1727.17,786.766 1728.1,789.414 1729.02,787.594 1729.95,791.907 1730.87,793.788 1731.8,793.412 1732.72,795.931 1733.64,797.148 
  1734.57,794.794 1735.49,799.68 1736.42,798.908 1737.34,799.345 1738.27,801.058 1739.19,801.053 1740.12,799.963 1741.04,800.406 1741.97,802.096 1742.89,801.593 
  1743.82,801.639 1744.74,800.589 1745.67,800.665 1746.59,799.17 1747.52,798.48 1748.44,796.665 1749.37,796.291 1750.29,796.277 1751.22,794.309 1752.14,791.125 
  1753.07,788.048 1753.99,787.397 1754.92,780.772 1755.84,774.907 1756.76,768.984 1757.69,764.293 1758.61,756.468 1759.54,746.685 1760.46,749.499 1761.39,735.179 
  1762.31,727.04 1763.24,729.424 1764.16,715.391 1765.09,714.372 1766.01,709.761 1766.94,720.444 1767.86,712.911 1768.79,712.809 1769.71,717.698 1770.64,725.875 
  1771.56,729.662 1772.49,727.469 1773.41,739.57 1774.34,738.343 1775.26,732.997 1776.19,736.729 1777.11,742.433 1778.03,743.033 1778.96,745.858 1779.88,739.636 
  1780.81,745.35 1781.73,739.914 1782.66,739.791 1783.58,733.694 1784.51,727.442 1785.43,723.03 1786.36,724.526 1787.28,705.041 1788.21,688.344 1789.13,693.894 
  1790.06,682.911 1790.98,673.137 1791.91,667.065 1792.83,665.144 1793.76,658.281 1794.68,668.986 1795.61,664.339 1796.53,659.767 1797.46,666.327 1798.38,665.792 
  1799.31,669.666 1800.23,672.257 1801.15,668.978 1802.08,665.598 1803,676.203 1803.93,672.094 1804.85,671.584 1805.78,679.376 1806.7,675.997 1807.63,663.852 
  1808.55,664.212 1809.48,659.742 1810.4,661.78 1811.33,651.475 1812.25,647.59 1813.18,645.257 1814.1,641.646 1815.03,639.546 1815.95,618.043 1816.88,616.029 
  1817.8,610.596 1818.73,614.45 1819.65,612.703 1820.58,583.668 1821.5,589.988 1822.43,579.73 1823.35,588.19 1824.27,580.62 1825.2,606.448 1826.12,626.251 
  1827.05,627.895 1827.97,651.751 1828.9,664.473 1829.82,651.925 1830.75,679.502 1831.67,669.459 1832.6,673.521 1833.52,686.926 1834.45,689.661 1835.37,674.254 
  1836.3,694.1 1837.22,696.815 1838.15,686.326 1839.07,681.748 1840,696.9 1840.92,683.894 1841.85,691.618 1842.77,699.83 1843.7,700.365 1844.62,706.603 
  1845.54,702.802 1846.47,704.681 1847.39,702.666 1848.32,700.685 1849.24,693.69 1850.17,688.027 1851.09,696.064 1852.02,690.772 1852.94,678.153 1853.87,681.329 
  1854.79,681.621 1855.72,679.169 1856.64,657.072 1857.57,668.011 1858.49,668.887 1859.42,683.827 1860.34,673.582 1861.27,694.49 1862.19,703.479 1863.12,709.926 
  1864.04,702.02 1864.97,711.587 1865.89,717.069 1866.82,726.097 1867.74,730.924 1868.66,733.644 1869.59,751.129 1870.51,745.453 1871.44,754.538 1872.36,759.22 
  1873.29,762.317 1874.21,766.215 1875.14,768.027 1876.06,773.68 1876.99,770.16 1877.91,776.527 1878.84,772.686 1879.76,775.866 1880.69,772.115 1881.61,766.233 
  1882.54,767.092 1883.46,761.241 1884.39,758.81 1885.31,754.624 1886.24,751.34 1887.16,748.147 1888.09,745.17 1889.01,743.95 1889.93,743.574 1890.86,740.25 
  1891.78,747.839 1892.71,751.521 1893.63,748.185 1894.56,749.801 1895.48,753.726 1896.41,747.139 1897.33,749.61 1898.26,750.01 1899.18,747.701 1900.11,740.989 
  1901.03,739.15 1901.96,739.555 
  "/>
</svg>
