<?xml version="1.0" encoding="utf-8"?>
<svg xmlns="http://www.w3.org/2000/svg" xmlns:xlink="http://www.w3.org/1999/xlink" width="500" height="400" viewBox="0 0 2000 1600">
<defs>
  <clipPath id="clip7900">
    <rect x="0" y="0" width="2000" height="1600"/>
  </clipPath>
</defs>
<path clip-path="url(#clip7900)" d="
M0 1600 L2000 1600 L2000 0 L0 0  Z
  " fill="#ffffff" fill-rule="evenodd" fill-opacity="1"/>
<defs>
  <clipPath id="clip7901">
    <rect x="400" y="0" width="1401" height="1401"/>
  </clipPath>
</defs>
<path clip-path="url(#clip7900)" d="
M137.865 1480.77 L1952.76 1480.77 L1952.76 133.412 L137.865 133.412  Z
  " fill="#ffffff" fill-rule="evenodd" fill-opacity="1"/>
<defs>
  <clipPath id="clip7902">
    <rect x="137" y="133" width="1816" height="1348"/>
  </clipPath>
</defs>
<polyline clip-path="url(#clip7902)" style="stroke:#000000; stroke-width:2; stroke-opacity:0.1; fill:none" points="
  188.294,1480.77 188.294,133.412 
  "/>
<polyline clip-path="url(#clip7902)" style="stroke:#000000; stroke-width:2; stroke-opacity:0.1; fill:none" points="
  655.843,1480.77 655.843,133.412 
  "/>
<polyline clip-path="url(#clip7902)" style="stroke:#000000; stroke-width:2; stroke-opacity:0.1; fill:none" points="
  1123.39,1480.77 1123.39,133.412 
  "/>
<polyline clip-path="url(#clip7902)" style="stroke:#000000; stroke-width:2; stroke-opacity:0.1; fill:none" points="
  1590.94,1480.77 1590.94,133.412 
  "/>
<polyline clip-path="url(#clip7902)" style="stroke:#000000; stroke-width:2; stroke-opacity:0.1; fill:none" points="
  137.865,1442.64 1952.76,1442.64 
  "/>
<polyline clip-path="url(#clip7902)" style="stroke:#000000; stroke-width:2; stroke-opacity:0.1; fill:none" points="
  137.865,1124.86 1952.76,1124.86 
  "/>
<polyline clip-path="url(#clip7902)" style="stroke:#000000; stroke-width:2; stroke-opacity:0.1; fill:none" points="
  137.865,807.09 1952.76,807.09 
  "/>
<polyline clip-path="url(#clip7902)" style="stroke:#000000; stroke-width:2; stroke-opacity:0.1; fill:none" points="
  137.865,489.317 1952.76,489.317 
  "/>
<polyline clip-path="url(#clip7902)" style="stroke:#000000; stroke-width:2; stroke-opacity:0.1; fill:none" points="
  137.865,171.544 1952.76,171.544 
  "/>
<polyline clip-path="url(#clip7900)" style="stroke:#000000; stroke-width:4; stroke-opacity:1; fill:none" points="
  137.865,1480.77 1952.76,1480.77 
  "/>
<polyline clip-path="url(#clip7900)" style="stroke:#000000; stroke-width:4; stroke-opacity:1; fill:none" points="
  137.865,1480.77 137.865,133.412 
  "/>
<polyline clip-path="url(#clip7900)" style="stroke:#000000; stroke-width:4; stroke-opacity:1; fill:none" points="
  188.294,1480.77 188.294,1464.6 
  "/>
<polyline clip-path="url(#clip7900)" style="stroke:#000000; stroke-width:4; stroke-opacity:1; fill:none" points="
  655.843,1480.77 655.843,1464.6 
  "/>
<polyline clip-path="url(#clip7900)" style="stroke:#000000; stroke-width:4; stroke-opacity:1; fill:none" points="
  1123.39,1480.77 1123.39,1464.6 
  "/>
<polyline clip-path="url(#clip7900)" style="stroke:#000000; stroke-width:4; stroke-opacity:1; fill:none" points="
  1590.94,1480.77 1590.94,1464.6 
  "/>
<polyline clip-path="url(#clip7900)" style="stroke:#000000; stroke-width:4; stroke-opacity:1; fill:none" points="
  137.865,1442.64 159.643,1442.64 
  "/>
<polyline clip-path="url(#clip7900)" style="stroke:#000000; stroke-width:4; stroke-opacity:1; fill:none" points="
  137.865,1124.86 159.643,1124.86 
  "/>
<polyline clip-path="url(#clip7900)" style="stroke:#000000; stroke-width:4; stroke-opacity:1; fill:none" points="
  137.865,807.09 159.643,807.09 
  "/>
<polyline clip-path="url(#clip7900)" style="stroke:#000000; stroke-width:4; stroke-opacity:1; fill:none" points="
  137.865,489.317 159.643,489.317 
  "/>
<polyline clip-path="url(#clip7900)" style="stroke:#000000; stroke-width:4; stroke-opacity:1; fill:none" points="
  137.865,171.544 159.643,171.544 
  "/>
<g clip-path="url(#clip7900)">
<text style="fill:#000000; fill-opacity:1; font-family:Arial,Helvetica Neue,Helvetica,sans-serif; font-size:48px; text-anchor:middle;" transform="rotate(0, 188.294, 1532.77)" x="188.294" y="1532.77">0</text>
</g>
<g clip-path="url(#clip7900)">
<text style="fill:#000000; fill-opacity:1; font-family:Arial,Helvetica Neue,Helvetica,sans-serif; font-size:48px; text-anchor:middle;" transform="rotate(0, 655.843, 1532.77)" x="655.843" y="1532.77">500</text>
</g>
<g clip-path="url(#clip7900)">
<text style="fill:#000000; fill-opacity:1; font-family:Arial,Helvetica Neue,Helvetica,sans-serif; font-size:48px; text-anchor:middle;" transform="rotate(0, 1123.39, 1532.77)" x="1123.39" y="1532.77">1000</text>
</g>
<g clip-path="url(#clip7900)">
<text style="fill:#000000; fill-opacity:1; font-family:Arial,Helvetica Neue,Helvetica,sans-serif; font-size:48px; text-anchor:middle;" transform="rotate(0, 1590.94, 1532.77)" x="1590.94" y="1532.77">1500</text>
</g>
<g clip-path="url(#clip7900)">
<text style="fill:#000000; fill-opacity:1; font-family:Arial,Helvetica Neue,Helvetica,sans-serif; font-size:48px; text-anchor:end;" transform="rotate(0, 117.865, 1460.14)" x="117.865" y="1460.14">-4</text>
</g>
<g clip-path="url(#clip7900)">
<text style="fill:#000000; fill-opacity:1; font-family:Arial,Helvetica Neue,Helvetica,sans-serif; font-size:48px; text-anchor:end;" transform="rotate(0, 117.865, 1142.36)" x="117.865" y="1142.36">-2</text>
</g>
<g clip-path="url(#clip7900)">
<text style="fill:#000000; fill-opacity:1; font-family:Arial,Helvetica Neue,Helvetica,sans-serif; font-size:48px; text-anchor:end;" transform="rotate(0, 117.865, 824.59)" x="117.865" y="824.59">0</text>
</g>
<g clip-path="url(#clip7900)">
<text style="fill:#000000; fill-opacity:1; font-family:Arial,Helvetica Neue,Helvetica,sans-serif; font-size:48px; text-anchor:end;" transform="rotate(0, 117.865, 506.817)" x="117.865" y="506.817">2</text>
</g>
<g clip-path="url(#clip7900)">
<text style="fill:#000000; fill-opacity:1; font-family:Arial,Helvetica Neue,Helvetica,sans-serif; font-size:48px; text-anchor:end;" transform="rotate(0, 117.865, 189.044)" x="117.865" y="189.044">4</text>
</g>
<polyline clip-path="url(#clip7902)" style="stroke:#000000; stroke-width:4; stroke-opacity:1; fill:none" points="
  137.865,133.412 1952.76,133.412 
  "/>
<polyline clip-path="url(#clip7902)" style="stroke:#000000; stroke-width:4; stroke-opacity:1; fill:none" points="
  1952.76,1480.77 1952.76,133.412 
  "/>
<g clip-path="url(#clip7900)">
<text style="fill:#000000; fill-opacity:1; font-family:Arial,Helvetica Neue,Helvetica,sans-serif; font-size:84px; text-anchor:middle;" transform="rotate(0, 1045.31, 73.2)" x="1045.31" y="73.2">Directional NET for variable 3</text>
</g>
<path clip-path="url(#clip7902)" d="
M189.229 893.079 L190.164 897.511 L191.1 876.005 L192.035 888.997 L192.97 860.482 L193.905 865.355 L194.84 863.151 L195.775 859.856 L196.71 875.081 L197.645 858.266 
  L198.58 855.35 L199.515 863.248 L200.451 850.888 L201.386 852.255 L202.321 845.605 L203.256 848.3 L204.191 853.257 L205.126 851.665 L206.061 853.251 L206.996 847.174 
  L207.931 870.004 L208.866 845.651 L209.802 850.221 L210.737 897.535 L211.672 867.017 L212.607 856.19 L213.542 855.328 L214.477 872.216 L215.412 858.186 L216.347 874.193 
  L217.282 852.465 L218.217 873.256 L219.152 877.299 L220.088 866.243 L221.023 847.694 L221.958 860.531 L222.893 872.902 L223.828 851.177 L224.763 861.303 L225.698 848.255 
  L226.633 869.568 L227.568 864.043 L228.503 860.727 L229.439 869.222 L230.374 867.694 L231.309 864.731 L232.244 854.462 L233.179 854.888 L234.114 854.507 L235.049 860.909 
  L235.984 875.364 L236.919 869.327 L237.854 867.226 L238.79 899.163 L239.725 891.549 L240.66 930.289 L241.595 931.049 L242.53 917.909 L243.465 926.598 L244.4 988.357 
  L245.335 919.086 L246.27 978.935 L247.205 956.765 L248.14 923.742 L249.076 947.88 L250.011 933.09 L250.946 927.584 L251.881 1013.71 L252.816 952.68 L253.751 982.313 
  L254.686 1101.44 L255.621 1120.68 L256.556 1145.81 L257.491 1089.11 L258.427 1031.66 L259.362 1119.95 L260.297 1059.29 L261.232 1044.07 L262.167 1104.93 L263.102 1022.35 
  L264.037 1008.11 L264.972 1009.34 L265.907 1048.56 L266.842 1053.79 L267.778 1028.81 L268.713 1020.28 L269.648 1057.07 L270.583 1017.37 L271.518 1027.85 L272.453 1055.8 
  L273.388 1071.25 L274.323 1042.23 L275.258 1010.58 L276.193 1053.03 L277.128 1070.69 L278.064 1018.55 L278.999 1003.06 L279.934 1124.21 L280.869 1079.51 L281.804 1101.44 
  L282.739 1037.16 L283.674 998.272 L284.609 1123.15 L285.544 1076.91 L286.479 1067.47 L287.415 1056.65 L288.35 993.207 L289.285 1104.79 L290.22 1028.83 L291.155 1030.4 
  L292.09 974.38 L293.025 951.244 L293.96 900.063 L294.895 939.763 L295.83 933.015 L296.765 925.129 L297.701 927.757 L298.636 954.757 L299.571 894.442 L300.506 916.842 
  L301.441 892.658 L302.376 882.422 L303.311 901.545 L304.246 903.937 L305.181 898.732 L306.116 878.999 L307.052 924.803 L307.987 913.464 L308.922 907.013 L309.857 940.324 
  L310.792 893.625 L311.727 901.482 L312.662 902.244 L313.597 922.43 L314.532 893.123 L315.467 911.485 L316.403 914.874 L317.338 901.872 L318.273 881.497 L319.208 904.88 
  L320.143 893.553 L321.078 907.199 L322.013 899.496 L322.948 912.946 L323.883 939.554 L324.818 964.944 L325.753 1074.4 L326.689 1120.67 L327.624 1202.05 L328.559 1096.25 
  L329.494 1220.7 L330.429 1237.21 L331.364 1202.31 L332.299 1156.19 L333.234 1151.7 L334.169 1168.34 L335.104 1222.86 L336.04 1343.64 L336.975 1306.26 L337.91 1173.84 
  L338.845 1217.21 L339.78 1188.53 L340.715 1146.08 L341.65 1210.15 L342.585 1039.52 L343.52 1071.6 L344.455 1026.21 L345.391 1013.93 L346.326 967.669 L347.261 935.501 
  L348.196 927.221 L349.131 910.857 L350.066 910.92 L351.001 903.885 L351.936 901.919 L352.871 887.278 L353.806 889.558 L354.741 889.846 L355.677 940.236 L356.612 883.49 
  L357.547 895.156 L358.482 904.288 L359.417 920.039 L360.352 876.212 L361.287 876.895 L362.222 886.722 L363.157 887.688 L364.092 886.105 L365.028 888.516 L365.963 871.131 
  L366.898 872.498 L367.833 858.914 L368.768 873.95 L369.703 859.557 L370.638 861.658 L371.573 870.904 L372.508 872.362 L373.443 866.883 L374.379 851.577 L375.314 887.315 
  L376.249 854.343 L377.184 855.09 L378.119 867.144 L379.054 860.285 L379.989 850.711 L380.924 875.095 L381.859 849.604 L382.794 851.229 L383.729 845.2 L384.665 842.802 
  L385.6 841.797 L386.535 854.635 L387.47 844.257 L388.405 855.602 L389.34 871.49 L390.275 855.55 L391.21 854.411 L392.145 882.285 L393.08 872.394 L394.016 889.554 
  L394.951 879.965 L395.886 892.203 L396.821 921.804 L397.756 895.496 L398.691 904.209 L399.626 925.296 L400.561 893.57 L401.496 886.721 L402.431 898.47 L403.366 878.081 
  L404.302 883.447 L405.237 889.553 L406.172 879.746 L407.107 880.084 L408.042 871.146 L408.977 855.809 L409.912 859.598 L410.847 873.474 L411.782 864.251 L412.717 854.97 
  L413.653 867.442 L414.588 851.325 L415.523 854.133 L416.458 850.12 L417.393 854.73 L418.328 857.342 L419.263 865.497 L420.198 880.317 L421.133 862.975 L422.068 883.731 
  L423.004 880.08 L423.939 859.141 L424.874 884.936 L425.809 893.236 L426.744 877.902 L427.679 882.442 L428.614 890.228 L429.549 902.765 L430.484 889.738 L431.419 937.564 
  L432.354 909.558 L433.29 921.222 L434.225 901.544 L435.16 966.833 L436.095 911.808 L437.03 958.336 L437.965 925.385 L438.9 934.181 L439.835 919.425 L440.77 921.332 
  L441.705 886.204 L442.641 913.945 L443.576 907.362 L444.511 913.124 L445.446 908.329 L446.381 915.163 L447.316 909.864 L448.251 944.132 L449.186 905.7 L450.121 894.012 
  L451.056 917.317 L451.992 915.474 L452.927 914.369 L453.862 912.512 L454.797 918.704 L455.732 921.836 L456.667 937.699 L457.602 905.566 L458.537 921.489 L459.472 927.149 
  L460.407 889.442 L461.342 884.673 L462.278 893.368 L463.213 862.233 L464.148 881.307 L465.083 868.86 L466.018 845.407 L466.953 850.413 L467.888 848.156 L468.823 859.139 
  L469.758 841.189 L470.693 843.291 L471.629 838.265 L472.564 839.313 L473.499 835.063 L474.434 837.667 L475.369 830.919 L476.304 832.772 L477.239 832.242 L478.174 829.267 
  L479.109 835.266 L480.044 844.687 L480.98 839.65 L481.915 836.364 L482.85 838.634 L483.785 843.331 L484.72 867.16 L485.655 837.012 L486.59 847.168 L487.525 840.599 
  L488.46 841.689 L489.395 847.968 L490.33 862.838 L491.266 874.391 L492.201 852.177 L493.136 870.921 L494.071 866.851 L495.006 867.422 L495.941 871.837 L496.876 870.386 
  L497.811 896.821 L498.746 886.154 L499.681 891.805 L500.617 890.031 L501.552 907.532 L502.487 892.47 L503.422 903.403 L504.357 899.465 L505.292 904.62 L506.227 912.346 
  L507.162 969.124 L508.097 938.066 L509.032 937.006 L509.967 946.385 L510.903 903.013 L511.838 927.027 L512.773 930.378 L513.708 976.76 L514.643 952.039 L515.578 905.068 
  L516.513 947.335 L517.448 923.379 L518.383 901.458 L519.318 988.163 L520.254 956.214 L521.189 914.453 L522.124 937.506 L523.059 918.246 L523.994 906.675 L524.929 947.115 
  L525.864 967.828 L526.799 939.659 L527.734 960.164 L528.669 983.189 L529.605 910.682 L530.54 921.632 L531.475 930.875 L532.41 988.757 L533.345 923.793 L534.28 944.558 
  L535.215 928.859 L536.15 937.802 L537.085 926.555 L538.02 895.707 L538.955 910.034 L539.891 906.104 L540.826 874.441 L541.761 885.449 L542.696 881.19 L543.631 859.074 
  L544.566 898.665 L545.501 872.219 L546.436 881.867 L547.371 859.28 L548.306 859.866 L549.242 873.655 L550.177 866.053 L551.112 879.621 L552.047 889.804 L552.982 894.544 
  L553.917 890.377 L554.852 900.963 L555.787 907.899 L556.722 892.241 L557.657 927.74 L558.593 879.115 L559.528 890.665 L560.463 877.656 L561.398 871.89 L562.333 882.941 
  L563.268 872.321 L564.203 877.282 L565.138 864.755 L566.073 864.793 L567.008 866.041 L567.943 856.63 L568.879 873.544 L569.814 855.456 L570.749 846.127 L571.684 846.993 
  L572.619 854.359 L573.554 859.22 L574.489 867.317 L575.424 850.979 L576.359 861.379 L577.294 867.328 L578.23 868.597 L579.165 870.578 L580.1 872.823 L581.035 866.044 
  L581.97 905.157 L582.905 912.017 L583.84 923.364 L584.775 943.916 L585.71 936.23 L586.645 934.063 L587.58 952.054 L588.516 952.558 L589.451 1012.55 L590.386 962.195 
  L591.321 1005.04 L592.256 961.924 L593.191 1015.93 L594.126 954.435 L595.061 969.434 L595.996 972.735 L596.931 942.222 L597.867 964.833 L598.802 991.166 L599.737 961.43 
  L600.672 957.525 L601.607 980.845 L602.542 963.86 L603.477 974.745 L604.412 972.29 L605.347 983.114 L606.282 959.037 L607.218 956.5 L608.153 957.731 L609.088 956.085 
  L610.023 981.844 L610.958 918.34 L611.893 915.756 L612.828 909.866 L613.763 895.458 L614.698 909.719 L615.633 894.842 L616.568 909.19 L617.504 868.74 L618.439 867.796 
  L619.374 876.868 L620.309 879.34 L621.244 872.164 L622.179 865.959 L623.114 875.208 L624.049 870.202 L624.984 883.844 L625.919 867.339 L626.855 876.108 L627.79 862.635 
  L628.725 876.717 L629.66 864.769 L630.595 882.178 L631.53 881.823 L632.465 884.485 L633.4 881.141 L634.335 876.428 L635.27 890.268 L636.206 873.98 L637.141 874.763 
  L638.076 879.825 L639.011 877.285 L639.946 880.4 L640.881 876.761 L641.816 885 L642.751 871.804 L643.686 867.638 L644.621 885.28 L645.556 868.266 L646.492 885.26 
  L647.427 870.45 L648.362 875.938 L649.297 870.704 L650.232 874.363 L651.167 868.746 L652.102 858.333 L653.037 884.149 L653.972 871.054 L654.907 877.317 L655.843 871.019 
  L656.778 876.296 L657.713 883.033 L658.648 867.446 L659.583 908.51 L660.518 890.326 L661.453 891.275 L662.388 920.636 L663.323 926.762 L664.258 891.163 L665.194 875.188 
  L666.129 880.85 L667.064 898.966 L667.999 909.103 L668.934 875.891 L669.869 914.678 L670.804 897.098 L671.739 926.96 L672.674 921.685 L673.609 903.027 L674.544 885.165 
  L675.48 889.503 L676.415 884.367 L677.35 874.436 L678.285 1010.31 L679.22 890.354 L680.155 895.767 L681.09 908.116 L682.025 881.597 L682.96 874.758 L683.895 874.655 
  L684.831 861.969 L685.766 874.414 L686.701 858.963 L687.636 884.413 L688.571 874.669 L689.506 871.796 L690.441 864.965 L691.376 861.31 L692.311 865.466 L693.246 874.425 
  L694.181 853.109 L695.117 861.836 L696.052 848.95 L696.987 867.466 L697.922 855.564 L698.857 867.228 L699.792 860.448 L700.727 848.204 L701.662 853.803 L702.597 857.027 
  L703.532 851.691 L704.468 852.056 L705.403 857.246 L706.338 864.594 L707.273 852.723 L708.208 852.026 L709.143 860.514 L710.078 844.255 L711.013 860.23 L711.948 857.055 
  L712.883 871.807 L713.819 853.272 L714.754 845.005 L715.689 853.435 L716.624 853.654 L717.559 851.232 L718.494 843.485 L719.429 841.805 L720.364 855.871 L721.299 862.726 
  L722.234 854.889 L723.169 863.113 L724.105 884.259 L725.04 871.059 L725.975 885.708 L726.91 891.706 L727.845 883.148 L728.78 913.261 L729.715 882.146 L730.65 894.779 
  L731.585 898.846 L732.52 890.538 L733.456 907.946 L734.391 895.658 L735.326 894.944 L736.261 871.24 L737.196 869.175 L738.131 878.031 L739.066 861.557 L740.001 854.046 
  L740.936 844.058 L741.871 842.419 L742.807 836.561 L743.742 835.992 L744.677 845.655 L745.612 835.463 L746.547 837.286 L747.482 832.578 L748.417 830.854 L749.352 833.779 
  L750.287 831.674 L751.222 836.298 L752.157 834.393 L753.093 836.838 L754.028 836.488 L754.963 841.874 L755.898 844.531 L756.833 849.742 L757.768 849.359 L758.703 855.436 
  L759.638 852.698 L760.573 855.226 L761.508 856.6 L762.444 857.644 L763.379 855.13 L764.314 857.189 L765.249 856.521 L766.184 851.366 L767.119 855.925 L768.054 852.405 
  L768.989 851.224 L769.924 848.425 L770.859 849.841 L771.795 849.918 L772.73 851.521 L773.665 847.842 L774.6 846.254 L775.535 846.6 L776.47 843.732 L777.405 839.612 
  L778.34 840.359 L779.275 841.321 L780.21 839.738 L781.145 834.916 L782.081 839.611 L783.016 836.142 L783.951 836.38 L784.886 827.2 L785.821 833.359 L786.756 835.602 
  L787.691 830.238 L788.626 837.21 L789.561 835.5 L790.496 837.369 L791.432 837.824 L792.367 834.565 L793.302 837.832 L794.237 841.159 L795.172 828.932 L796.107 832 
  L797.042 830.5 L797.977 835.999 L798.912 847.156 L799.847 849.275 L800.782 850.213 L801.718 839.631 L802.653 849.8 L803.588 844.128 L804.523 856.941 L805.458 849.622 
  L806.393 849.496 L807.328 856.429 L808.263 883.281 L809.198 852.903 L810.133 850.194 L811.069 864.11 L812.004 857.942 L812.939 856.382 L813.874 854.591 L814.809 874.778 
  L815.744 858.892 L816.679 889.787 L817.614 863.717 L818.549 884.319 L819.484 909.818 L820.42 899.288 L821.355 890.238 L822.29 918.021 L823.225 890.948 L824.16 919.381 
  L825.095 899.161 L826.03 907.532 L826.965 887.78 L827.9 909.227 L828.835 912.883 L829.77 901.416 L830.706 882.758 L831.641 876.232 L832.576 869.364 L833.511 866.923 
  L834.446 861.392 L835.381 865.912 L836.316 872.483 L837.251 857.683 L838.186 854.199 L839.121 850.482 L840.057 869.114 L840.992 855.024 L841.927 845.403 L842.862 853.951 
  L843.797 848.59 L844.732 854.654 L845.667 871.218 L846.602 867.988 L847.537 867.85 L848.472 876.584 L849.408 872.831 L850.343 886.379 L851.278 889.819 L852.213 889.627 
  L853.148 895.228 L854.083 897.379 L855.018 892.868 L855.953 893.396 L856.888 889.355 L857.823 884.034 L858.758 883.449 L859.694 880.659 L860.629 877.728 L861.564 867.297 
  L862.499 864.878 L863.434 861.404 L864.369 857.069 L865.304 853.342 L866.239 852.889 L867.174 856.878 L868.109 851.327 L869.045 846.574 L869.98 852.062 L870.915 845.43 
  L871.85 853.235 L872.785 844.939 L873.72 846.629 L874.655 847.462 L875.59 846.816 L876.525 846.837 L877.46 851.858 L878.396 851.762 L879.331 843.312 L880.266 846.277 
  L881.201 853.657 L882.136 853.753 L883.071 854.08 L884.006 854.346 L884.941 852.746 L885.876 854.742 L886.811 849.973 L887.746 850.575 L888.682 854.851 L889.617 855.954 
  L890.552 862.483 L891.487 865.572 L892.422 873.319 L893.357 880.587 L894.292 883.841 L895.227 874.371 L896.162 872.826 L897.097 873.999 L898.033 887.684 L898.968 891.864 
  L899.903 892.678 L900.838 886.157 L901.773 880.48 L902.708 879.144 L903.643 879.759 L904.578 894.253 L905.513 879.132 L906.448 887.51 L907.383 886.145 L908.319 888.334 
  L909.254 882.998 L910.189 888.498 L911.124 883.308 L912.059 892.165 L912.994 884.21 L913.929 895.208 L914.864 912.056 L915.799 899.205 L916.734 910.08 L917.67 970.639 
  L918.605 923.775 L919.54 970.578 L920.475 979.946 L921.41 1005.08 L922.345 1089.89 L923.28 1049.24 L924.215 1124.47 L925.15 1159.75 L926.085 1218.58 L927.021 1232.32 
  L927.956 1250.78 L928.891 1368.7 L929.826 1335.65 L930.761 1262.03 L931.696 1280.42 L932.631 1321 L933.566 1223.46 L934.501 1293.81 L935.436 1319.62 L936.371 1316.2 
  L937.307 1222.52 L938.242 1228.32 L939.177 1200.78 L940.112 1169.27 L941.047 1149.02 L941.982 1181.32 L942.917 1133.55 L943.852 1153.07 L944.787 1022.36 L945.722 1065.83 
  L946.658 1022.2 L947.593 1005.53 L948.528 984.399 L949.463 971.894 L950.398 953.371 L951.333 941.599 L952.268 923.556 L953.203 933.028 L954.138 919.75 L955.073 915.143 
  L956.009 897.148 L956.944 918.497 L957.879 887.512 L958.814 893.447 L959.749 885.252 L960.684 868.343 L961.619 872.667 L962.554 867.185 L963.489 858.869 L964.424 851.308 
  L965.359 852.264 L966.295 839.352 L967.23 839.917 L968.165 822.803 L969.1 829.384 L970.035 796.363 L970.97 811.048 L971.905 791.033 L972.84 798.449 L973.775 779.228 
  L974.71 764.961 L975.646 780.846 L976.581 771.812 L977.516 767.466 L978.451 787.932 L979.386 759.881 L980.321 778.23 L981.256 781.602 L982.191 767.597 L983.126 813.169 
  L984.061 817.001 L984.997 832.992 L985.932 847.56 L986.867 855.594 L987.802 895.57 L988.737 923.244 L989.672 925.358 L990.607 941.394 L991.542 938.486 L992.477 920.761 
  L993.412 906.783 L994.347 896.929 L995.283 863.291 L996.218 864.758 L997.153 862.501 L998.088 858.146 L999.023 844.346 L999.958 850.906 L1000.89 850.569 L1001.83 847.518 
  L1002.76 821.604 L1003.7 822.429 L1004.63 827.29 L1005.57 806.597 L1006.5 803.359 L1007.44 805.973 L1008.37 787.065 L1009.31 783.462 L1010.24 801.119 L1011.18 771.608 
  L1012.11 776.351 L1013.05 778.275 L1013.98 773.705 L1014.92 745.26 L1015.85 744.618 L1016.79 736.342 L1017.72 739.525 L1018.66 740.294 L1019.6 739.523 L1020.53 737.683 
  L1021.47 750.548 L1022.4 759.371 L1023.34 775.247 L1024.27 783.62 L1025.21 797.317 L1026.14 824.541 L1027.08 829.07 L1028.01 830.487 L1028.95 836.492 L1029.88 839.217 
  L1030.82 837.899 L1031.75 846.718 L1032.69 844.565 L1033.62 839.584 L1034.56 855.264 L1035.49 849.331 L1036.43 843.654 L1037.36 854.925 L1038.3 858.73 L1039.23 857.382 
  L1040.17 855.898 L1041.1 866.891 L1042.04 865.063 L1042.97 845.287 L1043.91 862.791 L1044.84 859.999 L1045.78 853.114 L1046.71 861.144 L1047.65 858.542 L1048.58 858.007 
  L1049.52 861.665 L1050.45 843.618 L1051.39 844.955 L1052.32 847.513 L1053.26 847.179 L1054.19 862.514 L1055.13 885.462 L1056.06 878.443 L1057 870.357 L1057.93 899.257 
  L1058.87 905.331 L1059.8 894.268 L1060.74 883.384 L1061.67 875.846 L1062.61 870.449 L1063.54 877.137 L1064.48 878.921 L1065.41 866.383 L1066.35 854.393 L1067.28 851.071 
  L1068.22 832.326 L1069.16 836.803 L1070.09 825.711 L1071.03 830.084 L1071.96 803.354 L1072.9 778.227 L1073.83 756.724 L1074.77 745.385 L1075.7 712.335 L1076.64 706.797 
  L1077.57 708.071 L1078.51 684.689 L1079.44 679.034 L1080.38 668.473 L1081.31 685.088 L1082.25 676.974 L1083.18 680.867 L1084.12 693.513 L1085.05 689.821 L1085.99 691.88 
  L1086.92 699.173 L1087.86 711.824 L1088.79 703.65 L1089.73 717.877 L1090.66 711.698 L1091.6 715.342 L1092.53 709.809 L1093.47 720.121 L1094.4 715.674 L1095.34 718.117 
  L1096.27 726.279 L1097.21 702.753 L1098.14 704.395 L1099.08 703.231 L1100.01 714.595 L1100.95 718.933 L1101.88 721.297 L1102.82 715.302 L1103.75 729.201 L1104.69 720.677 
  L1105.62 748.789 L1106.56 755.813 L1107.49 759.262 L1108.43 772.791 L1109.36 762.987 L1110.3 808.299 L1111.23 820.208 L1112.17 749.046 L1113.1 732.837 L1114.04 740.377 
  L1114.97 749.95 L1115.91 754.041 L1116.85 749.542 L1117.78 740.013 L1118.72 734.542 L1119.65 719.778 L1120.59 748.766 L1121.52 739.55 L1122.46 733.62 L1123.39 714.072 
  L1124.33 758.782 L1125.26 731.776 L1126.2 733.018 L1127.13 748.047 L1128.07 760.445 L1129 757.396 L1129.94 755.173 L1130.87 757.026 L1131.81 766.271 L1132.74 757.744 
  L1133.68 775.743 L1134.61 785.584 L1135.55 784.603 L1136.48 794.508 L1137.42 789.55 L1138.35 791.175 L1139.29 792.785 L1140.22 792.104 L1141.16 805.104 L1142.09 794.159 
  L1143.03 801.208 L1143.96 804.688 L1144.9 809.398 L1145.83 800.24 L1146.77 806.262 L1147.7 804.987 L1148.64 804.689 L1149.57 811.585 L1150.51 808.262 L1151.44 818.179 
  L1152.38 823.657 L1153.31 826.719 L1154.25 828.707 L1155.18 832.405 L1156.12 834.178 L1157.05 835.685 L1157.99 835.05 L1158.92 832.618 L1159.86 835.572 L1160.79 842.564 
  L1161.73 830.758 L1162.66 823.498 L1163.6 833.304 L1164.54 813.198 L1165.47 810.038 L1166.41 815.189 L1167.34 805.944 L1168.28 777.083 L1169.21 785.25 L1170.15 781.332 
  L1171.08 763.508 L1172.02 754.51 L1172.95 763.555 L1173.89 757.269 L1174.82 752.675 L1175.76 744.074 L1176.69 753.059 L1177.63 764.564 L1178.56 759.911 L1179.5 741.633 
  L1180.43 763.37 L1181.37 755.015 L1182.3 766.665 L1183.24 764.604 L1184.17 758.435 L1185.11 767.352 L1186.04 749.631 L1186.98 758.102 L1187.91 776.69 L1188.85 752.227 
  L1189.78 742.012 L1190.72 747.229 L1191.65 743.832 L1192.59 733.856 L1193.52 742.314 L1194.46 733.965 L1195.39 701.939 L1196.33 720.531 L1197.26 695.696 L1198.2 675.39 
  L1199.13 652.809 L1200.07 671.324 L1201 664.886 L1201.94 751.054 L1202.87 724.123 L1203.81 688.728 L1204.74 771.929 L1205.68 855.948 L1206.61 901.918 L1207.55 950.203 
  L1208.48 879.114 L1209.42 1366.27 L1210.35 1019.46 L1211.29 862.576 L1212.22 1198.28 L1213.16 928.152 L1214.1 864.256 L1215.03 1074.63 L1215.97 880.938 L1216.9 895.034 
  L1217.84 949.662 L1218.77 961.563 L1219.71 767.254 L1220.64 1067.36 L1221.58 941.133 L1222.51 1034 L1223.45 1182.98 L1224.38 993.491 L1225.32 922.006 L1226.25 1139.81 
  L1227.19 1201.7 L1228.12 1106.54 L1229.06 963.812 L1229.99 1081.36 L1230.93 1122.53 L1231.86 1210.37 L1232.8 1124.01 L1233.73 1252.46 L1234.67 1429.96 L1235.6 1047.55 
  L1236.54 1158.97 L1237.47 882.596 L1238.41 856.024 L1239.34 988.349 L1240.28 962.391 L1241.21 928.342 L1242.15 768.84 L1243.08 720.163 L1244.02 816.576 L1244.95 732.398 
  L1245.89 746.548 L1246.82 759.626 L1247.76 728.037 L1248.69 733.879 L1249.63 780.978 L1250.56 779.458 L1251.5 757.803 L1252.43 770.735 L1253.37 802.364 L1254.3 799.505 
  L1255.24 913.378 L1256.17 848.73 L1257.11 884.187 L1258.04 872.849 L1258.98 1009.3 L1259.91 875.157 L1260.85 881.659 L1261.79 877.967 L1262.72 886.966 L1263.66 879.674 
  L1264.59 910.185 L1265.53 868.532 L1266.46 862.497 L1267.4 826.506 L1268.33 923.615 L1269.27 917.929 L1270.2 846.41 L1271.14 829.889 L1272.07 902.266 L1273.01 911.183 
  L1273.94 842.518 L1274.88 966.142 L1275.81 910.135 L1276.75 900.64 L1277.68 896.621 L1278.62 925.98 L1279.55 913.601 L1280.49 883.568 L1281.42 894.346 L1282.36 880.883 
  L1283.29 928.304 L1284.23 890.253 L1285.16 852.83 L1286.1 859.535 L1287.03 852.635 L1287.97 889.203 L1288.9 896.904 L1289.84 867.073 L1290.77 884.841 L1291.71 840.044 
  L1292.64 841.459 L1293.58 822.032 L1294.51 810.694 L1295.45 823.9 L1296.38 854.705 L1297.32 808.606 L1298.25 808.93 L1299.19 836.53 L1300.12 830.409 L1301.06 784.984 
  L1301.99 798.295 L1302.93 797.156 L1303.86 801.687 L1304.8 796.962 L1305.73 789.9 L1306.67 801.956 L1307.6 797.088 L1308.54 798.472 L1309.47 790.449 L1310.41 794.777 
  L1311.35 809.378 L1312.28 821.183 L1313.22 825.08 L1314.15 847.945 L1315.09 850.087 L1316.02 923.7 L1316.96 844.422 L1317.89 879.534 L1318.83 854.761 L1319.76 926.648 
  L1320.7 924.151 L1321.63 899.66 L1322.57 897.384 L1323.5 863.549 L1324.44 855.74 L1325.37 849.03 L1326.31 855.056 L1327.24 865.495 L1328.18 850.15 L1329.11 874.579 
  L1330.05 883.748 L1330.98 852.948 L1331.92 861.294 L1332.85 854.095 L1333.79 857.607 L1334.72 846.697 L1335.66 848.767 L1336.59 836.884 L1337.53 843.696 L1338.46 835.953 
  L1339.4 822.896 L1340.33 813.139 L1341.27 827.957 L1342.2 812.944 L1343.14 825.234 L1344.07 811.542 L1345.01 808.537 L1345.94 815.937 L1346.88 811.028 L1347.81 812.578 
  L1348.75 814.51 L1349.68 803.522 L1350.62 810.607 L1351.55 836.54 L1352.49 815.3 L1353.42 826.942 L1354.36 827.071 L1355.29 822.552 L1356.23 825.824 L1357.16 818.059 
  L1358.1 828.198 L1359.04 812.817 L1359.97 818.896 L1360.91 822.889 L1361.84 826.024 L1362.78 827.456 L1363.71 826.721 L1364.65 830.395 L1365.58 824.43 L1366.52 831.771 
  L1367.45 835.092 L1368.39 833.338 L1369.32 839.832 L1370.26 841.148 L1371.19 838.82 L1372.13 834.948 L1373.06 837.299 L1374 834.62 L1374.93 828.43 L1375.87 831.907 
  L1376.8 828.361 L1377.74 836.402 L1378.67 838.247 L1379.61 822.486 L1380.54 818.423 L1381.48 831.598 L1382.41 820.12 L1383.35 816.198 L1384.28 819.508 L1385.22 812.506 
  L1386.15 815.062 L1387.09 808.276 L1388.02 811.498 L1388.96 816.95 L1389.89 805.746 L1390.83 832.778 L1391.76 812.289 L1392.7 821.308 L1393.63 814.67 L1394.57 812.993 
  L1395.5 828.513 L1396.44 822.43 L1397.37 814.19 L1398.31 817.217 L1399.24 817.32 L1400.18 819.304 L1401.11 816.222 L1402.05 811.349 L1402.98 819.119 L1403.92 819.616 
  L1404.85 819.396 L1405.79 821.208 L1406.73 818.227 L1407.66 815.024 L1408.6 816.736 L1409.53 813.626 L1410.47 804 L1411.4 801.218 L1412.34 801.749 L1413.27 804.914 
  L1414.21 796.781 L1415.14 801.019 L1416.08 792.544 L1417.01 793.296 L1417.95 795.3 L1418.88 788.688 L1419.82 793.924 L1420.75 793.615 L1421.69 801.009 L1422.62 792.168 
  L1423.56 783.58 L1424.49 810.6 L1425.43 799.999 L1426.36 786.48 L1427.3 799.153 L1428.23 804.415 L1429.17 798.538 L1430.1 792.211 L1431.04 787.236 L1431.97 790.999 
  L1432.91 803.404 L1433.84 791.332 L1434.78 798.591 L1435.71 802.171 L1436.65 817.111 L1437.58 816.405 L1438.52 825.089 L1439.45 820.466 L1440.39 827.984 L1441.32 833.176 
  L1442.26 838.751 L1443.19 843.35 L1444.13 844.319 L1445.06 838.429 L1446 846.67 L1446.93 864.67 L1447.87 851.179 L1448.8 849.53 L1449.74 862.899 L1450.67 854.674 
  L1451.61 859.432 L1452.54 863.613 L1453.48 861.599 L1454.41 858.262 L1455.35 863.187 L1456.29 861.556 L1457.22 857.978 L1458.16 853.336 L1459.09 844.984 L1460.03 846.294 
  L1460.96 844.638 L1461.9 833.141 L1462.83 842.23 L1463.77 839.125 L1464.7 830.815 L1465.64 824.591 L1466.57 831.123 L1467.51 828.254 L1468.44 819.971 L1469.38 831.835 
  L1470.31 824.788 L1471.25 832.283 L1472.18 828.932 L1473.12 823.592 L1474.05 837.036 L1474.99 838.436 L1475.92 836.549 L1476.86 825.542 L1477.79 853.159 L1478.73 835.212 
  L1479.66 838.706 L1480.6 827.241 L1481.53 817.863 L1482.47 826.886 L1483.4 815.904 L1484.34 807.366 L1485.27 824.515 L1486.21 801.626 L1487.14 806.889 L1488.08 801.39 
  L1489.01 807.577 L1489.95 815.211 L1490.88 817.731 L1491.82 816.593 L1492.75 821.332 L1493.69 829.347 L1494.62 835.453 L1495.56 841.12 L1496.49 848.289 L1497.43 854.443 
  L1498.36 858.795 L1499.3 866.504 L1500.23 874.319 L1501.17 880.146 L1502.1 883.146 L1503.04 894.792 L1503.98 897.302 L1504.91 898.721 L1505.85 904.39 L1506.78 904.243 
  L1507.72 912.016 L1508.65 909.787 L1509.59 914.582 L1510.52 915.259 L1511.46 917.337 L1512.39 919.706 L1513.33 913.318 L1514.26 914.335 L1515.2 921.043 L1516.13 914.261 
  L1517.07 912.834 L1518 915.404 L1518.94 909.535 L1519.87 908.419 L1520.81 903.159 L1521.74 903.8 L1522.68 901.641 L1523.61 888.353 L1524.55 883.844 L1525.48 877.879 
  L1526.42 869.168 L1527.35 860.881 L1528.29 851.42 L1529.22 850.927 L1530.16 846.686 L1531.09 844.16 L1532.03 840.373 L1532.96 841.391 L1533.9 842.312 L1534.83 840.52 
  L1535.77 840.574 L1536.7 840.395 L1537.64 835.618 L1538.57 833.604 L1539.51 835.226 L1540.44 831.045 L1541.38 829.527 L1542.31 834.274 L1543.25 831.352 L1544.18 831.774 
  L1545.12 830.055 L1546.05 829.067 L1546.99 832.457 L1547.92 826.618 L1548.86 836.411 L1549.79 836.012 L1550.73 835.501 L1551.66 839.937 L1552.6 856.2 L1553.54 854.915 
  L1554.47 858.318 L1555.41 851.611 L1556.34 858.207 L1557.28 867.316 L1558.21 872.038 L1559.15 888.876 L1560.08 909.248 L1561.02 900.61 L1561.95 898.262 L1562.89 905.862 
  L1563.82 887.49 L1564.76 883.584 L1565.69 893.455 L1566.63 884.423 L1567.56 872.515 L1568.5 865 L1569.43 864.753 L1570.37 850.115 L1571.3 846.051 L1572.24 840.849 
  L1573.17 833.586 L1574.11 840.515 L1575.04 834.73 L1575.98 832.68 L1576.91 835.448 L1577.85 836.243 L1578.78 833.448 L1579.72 827.048 L1580.65 832.354 L1581.59 827.197 
  L1582.52 826.434 L1583.46 826.964 L1584.39 833.324 L1585.33 847.618 L1586.26 831.187 L1587.2 836.887 L1588.13 839.466 L1589.07 837.977 L1590 837.237 L1590.94 841.153 
  L1591.87 832.527 L1592.81 829.83 L1593.74 831.066 L1594.68 835.954 L1595.61 823.65 L1596.55 825.883 L1597.48 824.629 L1598.42 827.898 L1599.35 834.861 L1600.29 828.407 
  L1601.23 837.625 L1602.16 830.113 L1603.1 857.978 L1604.03 840.875 L1604.97 852.513 L1605.9 846.061 L1606.84 857.968 L1607.77 877.828 L1608.71 867.952 L1609.64 959.449 
  L1610.58 896.776 L1611.51 865.071 L1612.45 888.808 L1613.38 864.687 L1614.32 858.066 L1615.25 891.326 L1616.19 904.785 L1617.12 858.498 L1618.06 870.431 L1618.99 918.842 
  L1619.93 920.305 L1620.86 878.282 L1621.8 863.65 L1622.73 883.498 L1623.67 854.743 L1624.6 954.257 L1625.54 873.838 L1626.47 873.885 L1627.41 848.689 L1628.34 846.341 
  L1629.28 851.537 L1630.21 854.092 L1631.15 841.609 L1632.08 836.417 L1633.02 860.43 L1633.95 861.112 L1634.89 839.876 L1635.82 849.11 L1636.76 833.807 L1637.69 846.293 
  L1638.63 855.73 L1639.56 843.639 L1640.5 844.169 L1641.43 831.92 L1642.37 825.778 L1643.3 833.003 L1644.24 832.578 L1645.17 836.774 L1646.11 825.008 L1647.04 825.259 
  L1647.98 829.709 L1648.92 831.718 L1649.85 827.281 L1650.79 829.165 L1651.72 837.998 L1652.66 831.465 L1653.59 833.864 L1654.53 840.752 L1655.46 844.004 L1656.4 830.962 
  L1657.33 848.049 L1658.27 838.537 L1659.2 840.836 L1660.14 845.582 L1661.07 841.162 L1662.01 862.044 L1662.94 868.547 L1663.88 833.593 L1664.81 835.895 L1665.75 827.103 
  L1666.68 836.147 L1667.62 839.888 L1668.55 832.524 L1669.49 833.383 L1670.42 830.944 L1671.36 829.736 L1672.29 839.161 L1673.23 835.93 L1674.16 835.853 L1675.1 827.402 
  L1676.03 829.566 L1676.97 825.48 L1677.9 829.619 L1678.84 827.57 L1679.77 828.728 L1680.71 829.913 L1681.64 826.831 L1682.58 828.96 L1683.51 827.275 L1684.45 839.421 
  L1685.38 826.804 L1686.32 829.111 L1687.25 826.973 L1688.19 834.981 L1689.12 828.683 L1690.06 839.62 L1690.99 834.605 L1691.93 833.303 L1692.86 827.394 L1693.8 827.229 
  L1694.73 828.93 L1695.67 827.274 L1696.6 831.695 L1697.54 841.638 L1698.48 832.439 L1699.41 834.819 L1700.35 833.056 L1701.28 829.692 L1702.22 831.126 L1703.15 825.661 
  L1704.09 831.73 L1705.02 825.408 L1705.96 825.979 L1706.89 824.279 L1707.83 828.598 L1708.76 820.644 L1709.7 825.347 L1710.63 834.872 L1711.57 822.972 L1712.5 823.6 
  L1713.44 827.374 L1714.37 834.714 L1715.31 828.088 L1716.24 826.85 L1717.18 823.699 L1718.11 835.116 L1719.05 822.146 L1719.98 825.693 L1720.92 827.1 L1721.85 828.908 
  L1722.79 821.162 L1723.72 826.659 L1724.66 823.879 L1725.59 829.366 L1726.53 824.033 L1727.46 825.226 L1728.4 824.721 L1729.33 820.567 L1730.27 823.276 L1731.2 821.833 
  L1732.14 832.603 L1733.07 823.421 L1734.01 831.026 L1734.94 822.65 L1735.88 824.818 L1736.81 830.69 L1737.75 826.238 L1738.68 821.337 L1739.62 823.699 L1740.55 826.84 
  L1741.49 820.9 L1742.42 825.565 L1743.36 821.478 L1744.29 820.962 L1745.23 823.37 L1746.17 819.13 L1747.1 818.634 L1748.04 818.772 L1748.97 821.648 L1749.91 822.585 
  L1750.84 823.411 L1751.78 822.601 L1752.71 838.027 L1753.65 876.894 L1754.58 848.446 L1755.52 847.754 L1756.45 831.174 L1757.39 856.185 L1758.32 868.695 L1759.26 862.159 
  L1760.19 874.651 L1761.13 904.684 L1762.06 878.816 L1763 857.466 L1763.93 882.486 L1764.87 846.79 L1765.8 856.582 L1766.74 830.642 L1767.67 841.853 L1768.61 834.296 
  L1769.54 830.542 L1770.48 833.437 L1771.41 839.226 L1772.35 840.736 L1773.28 830.539 L1774.22 826.215 L1775.15 837.191 L1776.09 828.81 L1777.02 846.679 L1777.96 835.904 
  L1778.89 829.128 L1779.83 828.983 L1780.76 826.358 L1781.7 814.32 L1782.63 852.304 L1783.57 805.053 L1784.5 805.582 L1785.44 805.803 L1786.37 792.511 L1787.31 779.069 
  L1788.24 754.649 L1789.18 755.669 L1790.11 753.447 L1791.05 753.015 L1791.98 758.042 L1792.92 755.618 L1793.85 778.392 L1794.79 746.021 L1795.73 761.604 L1796.66 790.88 
  L1797.6 781.203 L1798.53 769.456 L1799.47 792.465 L1800.4 792.345 L1801.34 782.311 L1802.27 797.046 L1803.21 808.634 L1804.14 800.04 L1805.08 790.068 L1806.01 804.2 
  L1806.95 763.266 L1807.88 788.729 L1808.82 790.961 L1809.75 770.938 L1810.69 777.66 L1811.62 772.223 L1812.56 774.816 L1813.49 776.666 L1814.43 758.077 L1815.36 770.171 
  L1816.3 747.261 L1817.23 735.4 L1818.17 737.897 L1819.1 721.298 L1820.04 742.82 L1820.97 756.32 L1821.91 748.594 L1822.84 753.108 L1823.78 771.071 L1824.71 816.763 
  L1825.65 774.671 L1826.58 810.886 L1827.52 798.114 L1828.45 854.543 L1829.39 817.468 L1830.32 813.243 L1831.26 801.03 L1832.19 817.166 L1833.13 795.089 L1834.06 788.764 
  L1835 802.84 L1835.93 790.144 L1836.87 805.794 L1837.8 791.435 L1838.74 798.058 L1839.67 785.642 L1840.61 787.343 L1841.54 796.644 L1842.48 789.736 L1843.42 787.929 
  L1844.35 790.359 L1845.29 789.146 L1846.22 782.022 L1847.16 809.925 L1848.09 799.99 L1849.03 791.935 L1849.96 792.284 L1850.9 800.827 L1851.83 792.965 L1852.77 803.534 
  L1853.7 822.011 L1854.64 825.785 L1855.57 820.851 L1856.51 816.017 L1857.44 873.639 L1858.38 840.204 L1859.31 824.629 L1860.25 814.727 L1861.18 839.968 L1862.12 837.175 
  L1863.05 844.915 L1863.99 816.466 L1864.92 872.593 L1865.86 836.906 L1866.79 862.876 L1867.73 840.644 L1868.66 831.602 L1869.6 885.227 L1870.53 835.293 L1871.47 856.051 
  L1872.4 854.446 L1873.34 842.493 L1874.27 838.509 L1875.21 833.526 L1876.14 847.261 L1877.08 838.238 L1878.01 843.304 L1878.95 817.955 L1879.88 831.129 L1880.82 835.917 
  L1881.75 830.601 L1882.69 838.694 L1883.62 832.696 L1884.56 839.28 L1885.49 825.046 L1886.43 828.246 L1887.36 823.947 L1888.3 824.281 L1889.23 825.028 L1890.17 816.759 
  L1891.1 813.909 L1892.04 824.083 L1892.98 827.791 L1893.91 832.441 L1894.85 823.137 L1895.78 814.512 L1896.72 818.977 L1897.65 822.122 L1898.59 823.365 L1899.52 818.798 
  L1900.46 840.063 L1901.39 820.378 L1901.39 687.187 L1900.46 652.216 L1899.52 685.857 L1898.59 692.353 L1897.65 701.708 L1896.72 709.013 L1895.78 695.061 L1894.85 696.443 
  L1893.91 678.127 L1892.98 680.875 L1892.04 689.772 L1891.1 698.64 L1890.17 688.436 L1889.23 684.683 L1888.3 680.708 L1887.36 680.537 L1886.43 696.475 L1885.49 690.803 
  L1884.56 688.646 L1883.62 706.559 L1882.69 700.989 L1881.75 735.363 L1880.82 722.615 L1879.88 736.356 L1878.95 759.664 L1878.01 714.647 L1877.08 726.055 L1876.14 704.924 
  L1875.21 726.604 L1874.27 721.671 L1873.34 699.452 L1872.4 678.328 L1871.47 670.839 L1870.53 701.546 L1869.6 637.747 L1868.66 661.453 L1867.73 654.596 L1866.79 620.56 
  L1865.86 640.025 L1864.92 591.643 L1863.99 607.81 L1863.05 569.948 L1862.12 574.325 L1861.18 598.088 L1860.25 599.989 L1859.31 592.352 L1858.38 550.209 L1857.44 489.533 
  L1856.51 576.105 L1855.57 537.945 L1854.64 532.703 L1853.7 546.227 L1852.77 559.728 L1851.83 599.007 L1850.9 595.425 L1849.96 614.397 L1849.03 626.258 L1848.09 622.123 
  L1847.16 623.106 L1846.22 646.231 L1845.29 638.321 L1844.35 656.725 L1843.42 624.386 L1842.48 627.45 L1841.54 637.293 L1840.61 637.075 L1839.67 615.007 L1838.74 602.044 
  L1837.8 599.203 L1836.87 602.848 L1835.93 611.625 L1835 581.166 L1834.06 609.774 L1833.13 606.322 L1832.19 548.414 L1831.26 575.932 L1830.32 556.287 L1829.39 543.411 
  L1828.45 457.005 L1827.52 537.26 L1826.58 500.406 L1825.65 536.917 L1824.71 417.098 L1823.78 484.884 L1822.84 484.154 L1821.91 463.73 L1820.97 448.222 L1820.04 477.232 
  L1819.1 463.183 L1818.17 472.19 L1817.23 504.803 L1816.3 518.938 L1815.36 520.629 L1814.43 524.678 L1813.49 528.242 L1812.56 528.237 L1811.62 545.655 L1810.69 556.122 
  L1809.75 568.722 L1808.82 559.571 L1807.88 562.06 L1806.95 567.957 L1806.01 556.039 L1805.08 572.864 L1804.14 559.377 L1803.21 563.023 L1802.27 580.021 L1801.34 609.672 
  L1800.4 588.772 L1799.47 588.363 L1798.53 595.806 L1797.6 590.973 L1796.66 564.029 L1795.73 588.24 L1794.79 587.3 L1793.85 574.378 L1792.92 591.362 L1791.98 591.287 
  L1791.05 605.742 L1790.11 606.457 L1789.18 614.309 L1788.24 631.185 L1787.31 626.445 L1786.37 628.178 L1785.44 627.564 L1784.5 640.306 L1783.57 662.44 L1782.63 618.443 
  L1781.7 681.319 L1780.76 674.646 L1779.83 680.266 L1778.89 672.786 L1777.96 686.351 L1777.02 659.585 L1776.09 678.936 L1775.15 663.987 L1774.22 675.872 L1773.28 668.192 
  L1772.35 644.453 L1771.41 662.401 L1770.48 649.267 L1769.54 641.305 L1768.61 639.862 L1767.67 628.301 L1766.74 643.382 L1765.8 598.941 L1764.87 593.556 L1763.93 570.174 
  L1763 598.088 L1762.06 568.837 L1761.13 549.552 L1760.19 599.107 L1759.26 622.543 L1758.32 635.483 L1757.39 661.614 L1756.45 705.86 L1755.52 691.357 L1754.58 705.683 
  L1753.65 684.462 L1752.71 731.952 L1751.78 767.58 L1750.84 774.172 L1749.91 777.86 L1748.97 780.51 L1748.04 786.309 L1747.1 790.986 L1746.17 793.827 L1745.23 787.153 
  L1744.29 795.052 L1743.36 793.799 L1742.42 792.731 L1741.49 795.623 L1740.55 791.155 L1739.62 792.763 L1738.68 795.505 L1737.75 791.704 L1736.81 782.368 L1735.88 790.889 
  L1734.94 790.98 L1734.01 785.328 L1733.07 787.066 L1732.14 773.282 L1731.2 785.167 L1730.27 780.292 L1729.33 782.432 L1728.4 778.811 L1727.46 773.549 L1726.53 775.284 
  L1725.59 761.304 L1724.66 764.594 L1723.72 758.805 L1722.79 768.939 L1721.85 750.833 L1720.92 757.211 L1719.98 756.204 L1719.05 768.6 L1718.11 749.083 L1717.18 763.9 
  L1716.24 763.404 L1715.31 761.582 L1714.37 749.842 L1713.44 766.415 L1712.5 763.741 L1711.57 771.555 L1710.63 756.202 L1709.7 768.323 L1708.76 772.081 L1707.83 754.111 
  L1706.89 762.811 L1705.96 748.508 L1705.02 756.25 L1704.09 736.988 L1703.15 744.292 L1702.22 735.013 L1701.28 735.946 L1700.35 726.595 L1699.41 725.281 L1698.48 729.992 
  L1697.54 707.689 L1696.6 730.219 L1695.67 731.481 L1694.73 728.582 L1693.8 733.999 L1692.86 725.796 L1691.93 733.587 L1690.99 731.947 L1690.06 729.652 L1689.12 754.43 
  L1688.19 750.422 L1687.25 757.51 L1686.32 759.698 L1685.38 769.867 L1684.45 754.324 L1683.51 777.152 L1682.58 775.366 L1681.64 771.576 L1680.71 774.816 L1679.77 777.156 
  L1678.84 782.636 L1677.9 774.698 L1676.97 778.38 L1676.03 771.653 L1675.1 776.67 L1674.16 761.643 L1673.23 763.987 L1672.29 745.915 L1671.36 752.351 L1670.42 740.875 
  L1669.49 728.302 L1668.55 725.775 L1667.62 705.472 L1666.68 701.16 L1665.75 717.159 L1664.81 698.139 L1663.88 702.702 L1662.94 651.755 L1662.01 655.114 L1661.07 683.006 
  L1660.14 690.22 L1659.2 693.334 L1658.27 709.079 L1657.33 704.583 L1656.4 726.3 L1655.46 711.776 L1654.53 712.866 L1653.59 737.857 L1652.66 735.958 L1651.72 735.584 
  L1650.79 745.812 L1649.85 752.532 L1648.92 750.067 L1647.98 755.884 L1647.04 760.57 L1646.11 760.413 L1645.17 737.609 L1644.24 743.145 L1643.3 746.373 L1642.37 750.345 
  L1641.43 739.723 L1640.5 711.323 L1639.56 717.296 L1638.63 698.192 L1637.69 697.658 L1636.76 708.666 L1635.82 698.57 L1634.89 712.847 L1633.95 668.611 L1633.02 680.126 
  L1632.08 689.921 L1631.15 683.669 L1630.21 658.338 L1629.28 666.288 L1628.34 641.675 L1627.41 628.702 L1626.47 600.194 L1625.54 575.594 L1624.6 500.308 L1623.67 585.783 
  L1622.73 533.611 L1621.8 564.584 L1620.86 534.347 L1619.93 432.404 L1618.99 447.537 L1618.06 494.126 L1617.12 514.249 L1616.19 405.329 L1615.25 433.092 L1614.32 494.39 
  L1613.38 478.259 L1612.45 485.237 L1611.51 535.556 L1610.58 483.25 L1609.64 416.099 L1608.71 552.98 L1607.77 591.108 L1606.84 610.896 L1605.9 665.142 L1604.97 678.929 
  L1604.03 703.579 L1603.1 701.345 L1602.16 737.379 L1601.23 745.721 L1600.29 761.13 L1599.35 760.086 L1598.42 769.001 L1597.48 773.123 L1596.55 770.302 L1595.61 775.926 
  L1594.68 755.759 L1593.74 765.783 L1592.81 765.351 L1591.87 747.687 L1590.94 734.071 L1590 735.204 L1589.07 730.36 L1588.13 726.516 L1587.2 728.654 L1586.26 734.465 
  L1585.33 708.992 L1584.39 720.498 L1583.46 737.158 L1582.52 741.312 L1581.59 742.368 L1580.65 736.08 L1579.72 756.411 L1578.78 748.338 L1577.85 752.936 L1576.91 760.352 
  L1575.98 772.992 L1575.04 769.527 L1574.11 773.272 L1573.17 787.844 L1572.24 789.752 L1571.3 779.299 L1570.37 784.634 L1569.43 780.564 L1568.5 780.561 L1567.56 777.594 
  L1566.63 778.86 L1565.69 767.701 L1564.76 778.563 L1563.82 785.705 L1562.89 767.801 L1561.95 775.964 L1561.02 774.954 L1560.08 762.05 L1559.15 768.573 L1558.21 768.765 
  L1557.28 773.19 L1556.34 773.716 L1555.41 760.309 L1554.47 748.94 L1553.54 750.21 L1552.6 738.144 L1551.66 741.367 L1550.73 747.496 L1549.79 744.902 L1548.86 742.893 
  L1547.92 757.154 L1546.99 741.695 L1546.05 745.16 L1545.12 747.933 L1544.18 743.483 L1543.25 747.653 L1542.31 738.761 L1541.38 751.819 L1540.44 755.939 L1539.51 752.62 
  L1538.57 743.864 L1537.64 761.589 L1536.7 743.506 L1535.77 747.432 L1534.83 743.372 L1533.9 754.696 L1532.96 747.919 L1532.03 754.22 L1531.09 750.686 L1530.16 769.899 
  L1529.22 764.209 L1528.29 769.988 L1527.35 762.055 L1526.42 784.543 L1525.48 783.417 L1524.55 796.036 L1523.61 804.324 L1522.68 806.308 L1521.74 821.259 L1520.81 829.348 
  L1519.87 834.441 L1518.94 843.268 L1518 846.765 L1517.07 852.57 L1516.13 855.405 L1515.2 854.447 L1514.26 864.785 L1513.33 863.356 L1512.39 860.464 L1511.46 863.082 
  L1510.52 861.065 L1509.59 859.618 L1508.65 860.095 L1507.72 859.133 L1506.78 858.09 L1505.85 850.773 L1504.91 849.367 L1503.98 837.13 L1503.04 832.889 L1502.1 825.012 
  L1501.17 816.379 L1500.23 813.96 L1499.3 806.713 L1498.36 797.921 L1497.43 786.666 L1496.49 779.995 L1495.56 763.477 L1494.62 748.52 L1493.69 729.618 L1492.75 725.481 
  L1491.82 716.886 L1490.88 688.253 L1489.95 678.911 L1489.01 677.725 L1488.08 648.075 L1487.14 652.656 L1486.21 646.2 L1485.27 613.83 L1484.34 625.188 L1483.4 642.528 
  L1482.47 655.342 L1481.53 676.661 L1480.6 689.687 L1479.66 687.238 L1478.73 709.2 L1477.79 702.721 L1476.86 731.773 L1475.92 725.742 L1474.99 723.066 L1474.05 731.259 
  L1473.12 741.582 L1472.18 728.275 L1471.25 721.905 L1470.31 715.746 L1469.38 712.024 L1468.44 723.74 L1467.51 707.321 L1466.57 695.465 L1465.64 714.138 L1464.7 700.251 
  L1463.77 700.251 L1462.83 713.237 L1461.9 728.258 L1460.96 726.942 L1460.03 736.814 L1459.09 756.538 L1458.16 758.732 L1457.22 764.324 L1456.29 758.857 L1455.35 765.661 
  L1454.41 778.11 L1453.48 781.22 L1452.54 771.499 L1451.61 779.078 L1450.67 780.842 L1449.74 772.144 L1448.8 779.335 L1447.87 769.492 L1446.93 762.988 L1446 773.283 
  L1445.06 765.874 L1444.13 754.651 L1443.19 740.948 L1442.26 744.581 L1441.32 739.117 L1440.39 741.772 L1439.45 728.555 L1438.52 704.966 L1437.58 706.178 L1436.65 691.558 
  L1435.71 705.064 L1434.78 679.771 L1433.84 673.224 L1432.91 657.574 L1431.97 653.126 L1431.04 654.012 L1430.1 637.607 L1429.17 639.884 L1428.23 637.751 L1427.3 648.749 
  L1426.36 653.286 L1425.43 657.753 L1424.49 634.007 L1423.56 666.046 L1422.62 671.232 L1421.69 661.453 L1420.75 675.253 L1419.82 689.781 L1418.88 672.179 L1417.95 680.672 
  L1417.01 684.828 L1416.08 691.666 L1415.14 692.399 L1414.21 691.823 L1413.27 686.21 L1412.34 682.824 L1411.4 697.64 L1410.47 700.435 L1409.53 694.078 L1408.6 698.196 
  L1407.66 685.966 L1406.73 692.334 L1405.79 687.076 L1404.85 686.687 L1403.92 687.757 L1402.98 691.433 L1402.05 696.397 L1401.11 688.106 L1400.18 669.022 L1399.24 674.326 
  L1398.31 670.876 L1397.37 668.649 L1396.44 649.714 L1395.5 641.643 L1394.57 678.173 L1393.63 650.614 L1392.7 653.954 L1391.76 653.465 L1390.83 635.166 L1389.89 663.525 
  L1388.96 673.826 L1388.02 662.363 L1387.09 679.752 L1386.15 672.485 L1385.22 687.423 L1384.28 686.221 L1383.35 710.615 L1382.41 707.901 L1381.48 709.13 L1380.54 735.437 
  L1379.61 736.377 L1378.67 736.361 L1377.74 746.939 L1376.8 766.866 L1375.87 757.684 L1374.93 775.982 L1374 776.434 L1373.06 780.67 L1372.13 783.671 L1371.19 777.999 
  L1370.26 776.14 L1369.32 775.96 L1368.39 776.675 L1367.45 775.08 L1366.52 771.981 L1365.58 768.922 L1364.65 760.694 L1363.71 753.753 L1362.78 747.483 L1361.84 738.247 
  L1360.91 735.123 L1359.97 726.003 L1359.04 718.796 L1358.1 697.523 L1357.16 672.531 L1356.23 671.956 L1355.29 662.445 L1354.36 663.142 L1353.42 657.24 L1352.49 653.194 
  L1351.55 642.363 L1350.62 653.019 L1349.68 671.733 L1348.75 642.058 L1347.81 645.195 L1346.88 635.341 L1345.94 616.107 L1345.01 626.639 L1344.07 622.691 L1343.14 595.476 
  L1342.2 594.951 L1341.27 613.49 L1340.33 613.186 L1339.4 611.228 L1338.46 579.201 L1337.53 578.554 L1336.59 596.341 L1335.66 591.77 L1334.72 591.051 L1333.79 596.23 
  L1332.85 636.826 L1331.92 587.086 L1330.98 628.333 L1330.05 596.756 L1329.11 600.792 L1328.18 626.72 L1327.24 600.103 L1326.31 622.209 L1325.37 586.194 L1324.44 575.905 
  L1323.5 581.852 L1322.57 509.07 L1321.63 495.202 L1320.7 449.416 L1319.76 427.609 L1318.83 479.909 L1317.89 424.861 L1316.96 468.825 L1316.02 343.305 L1315.09 446.329 
  L1314.15 486.491 L1313.22 523.548 L1312.28 490.124 L1311.35 531.855 L1310.41 569.154 L1309.47 544.197 L1308.54 577.455 L1307.6 575.405 L1306.67 596.631 L1305.73 596.359 
  L1304.8 583.645 L1303.86 595.793 L1302.93 597.512 L1301.99 601.108 L1301.06 599.688 L1300.12 544.633 L1299.19 550.137 L1298.25 550.749 L1297.32 559.844 L1296.38 483.719 
  L1295.45 521.098 L1294.51 534.227 L1293.58 557.808 L1292.64 506.186 L1291.71 534.583 L1290.77 449.887 L1289.84 509.092 L1288.9 461.41 L1287.97 466.715 L1287.03 544.427 
  L1286.1 527.421 L1285.16 528.993 L1284.23 464.715 L1283.29 371.321 L1282.36 442.924 L1281.42 416.729 L1280.49 445.402 L1279.55 389.5 L1278.62 399.521 L1277.68 403.71 
  L1276.75 419.996 L1275.81 383.038 L1274.88 346.116 L1273.94 498.255 L1273.01 369.212 L1272.07 400.949 L1271.14 450.738 L1270.2 465.871 L1269.27 325.403 L1268.33 345.893 
  L1267.4 508.468 L1266.46 416.242 L1265.53 456.678 L1264.59 398.57 L1263.66 490.998 L1262.72 410.582 L1261.79 484.252 L1260.85 486.921 L1259.91 501.757 L1258.98 293.686 
  L1258.04 436.461 L1257.11 442.041 L1256.17 439.278 L1255.24 315.543 L1254.3 377.435 L1253.37 408.975 L1252.43 350.87 L1251.5 351.025 L1250.56 312.97 L1249.63 283.001 
  L1248.69 245.56 L1247.76 279.842 L1246.82 232.312 L1245.89 269.711 L1244.95 224.824 L1244.02 111.106 L1243.08 196.926 L1242.15 152.674 L1241.21 -63.7412 L1240.28 -148.416 
  L1239.34 -232.785 L1238.41 -17.3866 L1237.47 -64.8171 L1236.54 -499.997 L1235.6 -352.185 L1234.67 -1035.53 L1233.73 -578.983 L1232.8 -339.436 L1231.86 -497.976 L1230.93 -457.413 
  L1229.99 -360.081 L1229.06 -232.906 L1228.12 -277.88 L1227.19 -501.804 L1226.25 -356.702 L1225.32 10.5043 L1224.38 -88.5763 L1223.45 -311.333 L1222.51 -118.9 L1221.58 -58.0774 
  L1220.64 -176.11 L1219.71 287.428 L1218.77 -23.8596 L1217.84 5.30512 L1216.9 76.6109 L1215.97 176.948 L1215.03 -166.873 L1214.1 108.6 L1213.16 -10.7462 L1212.22 -374.891 
  L1211.29 -47.817 L1210.35 -265.537 L1209.42 -756.805 L1208.48 -130.046 L1207.55 -265.853 L1206.61 -159.94 L1205.68 -158.599 L1204.74 -1.77646 L1203.81 79.7737 L1202.87 57.4772 
  L1201.94 39.1023 L1201 184.358 L1200.07 286.078 L1199.13 314.515 L1198.2 352.303 L1197.26 398.724 L1196.33 415.429 L1195.39 460.123 L1194.46 461.173 L1193.52 510.203 
  L1192.59 524.835 L1191.65 548.783 L1190.72 574.716 L1189.78 573.445 L1188.85 571.208 L1187.91 576.953 L1186.98 583.474 L1186.04 611.703 L1185.11 605.701 L1184.17 600.218 
  L1183.24 604.321 L1182.3 606.292 L1181.37 610.047 L1180.43 609.762 L1179.5 627.79 L1178.56 612.89 L1177.63 608.789 L1176.69 599.367 L1175.76 596.223 L1174.82 590.699 
  L1173.89 597.901 L1172.95 587.791 L1172.02 580.042 L1171.08 571.919 L1170.15 557.973 L1169.21 597.236 L1168.28 617.654 L1167.34 606.424 L1166.41 602.994 L1165.47 643.888 
  L1164.54 657.909 L1163.6 668.627 L1162.66 700.956 L1161.73 721.96 L1160.79 708.268 L1159.86 711.417 L1158.92 734.249 L1157.99 728.807 L1157.05 728.458 L1156.12 723.321 
  L1155.18 720.329 L1154.25 724.539 L1153.31 713.127 L1152.38 719.142 L1151.44 709.146 L1150.51 712.996 L1149.57 713.02 L1148.64 699.56 L1147.7 704.378 L1146.77 712.506 
  L1145.83 715.471 L1144.9 704.094 L1143.96 709.296 L1143.03 704.848 L1142.09 713.463 L1141.16 696.709 L1140.22 691.365 L1139.29 687.653 L1138.35 690.894 L1137.42 679.046 
  L1136.48 674.243 L1135.55 667.221 L1134.61 659 L1133.68 657.422 L1132.74 644.292 L1131.81 628.976 L1130.87 627.75 L1129.94 604.948 L1129 580.977 L1128.07 565.779 
  L1127.13 576.419 L1126.2 582.415 L1125.26 558.307 L1124.33 546.723 L1123.39 569.558 L1122.46 560.592 L1121.52 560.304 L1120.59 540.229 L1119.65 563.915 L1118.72 581.504 
  L1117.78 575.47 L1116.85 569.73 L1115.91 556.528 L1114.97 585.053 L1114.04 573.074 L1113.1 576.416 L1112.17 594.138 L1111.23 501.887 L1110.3 508.015 L1109.36 568.082 
  L1108.43 548.08 L1107.49 552.274 L1106.56 561.929 L1105.62 514.027 L1104.69 533.696 L1103.75 525.282 L1102.82 528.697 L1101.88 488.9 L1100.95 499.656 L1100.01 507.364 
  L1099.08 527.427 L1098.14 537.864 L1097.21 535.83 L1096.27 493.457 L1095.34 495.477 L1094.4 531.979 L1093.47 539.922 L1092.53 547.086 L1091.6 516.055 L1090.66 547.535 
  L1089.73 549.031 L1088.79 555.084 L1087.86 533.947 L1086.92 555.242 L1085.99 549.979 L1085.05 555.287 L1084.12 519.402 L1083.18 537.351 L1082.25 530.949 L1081.31 529.722 
  L1080.38 540.678 L1079.44 544.75 L1078.51 542.446 L1077.57 541.315 L1076.64 545.003 L1075.7 554.691 L1074.77 562.824 L1073.83 564.578 L1072.9 566.909 L1071.96 575.392 
  L1071.03 605.93 L1070.09 628.461 L1069.16 657.914 L1068.22 692.946 L1067.28 704.122 L1066.35 714.912 L1065.41 734.146 L1064.48 731.757 L1063.54 752.089 L1062.61 765.281 
  L1061.67 762.088 L1060.74 759.499 L1059.8 764.226 L1058.87 756.66 L1057.93 751.856 L1057 775.291 L1056.06 767.105 L1055.13 762.666 L1054.19 776.433 L1053.26 789.469 
  L1052.32 793.388 L1051.39 793.985 L1050.45 796.772 L1049.52 786.697 L1048.58 790.595 L1047.65 792.723 L1046.71 793.872 L1045.78 796.661 L1044.84 797.305 L1043.91 794.936 
  L1042.97 801.818 L1042.04 791.01 L1041.1 790.931 L1040.17 795.169 L1039.23 790.888 L1038.3 794.059 L1037.36 792.415 L1036.43 797.072 L1035.49 791.071 L1034.56 788.973 
  L1033.62 795.429 L1032.69 790.31 L1031.75 787.06 L1030.82 778.617 L1029.88 771.656 L1028.95 756.661 L1028.01 717.705 L1027.08 691.514 L1026.14 666.866 L1025.21 659.165 
  L1024.27 648.909 L1023.34 629.773 L1022.4 620.386 L1021.47 598.852 L1020.53 590.081 L1019.6 574.197 L1018.66 591.804 L1017.72 587.586 L1016.79 576.554 L1015.85 587.328 
  L1014.92 598.973 L1013.98 577.436 L1013.05 601.467 L1012.11 619.698 L1011.18 621.908 L1010.24 611.202 L1009.31 644.139 L1008.37 659.014 L1007.44 632.482 L1006.5 660.023 
  L1005.57 659.451 L1004.63 658.534 L1003.7 657.74 L1002.76 689.835 L1001.83 686.364 L1000.89 691.941 L999.958 696.24 L999.023 717.901 L998.088 716.876 L997.153 734.696 
  L996.218 742.189 L995.283 749.829 L994.347 745.914 L993.412 719.081 L992.477 722.048 L991.542 705.501 L990.607 699.933 L989.672 684.477 L988.737 673.054 L987.802 633.163 
  L986.867 653.562 L985.932 631.555 L984.997 603.167 L984.061 608.12 L983.126 598.606 L982.191 600.982 L981.256 596.004 L980.321 594.552 L979.386 578.734 L978.451 572.116 
  L977.516 594.295 L976.581 588.074 L975.646 601.425 L974.71 612.003 L973.775 607.183 L972.84 644.049 L971.905 628.419 L970.97 629.606 L970.035 664.552 L969.1 669.427 
  L968.165 683.15 L967.23 693.804 L966.295 716.67 L965.359 712.534 L964.424 724.901 L963.489 730.524 L962.554 731.2 L961.619 760.69 L960.684 759.352 L959.749 757.552 
  L958.814 748.007 L957.879 763.458 L956.944 748.807 L956.009 763.085 L955.073 749.407 L954.138 749.67 L953.203 741.078 L952.268 750.157 L951.333 751.147 L950.398 739.546 
  L949.463 748.641 L948.528 739.505 L947.593 746.993 L946.658 766.417 L945.722 756.152 L944.787 773.407 L943.852 743.451 L942.917 756.136 L941.982 732.014 L941.047 779.271 
  L940.112 774.69 L939.177 753.157 L938.242 739.958 L937.307 765.435 L936.371 715.96 L935.436 731.259 L934.501 732.592 L933.566 800.092 L932.631 744.213 L931.696 771.457 
  L930.761 764.314 L929.826 745.047 L928.891 665.223 L927.956 759.736 L927.021 728.331 L926.085 755.864 L925.15 744.218 L924.215 766.984 L923.28 776.456 L922.345 754.338 
  L921.41 767.447 L920.475 754.17 L919.54 757.86 L918.605 773.692 L917.67 741.304 L916.734 776.977 L915.799 777.866 L914.864 765.978 L913.929 768.949 L912.994 774.777 
  L912.059 771.332 L911.124 779.143 L910.189 778.779 L909.254 782.338 L908.319 783.84 L907.383 784.608 L906.448 782.741 L905.513 782.832 L904.578 776.309 L903.643 791.247 
  L902.708 791.54 L901.773 786.82 L900.838 784.962 L899.903 780.037 L898.968 781.836 L898.033 780.626 L897.097 789.338 L896.162 791.522 L895.227 783.204 L894.292 774.531 
  L893.357 769.51 L892.422 770.049 L891.487 780.288 L890.552 780.602 L889.617 775.807 L888.682 777.66 L887.746 778.438 L886.811 781.728 L885.876 778.68 L884.941 772.897 
  L884.006 775.689 L883.071 775.831 L882.136 776.557 L881.201 780.978 L880.266 778.945 L879.331 787.599 L878.396 777.228 L877.46 778.818 L876.525 788.344 L875.59 786.777 
  L874.655 784.424 L873.72 788.251 L872.785 781.076 L871.85 780.759 L870.915 780.591 L869.98 784.376 L869.045 780.901 L868.109 790.708 L867.174 787.246 L866.239 794.186 
  L865.304 793.285 L864.369 798.288 L863.434 799.717 L862.499 800.99 L861.564 809.388 L860.629 803.734 L859.694 810.342 L858.758 815.072 L857.823 811.307 L856.888 815.279 
  L855.953 812.092 L855.018 811.73 L854.083 813.174 L853.148 804.827 L852.213 807.765 L851.278 806.49 L850.343 801.726 L849.408 796.875 L848.472 792.252 L847.537 790.03 
  L846.602 788.574 L845.667 782.577 L844.732 791.192 L843.797 790.741 L842.862 787.338 L841.927 792.685 L840.992 783.83 L840.057 780.367 L839.121 794.42 L838.186 783.682 
  L837.251 789.742 L836.316 783.694 L835.381 786.478 L834.446 789.439 L833.511 785.799 L832.576 788.228 L831.641 787.223 L830.706 782.495 L829.77 769.15 L828.835 756.587 
  L827.9 770.868 L826.965 784.162 L826.03 773.951 L825.095 776.719 L824.16 759.428 L823.225 783.886 L822.29 761.04 L821.355 782.045 L820.42 769.701 L819.484 766.075 
  L818.549 783.18 L817.614 791.189 L816.679 777.328 L815.744 792.37 L814.809 781.224 L813.874 791.962 L812.939 789.63 L812.004 793.098 L811.069 790.457 L810.133 796.992 
  L809.198 798.834 L808.263 773.567 L807.328 790.77 L806.393 793.803 L805.458 793.689 L804.523 787.411 L803.588 795.248 L802.653 790.926 L801.718 796.568 L800.782 787.283 
  L799.847 789.873 L798.912 791.95 L797.977 796.679 L797.042 801.383 L796.107 797.988 L795.172 799.953 L794.237 794.461 L793.302 792.077 L792.367 790.575 L791.432 783.492 
  L790.496 773.088 L789.561 768.905 L788.626 758.495 L787.691 756.145 L786.756 754.089 L785.821 750.363 L784.886 759.194 L783.951 749.582 L783.016 760.995 L782.081 759.994 
  L781.145 778.431 L780.21 778.515 L779.275 776.39 L778.34 779.27 L777.405 787.985 L776.47 787.496 L775.535 790.802 L774.6 795.853 L773.665 794.624 L772.73 796.622 
  L771.795 801.509 L770.859 795.008 L769.924 801.913 L768.989 807.163 L768.054 799.818 L767.119 804.626 L766.184 807.675 L765.249 806.322 L764.314 806.449 L763.379 812.109 
  L762.444 807.625 L761.508 809.572 L760.573 805.844 L759.638 808.285 L758.703 806.727 L757.768 807.5 L756.833 802.532 L755.898 803.042 L754.963 801.377 L754.028 801.322 
  L753.093 801.045 L752.157 799.602 L751.222 798.855 L750.287 800.758 L749.352 799.486 L748.417 799.36 L747.482 797.576 L746.547 796.527 L745.612 799.28 L744.677 788.588 
  L743.742 798.122 L742.807 799.464 L741.871 793.922 L740.936 795.275 L740.001 795.878 L739.066 790.425 L738.131 785.63 L737.196 796.816 L736.261 792.556 L735.326 781.4 
  L734.391 783.882 L733.456 780.683 L732.52 792.096 L731.585 786.377 L730.65 793.455 L729.715 790.955 L728.78 776.509 L727.845 790.984 L726.91 781.342 L725.975 787.169 
  L725.04 789.634 L724.105 778.038 L723.169 794.537 L722.234 794.047 L721.299 785.867 L720.364 792.5 L719.429 797.89 L718.494 797.316 L717.559 794.988 L716.624 791.9 
  L715.689 792.01 L714.754 796.089 L713.819 795.313 L712.883 778.037 L711.948 794.482 L711.013 790.622 L710.078 799.791 L709.143 789.304 L708.208 797.639 L707.273 797.048 
  L706.338 793.12 L705.403 792.729 L704.468 796.407 L703.532 796.903 L702.597 789.758 L701.662 793.147 L700.727 794.941 L699.792 789.275 L698.857 778.881 L697.922 786.879 
  L696.987 776.102 L696.052 792.242 L695.117 785.689 L694.181 791.336 L693.246 773.452 L692.311 781.95 L691.376 789.924 L690.441 789.389 L689.506 783.214 L688.571 781.448 
  L687.636 780.383 L686.701 789.671 L685.766 780.695 L684.831 786.528 L683.895 779.845 L682.96 783.253 L682.025 775.066 L681.09 759.197 L680.155 758.688 L679.22 773.751 
  L678.285 667.728 L677.35 776.995 L676.415 771.178 L675.48 768.693 L674.544 776.96 L673.609 760.278 L672.674 756.167 L671.739 750.538 L670.804 771.174 L669.869 756.48 
  L668.934 784.694 L667.999 762.865 L667.064 767.641 L666.129 782.078 L665.194 781.118 L664.258 768.132 L663.323 748.425 L662.388 750.703 L661.453 770.682 L660.518 769.258 
  L659.583 759.876 L658.648 785.32 L657.713 774.625 L656.778 781.317 L655.843 777.943 L654.907 773.729 L653.972 783.997 L653.037 773.528 L652.102 791.169 L651.167 786.535 
  L650.232 782.699 L649.297 789.42 L648.362 786.669 L647.427 789.952 L646.492 783.192 L645.556 795.804 L644.621 786.38 L643.686 792.558 L642.751 795.819 L641.816 788.978 
  L640.881 793.836 L639.946 789.307 L639.011 788.588 L638.076 788.543 L637.141 796.67 L636.206 792.618 L635.27 786.465 L634.335 793.389 L633.4 788.603 L632.465 789.602 
  L631.53 792.667 L630.595 789.167 L629.66 796.219 L628.725 790.201 L627.79 797.169 L626.855 794.045 L625.919 796.562 L624.984 785.776 L624.049 791.413 L623.114 785.945 
  L622.179 796.382 L621.244 789.413 L620.309 785.458 L619.374 786.289 L618.439 791.355 L617.504 790.999 L616.568 756.253 L615.633 766.641 L614.698 769.613 L613.763 781.707 
  L612.828 774.697 L611.893 776.432 L610.958 784.897 L610.023 744.892 L609.088 767.112 L608.153 789.018 L607.218 792.321 L606.282 797.558 L605.347 777.587 L604.412 786.627 
  L603.477 790.117 L602.542 798.949 L601.607 787.838 L600.672 806.885 L599.737 798.77 L598.802 792.718 L597.867 814.098 L596.931 812.473 L595.996 799.993 L595.061 802.961 
  L594.126 796.84 L593.191 776.744 L592.256 798.592 L591.321 752.461 L590.386 794.27 L589.451 749.159 L588.516 781.961 L587.58 776.664 L586.645 773.846 L585.71 779.487 
  L584.775 756.86 L583.84 764.344 L582.905 764.174 L581.97 764.589 L581.035 778.461 L580.1 773.552 L579.165 776.239 L578.23 772.416 L577.294 771.313 L576.359 775.975 
  L575.424 779.303 L574.489 760.405 L573.554 778.062 L572.619 785.031 L571.684 786.151 L570.749 788.371 L569.814 780.758 L568.879 776.569 L567.943 787.005 L567.008 784.014 
  L566.073 786.773 L565.138 789.829 L564.203 780.929 L563.268 782.721 L562.333 777.383 L561.398 786.098 L560.463 785.037 L559.528 781.907 L558.593 791.597 L557.657 764.484 
  L556.722 784.531 L555.787 762.404 L554.852 768.813 L553.917 779.95 L552.982 778.389 L552.047 780.95 L551.112 782.921 L550.177 791.347 L549.242 791.617 L548.306 794.838 
  L547.371 789.158 L546.436 781.375 L545.501 784.519 L544.566 771.76 L543.631 791.634 L542.696 781.035 L541.761 780.566 L540.826 790.345 L539.891 760.532 L538.955 764.125 
  L538.02 773.493 L537.085 763.426 L536.15 745.226 L535.215 751.395 L534.28 753.017 L533.345 764.99 L532.41 730.409 L531.475 766.612 L530.54 765.997 L529.605 775.087 
  L528.669 721.366 L527.734 748.749 L526.799 750.113 L525.864 729.491 L524.929 754.167 L523.994 773.69 L523.059 766.442 L522.124 746.895 L521.189 768.585 L520.254 736.002 
  L519.318 726.384 L518.383 772.785 L517.448 758.677 L516.513 748.078 L515.578 769.123 L514.643 753.761 L513.708 733.887 L512.773 768.461 L511.838 767.409 L510.903 780.354 
  L509.967 764.581 L509.032 769.776 L508.097 766.09 L507.162 761.266 L506.227 778.323 L505.292 785.607 L504.357 795.038 L503.422 780.692 L502.487 790.146 L501.552 780.021 
  L500.617 787.672 L499.681 791.439 L498.746 791.377 L497.811 789.277 L496.876 790.417 L495.941 796.101 L495.006 795.691 L494.071 792.186 L493.136 789.402 L492.201 797.489 
  L491.266 782.81 L490.33 784.59 L489.395 795.935 L488.46 798.007 L487.525 795.025 L486.59 789.69 L485.655 798.069 L484.72 768.976 L483.785 792.724 L482.85 795.622 
  L481.915 798.352 L480.98 795.372 L480.044 793.923 L479.109 797.205 L478.174 803.03 L477.239 799.824 L476.304 800.058 L475.369 801.937 L474.434 797.198 L473.499 799.274 
  L472.564 799.687 L471.629 799.318 L470.693 796.608 L469.758 799.389 L468.823 791.193 L467.888 798.55 L466.953 795.273 L466.018 802.977 L465.083 790.575 L464.148 786.766 
  L463.213 795.806 L462.278 784.782 L461.342 789.976 L460.407 789.673 L459.472 766.366 L458.537 771.619 L457.602 792.171 L456.667 770.434 L455.732 782.753 L454.797 780.451 
  L453.862 778.595 L452.927 781.547 L451.992 789.885 L451.056 774.17 L450.121 796.956 L449.186 792.939 L448.251 761.367 L447.316 786.242 L446.381 789.64 L445.446 786.879 
  L444.511 783.276 L443.576 784.85 L442.641 780.376 L441.705 790.349 L440.77 775.023 L439.835 769.224 L438.9 767.665 L437.965 765.86 L437.03 744.885 L436.095 772.95 
  L435.16 747.04 L434.225 770.621 L433.29 762.721 L432.354 762.449 L431.419 752.445 L430.484 768.73 L429.549 764.268 L428.614 758.82 L427.679 766.171 L426.744 770.195 
  L425.809 757.656 L424.874 762.943 L423.939 780.276 L423.004 761.822 L422.068 763.089 L421.133 770.253 L420.198 767.533 L419.263 774.27 L418.328 781.704 L417.393 780.951 
  L416.458 785.675 L415.523 781.464 L414.588 786.246 L413.653 772.265 L412.717 778.776 L411.782 781.468 L410.847 775.7 L409.912 784.362 L408.977 789.494 L408.042 787.463 
  L407.107 778.004 L406.172 780.866 L405.237 776.672 L404.302 776.489 L403.366 786.715 L402.431 779.916 L401.496 780.876 L400.561 781.954 L399.626 757.783 L398.691 766.078 
  L397.756 773.821 L396.821 763.911 L395.886 782.597 L394.951 786.482 L394.016 773.237 L393.08 782.892 L392.145 775.694 L391.21 796.501 L390.275 790.001 L389.34 783.699 
  L388.405 789.938 L387.47 794.087 L386.535 785.834 L385.6 794.943 L384.665 791.663 L383.729 792.394 L382.794 790.439 L381.859 788.276 L380.924 768.551 L379.989 787.393 
  L379.054 781.427 L378.119 772.388 L377.184 785.652 L376.249 789.322 L375.314 767.569 L374.379 789.119 L373.443 785.843 L372.508 777.125 L371.573 777.739 L370.638 785.087 
  L369.703 786.982 L368.768 775.149 L367.833 786.199 L366.898 776.497 L365.963 789.688 L365.028 767.187 L364.092 767.558 L363.157 765.208 L362.222 779.309 L361.287 782.789 
  L360.352 777.784 L359.417 757.324 L358.482 763.004 L357.547 764.612 L356.612 771.96 L355.677 736.164 L354.741 768.078 L353.806 777.838 L352.871 774.776 L351.936 772.128 
  L351.001 770.994 L350.066 764.884 L349.131 770.404 L348.196 770.862 L347.261 766.342 L346.326 756.182 L345.391 713.037 L344.455 722.97 L343.52 688.633 L342.585 727.132 
  L341.65 641.517 L340.715 684.667 L339.78 688.237 L338.845 646.384 L337.91 692.785 L336.975 608.89 L336.04 597.331 L335.104 675.245 L334.169 715.108 L333.234 716.851 
  L332.299 711.734 L331.364 688.537 L330.429 631.926 L329.494 647.984 L328.559 713.338 L327.624 611.466 L326.689 666.862 L325.753 685.474 L324.818 743.89 L323.883 746.383 
  L322.948 771.007 L322.013 768.905 L321.078 761.562 L320.143 766.769 L319.208 764.468 L318.273 776.786 L317.338 762.23 L316.403 758.468 L315.467 765.387 L314.532 775.554 
  L313.597 745.512 L312.662 770.101 L311.727 771.435 L310.792 773.236 L309.857 748.933 L308.922 762.38 L307.987 765.111 L307.052 754.122 L306.116 786.149 L305.181 770.256 
  L304.246 773.868 L303.311 769.956 L302.376 778.747 L301.441 775.821 L300.506 762.828 L299.571 778.943 L298.636 729.911 L297.701 762.814 L296.765 761.721 L295.83 761.351 
  L294.895 751.616 L293.96 778.092 L293.025 759.273 L292.09 744.922 L291.155 705.937 L290.22 718.926 L289.285 678.821 L288.35 749.754 L287.415 684.159 L286.479 713.01 
  L285.544 734.847 L284.609 672.72 L283.674 751.159 L282.739 732.167 L281.804 690.694 L280.869 699.243 L279.934 666.048 L278.999 743.96 L278.064 752.083 L277.128 717.012 
  L276.193 736.524 L275.258 775.343 L274.323 728.863 L273.388 739.777 L272.453 735.504 L271.518 764.41 L270.583 769.028 L269.648 749.856 L268.713 769.177 L267.778 751.315 
  L266.842 748.508 L265.907 757.713 L264.972 774.673 L264.037 765.494 L263.102 767.026 L262.167 701.652 L261.232 736.871 L260.297 720.238 L259.362 697.449 L258.427 736.608 
  L257.491 693.976 L256.556 631.263 L255.621 648.809 L254.686 639.522 L253.751 720.516 L252.816 750.766 L251.881 687.729 L250.946 757.666 L250.011 760.685 L249.076 737.203 
  L248.14 757.26 L247.205 735.696 L246.27 723.738 L245.335 766.075 L244.4 713.371 L243.465 758.027 L242.53 757.652 L241.595 748.773 L240.66 747.963 L239.725 767.008 
  L238.79 768.67 L237.854 784.754 L236.919 780.502 L235.984 776.691 L235.049 786.082 L234.114 790.837 L233.179 781.265 L232.244 787.157 L231.309 779.367 L230.374 771.01 
  L229.439 779.575 L228.503 782.125 L227.568 780.621 L226.633 776.588 L225.698 786.793 L224.763 776.884 L223.828 787.947 L222.893 774.252 L221.958 779.23 L221.023 788.791 
  L220.088 779.238 L219.152 770.274 L218.217 779.217 L217.282 789.586 L216.347 778.371 L215.412 787.166 L214.477 782.44 L213.542 785.313 L212.607 787.154 L211.672 781.941 
  L210.737 754.156 L209.802 789.769 L208.866 792.734 L207.931 775.683 L206.996 794.254 L206.061 793.419 L205.126 789.35 L204.191 784.68 L203.256 791.184 L202.321 793.275 
  L201.386 787.126 L200.451 792.402 L199.515 780.898 L198.58 792.955 L197.645 791.955 L196.71 775.449 L195.775 790.148 L194.84 787.588 L193.905 788.426 L192.97 783.616 
  L192.035 765.247 L191.1 772.804 L190.164 755.099 L189.229 764.031  Z
  " fill="#000000" fill-rule="evenodd" fill-opacity="0.2"/>
<polyline clip-path="url(#clip7902)" style="stroke:#000000; stroke-width:4; stroke-opacity:1; fill:none" points="
  189.229,828.555 190.164,826.305 191.1,824.405 192.035,827.122 192.97,822.049 193.905,826.89 194.84,825.369 195.775,825.002 196.71,825.265 197.645,825.11 
  198.58,824.153 199.515,822.073 200.451,821.645 201.386,819.69 202.321,819.44 203.256,819.742 204.191,818.969 205.126,820.507 206.061,823.335 206.996,820.714 
  207.931,822.844 208.866,819.192 209.802,819.995 210.737,825.846 211.672,824.479 212.607,821.672 213.542,820.321 214.477,827.328 215.412,822.676 216.347,826.282 
  217.282,821.026 218.217,826.236 219.152,823.786 220.088,822.74 221.023,818.243 221.958,819.881 222.893,823.577 223.828,819.562 224.763,819.094 225.698,817.524 
  226.633,823.078 227.568,822.332 228.503,821.426 229.439,824.399 230.374,819.352 231.309,822.049 232.244,820.81 233.179,818.077 234.114,822.672 235.049,823.495 
  235.984,826.027 236.919,824.914 237.854,825.99 238.79,833.916 239.725,829.278 240.66,839.126 241.595,839.911 242.53,837.781 243.465,842.313 244.4,850.864 
  245.335,842.58 246.27,851.337 247.205,846.23 248.14,840.501 249.076,842.541 250.011,846.887 250.946,842.625 251.881,850.719 252.816,851.723 253.751,851.414 
  254.686,870.481 255.621,884.742 256.556,888.538 257.491,891.541 258.427,884.136 259.362,908.702 260.297,889.765 261.232,890.469 262.167,903.292 263.102,894.687 
  264.037,886.803 264.972,892.007 265.907,903.135 266.842,901.151 267.778,890.062 268.713,894.727 269.648,903.462 270.583,893.201 271.518,896.13 272.453,895.65 
  273.388,905.512 274.323,885.544 275.258,892.961 276.193,894.777 277.128,893.852 278.064,885.315 278.999,873.509 279.934,895.13 280.869,889.375 281.804,896.066 
  282.739,884.664 283.674,874.716 284.609,897.935 285.544,905.878 286.479,890.241 287.415,870.402 288.35,871.48 289.285,891.807 290.22,873.879 291.155,868.171 
  292.09,859.651 293.025,855.259 293.96,839.077 294.895,845.69 295.83,847.183 296.765,843.425 297.701,845.285 298.636,842.334 299.571,836.693 300.506,839.835 
  301.441,834.24 302.376,830.584 303.311,835.751 304.246,838.903 305.181,834.494 306.116,832.574 307.052,839.462 307.987,839.287 308.922,834.697 309.857,844.628 
  310.792,833.43 311.727,836.459 312.662,836.173 313.597,833.971 314.532,834.338 315.467,838.436 316.403,836.671 317.338,832.051 318.273,829.142 319.208,834.674 
  320.143,830.161 321.078,834.381 322.013,834.2 322.948,841.976 323.883,842.968 324.818,854.417 325.753,879.939 326.689,893.765 327.624,906.76 328.559,904.793 
  329.494,934.34 330.429,934.568 331.364,945.422 332.299,933.962 333.234,934.274 334.169,941.723 335.104,949.054 336.04,970.483 336.975,957.574 337.91,933.312 
  338.845,931.796 339.78,938.382 340.715,915.376 341.65,925.834 342.585,883.328 343.52,880.119 344.455,874.591 345.391,863.485 346.326,861.925 347.261,850.922 
  348.196,849.042 349.131,840.63 350.066,837.902 351.001,837.44 351.936,837.023 352.871,831.027 353.806,833.698 354.741,828.962 355.677,838.2 356.612,827.725 
  357.547,829.884 358.482,833.646 359.417,838.681 360.352,826.998 361.287,829.842 362.222,833.015 363.157,826.448 364.092,826.831 365.028,827.852 365.963,830.41 
  366.898,824.497 367.833,822.557 368.768,824.55 369.703,823.269 370.638,823.373 371.573,824.322 372.508,824.743 373.443,826.363 374.379,820.348 375.314,827.442 
  376.249,821.833 377.184,820.371 378.119,819.766 379.054,820.856 379.989,819.052 380.924,821.823 381.859,818.94 382.794,820.834 383.729,818.797 384.665,817.232 
  385.6,818.37 386.535,820.235 387.47,819.172 388.405,822.77 389.34,827.595 390.275,822.776 391.21,825.456 392.145,828.99 393.08,827.643 394.016,831.396 
  394.951,833.224 395.886,837.4 396.821,842.858 397.756,834.658 398.691,835.143 399.626,841.54 400.561,837.762 401.496,833.798 402.431,839.193 403.366,832.398 
  404.302,829.968 405.237,833.113 406.172,830.306 407.107,829.044 408.042,829.304 408.977,822.652 409.912,821.98 410.847,824.587 411.782,822.86 412.717,816.873 
  413.653,819.854 414.588,818.786 415.523,817.798 416.458,817.897 417.393,817.84 418.328,819.523 419.263,819.884 420.198,823.925 421.133,816.614 422.068,823.41 
  423.004,820.951 423.939,819.708 424.874,823.94 425.809,825.446 426.744,824.048 427.679,824.307 428.614,824.524 429.549,833.516 430.484,829.234 431.419,845.005 
  432.354,836.003 433.29,841.971 434.225,836.082 435.16,856.936 436.095,842.379 437.03,851.61 437.965,845.622 438.9,850.923 439.835,844.325 440.77,848.177 
  441.705,838.277 442.641,847.16 443.576,846.106 444.511,848.2 445.446,847.604 446.381,852.402 447.316,848.053 448.251,852.75 449.186,849.32 450.121,845.484 
  451.056,845.744 451.992,852.679 452.927,847.958 453.862,845.554 454.797,849.578 455.732,852.294 456.667,854.066 457.602,848.869 458.537,846.554 459.472,846.758 
  460.407,839.558 461.342,837.325 462.278,839.075 463.213,829.02 464.148,834.036 465.083,829.718 466.018,824.192 466.953,822.843 467.888,823.353 468.823,825.166 
  469.758,820.289 470.693,819.95 471.629,818.791 472.564,819.5 473.499,817.169 474.434,817.432 475.369,816.428 476.304,816.415 477.239,816.033 478.174,816.148 
  479.109,816.236 480.044,819.305 480.98,817.511 481.915,817.358 482.85,817.128 483.785,818.028 484.72,818.068 485.655,817.54 486.59,818.429 487.525,817.812 
  488.46,819.848 489.395,821.952 490.33,823.714 491.266,828.601 492.201,824.833 493.136,830.162 494.071,829.519 495.006,831.557 495.941,833.969 496.876,830.401 
  497.811,843.049 498.746,838.765 499.681,841.622 500.617,838.852 501.552,843.776 502.487,841.308 503.422,842.048 504.357,847.251 505.292,845.114 506.227,845.335 
  507.162,865.195 508.097,852.078 509.032,853.391 509.967,855.483 510.903,841.684 511.838,847.218 512.773,849.419 513.708,855.324 514.643,852.9 515.578,837.096 
  516.513,847.706 517.448,841.028 518.383,837.122 519.318,857.274 520.254,846.108 521.189,841.519 522.124,842.201 523.059,842.344 523.994,840.182 524.929,850.641 
  525.864,848.659 526.799,844.886 527.734,854.456 528.669,852.277 529.605,842.885 530.54,843.814 531.475,848.743 532.41,859.583 533.345,844.391 534.28,848.787 
  535.215,840.127 536.15,841.514 537.085,844.99 538.02,834.6 538.955,837.08 539.891,833.318 540.826,832.393 541.761,833.007 542.696,831.112 543.631,825.354 
  544.566,835.213 545.501,828.369 546.436,831.621 547.371,824.219 548.306,827.352 549.242,832.636 550.177,828.7 551.112,831.271 552.047,835.377 552.982,836.467 
  553.917,835.164 554.852,834.888 555.787,835.151 556.722,838.386 557.657,846.112 558.593,835.356 559.528,836.286 560.463,831.346 561.398,828.994 562.333,830.162 
  563.268,827.521 564.203,829.106 565.138,827.292 566.073,825.783 567.008,825.027 567.943,821.818 568.879,825.056 569.814,818.107 570.749,817.249 571.684,816.572 
  572.619,819.695 573.554,818.641 574.489,813.861 575.424,815.141 576.359,818.677 577.294,819.321 578.23,820.507 579.165,823.408 580.1,823.188 581.035,822.252 
  581.97,834.873 582.905,838.095 583.84,843.854 584.775,850.388 585.71,857.859 586.645,853.954 587.58,864.359 588.516,867.259 589.451,880.855 590.386,878.232 
  591.321,878.752 592.256,880.258 593.191,896.339 594.126,875.637 595.061,886.198 595.996,886.364 596.931,877.348 597.867,889.465 598.802,891.942 599.737,880.1 
  600.672,882.205 601.607,884.342 602.542,881.405 603.477,882.431 604.412,879.459 605.347,880.35 606.282,878.297 607.218,874.411 608.153,873.374 609.088,861.599 
  610.023,863.368 610.958,851.618 611.893,846.094 612.828,842.282 613.763,838.582 614.698,839.666 615.633,830.742 616.568,832.721 617.504,829.869 618.439,829.575 
  619.374,831.579 620.309,832.399 621.244,830.788 622.179,831.171 623.114,830.577 624.049,830.808 624.984,834.81 625.919,831.951 626.855,835.077 627.79,829.902 
  628.725,833.459 629.66,830.494 630.595,835.672 631.53,837.245 632.465,837.043 633.4,834.872 634.335,834.908 635.27,838.367 636.206,833.299 637.141,835.716 
  638.076,834.184 639.011,832.937 639.946,834.854 640.881,835.298 641.816,836.989 642.751,833.812 643.686,830.098 644.621,835.83 645.556,832.035 646.492,834.226 
  647.427,830.201 648.362,831.303 649.297,830.062 650.232,828.531 651.167,827.64 652.102,824.751 653.037,828.838 653.972,827.526 654.907,825.523 655.843,824.481 
  656.778,828.806 657.713,828.829 658.648,826.383 659.583,834.193 660.518,829.792 661.453,830.979 662.388,835.669 663.323,837.593 664.258,829.647 665.194,828.153 
  666.129,831.464 667.064,833.304 667.999,835.984 668.934,830.292 669.869,835.579 670.804,834.136 671.739,838.749 672.674,838.926 673.609,831.652 674.544,831.062 
  675.48,829.098 676.415,827.773 677.35,825.716 678.285,839.018 679.22,832.053 680.155,827.227 681.09,833.656 682.025,828.332 682.96,829.005 683.895,827.25 
  684.831,824.249 685.766,827.554 686.701,824.317 687.636,832.398 688.571,828.058 689.506,827.505 690.441,827.177 691.376,825.617 692.311,823.708 693.246,823.938 
  694.181,822.223 695.117,823.763 696.052,820.596 696.987,821.784 697.922,821.222 698.857,823.054 699.792,824.861 700.727,821.573 701.662,823.475 702.597,823.393 
  703.532,824.297 704.468,824.232 705.403,824.988 706.338,828.857 707.273,824.885 708.208,824.833 709.143,824.909 710.078,822.023 711.013,825.426 711.948,825.769 
  712.883,824.922 713.819,824.293 714.754,820.547 715.689,822.722 716.624,822.777 717.559,823.11 718.494,820.4 719.429,819.847 720.364,824.186 721.299,824.297 
  722.234,824.468 723.169,828.825 724.105,831.148 725.04,830.346 725.975,836.439 726.91,836.524 727.845,837.066 728.78,844.885 729.715,836.55 730.65,844.117 
  731.585,842.612 732.52,841.317 733.456,844.314 734.391,839.77 735.326,838.172 736.261,831.898 737.196,832.996 738.131,831.831 739.066,825.991 740.001,824.962 
  740.936,819.666 741.871,818.17 742.807,818.012 743.742,817.057 744.677,817.122 745.612,817.371 746.547,816.907 747.482,815.077 748.417,815.107 749.352,816.633 
  750.287,816.216 751.222,817.577 752.157,816.997 753.093,818.941 754.028,818.905 754.963,821.625 755.898,823.787 756.833,826.137 757.768,828.43 758.703,831.081 
  759.638,830.491 760.573,830.535 761.508,833.086 762.444,832.635 763.379,833.62 764.314,831.819 765.249,831.421 766.184,829.521 767.119,830.275 768.054,826.111 
  768.989,829.193 769.924,825.169 770.859,822.425 771.795,825.714 772.73,824.072 773.665,821.233 774.6,821.053 775.535,818.701 776.47,815.614 777.405,813.799 
  778.34,809.814 779.275,808.856 780.21,809.126 781.145,806.674 782.081,799.802 783.016,798.568 783.951,792.981 784.886,793.197 785.821,791.861 786.756,794.845 
  787.691,793.192 788.626,797.852 789.561,802.202 790.496,805.228 791.432,810.658 792.367,812.57 793.302,814.954 794.237,817.81 795.172,814.442 796.107,814.994 
  797.042,815.942 797.977,816.339 798.912,819.553 799.847,819.574 800.782,818.748 801.718,818.099 802.653,820.363 803.588,819.688 804.523,822.176 805.458,821.655 
  806.393,821.65 807.328,823.599 808.263,828.424 809.198,825.869 810.133,823.593 811.069,827.283 812.004,825.52 812.939,823.006 813.874,823.277 814.809,828.001 
  815.744,825.631 816.679,833.557 817.614,827.453 818.549,833.749 819.484,837.947 820.42,834.495 821.355,836.141 822.29,839.53 823.225,837.417 824.16,839.405 
  825.095,837.94 826.03,840.742 826.965,835.971 827.9,840.047 828.835,834.735 829.77,835.283 830.706,832.626 831.641,831.727 832.576,828.796 833.511,826.361 
  834.446,825.415 835.381,826.195 836.316,828.088 837.251,823.712 838.186,818.941 839.121,822.451 840.057,824.74 840.992,819.427 841.927,819.044 842.862,820.645 
  843.797,819.666 844.732,822.923 845.667,826.897 846.602,828.281 847.537,828.94 848.472,834.418 849.408,834.853 850.343,844.052 851.278,848.154 852.213,848.696 
  853.148,850.027 854.083,855.276 855.018,852.299 855.953,852.744 856.888,852.317 857.823,847.67 858.758,849.26 859.694,845.501 860.629,840.731 861.564,838.343 
  862.499,832.934 863.434,830.561 864.369,827.678 865.304,823.313 866.239,823.538 867.174,822.062 868.109,821.018 869.045,813.738 869.98,818.219 870.915,813.011 
  871.85,816.997 872.785,813.007 873.72,817.44 874.655,815.943 875.59,816.797 876.525,817.591 877.46,815.338 878.396,814.495 879.331,815.456 880.266,812.611 
  881.201,817.318 882.136,815.155 883.071,814.955 884.006,815.018 884.941,812.821 885.876,816.711 886.811,815.851 887.746,814.507 888.682,816.255 889.617,815.88 
  890.552,821.543 891.487,822.93 892.422,821.684 893.357,825.049 894.292,829.186 895.227,828.788 896.162,832.174 897.097,831.669 898.033,834.155 898.968,836.85 
  899.903,836.357 900.838,835.559 901.773,833.65 902.708,835.342 903.643,835.503 904.578,835.281 905.513,830.982 906.448,835.126 907.383,835.377 908.319,836.087 
  909.254,832.668 910.189,833.638 911.124,831.226 912.059,831.749 912.994,829.493 913.929,832.079 914.864,839.017 915.799,838.535 916.734,843.529 917.67,855.971 
  918.605,848.733 919.54,864.219 920.475,867.058 921.41,886.261 922.345,922.113 923.28,912.846 924.215,945.728 925.15,951.982 926.085,987.223 927.021,980.326 
  927.956,1005.26 928.891,1016.96 929.826,1040.35 930.761,1013.17 931.696,1025.94 932.631,1032.61 933.566,1011.77 934.501,1013.2 935.436,1025.44 936.371,1016.08 
  937.307,993.979 938.242,984.141 939.177,976.967 940.112,971.981 941.047,964.144 941.982,956.667 942.917,944.845 943.852,948.26 944.787,897.882 945.722,910.993 
  946.658,894.309 947.593,876.26 948.528,861.952 949.463,860.268 950.398,846.458 951.333,846.373 952.268,836.857 953.203,837.053 954.138,834.71 955.073,832.275 
  956.009,830.116 956.944,833.652 957.879,825.485 958.814,820.727 959.749,821.402 960.684,813.847 961.619,816.679 962.554,799.192 963.489,794.697 964.424,788.104 
  965.359,782.399 966.295,778.011 967.23,766.86 968.165,752.977 969.1,749.405 970.035,730.457 970.97,720.327 971.905,709.726 972.84,721.249 973.775,693.206 
  974.71,688.482 975.646,691.136 976.581,679.943 977.516,680.881 978.451,680.024 979.386,669.308 980.321,686.391 981.256,688.803 982.191,684.289 983.126,705.888 
  984.061,712.561 984.997,718.079 985.932,739.557 986.867,754.578 987.802,764.366 988.737,798.149 989.672,804.918 990.607,820.663 991.542,821.994 992.477,821.404 
  993.412,812.932 994.347,821.421 995.283,806.56 996.218,803.474 997.153,798.598 998.088,787.511 999.023,781.123 999.958,773.573 1000.89,771.255 1001.83,766.941 
  1002.76,755.719 1003.7,740.084 1004.63,742.912 1005.57,733.024 1006.5,731.691 1007.44,719.228 1008.37,723.04 1009.31,713.8 1010.24,706.161 1011.18,696.758 
  1012.11,698.024 1013.05,689.871 1013.98,675.571 1014.92,672.116 1015.85,665.973 1016.79,656.448 1017.72,663.556 1018.66,666.049 1019.6,656.86 1020.53,663.882 
  1021.47,674.7 1022.4,689.879 1023.34,702.51 1024.27,716.264 1025.21,728.241 1026.14,745.704 1027.08,760.292 1028.01,774.096 1028.95,796.577 1029.88,805.437 
  1030.82,808.258 1031.75,816.889 1032.69,817.437 1033.62,817.507 1034.56,822.119 1035.49,820.201 1036.43,820.363 1037.36,823.67 1038.3,826.395 1039.23,824.135 
  1040.17,825.533 1041.1,828.911 1042.04,828.036 1042.97,823.552 1043.91,828.864 1044.84,828.652 1045.78,824.888 1046.71,827.508 1047.65,825.632 1048.58,824.301 
  1049.52,824.181 1050.45,820.195 1051.39,819.47 1052.32,820.45 1053.26,818.324 1054.19,819.474 1055.13,824.064 1056.06,822.774 1057,822.824 1057.93,825.556 
  1058.87,830.996 1059.8,829.247 1060.74,821.441 1061.67,818.967 1062.61,817.865 1063.54,814.613 1064.48,805.339 1065.41,800.265 1066.35,784.652 1067.28,777.597 
  1068.22,762.636 1069.16,747.359 1070.09,727.086 1071.03,718.007 1071.96,689.373 1072.9,672.568 1073.83,660.651 1074.77,654.105 1075.7,633.513 1076.64,625.9 
  1077.57,624.693 1078.51,613.567 1079.44,611.892 1080.38,604.576 1081.31,607.405 1082.25,603.962 1083.18,609.109 1084.12,606.457 1085.05,622.554 1085.99,620.929 
  1086.92,627.207 1087.86,622.886 1088.79,629.367 1089.73,633.454 1090.66,629.616 1091.6,615.699 1092.53,628.447 1093.47,630.021 1094.4,623.826 1095.34,606.797 
  1096.27,609.868 1097.21,619.292 1098.14,621.129 1099.08,615.329 1100.01,610.98 1100.95,609.294 1101.88,605.099 1102.82,622 1103.75,627.241 1104.69,627.186 
  1105.62,631.408 1106.56,658.871 1107.49,655.768 1108.43,660.435 1109.36,665.535 1110.3,658.157 1111.23,661.047 1112.17,671.592 1113.1,654.627 1114.04,656.726 
  1114.97,667.501 1115.91,655.284 1116.85,659.636 1117.78,657.741 1118.72,658.023 1119.65,641.847 1120.59,644.498 1121.52,649.927 1122.46,647.106 1123.39,641.815 
  1124.33,652.753 1125.26,645.041 1126.2,657.717 1127.13,662.233 1128.07,663.112 1129,669.187 1129.94,680.061 1130.87,692.388 1131.81,697.624 1132.74,701.018 
  1133.68,716.582 1134.61,722.292 1135.55,725.912 1136.48,734.376 1137.42,734.298 1138.35,741.034 1139.29,740.219 1140.22,741.734 1141.16,750.906 1142.09,753.811 
  1143.03,753.028 1143.96,756.992 1144.9,756.746 1145.83,757.855 1146.77,759.384 1147.7,754.682 1148.64,752.125 1149.57,762.303 1150.51,760.629 1151.44,763.663 
  1152.38,771.399 1153.31,769.923 1154.25,776.623 1155.18,776.367 1156.12,778.749 1157.05,782.072 1157.99,781.928 1158.92,783.434 1159.86,773.494 1160.79,775.416 
  1161.73,776.359 1162.66,762.227 1163.6,750.965 1164.54,735.553 1165.47,726.963 1166.41,709.091 1167.34,706.184 1168.28,697.369 1169.21,691.243 1170.15,669.653 
  1171.08,667.714 1172.02,667.276 1172.95,675.673 1173.89,677.585 1174.82,671.687 1175.76,670.148 1176.69,676.213 1177.63,686.677 1178.56,686.401 1179.5,684.711 
  1180.43,686.566 1181.37,682.531 1182.3,686.478 1183.24,684.463 1184.17,679.326 1185.11,686.527 1186.04,680.667 1186.98,670.788 1187.91,676.821 1188.85,661.717 
  1189.78,657.728 1190.72,660.972 1191.65,646.308 1192.59,629.345 1193.52,626.258 1194.46,597.569 1195.39,581.031 1196.33,567.98 1197.26,547.21 1198.2,513.846 
  1199.13,483.662 1200.07,478.701 1201,424.622 1201.94,395.078 1202.87,390.8 1203.81,384.251 1204.74,385.076 1205.68,348.675 1206.61,370.989 1207.55,342.175 
  1208.48,374.534 1209.42,304.734 1210.35,376.963 1211.29,407.38 1212.22,411.697 1213.16,458.703 1214.1,486.428 1215.03,453.881 1215.97,528.943 1216.9,485.822 
  1217.84,477.483 1218.77,468.851 1219.71,527.341 1220.64,445.623 1221.58,441.528 1222.51,457.549 1223.45,435.823 1224.38,452.457 1225.32,466.255 1226.25,391.556 
  1227.19,349.951 1228.12,414.332 1229.06,365.453 1229.99,360.639 1230.93,332.558 1231.86,356.197 1232.8,392.288 1233.73,336.74 1234.67,197.216 1235.6,347.681 
  1236.54,329.486 1237.47,408.889 1238.41,419.319 1239.34,377.782 1240.28,406.987 1241.21,432.3 1242.15,460.757 1243.08,458.545 1244.02,463.841 1244.95,478.611 
  1245.89,508.129 1246.82,495.969 1247.76,503.939 1248.69,489.719 1249.63,531.99 1250.56,546.214 1251.5,554.414 1252.43,560.803 1253.37,605.669 1254.3,588.47 
  1255.24,614.46 1256.17,644.004 1257.11,663.114 1258.04,654.655 1258.98,651.491 1259.91,688.457 1260.85,684.29 1261.79,681.11 1262.72,648.774 1263.66,685.336 
  1264.59,654.378 1265.53,662.605 1266.46,639.369 1267.4,667.487 1268.33,634.754 1269.27,621.666 1270.2,656.14 1271.14,640.313 1272.07,651.608 1273.01,640.198 
  1273.94,670.387 1274.88,656.129 1275.81,646.586 1276.75,660.318 1277.68,650.165 1278.62,662.751 1279.55,651.55 1280.49,664.485 1281.42,655.538 1282.36,661.904 
  1283.29,649.813 1284.23,677.484 1285.16,690.912 1286.1,693.478 1287.03,698.531 1287.97,677.959 1288.9,679.157 1289.84,688.083 1290.77,667.364 1291.71,687.314 
  1292.64,673.822 1293.58,689.92 1294.51,672.461 1295.45,672.499 1296.38,669.212 1297.32,684.225 1298.25,679.84 1299.19,693.333 1300.12,687.521 1301.06,692.336 
  1301.99,699.701 1302.93,697.334 1303.86,698.74 1304.8,690.303 1305.73,693.129 1306.67,699.293 1307.6,686.246 1308.54,687.963 1309.47,667.323 1310.41,681.965 
  1311.35,670.616 1312.28,655.653 1313.22,674.314 1314.15,667.218 1315.09,648.208 1316.02,633.503 1316.96,656.624 1317.89,652.197 1318.83,667.335 1319.76,677.128 
  1320.7,686.783 1321.63,697.431 1322.57,703.227 1323.5,722.7 1324.44,715.823 1325.37,717.612 1326.31,738.632 1327.24,732.799 1328.18,738.435 1329.11,737.686 
  1330.05,740.252 1330.98,740.641 1331.92,724.19 1332.85,745.46 1333.79,726.918 1334.72,718.874 1335.66,720.269 1336.59,716.613 1337.53,711.125 1338.46,707.577 
  1339.4,717.062 1340.33,713.162 1341.27,720.724 1342.2,703.948 1343.14,710.355 1344.07,717.117 1345.01,717.588 1345.94,716.022 1346.88,723.185 1347.81,728.886 
  1348.75,728.284 1349.68,737.628 1350.62,731.813 1351.55,739.451 1352.49,734.247 1353.42,742.091 1354.36,745.107 1355.29,742.499 1356.23,748.89 1357.16,745.295 
  1358.1,762.86 1359.04,765.807 1359.97,772.449 1360.91,779.006 1361.84,782.135 1362.78,787.469 1363.71,790.237 1364.65,795.544 1365.58,796.676 1366.52,801.876 
  1367.45,805.086 1368.39,805.006 1369.32,807.896 1370.26,808.644 1371.19,808.41 1372.13,809.31 1373.06,808.984 1374,805.527 1374.93,802.206 1375.87,794.796 
  1376.8,797.614 1377.74,791.671 1378.67,787.304 1379.61,779.432 1380.54,776.93 1381.48,770.364 1382.41,764.011 1383.35,763.406 1384.28,752.864 1385.22,749.965 
  1386.15,743.773 1387.09,744.014 1388.02,736.931 1388.96,745.388 1389.89,734.635 1390.83,733.972 1391.76,732.877 1392.7,737.631 1393.63,732.642 1394.57,745.583 
  1395.5,735.078 1396.44,736.072 1397.37,741.42 1398.31,744.046 1399.24,745.823 1400.18,744.163 1401.11,752.164 1402.05,753.873 1402.98,755.276 1403.92,753.687 
  1404.85,753.041 1405.79,754.142 1406.73,755.281 1407.66,750.495 1408.6,757.466 1409.53,753.852 1410.47,752.217 1411.4,749.429 1412.34,742.287 1413.27,745.562 
  1414.21,744.302 1415.14,746.709 1416.08,742.105 1417.01,739.062 1417.95,737.986 1418.88,730.433 1419.82,741.853 1420.75,734.434 1421.69,731.231 1422.62,731.7 
  1423.56,724.813 1424.49,722.304 1425.43,728.876 1426.36,719.883 1427.3,723.951 1428.23,721.083 1429.17,719.211 1430.1,714.909 1431.04,720.624 1431.97,722.062 
  1432.91,730.489 1433.84,732.278 1434.78,739.181 1435.71,753.617 1436.65,754.334 1437.58,761.292 1438.52,765.027 1439.45,774.511 1440.39,784.878 1441.32,786.146 
  1442.26,791.666 1443.19,792.149 1444.13,799.485 1445.06,802.151 1446,809.976 1446.93,813.829 1447.87,810.336 1448.8,814.432 1449.74,817.522 1450.67,817.758 
  1451.61,819.255 1452.54,817.556 1453.48,821.41 1454.41,818.186 1455.35,814.424 1456.29,810.206 1457.22,811.151 1458.16,806.034 1459.09,800.761 1460.03,791.554 
  1460.96,785.79 1461.9,780.7 1462.83,777.734 1463.77,769.688 1464.7,765.533 1465.64,769.364 1466.57,763.294 1467.51,767.787 1468.44,771.855 1469.38,771.93 
  1470.31,770.267 1471.25,777.094 1472.18,778.604 1473.12,782.587 1474.05,784.147 1474.99,780.751 1475.92,781.146 1476.86,778.658 1477.79,777.94 1478.73,772.206 
  1479.66,762.972 1480.6,758.464 1481.53,747.262 1482.47,741.114 1483.4,729.216 1484.34,716.277 1485.27,719.173 1486.21,723.913 1487.14,729.772 1488.08,724.732 
  1489.01,742.651 1489.95,747.061 1490.88,752.992 1491.82,766.74 1492.75,773.407 1493.69,779.482 1494.62,791.987 1495.56,802.298 1496.49,814.142 1497.43,820.554 
  1498.36,828.358 1499.3,836.608 1500.23,844.139 1501.17,848.263 1502.1,854.079 1503.04,863.84 1503.98,867.216 1504.91,874.044 1505.85,877.582 1506.78,881.166 
  1507.72,885.575 1508.65,884.941 1509.59,887.1 1510.52,888.162 1511.46,890.209 1512.39,890.085 1513.33,888.337 1514.26,889.56 1515.2,887.745 1516.13,884.833 
  1517.07,882.702 1518,881.085 1518.94,876.402 1519.87,871.43 1520.81,866.253 1521.74,862.53 1522.68,853.974 1523.61,846.338 1524.55,839.94 1525.48,830.648 
  1526.42,826.856 1527.35,811.468 1528.29,810.704 1529.22,807.568 1530.16,808.292 1531.09,797.423 1532.03,797.296 1532.96,794.655 1533.9,798.504 1534.83,791.946 
  1535.77,794.003 1536.7,791.95 1537.64,798.604 1538.57,788.734 1539.51,793.923 1540.44,793.492 1541.38,790.673 1542.31,786.517 1543.25,789.503 1544.18,787.628 
  1545.12,788.994 1546.05,787.114 1546.99,787.076 1547.92,791.886 1548.86,789.652 1549.79,790.457 1550.73,791.499 1551.66,790.652 1552.6,797.172 1553.54,802.563 
  1554.47,803.629 1555.41,805.96 1556.34,815.961 1557.28,820.253 1558.21,820.401 1559.15,828.725 1560.08,835.649 1561.02,837.782 1561.95,837.113 1562.89,836.832 
  1563.82,836.598 1564.76,831.073 1565.69,830.578 1566.63,831.641 1567.56,825.054 1568.5,822.781 1569.43,822.659 1570.37,817.375 1571.3,812.675 1572.24,815.3 
  1573.17,810.715 1574.11,806.893 1575.04,802.128 1575.98,802.836 1576.91,797.9 1577.85,794.589 1578.78,790.893 1579.72,791.73 1580.65,784.217 1581.59,784.783 
  1582.52,783.873 1583.46,782.061 1584.39,776.911 1585.33,778.305 1586.26,782.826 1587.2,782.771 1588.13,782.991 1589.07,784.169 1590,786.221 1590.94,787.612 
  1591.87,790.107 1592.81,797.591 1593.74,798.424 1594.68,795.857 1595.61,799.788 1596.55,798.093 1597.48,798.876 1598.42,798.45 1599.35,797.473 1600.29,794.768 
  1601.23,791.673 1602.16,783.746 1603.1,779.661 1604.03,772.227 1604.97,765.721 1605.9,755.601 1606.84,734.432 1607.77,734.468 1608.71,710.466 1609.64,687.774 
  1610.58,690.013 1611.51,700.314 1612.45,687.022 1613.38,671.473 1614.32,676.228 1615.25,662.209 1616.19,655.057 1617.12,686.374 1618.06,682.279 1618.99,683.189 
  1619.93,676.355 1620.86,706.314 1621.8,714.117 1622.73,708.555 1623.67,720.263 1624.6,727.283 1625.54,724.716 1626.47,737.039 1627.41,738.696 1628.34,744.008 
  1629.28,758.913 1630.21,756.215 1631.15,762.639 1632.08,763.169 1633.02,770.278 1633.95,764.861 1634.89,776.361 1635.82,773.84 1636.76,771.237 1637.69,771.976 
  1638.63,776.961 1639.56,780.467 1640.5,777.746 1641.43,785.822 1642.37,788.062 1643.3,789.688 1644.24,787.862 1645.17,787.191 1646.11,792.71 1647.04,792.915 
  1647.98,792.796 1648.92,790.893 1649.85,789.907 1650.79,787.489 1651.72,786.791 1652.66,783.711 1653.59,785.861 1654.53,776.809 1655.46,777.89 1656.4,778.631 
  1657.33,776.316 1658.27,773.808 1659.2,767.085 1660.14,767.901 1661.07,762.084 1662.01,758.579 1662.94,760.151 1663.88,768.148 1664.81,767.017 1665.75,772.131 
  1666.68,768.653 1667.62,772.68 1668.55,779.15 1669.49,780.843 1670.42,785.91 1671.36,791.044 1672.29,792.538 1673.23,799.959 1674.16,798.748 1675.1,802.036 
  1676.03,800.609 1676.97,801.93 1677.9,802.159 1678.84,805.103 1679.77,802.942 1680.71,802.364 1681.64,799.204 1682.58,802.163 1683.51,802.213 1684.45,796.872 
  1685.38,798.335 1686.32,794.404 1687.25,792.242 1688.19,792.702 1689.12,791.556 1690.06,784.636 1690.99,783.276 1691.93,783.445 1692.86,776.595 1693.8,780.614 
  1694.73,778.756 1695.67,779.378 1696.6,780.957 1697.54,774.664 1698.48,781.215 1699.41,780.05 1700.35,779.826 1701.28,782.819 1702.22,783.07 1703.15,784.977 
  1704.09,784.359 1705.02,790.829 1705.96,787.243 1706.89,793.545 1707.83,791.354 1708.76,796.362 1709.7,796.835 1710.63,795.537 1711.57,797.263 1712.5,793.671 
  1713.44,796.894 1714.37,792.278 1715.31,794.835 1716.24,795.127 1717.18,793.799 1718.11,792.1 1719.05,795.373 1719.98,790.948 1720.92,792.155 1721.85,789.87 
  1722.79,795.051 1723.72,792.732 1724.66,794.236 1725.59,795.335 1726.53,799.658 1727.46,799.387 1728.4,801.766 1729.33,801.499 1730.27,801.784 1731.2,803.5 
  1732.14,802.943 1733.07,805.244 1734.01,808.177 1734.94,806.815 1735.88,807.854 1736.81,806.529 1737.75,808.971 1738.68,808.421 1739.62,808.231 1740.55,808.998 
  1741.49,808.262 1742.42,809.148 1743.36,807.639 1744.29,808.007 1745.23,805.261 1746.17,806.478 1747.1,804.81 1748.04,802.54 1748.97,801.079 1749.91,800.223 
  1750.84,798.791 1751.78,795.091 1752.71,784.989 1753.65,780.678 1754.58,777.064 1755.52,769.556 1756.45,768.517 1757.39,758.9 1758.32,752.089 1759.26,742.351 
  1760.19,736.879 1761.13,727.118 1762.06,723.827 1763,727.777 1763.93,726.33 1764.87,720.173 1765.8,727.761 1766.74,737.012 1767.67,735.077 1768.61,737.079 
  1769.54,735.924 1770.48,741.352 1771.41,750.814 1772.35,742.595 1773.28,749.365 1774.22,751.044 1775.15,750.589 1776.09,753.873 1777.02,753.132 1777.96,761.128 
  1778.89,750.957 1779.83,754.625 1780.76,750.502 1781.7,747.819 1782.63,735.373 1783.57,733.747 1784.5,722.944 1785.44,716.683 1786.37,710.344 1787.31,702.757 
  1788.24,692.917 1789.18,684.989 1790.11,679.952 1791.05,679.379 1791.98,674.664 1792.92,673.49 1793.85,676.385 1794.79,666.661 1795.73,674.922 1796.66,677.455 
  1797.6,686.088 1798.53,682.631 1799.47,690.414 1800.4,690.558 1801.34,695.992 1802.27,688.534 1803.21,685.828 1804.14,679.708 1805.08,681.466 1806.01,680.12 
  1806.95,665.612 1807.88,675.394 1808.82,675.266 1809.75,669.83 1810.69,666.891 1811.62,658.939 1812.56,651.526 1813.49,652.454 1814.43,641.378 1815.36,645.4 
  1816.3,633.1 1817.23,620.101 1818.17,605.043 1819.1,592.241 1820.04,610.026 1820.97,602.271 1821.91,606.162 1822.84,618.631 1823.78,627.977 1824.71,616.931 
  1825.65,655.794 1826.58,655.646 1827.52,667.687 1828.45,655.774 1829.39,680.44 1830.32,684.765 1831.26,688.481 1832.19,682.79 1833.13,700.705 1834.06,699.269 
  1835,692.003 1835.93,700.885 1836.87,704.321 1837.8,695.319 1838.74,700.051 1839.67,700.325 1840.61,712.209 1841.54,716.968 1842.48,708.593 1843.42,706.158 
  1844.35,723.542 1845.29,713.733 1846.22,714.126 1847.16,716.515 1848.09,711.057 1849.03,709.096 1849.96,703.341 1850.9,698.126 1851.83,695.986 1852.77,681.631 
  1853.7,684.119 1854.64,679.244 1855.57,679.398 1856.51,696.061 1857.44,681.586 1858.38,695.207 1859.31,708.49 1860.25,707.358 1861.18,719.028 1862.12,705.75 
  1863.05,707.432 1863.99,712.138 1864.92,732.118 1865.86,738.466 1866.79,741.718 1867.73,747.62 1868.66,746.527 1869.6,761.487 1870.53,768.419 1871.47,763.445 
  1872.4,766.387 1873.34,770.972 1874.27,780.09 1875.21,780.065 1876.14,776.092 1877.08,782.146 1878.01,778.975 1878.95,788.809 1879.88,783.742 1880.82,779.266 
  1881.75,782.982 1882.69,769.841 1883.62,769.628 1884.56,763.963 1885.49,757.925 1886.43,762.36 1887.36,752.242 1888.3,752.494 1889.23,754.856 1890.17,752.598 
  1891.1,756.275 1892.04,756.928 1892.98,754.333 1893.91,755.284 1894.85,759.79 1895.78,754.787 1896.72,763.995 1897.65,761.915 1898.59,757.859 1899.52,752.328 
  1900.46,746.14 1901.39,753.783 
  "/>
</svg>
